<?xml version="1.0" encoding="utf-8"?>
<!-- Generator: Adobe Illustrator 21.0.0, SVG Export Plug-In . SVG Version: 6.00 Build 0)  -->
<svg version="1.1" id="Layer_2" xmlns="http://www.w3.org/2000/svg" xmlns:xlink="http://www.w3.org/1999/xlink" x="0px" y="0px"
	 viewBox="0 0 800 500" style="enable-background:new 0 0 800 500;" xml:space="preserve">
<style type="text/css">
	.st0{fill:#03EDFF;}
	.st1{fill:#23EFFF;}
	.st2{fill:#FFFFFF;}
	.st3{fill:#1AFF0C;}
	.st4{fill:#8C8C8C;}
</style>
<g>
	<g>
		<circle class="st0" cx="327" cy="237.8" r="55.2"/>
		<g>
			<g>
				<g>
					<g>
						<path class="st1" d="M271.1,237.8c0.1,0.2,0.3,0.1,0.3-0.4l-0.3-0.4L271.1,237.8z"/>
						<path class="st1" d="M271.9,234.4c-0.1-0.6-0.4-1.3-0.7-0.9c0.3,0.6,0.1,0.8,0.5,1.4c0,0.5-0.2,0.9-0.3,0.8
							c0.1,0.2-0.1,0.8,0.1,1.1c0.3-0.7,0.3-1.5,0.2-2.4C271.8,234.2,271.8,234.3,271.9,234.4z"/>
						<path class="st1" d="M295.3,193.2l-0.3,0.2C295.1,193.3,295.2,193.2,295.3,193.2z"/>
						<path class="st1" d="M323.4,183.4c-0.2,0-0.3,0.1-0.3,0.1C323.3,183.4,323.5,183.4,323.4,183.4z"/>
						<path class="st1" d="M328.5,183.6c-0.1,0-0.2,0-0.3,0C328.3,183.6,328.5,183.6,328.5,183.6z"/>
						<path class="st1" d="M295.3,193.2l0.7-0.4C296,192.7,295.6,193,295.3,193.2z"/>
						<path class="st1" d="M271.9,227.5c0,0.2,0,0.3,0,0.5C271.9,227.8,272,227.7,271.9,227.5C271.9,227.5,271.9,227.5,271.9,227.5z
							"/>
						<path class="st1" d="M285.7,202.3l-0.2,0.2c0,0.1,0,0.2,0,0.2L285.7,202.3z"/>
						<path class="st1" d="M279.9,210.6c0.1-0.2-0.1-0.4-0.1-0.5c0,0.2,0,0.3-0.1,0.5C279.7,210.7,279.7,210.7,279.9,210.6z"/>
						<path class="st1" d="M273.5,225.5l0,0.3C273.5,225.7,273.5,225.5,273.5,225.5z"/>
						<path class="st1" d="M290.8,197.2c0,0,0.1,0,0.1,0C290.9,197.2,290.9,197.2,290.8,197.2z"/>
						<path class="st1" d="M271.8,249.9C271.8,249.9,271.8,249.9,271.8,249.9C271.8,249.8,271.8,249.8,271.8,249.9z"/>
						<path class="st1" d="M271.9,237.8l0,0.2c0.1,0,0.1,0,0.2,0L271.9,237.8z"/>
						<path class="st1" d="M337.7,185C337.7,185,337.7,185,337.7,185C337.5,185,337.6,185,337.7,185z"/>
						<path class="st1" d="M379.8,249.2c0.5-0.9-0.1,1.6,0.6,0.2C380.3,249.6,380.3,248.1,379.8,249.2z"/>
						<path class="st1" d="M272,227.2l0.1-0.4C272,227,272,227.1,272,227.2z"/>
						<path class="st1" d="M380.4,249.5L380.4,249.5l0.1-0.1C380.4,249.4,380.4,249.4,380.4,249.5z"/>
						<path class="st1" d="M357.4,193.1c0-0.1-0.1-0.1-0.1-0.2C357.3,192.9,357.3,193,357.4,193.1z"/>
						<path class="st1" d="M343.2,185.8l0.4,0.2C343.4,185.9,343.3,185.8,343.2,185.8z"/>
						<path class="st1" d="M364.1,198c0.1,0.2,0.2,0.2,0.4,0.4c0,0,0-0.1,0-0.1C364.4,198.3,364.3,198.2,364.1,198z"/>
						<path class="st1" d="M370,204.5c0-0.1,0-0.1-0.1-0.2c-0.1-0.1-0.1-0.1-0.2-0.2L370,204.5z"/>
						<path class="st1" d="M284,274.2c-0.1-0.2-0.1-0.3-0.1-0.5C283.8,274,282.9,273,284,274.2z"/>
						<path class="st1" d="M272.1,227.5c-0.1-0.1-0.1-0.1-0.1-0.3c0,0.1,0,0.2,0,0.3C272,227.6,272,227.6,272.1,227.5z"/>
						<path class="st1" d="M365.9,196.7l1,1C366.7,197.4,366.3,197,365.9,196.7z"/>
						<path class="st1" d="M342.6,291.9l-0.3,0.1C342.4,292,342.5,292,342.6,291.9z"/>
						<path class="st1" d="M369.9,200.8c0.1,0.3,0.2,0.5,0.4,0.7c0.1,0,0.1,0.1,0.2,0.1L369.9,200.8z"/>
						<path class="st1" d="M283.9,273.7L283.9,273.7L283.9,273.7z"/>
						<path class="st1" d="M278,266.4c0.7,1.2,0.6,0.4,1,0.5c0.9,1.3,0.2,0.8,0.3,1.4c0.3,0.4,0.6,0.7,0.9,1
							c0.3,0.3,0.6,0.5,0.8,0.9c0,0.1,0.1,0.2-0.1,0.1c0.9,0.7,1.9,2.6,3,3.3c0,0.1,0,0.1,0,0.2c0-0.3,0.1-0.4,0.3-0.5
							c0.4,0.4,0.9,0.7,0.9,1c-0.2-0.3-0.3-0.2-0.5-0.3l0.5,0.4c0.1,0.7-0.7-0.6-0.9-0.4c0.9,0.9,2.1,1.7,2.7,2.5
							c-0.1,0.4-1.6-1.6-0.9-0.4l-0.9-1.2c0.4,1.2-0.6-0.7-0.3,0.5c0.6,0.8,1,1.1,1.4,1.5c0.4,0.4,0.8,0.8,1.5,1.5
							c0.5,0.2,0.1-0.3,0.5-0.1c2.3,1.6,1,2.1,2.8,3.1c0.6,0.2,1-0.1,2,1l-0.6,0c1.5,1.2,1.2,0.2,2.6,1.6c-0.4-0.1-1.3-0.8-1.1-0.6
							c0.9,1,0.9,0.4,1.6,1l0,0.4c0.9,0.5,1.8,1,2.8,1.5c1,0.5,1.9,1,3,1.5c-0.2,0-0.5,0-0.1,0.3c1.3,0.5,2.6,1.2,4,1.9
							c1.4,0.6,2.7,1.2,4,1.7l1.1,0.1c0.2,0.1,0.4,0.2,0.1,0.2c1,0.4,0.1-0.2,0.6-0.1c0.6,0.1,0.7,0.4,0.3,0.3
							c0.9,0.1,2.3,0.3,3.6,0.6c0.3,0.1,0.7,0.1,1,0.2c0.3,0.1,0.6,0.1,1,0.1c0.6,0.1,1.2,0.2,1.7,0.4l-0.4,0
							c1.5,0.3,1.8-0.3,3.1,0.1l-0.3,0c1.6,0.2,3.4,0.2,5,0.3c0.4,0,0.8,0,1.2,0.1c0.4,0,0.8,0,1.2,0c0.7,0,1.5,0,2.1,0.1
							c0.2-0.2,1-0.2,1.8-0.2c0.8,0,1.5-0.2,1.6-0.4c1.9,0,1.4,0.2,4.1,0c0.7-0.1,1-0.6,1.8-0.8l0.1,0.3l1.1-0.6l0.7,0.2l0.8-0.3
							c-0.3,0.1-0.7,0-0.7-0.1c0.6-0.2,1.4-0.4,2-0.4c0.6-0.1,1.1-0.2,1.1-0.1l2.8-1.3c0,0.1-0.5,0.4-0.8,0.6
							c1.4-0.9,0.4,0.2,1.7-0.6c-0.2,0,0-0.2,0-0.3c0.8-0.1,2.3-0.9,3.4-1.5l-0.1,0.3c0.5-0.2,1-0.5,1.6-0.8
							c0.3-0.1,0.5-0.3,0.8-0.4c0.3-0.2,0.5-0.3,0.8-0.5c1-0.7,2.1-1.4,3.2-2c-0.8,0.4-0.9,0-0.2-0.4l0.4,0.1c0.3-0.4-0.7,0.3,0-0.4
							c0.8-0.5,0.7-0.1,0.3,0.3l0.9-0.8c0.1,0-0.1,0.2-0.1,0.4c0.3-0.4,1.8-0.9,2.1-1.6l0.1,0c0.5-0.4,0.9-0.7,1.3-1
							c0.4-0.3,0.7-0.7,1-0.9c0.6-0.6,1.2-1.2,2-1.9c-0.2-0.2,0.5-0.7,0.8-1.3c1.1-1.1,2.4-2.2,3.6-3.5c0.7-1.1,0.1-0.4,0.3-1
							c0.3,0.1,1.3-1.4,0.9-0.5c0.6-0.9,1.1-1.5,1.5-2.1c0.2-0.3,0.4-0.7,0.7-1.1c0.2-0.4,0.5-0.9,0.8-1.5c-0.2,0.2-0.5,0.5-0.4,0.3
							c0.2-0.5,0.7-0.9,0.8-0.8l0,0.1c0.6-1.4,1.8-2.8,2.6-4.3c0.4-0.7,0.9-1.5,1.2-2.2c0.2-0.3,0.3-0.7,0.5-1
							c0.1-0.3,0.2-0.7,0.2-1l0,0.1l0.6-2.5c0.4-1.1-0.1,0.7,0.4,0c0.1-0.7,0.3-1.3,0.5-1.8c0.1-0.6,0.3-1.1,0.4-1.6
							c0.3-1,0.6-1.9,0.7-3.1c0.1-0.2,0.3-0.4,0.4-0.7c0.1-0.3,0.2-0.6,0.3-1c0.1-0.7,0.3-1.5,0.4-2.3c0.1-0.8,0.2-1.7,0.3-2.4
							c0-0.8,0.1-1.5,0.3-2.1l-0.2,0.1c-0.1-0.6,0.1-0.7,0.2-1.2c-0.1,0.1-0.2,0.7-0.3,0.3c0.1-2.6,0-5.3-0.1-8
							c-0.1-1.4-0.3-2.7-0.4-4.1c-0.1-0.7-0.1-1.4-0.2-2c-0.1-0.7-0.3-1.3-0.4-2c-0.4-1.9-1.2-0.8-1.4-3.4l0.5,0.6
							c-0.2-0.5-0.3-0.9-0.6-1.4l-0.6-1.4c-0.4-0.9-0.7-1.9-1.1-2.8c-0.8-1.8-1.7-3.7-2.7-5.3c0.2,0.2,0.3,0.1,0.4,0.5
							c-0.2-0.8-1.6-2.6-1.7-2.5c-0.3-0.5,0.1-0.2,0-0.6c-0.3-0.8-1.3-1.6-1.4-2.1c0-0.1,0.2,0.1,0.3,0.3c-0.4-0.4-1.5-2-1.4-1.5
							c-0.8-1.2-1.7-2.2-2.4-3.2c-0.7-0.4-1.6-1.9-2.1-1.8c0.4-0.2-1.4-2.2-2.3-2.6c0.3,0.1-0.5-0.6-0.1-0.5c-0.8-0.7-1.6-1.3-1.6-1
							c-1-1.8-3.3-2.1-3.7-3.3c-0.7-0.4-1.3-0.8-1.9-1.2c-0.7-0.4-1.3-0.7-2-1c-0.6-0.3-1.3-0.7-1.9-1l-0.9-0.5l-1-0.4
							c0.1-0.2,0.9,0.1,1.5,0.5c0.6,0.4,1.3,0.7,1.3,0.5c-0.6-0.3-1.1-0.6-1.6-0.8c-0.5-0.2-1-0.4-1.5-0.6c-1-0.4-2-0.7-3.1-1.4
							c-0.6-0.4,0.4,0,0.7,0c-1.2-0.5-2.5-0.9-3.6-1.4c-0.6-0.2-1.2-0.4-1.7-0.6c-0.3-0.1-0.6-0.2-0.9-0.3c-0.3-0.1-0.6-0.1-0.9-0.2
							c0,0,0.3,0,0.5,0c-0.5-0.1-1-0.3-1-0.1l0.5,0.1c0.6,0.5-2,0.1-2.1,0.3c0.9-0.4-2.2-0.7-0.8-1.1c-0.3,0-0.7,0-0.7,0.1
							c-0.4-0.2-0.6-0.3-0.1-0.3c-0.8-0.2-1.1-0.1-1.4-0.1c-0.3,0-0.5,0-1.2-0.1c0-0.1,0.3-0.1,0.5-0.2c-0.8,0.1-1.6,0.2-2.8-0.1
							c0.1,0-0.1-0.1,0.3-0.1c-2.2-0.4-3.7,0.2-6.1-0.2c0.7-0.4-0.8-0.2-0.9-0.6c-0.4,0-0.9,0.1-1.3,0.1l0.5,0.2
							c-1.1,0-2.1,0.4-3.1,0.3l0.8-0.2l-2.1,0.2l1.2,0.1c-1.1,0.2,0.2,0.5-1.3,0.4c0.3,0-1.1,0-1.7-0.1l0,0
							c-0.5,0.2-1.1,0.4-1.9,0.4c-0.2-0.1,0.1-0.4,0-0.5c-0.5,0.4-2.6,0.4-3.2,1c0.2-0.1,0.2-0.3,0.1-0.3l-0.4,0.4
							c-0.5,0.1-0.6,0-0.6-0.1c-1.5,0.3,0.6,0.3-1.3,0.6c0.1-0.1,0.1-0.1,0.3-0.2c-0.9,0.2-1.8,0.4-2.6,0.7
							c-0.9,0.2-1.6,0.6-2.5,0.8c-0.6-0.2,1.4-0.6,0.7-0.7c-1.2,0.5-2.3,1-3.5,1.5c-1.2,0.5-2.2,1.2-3.3,1.7l0.4-0.2
							c-0.1,0.6-1.7,0.5-2.7,1.3c0.2-0.2,0.2-0.5,0.2-0.4c-1.4,0.8-2.8,1.8-4.8,3.3l0.2-0.3c-0.8,0.5-2.1,1.5-3,2
							c-0.2,0.3-0.7,0.6-0.2,0.6c-0.4,0.2-0.7,0.3-1.1,0.6c-0.3,0.2-0.6,0.5-0.9,0.7c-0.6,0.5-1.1,1.1-1.6,1.6
							c-0.5,0.6-1,1.1-1.5,1.6c-0.5,0.5-1,1-1.6,1.5c0.2-0.3,0.5-0.7,0.3-0.5l-1.5,1.9c0.3,0,0.3-0.1,0.8-0.4
							c-0.1,0.3-0.5,0.9-0.9,1.3c0.6-0.9-0.3-0.3-0.7,0.1c0.1,0,0.1,0.2,0.1,0.2c-1.1,0.8,0.2,0.5-1,1.7l0-0.1
							c-0.3,0.6-0.6,1.1-1,1.7c-0.4,0.1,0.3-0.6,0.2-0.8c-0.6,0.8-0.8,1.8-1.4,2.4c0.2-0.4,0.5-0.9,0.7-1.3
							c-0.8,0.6-0.8,0.8-1.2,1.4l0-0.1l-1,1.4l0.3-0.3c0,0.7-0.3,1.3-0.7,1.8c-0.2,0.3-0.4,0.6-0.5,0.9c-0.1,0.3-0.3,0.7-0.3,1.1
							c0.3-1.6-0.1-0.4-0.3-0.6c-0.3,0.3-0.6,0.9-0.6,0.7c-0.1,0.8-0.7,1.1-0.9,2.3c-0.1,0-0.4,0.8-0.5,0.5c-0.4,1,0.3-0.2,0.3,0
							c-0.2,0.8-0.6,1.6-1,2.5c-0.4,0.9-0.9,1.9-1,3.1c-0.4,1.9-0.1,2.4-0.4,4.1c-0.3,0.6-0.2-0.6-0.2-0.6c-0.4,0.9-0.6,1.6-0.6,2.6
							c-0.1-0.2-0.2,0-0.3,0.2c-0.1,0.7,0.3,0.6,0,1.5c-0.1-0.2-0.2-0.4-0.3-0.8c0,0.9,0,1.8,0,2.7c-0.2,0.2-0.2-0.6-0.2-0.9
							c-0.1,1-0.3,2.6,0,3l0.1-0.6c0,0.4-0.3,0.2-0.3-0.1c-0.1-0.9,0.3-1.2,0.4-1.3l0,0.6c0.7-0.6,0.3-2.6,0.5-3.8l0.3,0.6l-0.1-1.4
							c0.2-0.3,0.4-0.4,0.4,0.2c0.4-0.9,0-0.8,0.5-1.5c0.1-0.1,0.1,0,0.1,0l0.1-0.9c0,0.2,0.3-0.1,0.1,0.4c0.6-1.5,0.3-2.6,0.8-3.1
							l0,0.1c0.5-2.2-0.3-0.3,0-2l1.1-0.8l-0.2-0.3c0.1-0.2,0.3-0.6,0.4-0.5c0.1-0.9-0.2,0.1-0.2-0.4c0.3-0.5,0.5-1.2,0.8-1.8
							c0.3-0.6,0.5-1.1,0.8-1.1c0-0.5-0.6,0.9-0.3-0.3c0.6-0.1,0.5-1.3,1.2-2.1c0.1,0.4-0.4,1.2,0.2,0.4c-0.1-0.4,0.2-0.8,0.5-1.2
							c0.3-0.4,0.7-0.8,0.9-1.2c-0.3-0.2,0.8-1.7,1.5-3c0,0.1,1.7-2.1,2.6-3.1l0,0.1c-0.1-0.2,0.1-0.6,0.4-1
							c0.3-0.4,0.6-0.9,0.9-1.3c0.1,0.2,0.1,0.4-0.2,0.8c0.2-0.2,0.4-0.5,0.6-0.7c0.1-0.2,0.2-0.5,0.6-1l0,0.4
							c0.8-0.9,1.4-2.1,2.7-3.1c-0.1-0.2-1.5,0.4-0.3-0.9c0.1,0.1,0.4,0.2,0.1,0.5c0.1-0.1,0.3-0.4,0.6-0.6l-0.3,0.6
							c0.6-0.4,0.1-0.4,0.6-0.8c0.1,0.2,0.4-0.2,0.5,0c-0.1,0.1-0.4,0.3-0.5,0.5c0.5-0.4,1.2-0.9,1.5-0.9c-0.1,0-0.2-0.2,0.2-0.5
							c0.9-0.9,0.5-0.1,1.1-0.5c0.1-0.3,0.8-0.7,0.7-0.9c0.3-0.2,0.4-0.2,0.6-0.2c0.4-0.5,2.4-1.8,1.6-1.7l-0.1,0.1c0,0,0,0,0.1-0.1
							c0,0,0,0,0,0l0,0c0.4-0.4,0.8-0.7,1.2-1.1c0.4-0.3,0.9-0.6,1.4-0.8c1-0.5,2-1,2.8-1.6l0,0.1c1-0.7,2.5-1.3,3.2-1.9
							c0.3-0.2,0.9-0.2,0.8,0c0.8-0.5,0.9-0.7,2.2-1c-0.8,0.5,0.4,0-0.9,0.5c1.2-0.4,1.5-0.3,2.7-1c-0.3,0.4,1,0,1.5-0.3l-0.9,0.1
							c0.6-0.3,1.2-0.4,1.7-0.6l-0.2,0.4c1.3-0.2,2.3-0.6,3.3-1c1-0.4,1.9-0.8,3-0.6c0.6-0.3-1.4,0-0.9-0.3c1.2-0.1,2.5,0.2,2.8,0.1
							c1.6,0,1.4-0.8,3.1-0.8c-0.2-0.1-0.5-0.4,0.8-0.6c1.2,0,1.5,0.4,0.7,0.6c-0.3,0-0.4,0-0.4,0c-0.4,0.1-0.9,0.1-0.4,0.2l0.1-0.1
							c0.6,0.1,2.2,0,1.8,0.2c0.9-0.2,0.4-0.2-0.3-0.2c1.5,0.1,2.3-0.2,3.9,0c-0.2-0.1-0.5-0.2-0.2-0.2c2.3,0.3,1-0.2,2.5-0.1
							c0.9,0.2-0.3,0.4,1.2,0.3c0.9,0.2,0.2,0.3-0.2,0.4c0.4,0,0.7,0,1,0c0.3,0.1,0.6,0.1,0.9,0.2c0.6,0.2,1,0.3,1.4,0.4l-0.7,0
							c0.4,0,0.8,0.1,1.2,0.1l-0.4-0.3c0.4,0.1,0.8,0.2,0.8,0.3c0.5-0.1-0.3-0.4,0.6-0.5c0.5,0.2,1.8,0.1,1.9,0.5
							c-1.8-0.4,0.1,0.3-1.4,0.1c0.3,0,0.7,0.1,1.1,0.2c0.1,0.1-0.1,0-0.2,0.1c1.6,0.7,0.8-0.2,2.6,0.3c-0.3,0.1,0.3,0.4,0.6,0.5
							c-0.7-0.2-0.3-0.4,0.4-0.3c1.1,0.4,1.2,0.2,1.8,0.4l-0.7-0.2c0.3-0.1,0.8,0,1.6,0.3c0,0.2-0.7-0.2-0.5,0c0.9,0,1.8,1,3,1.2
							c0.5,0.3-0.1,0.3,0.4,0.6c1.4,0.2,1.3,0.8,2.7,1.2c-0.3-0.4-0.4-0.4,0.7-0.1l-2.2-0.9l1.5,0.4c-0.7-0.3-1.4-0.6-1.8-0.7
							c0.8,0.1,0.7,0.1,0.4-0.2c0.8,0.8,1.9,0.7,2.8,1.4l-0.3,0.5c0.7,0.5,1.5,0.7,2.2,1.1c0.8,0.4,1.6,0.7,2.5,1.4l-0.6-0.5
							c0.4,0,1.2,0.7,1.9,1c-0.2,0.1,0.2,0.4,0.4,0.7c0.1-0.1,1.3,1,1.7,0.8l0.7,0.8c1.4,1.2,2.1,0.8,3.3,2c-0.5-0.2,0,0.4-1-0.2
							c0.4,0.4,0.8,0.8,0.9,0.7c0.2,0.3,1.4,0.9,1.7,1.4c0.2,0.1,0.4,0,0.9,0.5c0,0.1-0.1,0.1-0.1,0.1c0.1-0.1,0.8,0.6,0.6,0.1
							c0.4,0.9,1.2,1.8,2.1,2.7c0.4,0.5,0.8,0.9,1.2,1.3c0.3,0.5,0.6,0.9,0.7,1.3c0.8,1,1.8,2.2,2.5,3.1c-0.1,0-0.1,0.1-0.2-0.1
							c0.7,1.5,1,0.5,1.8,2.2c0.2,1-0.7-0.7-0.5-0.2c-0.2,0.3,0.1,0.7,0.5,1.3c0.4,0.5,0.9,1.2,1,1.8l-0.2-0.2
							c0.2,0.9,1.2,1.9,1.8,3.3c0,0-0.1,0-0.1,0c0.8,0.8,1.5,2.6,2.2,4c-0.4-0.3-0.4-0.6-0.5-0.2c0.3,0.6,0.3-0.3,0.8,0.9
							c0,0.5,0.3,1.4,0,1.6c-0.1-0.4-0.3-0.8-0.4-1.2c-0.1,0.4,0.1,0.7,0.2,1.1c0.1,0.4,0.3,0.8,0.4,1.1l-0.2,0
							c0.5,1.8,0.9,1.8,1.4,3.8l0.1-0.2c0.6,1,0,1,0.4,2l-0.3,0.4c0.2,0.7,0.8,2.5,1,3.8c-0.3-0.7-0.8-2.2-1.1-3.2
							c0.1,0.7,0.4,2.4,0.7,2.8c-0.1-0.3-0.2-0.6-0.2-0.9c0.5,0.8,0.6,2,0.7,3.5c-0.4-0.1-0.4,0.8-0.4,2c0.1,1.1-0.1,2.4-0.4,2.9
							c0.1,1.3,0,2.6-0.2,3.9c-0.3,1.3-0.6,2.7-0.8,4.1c0.7-0.9-0.1,0.9,0.5,0.8c-0.1,0.7-0.2,1-0.2,1l-0.9,2
							c-0.3,0.4,0-0.7-0.1-0.6c-0.4,1.5-0.4,0.6-0.8,1.5c0.3-0.1,0.2,0.6-0.1,1.4l0.6-1.1c-0.1,1.1-0.3,1.5-0.6,1.9
							c-0.3,0.4-0.6,0.8-0.8,1.8l0.1-0.7c-0.1,0.5-0.5,1.5-0.8,2.4c-0.1,0.2-0.1,0.5-0.2,0.7c-0.1,0.2-0.2,0.5-0.2,0.7
							c-0.1,0.4-0.2,0.8-0.2,1.1c-0.1,0.1-0.4,0.3-0.2-0.1c-0.3,0.6-0.6,1.2-0.8,1.9c-0.3,0.6-0.5,1.3-0.8,1.9
							c-0.6,1.2-1.3,2.4-1.9,3.2l0-0.3c-0.2,0.4-0.2,0.9-0.7,1.3c0-0.1,0-0.2-0.1-0.1c-0.1,0.2-0.6,1.2-1,1.7l0.2-0.5
							c-0.8,1-1.4,1.8-1.8,2.7c-0.5,0.8-1,1.6-1.7,2.4c-0.2-0.2-0.6,0.1-1.1,0.5c-0.5,0.4-1,0.9-1.4,1.2l0-0.1c-1.1,1-2,1.9-2.8,2.8
							c-0.8,0.9-1.8,1.7-2.8,2.6c-0.4,0.2-0.9,0.4-1.5,0.8c-0.6,0.4-1.2,0.7-1.9,1.1c-1.4,0.8-2.8,1.8-4.1,2.2
							c0.4-0.1,0.1,0.3-0.3,0.6c-0.6,0.2-1.5,1.1-1.6,0.6l0.2-0.1c-0.6-0.2-1.7,0.6-2.7,0.9l0,0.5c-0.7,0.1-1.5,0.3-2.3,0.5
							c-0.8,0.2-1.5,0.6-2.3,0.8c-1.6,0.5-3,0.9-3.8,0.8c-0.6,0.3-1.4,0.4-2,0.7l0-0.3c-0.9,0.1-1.6,0.2-2.3,0.3
							c-0.4,0.1-0.7,0.1-1.2,0.2c-0.2,0-0.4,0.1-0.7,0.1c-0.2,0-0.5,0-0.8,0.1l0.4-0.2c-1.3,0-1.5,0.9-2.7,1l-0.4-0.4
							c-2.2,0.2-4.4-0.4-6.6-0.1c0-0.1,0.1-0.2,0.5-0.2c-1.1,0-3.9-0.8-3.7-0.1c0-0.4-2.3-0.4-3.5-0.4l0.2-0.2
							c-1.1,0.1-1.1,0.2-2.5-0.1c-0.3-0.1-0.2-0.3,0.2-0.1c-1-0.4-0.9,0-2.2-0.4l0.5,0c-1.1-0.3-1.1-0.2-1.7-0.2
							c-0.7-0.1-2-0.8-2.1-1.1c-0.2,0.1-0.9,0.1-1.5-0.2c-0.1-0.1,0.2-0.1,0.3-0.1c-0.4-0.2-0.8-0.4-1.2-0.5c-0.4-0.1-0.7-0.2-1-0.4
							c-0.6-0.2-1.1-0.4-1.7-0.8c0-0.1,0-0.2-0.1-0.2c1.4,0.7,2.5,1.2,2.4,1.2c0.1-0.2-1-0.8,0-0.7c-1-0.2-2.7-0.6-3.7-1.2
							c0,0-0.1-0.1-0.1-0.1l0.1,0c-0.2-0.1-0.5-0.2-0.7-0.3c-0.3-0.2-0.5-0.4-0.8-0.6c0-0.3-1.1-0.8-1.7-1.2
							c-0.1,0.3-0.8-0.2-0.2,0.4c-0.1-0.1,0.1,0,0.5,0.2c0.1,0,0.2,0.1,0.2,0.1c0,0,0,0,0,0c0.3,0.2,0.8,0.5,1.3,0.8
							c-0.5-0.1-1-0.3-1.5-0.8c-0.4,0-0.8,0-1-0.1c-0.3-0.4-0.7-0.8-1.1-1.2c-0.4-0.4-0.7-0.8-0.7-0.9c-0.8-0.5-1.7-1.1-2.6-1.7
							c-0.4-0.3-0.9-0.5-1.2-0.7c-0.4-0.2-0.7-0.4-1-0.5c-0.4-0.3-0.4-0.5-0.5-0.7c0.3,0.2,0.5,0.4,0.7,0.5c-0.9-0.6-2.4-2.1-2.8-2
							c-0.9-1,0.8,0.3-0.6-1l0.2,0.1c-1-1.6-2.2-2.5-3.4-3.5c-1.1-1.1-2.2-2.3-3.1-4.1c0.1,0.3,0.2,0.4,0.2,0.5l-0.5-0.7l-0.4-0.8
							c-0.3-0.5-0.6-1-0.9-1.5c-0.6-1-1.3-2-1.8-3.1c-0.5-1.1-1.1-2.1-1.6-3.2c-0.3-0.5-0.5-1.1-0.6-1.6c-0.2-0.6-0.3-1.1-0.5-1.7
							c-0.3-1.2-0.6-1.3-1.1-2l0.2-0.4c-0.2-0.4-0.5-0.8-0.7-1.2c-0.4-0.9-0.4-1.8-0.5-2.7c0-0.5-0.1-0.9-0.2-1.4
							c-0.1-0.5-0.2-1-0.4-1.6l-0.2,0.3c-0.1-0.9-0.5-2.7-0.3-2.6c-0.1-0.1-0.3-0.3-0.2-0.6l0.2,0c-0.1-0.3-0.2-0.7-0.3-1l-0.2-1.1
							c0-1.7,0.6,0.2,0.5-2.2c-0.1-0.9-0.6-2.5-0.7-2.2c0,0.4-0.1,0.9-0.2,1l-0.1-0.8c-0.5-0.1-1-0.8-1.2,1.3l0.4,1.4l-0.2,0.5
							l-0.1-1.2c-0.2,0.7,0,1.1,0.2,1.6c-0.1,0.1-0.2,0.3-0.2,0.6l0.5,1.4c-0.2,0.2-0.4-0.6-0.4,0.4c0.3,0.6,0.3-0.7,0.6,0.4
							c-0.1,0.7-0.3,0.5,0,1.3c-0.1,0.1-0.2,0-0.3-0.3c0.3,0.7,0.4,1.9,0.7,2.2c-0.1,0.4,0,1,0.1,1.5c0.1,0.5,0.2,0.9,0,0.9
							c0.2,0.2,0.7,1.2,0.8,1.8c-0.8-1,0.6,2.4,0,2.3c0.3,0.4,0.6,1.1,1,2c0.3,0.8,0.7,1.8,1.1,2.5c-0.1-0.1-0.2-0.2-0.2-0.3
							c0.3,0.9,0.2,1.2,0.3,1.7c0.4,0,1.1,1.2,1.6,1.7c0.1,1.2-0.7-0.4-0.9,0.1c0.3-0.2,1.1,1.6,1.2,1.1c0.2,0.9,0.2,0.7,0.1,1.2
							c0.5-0.1,0.4,0.7,1,1.1c0.4,1.2-0.2,0.5,0.6,1.6C278.7,267.3,278,266.4,278,266.4z M301.3,287.5L301.3,287.5
							c-0.3-0.1-0.5-0.2-0.6-0.3C300.9,287.3,301,287.3,301.3,287.5z M303.7,288.6c-0.3-0.1-0.7-0.3-1-0.5c0-0.1,0.1-0.2,0.3-0.1
							C302.9,288.1,303.4,288.4,303.7,288.6z M299.7,284.3c0.4,0.2,0.5,0.3,0.5,0.4c-0.2-0.1-0.4-0.2-0.6-0.3c0,0,0,0-0.1,0
							C299.6,284.4,299.6,284.3,299.7,284.3z"/>
						<path class="st1" d="M298.9,284.3c-0.1,0-0.1,0-0.2-0.1c0.1,0.1,0.1,0.1,0.2,0.2c0.1,0,0.1,0,0.2,0
							C299,284.4,299,284.3,298.9,284.3z"/>
						<path class="st1" d="M295,193.4L295,193.4C295,193.4,294.9,193.4,295,193.4C294.9,193.4,294.9,193.4,295,193.4z"/>
						<polygon class="st1" points="339.7,292.8 339.7,292.7 339.5,292.8 						"/>
						<path class="st1" d="M283.8,202.5c0,0-0.1,0-0.2,0.1C283.6,202.7,283.7,202.6,283.8,202.5z"/>
						<path class="st1" d="M280.1,207.6l-0.5,0.7C279.8,208,279.9,207.8,280.1,207.6z"/>
						<path class="st1" d="M277.5,211.7c0,0.1,0,0.1,0.1,0.1l0,0L277.5,211.7z"/>
						<path class="st1" d="M343.4,183.9c0.1,0,0.1,0,0.2,0C344.1,184,343.8,183.9,343.4,183.9z"/>
						<path class="st1" d="M320.6,182.5c0.2-0.1,0.5-0.2,0.7-0.2C320.9,182.3,320.6,182.4,320.6,182.5z"/>
						<polygon class="st1" points="365.8,196.6 365.8,196.6 365.9,196.7 						"/>
						<path class="st1" d="M322.4,182.2c-0.4,0-0.8,0-1.1,0.1C321.6,182.3,322,182.3,322.4,182.2z"/>
						<path class="st1" d="M271.2,231.8l0,0.2c0,0,0,0,0,0L271.2,231.8z"/>
						<path class="st1" d="M271.2,232.1l0,0.3C271.3,232.2,271.3,232.1,271.2,232.1z"/>
						<path class="st1" d="M271.3,232.9l0-0.6C271.2,232.5,271.2,232.7,271.3,232.9z"/>
						<path class="st1" d="M272.4,225.5L272.4,225.5C272.4,225.4,272.4,225.4,272.4,225.5z"/>
						<path class="st1" d="M272.9,223.6c-0.1,0.4-0.5,1.1-0.6,1.7l0.1,0.1C272.3,225,273,224,272.9,223.6z"/>
						<path class="st1" d="M276.6,216.3c-0.2,0.5-0.4,1-0.6,1.5c0.2-0.2,0.5-0.5,0.2,0.2C277.2,216.2,275.9,218.2,276.6,216.3z"/>
						<path class="st1" d="M278.9,211.9c-0.3,0.8,0.1,0.1,0.2,0.1C279.3,211.5,279.3,211.4,278.9,211.9z"/>
						<path class="st1" d="M304.8,188l0,0.3C305.4,187.9,304.8,188.1,304.8,188z"/>
						<path class="st1" d="M310.8,184.3c-0.2,0-0.5,0-0.7,0l-0.2,0.3C310.2,184.5,310.5,184.4,310.8,184.3z"/>
						<polygon class="st1" points="315.2,185 314.9,185.1 316,184.8 						"/>
						<path class="st1" d="M368.9,203.4l0.1-0.4C368.7,202.7,368.3,202.9,368.9,203.4z"/>
						<path class="st1" d="M380.3,226.3c-0.1,0.3-0.1,1,0.2,1.5C380.4,227.2,380.4,226.6,380.3,226.3z"/>
						<polygon class="st1" points="345.7,288.4 346.1,288.1 345.2,288.5 						"/>
					</g>
				</g>
			</g>
		</g>
	</g>
	<g>
		<rect x="321.1" y="208.2" class="st2" width="11.8" height="59.1"/>
		<g>
			<g>
				<g>
					<g>
						<path class="st2" d="M332.3,267.3c0.1,0.1,0.3,0,0.2-0.2l-0.3-0.1L332.3,267.3z"/>
						<path class="st2" d="M332.9,265.9c-0.2-0.2-0.4-0.5-0.7-0.4c0.3,0.2,0.2,0.3,0.6,0.6c0,0.2-0.1,0.4-0.2,0.3
							c0.1,0.1-0.1,0.3,0.1,0.4c0.3-0.3,0.3-0.6,0.1-1C332.7,265.9,332.8,265.9,332.9,265.9z"/>
						<path class="st2" d="M333.4,245.8l0,0.1C333.4,245.9,333.4,245.9,333.4,245.8z"/>
						<path class="st2" d="M333.6,233.4c0,0.1,0,0.1,0.1,0.1C333.6,233.4,333.6,233.3,333.6,233.4z"/>
						<path class="st2" d="M333.9,231.2c0,0,0,0.1,0,0.1C333.9,231.3,334,231.3,333.9,231.2z"/>
						<path class="st2" d="M333.4,245.8l0.1-0.3C333.4,245.5,333.4,245.7,333.4,245.8z"/>
						<path class="st2" d="M332.1,263.2c0,0.1,0,0.1,0.1,0.2L332.1,263.2L332.1,263.2z"/>
						<path class="st2" d="M333.7,251.3l0,0.1c0,0,0.1,0.1,0.1,0.1L333.7,251.3z"/>
						<path class="st2" d="M333.7,255.5c0-0.1-0.3-0.1-0.4-0.2c0.1,0.1,0.2,0.1,0.2,0.2C333.6,255.6,333.6,255.6,333.7,255.5z"/>
						<path class="st2" d="M333.2,262.2l0,0.1C333.2,262.3,333.2,262.3,333.2,262.2z"/>
						<path class="st2" d="M333.7,248.3c0,0,0.1,0,0.1,0C333.8,248.3,333.8,248.3,333.7,248.3z"/>
						<path class="st2" d="M328,266C328,266,328,266,328,266C328.1,266,328.1,266,328,266z"/>
						<path class="st2" d="M332.9,267.4L332.9,267.4c-0.1,0.1-0.1,0.1-0.1,0.2L332.9,267.4z"/>
						<path class="st2" d="M334.3,227.3C334.3,227.3,334.3,227.3,334.3,227.3C334.3,227.5,334.3,227.4,334.3,227.3z"/>
						<path class="st2" d="M319.9,213c0.3-0.4,0.3,0.7,0.6,0C320.4,213.1,320.1,212.5,319.9,213z"/>
						<path class="st2" d="M332.1,263.1c0-0.1,0-0.1,0-0.2C332.1,263,332.1,263,332.1,263.1z"/>
						<path class="st2" d="M320.5,213.1L320.5,213.1L320.5,213.1C320.6,213,320.6,213.1,320.5,213.1z"/>
						<path class="st2" d="M334.1,218.4c0,0-0.1,0.1-0.1,0.1C334,218.4,334.1,218.4,334.1,218.4z"/>
						<path class="st2" d="M333.7,225l0-0.2C333.7,224.9,333.7,225,333.7,225z"/>
						<path class="st2" d="M333.7,214.9c0-0.1,0.1-0.1,0-0.2c0,0,0,0,0,0C333.8,214.7,333.8,214.8,333.7,214.9z"/>
						<path class="st2" d="M333.7,211.3C333.7,211.3,333.7,211.3,333.7,211.3c-0.1,0.1,0,0.1,0,0.2L333.7,211.3z"/>
						<path class="st2" d="M322.3,263.3c-0.1,0.1-0.2,0.1-0.3,0.2C322.2,263.4,322.3,263.9,322.3,263.3z"/>
						<path class="st2" d="M332.2,263.2c-0.1,0-0.1-0.1-0.1-0.1l0,0.1C332.2,263.2,332.2,263.2,332.2,263.2z"/>
						<path class="st2" d="M331.5,214.7l0-0.6C331.5,214.3,331.5,214.5,331.5,214.7z"/>
						<path class="st2" d="M322.2,237.4l0,0.1C322.3,237.4,322.3,237.4,322.2,237.4z"/>
						<path class="st2" d="M331.5,212.5c0.1-0.1,0.2-0.2,0.2-0.3c0,0,0-0.1-0.1-0.1L331.5,212.5z"/>
						<path class="st2" d="M322,263.4L322,263.4L322,263.4z"/>
						<path class="st2" d="M322.7,265.7c0,0-0.4,0.3-0.6,0.4c-0.1-0.2,0.3-0.3,0.5-0.4c0,0-0.2,0-0.3,0c-0.1-0.1-0.2-0.3-0.2-0.4
							c0.1,0,0.1-0.1,0.2,0c-0.3-0.4,0-1.3-0.4-1.8c0,0,0.1-0.1,0.1-0.1c-0.2,0.1-0.4,0.1-0.5,0.1c0-0.2-0.2-0.5,0-0.5
							c0,0.2,0.1,0.2,0.2,0.2l-0.1-0.3c0.3-0.2,0.1,0.4,0.4,0.4c-0.1-0.5-0.4-1.1-0.3-1.5c0.3-0.1,0.1,0.9,0.4,0.4l-0.1,0.6
							c0.5-0.5,0,0.4,0.5-0.1c0.1-0.8-0.2-0.9-0.1-1.7c-0.2-0.2-0.3,0.1-0.5-0.1c-0.3-1.1,0.9-0.9,0.4-1.7c-0.2-0.2-0.7-0.3-0.4-0.9
							l0.4,0.2c0-0.8-0.6-0.4-0.3-1.2c0.2,0.1,0.1,0.6,0.2,0.5c0.3-0.5-0.2-0.4-0.2-0.8l0.3-0.1c-0.1-0.8-0.3-1.7-0.4-2.6
							c0.1,0,0.2,0.2,0.3,0c-0.2-1.1,0-2.4,0.2-3.5l-0.3-0.4c0-0.1,0.1-0.2,0.2-0.1c0.1-0.4-0.2,0-0.3-0.2c0-0.2,0.2-0.3,0.3-0.2
							c-0.2-0.7-0.5-2.1-0.2-2.9l0.1,0.2c0.1-0.6-0.6-0.7-0.3-1.3l0.1,0.1c0.1-1.3-0.1-2.8,0.3-3.8c-0.4-0.2,0.2-1.3-0.4-1.4
							c0.3-0.8,0.4-0.5,0.6-1.6c0-0.3-0.4-0.4-0.4-0.8l0.3,0l-0.3-0.5l0.4-0.3l-0.1-0.3c0,0.1-0.1,0.3-0.2,0.3
							c-0.1-0.5,0.2-1.3,0.4-1.3l-0.3-1.2c0.1,0,0.2,0.2,0.2,0.4c-0.3-0.7,0.3-0.1,0-0.7c-0.1,0.1-0.2,0-0.2-0.1
							c0.2-0.3,0.2-1,0.1-1.5l0.2,0.1c0.1-0.9-0.1-1.9-0.1-2.9c-0.1,0.4-0.5,0.3-0.5,0l0.3-0.1c-0.2-0.2-0.1,0.3-0.4-0.1
							c0-0.4,0.4-0.3,0.5,0l-0.1-0.5c0.1,0,0.1,0.1,0.3,0.1c-0.2-0.2,0.3-0.8,0-1.1l0.1,0c0-1-0.1-1.5-0.1-2.3
							c-0.3,0-0.2-0.3-0.4-0.6c0.1-0.6,0.3-1.3,0.3-2c-0.1-0.5-0.2-0.2-0.4-0.4c0.3,0,0.2-0.8,0.4-0.4c0-0.9-0.1-1.1-0.3-2.2
							c-0.1,0.1-0.2,0.3-0.2,0.2c0-0.2,0.1-0.5,0.2-0.4l0,0.1c-0.4-1.3,0.7-2.9,0.2-3.9l0,0.1l-0.3-1c0-0.5,0.2,0.3,0.4-0.1
							c-0.4-1.1,0.1-1.8-0.2-2.7c0.4-0.4,0.4-1,0.3-1.6c0-0.3-0.1-0.7-0.1-1c0-0.2,0-0.3,0-0.5c0-0.1,0-0.1,0-0.2c0,0,0,0,0.1,0
							l-0.2,0c-0.2-0.1,0.1,0,0.1,0c-0.1-0.1-0.2,0-0.3-0.1c0-0.1-0.1-0.2-0.1-0.3c0.1,0,0.3,0,0.4,0.1c0,0,0,0,0.1,0l0.3,0l0.7,0.1
							c0.9,0.1,1.8,0.2,2.7,0.3c0.8,0,0.4-0.9,1.4-0.5l-0.3,0.3c0.8-0.2,1.6-0.2,2.4-0.2c0.4,0,0.8,0,1.2,0c0.2,0,0.2-0.1,0.4-0.1
							c-0.1,0.1-0.1,0.2-0.2,0.2c0,0.1,0,0.1,0.1,0.1c0.1,0,0.2,0,0.3-0.1c0,0.1-0.2,0.1-0.3,0.2c-0.1,0.1,0.3,0,0.1,0.2
							c0,0-0.1-0.1-0.1-0.1c0.1,0.1,0,1,0.2,0.7c-0.1,0.6,0.1,1.1,0,1.6c0.3,0.3-0.1,1,0.3,1.1c-0.5,0-0.4,1-0.2,1.4
							c-0.1-0.1-0.1,0.3-0.3,0.2c0,0.4,0.1,0.8,0.3,0.7c-0.5,0.8,0.4,1.6-0.3,2c0.2,1.3,0.4,2.4,0.5,3.5c-0.5,0,0-1.2-0.5-1.2
							c0.2,1.1,0.6,1.7,0.5,2.7c-0.1,0.3-0.2-0.2-0.3-0.2c0.2,1.1,0,2.1,0.2,3c0,0-0.1-0.1-0.1-0.2c0,0.2-0.1,0.4,0.1,0.4l-0.1-0.2
							c0.3-0.3,0.6,0.7,0.8,0.8c-0.6-0.3-0.1,0.9-0.9,0.4c0,0.1,0.1,0.3,0.3,0.2c0,0.2-0.1,0.2-0.3,0.1c0.1,0.7,0.3,0.4,0.3,1
							c-0.1,0-0.1-0.1-0.3-0.2c0.2,0.3,0.4,0.6,0.3,1.1c-0.1,0-0.1,0-0.1-0.1c0,0.9,0.5,1.5,0.3,2.5c-0.4-0.3-0.1,0.3-0.5,0.4
							l0.1,0.5l0.2-0.2c0,0.5,0.3,0.9,0.1,1.2l-0.2-0.3l0.1,0.9l0.1-0.5c0.2,0.5,0.5,0,0.4,0.6c0-0.1,0,0.5-0.2,0.7l0,0
							c0.1,0.2,0.2,0.5,0.2,0.8c-0.1,0.1-0.4-0.1-0.5,0c0.3,0.2,0.1,1.1,0.4,1.3c-0.1-0.1-0.3-0.1-0.3-0.1l0.3,0.2
							c-0.1,0.2-0.1,0.2-0.3,0.2c0,0.6,0.5-0.2,0.3,0.6c0-0.1-0.1,0-0.1-0.2c-0.1,0.8,0.2,1.5,0,2.2c-0.4,0.2-0.1-0.6-0.4-0.4
							c0.1,1,0.5,2.1,0.4,3l0-0.2c0.5,0.1-0.3,0.7,0,1.2c0-0.1-0.3-0.2-0.2-0.1c-0.1,0.7,0.1,1.4,0.3,2.4l-0.1-0.1
							c-0.1,0.4-0.1,1-0.1,1.5c0.1,0.1,0.1,0.4,0.3,0.2c-0.8,1.3,0.4,2.5-0.2,3.6c0-0.1-0.1-0.3-0.1-0.2l0.1,1
							c0.2-0.1,0.1-0.1,0.3-0.3c0.1,0.1,0.2,0.4,0.2,0.6c-0.2-0.4-0.4,0-0.5,0.2c0.1,0,0.1,0,0.2,0c-0.4,0.5,0.5,0.1,0.2,0.8l-0.1,0
							c0.1,0.3,0.2,0.5,0.2,0.8c-0.3,0.1-0.1-0.3-0.3-0.3c0,0.4,0.5,0.8,0.2,1.1c-0.1-0.2-0.1-0.4-0.1-0.6c-0.3,0.4-0.2,0.4-0.3,0.7
							l0,0l-0.1,0.7l0.1-0.2c0.7,0.5,0.1,1,0.6,1.7c-0.4-0.7-0.3-0.1-0.6-0.2c-0.1,0.2-0.2,0.4-0.3,0.4c0.2,0.3-0.2,0.5,0.2,1
							c-0.1,0,0,0.3-0.3,0.3c0.1,0.4,0.2-0.1,0.3-0.1c0.3,0.6-0.4,1.5,0.1,2.4c0.2,0.8,0.5,0.9,0.7,1.7c-0.2,0.2-0.4-0.2-0.4-0.2
							c-0.1,0.4-0.1,0.7,0,1.1c-0.1-0.1-0.2,0-0.3,0.1c0,0.3,0.4,0.2,0.2,0.6c-0.1-0.1-0.3-0.2-0.4-0.3c0.1,0.4,0.3,0.7,0.4,1.1
							c-0.2,0.1-0.3-0.2-0.4-0.4c0.1,0.4,0.2,1.1,0.4,1.2l0.1-0.3c0,0.2-0.2,0.1-0.3,0c-0.2-0.4,0.1-0.5,0.2-0.5l0.1,0.3
							c0.6-0.3-0.1-1.1-0.1-1.6l0.4,0.2l-0.3-0.5c0.1-0.1,0.3-0.2,0.4,0.1c0.2-0.4-0.1-0.3,0.1-0.7c0,0,0.1,0,0.1,0l-0.1-0.4
							c0.1,0.1,0.3-0.1,0.2,0.2c0.2-0.7-0.3-1.1,0-1.3l0,0.1c-0.1-0.9-0.3-0.1-0.7-0.8l0.8-0.5l-0.3-0.1c0-0.1,0-0.3,0.2-0.2
							c-0.2-0.4-0.1,0.1-0.3-0.1c0.3-0.5-0.1-1.3,0.4-1.4c-0.2-0.2-0.2,0.4-0.3-0.1c0.5-0.1-0.1-0.6,0.2-1c0.3,0.1,0.1,0.5,0.4,0.1
							c-0.5-0.3,0.1-0.8,0-1.2c-0.4,0-0.2-0.8-0.3-1.4c0.1,0,0.2-1.1,0.3-1.7l0.1,0c-0.4-0.1-0.3-0.7-0.4-1.1c0.2,0,0.3,0.1,0.4,0.3
							l0-0.4c-0.1-0.1-0.2-0.2-0.2-0.5l0.3,0.1c0-0.5-0.3-1-0.1-1.7c-0.3,0-0.7,0.5-0.9-0.2c0.1,0,0.4-0.1,0.4,0.1
							c0-0.1-0.1-0.2-0.1-0.3l0.2,0.3c0.1-0.3-0.2-0.2-0.2-0.4c0.2,0,0.1-0.2,0.3-0.1c0,0.1-0.1,0.2,0,0.3c0-0.3,0.2-0.6,0.3-0.7
							c-0.1,0-0.3,0-0.3-0.2c0-0.5,0.2-0.2,0.3-0.5c-0.1-0.1,0-0.5-0.3-0.5c0-0.2,0.1-0.2,0.2-0.2c-0.1-0.3,0-1.2-0.4-0.9l0,0.1
							c0,0,0,0,0,0v0v0c-0.3-0.9,0.2-1.8,0-2.7l0.1,0c-0.1-0.5-0.1-1.2-0.3-1.5c0-0.2,0.2-0.4,0.3-0.3c-0.1-0.4-0.2-0.4,0-1
							c0.2,0.4,0.2-0.1,0.1,0.4c0.1-0.5,0.2-0.6,0-1.2c0.3,0.2,0.3-0.4,0.2-0.6l-0.2,0.4c0-0.3,0-0.5,0-0.8l0.3,0.1
							c0.4-1.1-0.7-1.9,0-2.7c-0.2-0.3-0.2,0.6-0.4,0.3c0-0.5,0.5-1,0.5-1.1c0.2-0.7-0.5-0.6-0.4-1.3c-0.1,0.1-0.4,0.2-0.5-0.3
							c0-0.5,0.5-0.6,0.6-0.3c0,0.1,0,0.2-0.1,0.2c0,0.2,0.1,0.4,0.2,0.2l-0.1-0.1c0.1-0.2,0.1-0.9,0.3-0.8
							c-0.1-0.4-0.2-0.2-0.3,0.1c0.2-0.6,0-1,0.1-1.6c-0.1,0.1-0.2,0.2-0.2,0.1c0.1-0.9-0.2-0.4-0.3-1.1c0.2-0.4,0.4,0.1,0.3-0.5
							c0.1-0.4,0.3-0.1,0.4,0.1c-0.2-0.6,0.2-1.1,0.2-1.4l0.1,0.3c-0.1-0.2-0.1-0.3-0.1-0.5l-0.2,0.2c0-0.2,0-0.3,0.1-0.3
							c-0.2-0.2-0.4,0.1-0.6-0.2c0.1-0.2-0.1-0.7,0.2-0.8c-0.1,0.8,0.3-0.1,0.4,0.6c0-0.1,0-0.3,0-0.5c0,0,0.1,0,0.1,0.1
							c0.3-0.7-0.4-0.3-0.3-1.1c0.2,0.1,0.3-0.2,0.3-0.3c0,0.3-0.3,0.1-0.4-0.1c0.1-0.5-0.1-0.5-0.1-0.8l-0.1,0.3
							c-0.2-0.1-0.2-0.3-0.2-0.7c0.1,0,0.1,0.3,0.2,0.2c-0.3-0.4,0.3-0.8,0.1-1.4c0.1-0.2,0.3,0,0.4-0.2c-0.2-0.6,0.2-0.6,0.1-1.2
							c-0.2,0.2-0.2,0.2-0.4-0.2l0.2,1l-0.3-0.6c0,0.3,0.1,0.6,0.1,0.8c-0.2-0.3-0.1-0.3-0.3-0.1c0.4-0.4-0.2-0.8,0-1.3l0.6,0
							c0.3-0.7-0.3-1.3-0.2-2.2l-0.1,0.3c-0.2-0.1,0-0.6-0.1-0.9c0.2,0,0.3-0.2,0.4-0.3c-0.1,0,0-0.7-0.4-0.8l0.3-0.4
							c0.1-0.8-0.6-0.9-0.5-1.6c0.2,0.2,0.4-0.1,0.5,0.4c0-0.2,0-0.5-0.1-0.5c0.1-0.1-0.3-0.7-0.1-0.9c-0.1-0.1-0.3-0.1-0.3-0.4
							c0,0,0.1,0,0.1,0c-0.1,0-0.1-0.4-0.4-0.2c0.6-0.7,0-2.1,0.5-2.7c-0.1-0.6-0.1-1.1-0.1-1.7c0.1,0,0.1,0,0.1,0.1
							c0.2-1-0.6-0.4-0.4-1.4c0.3-0.7,0.2,0.4,0.3,0c0.3-0.3,0.3-0.7,0.2-1c-0.5,0.1-1,0.1-1.3,0l0.2,0c-0.2-0.1-0.7,0-1.1,0
							c-0.1,0-0.2,0-0.3,0.1l-0.2,0.1c-0.1,0-0.3,0.1-0.5,0c0,0,0-0.1,0-0.1c-0.4,0.3-1.3,0.4-1.9,0.5c0.2-0.3,0.3-0.1,0.2-0.4
							c-0.3,0,0.1,0.4-0.5,0.5c-0.2-0.1-0.6-0.3-0.6-0.5l0.5,0c-0.3-0.4-0.7,0-0.9,0l0-0.2c-0.8,0.1-0.8,0.4-1.7,0.4l0.1,0.1
							c-0.5,0.4-0.4-0.2-0.9,0.1l-0.1-0.4c-0.3,0.1-1.1,0.4-1.6,0.5c0.3-0.3,1-0.4,1.4-0.6c-0.3,0-1,0-1.2,0.2
							c0.1,0,0.3-0.1,0.4-0.1c-0.2,0.2-0.4,0.3-0.6,0.3c-0.2,0.1-0.5,0.1-0.9,0.1c0-0.5-1-0.4-2-0.5c0,0.5-0.1,0.9-0.3,1
							c0.1,0.5,0.1,0.9,0.1,1.4c0,0.3,0,0.6,0,0.8c-0.1,0.6-0.1,1.1-0.1,1.8c0.6-0.4,0,0.4,0.6,0.3c0,0.3,0,0.4,0,0.4l-0.4,0.9
							c-0.2,0.2-0.1-0.3-0.3-0.2c0,0.6-0.3,0.3-0.4,0.7c0.2-0.1,0.3,0.2,0.2,0.6l0.3-0.5c0.3,0.9-0.5,0.8-0.2,1.7l-0.2-0.3
							c0.1,0.5,0,1.7,0.5,2.1c-0.1,0.1-0.2,0.2-0.3,0c-0.1,1.1,0.5,2.4,0.2,3.3l-0.1-0.1c0,0.2,0.3,0.4,0.1,0.6
							c-0.1,0-0.1-0.1-0.2,0c0.1,0.1,0.3,0.5,0.2,0.8l-0.2-0.2c-0.2,1.1,0.4,1.6,0.5,2.5c-0.4,0-0.6,0.8-0.7,1.3l-0.1,0
							c-0.1,1.2,0.4,2.1,0.5,3.3c-0.5,0.7-0.2,2.4-0.5,3.6c0.1-0.2,0.3,0,0.4,0.2c-0.1,0.3,0.3,0.7-0.1,0.7l0-0.1
							c-0.4,0.2-0.3,0.8-0.3,1.2l0.5,0.1c-0.8,1.1,0.3,3-0.4,3.6c0.1,0.3,0.1,0.6,0.3,0.9l-0.3,0c-0.1,0.8-0.1,1.1,0,2.1l-0.2-0.2
							c0,0.5,0.8,0.7,0.8,1.2l-0.4,0.1c0,0.9-0.4,1.9,0,2.8c-0.1,0-0.2,0-0.2-0.2c0,0.4-0.3,1.7,0.3,1.5c-0.4,0,0,1,0.1,1.5
							l-0.3-0.1c0.4,0.4,0.5,0.4,0.6,1c0,0.1-0.2,0.1-0.2-0.1c-0.1,0.5,0.3,0.4,0.1,0.9l-0.2-0.2c0,0.5,0.1,0.4,0.3,0.7
							c0.1,0.3-0.1,0.9-0.3,1c0.2,0.1,0.4,0.3,0.3,0.6c-0.1,0-0.2-0.1-0.2-0.1c-0.2,0.8,0.3,1.2,0.1,1.7c-0.1,0-0.1,0-0.2,0.1
							c0-0.6,0-1.1,0-1.1c-0.3,0-0.3,0.5-0.7,0.1c0.2,0.4,0.6,1.1,0.5,1.6c0,0,0,0-0.1,0.1l0-0.1c0,0.1,0,0.2,0,0.3
							c0,0.2-0.1,0.3-0.1,0.4c-0.2,0.1-0.1,0.6-0.1,0.8c0.3,0,0.2,0.3,0.5,0c0,0,0,0,0-0.2c0,0,0-0.1,0-0.1l0,0c0-0.2,0-0.4,0-0.6
							c0.1,0.2,0.3,0.4,0.1,0.7c0.2,0.1,0.4,0.3,0.5,0.4c-0.4,0.3-0.6,1-0.8,1.1c0.2,0.8,0.1,1.8,0.6,2.3c0.1,0.2-0.2,0.3-0.2,0.3
							c-0.1-0.1,0-0.3-0.1-0.3c0.1,0.4,0.1,1.3,0.4,1.4c-0.2,0.6-0.3-0.3-0.3,0.5l-0.1-0.1c-0.6,1.5,0.9,2.5,0.2,4.1
							c0-0.1,0.1-0.2,0.1-0.2c-0.1,0.3-0.1,0.8-0.1,1.2c0,0.4,0,0.9,0,1.3c0.9,0,1.7-0.1,2.6-0.1c0.7,0,1.3,0,1.9,0.2
							c0.5,0.1,0.6-0.1,0.9-0.3l0.1,0.3l0.6-0.3c0.8-0.3,1.4,0.7,2.4,0.3l-0.1-0.2c0.4,0,1.1-0.1,1.1,0.1c0,0,0.1-0.2,0.3-0.1l0,0.2
							l0.9-0.3c0.7,0.1-0.1,0.6,0.9,0.7c0.4-0.1,1.1-0.5,0.9-0.6c-0.2,0-0.4-0.1-0.4-0.3l0.3-0.1c0.1-0.5,0.3-0.9-0.5-1.3l-0.6,0.3
							l-0.2-0.2l0.5,0c-0.3-0.2-0.5,0-0.7,0.1c0-0.1-0.1-0.2-0.2-0.2l-0.6,0.4c-0.1-0.2,0.3-0.4-0.1-0.5c-0.3,0.2,0.3,0.4-0.2,0.5
							c-0.3-0.2-0.2-0.4-0.5-0.2c0-0.1,0-0.2,0.2-0.2c-0.3,0.1-0.8,0.1-0.9,0.3c-0.3-0.3-1,0.1-1-0.4c-0.1,0.1-0.5,0.3-0.8,0.4
							c0.5-0.5-1,0-0.9-0.6c-0.4,0.5-1.3,0.2-1.9,0.5c0,0,0.1-0.1,0.2-0.1c-0.4,0-0.5-0.2-0.7-0.3c0,0.4-0.6,0.5-0.9,0.7
							c-0.4-0.4,0.3-0.5,0.1-0.8c0,0.2-0.2,0.2-0.4,0.3c-0.1,0.1-0.1,0.1-0.1,0.3c-0.1-0.2-0.1-0.1,0-0.4c-0.2,0.5-0.1,0.1-0.4,0.4
							c0-0.1,0.2-0.3,0.2-0.3c0,0,0,0,0,0C322.5,265.8,322.7,265.8,322.7,265.7z M321.9,254.5L321.9,254.5c0,0.1,0,0.2,0,0.3
							C321.9,254.7,321.9,254.6,321.9,254.5z M321.8,253.4c0,0.1,0,0.3,0,0.5c-0.1,0-0.2,0-0.2-0.1
							C321.7,253.8,321.8,253.5,321.8,253.4z M319.9,255.7c0-0.2,0-0.2,0.1-0.3c0,0.1,0,0.2,0,0.3l0,0
							C320,255.7,319.9,255.7,319.9,255.7z"/>
						<path class="st2" d="M320.3,256C320.3,256,320.3,256,320.3,256C320.3,256,320.3,256,320.3,256L320.3,256
							C320.3,255.9,320.3,255.9,320.3,256z"/>
						<path class="st2" d="M333.3,246L333.3,246C333.3,246,333.3,246,333.3,246C333.3,246,333.3,246,333.3,246z"/>
						<polygon class="st2" points="322.4,238.6 322.3,238.6 322.4,238.6 						"/>
						<path class="st2" d="M332.4,251.9C332.4,251.9,332.3,251.9,332.4,251.9C332.3,252,332.4,251.9,332.4,251.9z"/>
						<path class="st2" d="M332.3,254.4l-0.1,0.4C332.3,254.6,332.3,254.5,332.3,254.4z"/>
						<path class="st2" d="M332.2,256.4c0,0,0.1,0,0.1,0l0,0L332.2,256.4z"/>
						<path class="st2" d="M331.8,225.2C331.8,225.2,331.8,225.1,331.8,225.2C331.8,224.9,331.8,225,331.8,225.2z"/>
						<path class="st2" d="M332.5,234.5c-0.1-0.1-0.1-0.2-0.1-0.3C332.4,234.3,332.3,234.5,332.5,234.5z"/>
						<polygon class="st2" points="331.5,214.8 331.5,214.8 331.5,214.7 						"/>
						<path class="st2" d="M332.4,233.7c-0.1,0.2,0,0.3,0,0.4C332.4,234,332.4,233.9,332.4,233.7z"/>
						<path class="st2" d="M332.1,264.9L332.1,264.9c0,0.1,0,0.1,0,0.1L332.1,264.9z"/>
						<path class="st2" d="M332.1,265l0,0.1C332.1,265.1,332.1,265,332.1,265z"/>
						<path class="st2" d="M332.2,265.4l-0.1-0.2C332.1,265.2,332.1,265.3,332.2,265.4z"/>
						<path class="st2" d="M332.2,262.3l-0.1,0C332.1,262.3,332.1,262.3,332.2,262.3z"/>
						<path class="st2" d="M332.2,261.5c0,0.2-0.2,0.5-0.2,0.7l0.1,0C331.9,262.2,332.3,261.7,332.2,261.5z"/>
						<path class="st2" d="M333.4,258.2l-0.1,0.7c0.1-0.1,0.3-0.3,0.3,0C333.9,258.1,333.4,259.1,333.4,258.2z"/>
						<path class="st2" d="M333.6,256.2c0.1,0.4,0.2,0,0.2,0C333.7,256,333.7,255.9,333.6,256.2z"/>
						<path class="st2" d="M333.6,241.3l0.3,0C333.8,241.1,333.7,241.4,333.6,241.3z"/>
						<polygon class="st2" points="332.2,238.5 332.1,238.8 332.3,238.9 						"/>
						<polygon class="st2" points="334.1,236.8 334.1,237 334,236.5 						"/>
						<path class="st2" d="M334,211.9l-0.3,0.1C333.7,212.2,334.1,212.2,334,211.9z"/>
						<path class="st2" d="M325.9,207.5c-0.1-0.2-0.4-0.3-0.6-0.1C325.5,207.4,325.8,207.5,325.9,207.5z"/>
						<polygon class="st2" points="319.9,235.7 319.8,235.5 319.8,235.9 						"/>
					</g>
				</g>
			</g>
		</g>
	</g>
	<g>
		<rect x="297.5" y="231.9" class="st2" width="59.1" height="11.8"/>
		<g>
			<g>
				<g>
					<g>
						<path class="st2" d="M356.6,232.5c0.1-0.1,0-0.3-0.2-0.2l-0.1,0.3L356.6,232.5z"/>
						<path class="st2" d="M355.2,231.9c-0.2,0.2-0.5,0.4-0.4,0.7c0.2-0.3,0.3-0.2,0.6-0.6c0.2,0,0.4,0.1,0.3,0.2
							c0.1-0.1,0.3,0.1,0.4-0.1c-0.3-0.3-0.6-0.3-1-0.1C355.1,232.1,355.2,232,355.2,231.9z"/>
						<path class="st2" d="M335.1,231.4l0.1,0C335.2,231.4,335.1,231.4,335.1,231.4z"/>
						<path class="st2" d="M322.6,231.2c0.1,0,0.1,0,0.1-0.1C322.7,231.2,322.6,231.2,322.6,231.2z"/>
						<path class="st2" d="M320.5,230.8c0,0,0.1,0,0.1,0C320.6,230.8,320.5,230.8,320.5,230.8z"/>
						<path class="st2" d="M335.1,231.4l-0.3-0.1C334.7,231.4,334.9,231.4,335.1,231.4z"/>
						<path class="st2" d="M352.4,232.7c0.1,0,0.1,0,0.2-0.1L352.4,232.7L352.4,232.7z"/>
						<path class="st2" d="M340.6,231.1l0.1,0c0,0,0.1-0.1,0.1-0.1L340.6,231.1z"/>
						<path class="st2" d="M344.8,231.1c-0.1,0-0.1,0.3-0.2,0.4c0.1-0.1,0.1-0.2,0.2-0.2C344.8,231.2,344.8,231.2,344.8,231.1z"/>
						<path class="st2" d="M351.5,231.6l0.1,0C351.6,231.5,351.5,231.6,351.5,231.6z"/>
						<path class="st2" d="M337.5,231.1c0,0,0-0.1,0-0.1C337.5,231,337.5,231,337.5,231.1z"/>
						<path class="st2" d="M355.3,236.7C355.3,236.7,355.3,236.7,355.3,236.7C355.3,236.7,355.3,236.7,355.3,236.7z"/>
						<path class="st2" d="M356.6,231.9L356.6,231.9c0.1,0.1,0.1,0.1,0.2,0.1L356.6,231.9z"/>
						<path class="st2" d="M316.6,230.5C316.6,230.5,316.6,230.5,316.6,230.5C316.7,230.5,316.6,230.5,316.6,230.5z"/>
						<path class="st2" d="M302.3,244.8c-0.4-0.3,0.7-0.3,0-0.6C302.4,244.4,301.8,244.7,302.3,244.8z"/>
						<path class="st2" d="M352.3,232.7c-0.1,0-0.1,0-0.2,0C352.2,232.7,352.3,232.7,352.3,232.7z"/>
						<path class="st2" d="M302.3,244.2L302.3,244.2L302.3,244.2C302.3,244.2,302.3,244.2,302.3,244.2z"/>
						<path class="st2" d="M307.6,230.7c0,0,0.1,0.1,0.1,0.1C307.7,230.7,307.7,230.7,307.6,230.7z"/>
						<path class="st2" d="M314.3,231.1l-0.2,0C314.2,231,314.2,231.1,314.3,231.1z"/>
						<path class="st2" d="M304.1,231.1c-0.1,0-0.1-0.1-0.2,0c0,0,0,0,0,0C304,231,304,231,304.1,231.1z"/>
						<path class="st2" d="M300.5,231.1C300.5,231.1,300.6,231.1,300.5,231.1c0.1,0.1,0.1,0,0.2,0L300.5,231.1z"/>
						<path class="st2" d="M352.5,242.5c0.1,0.1,0.1,0.2,0.2,0.3C352.6,242.5,353.2,242.5,352.5,242.5z"/>
						<path class="st2" d="M352.4,232.5c0,0.1-0.1,0.1-0.1,0.1l0.1,0C352.4,232.6,352.4,232.6,352.4,232.5z"/>
						<path class="st2" d="M304,233.3l-0.6,0C303.6,233.3,303.8,233.3,304,233.3z"/>
						<path class="st2" d="M326.6,242.5l0.1,0C326.7,242.5,326.6,242.5,326.6,242.5z"/>
						<path class="st2" d="M301.7,233.3c-0.1-0.1-0.2-0.2-0.3-0.2c0,0-0.1,0-0.1,0.1L301.7,233.3z"/>
						<path class="st2" d="M352.7,242.8L352.7,242.8L352.7,242.8z"/>
						<path class="st2" d="M355,242.1c0,0,0.3,0.4,0.4,0.6c-0.2,0.1-0.3-0.3-0.4-0.5c0,0,0,0.2,0,0.3c-0.1,0.1-0.3,0.2-0.4,0.2
							c0-0.1-0.1-0.1,0-0.2c-0.4,0.3-1.3,0-1.8,0.4c0,0-0.1-0.1-0.1-0.1c0.1,0.2,0.1,0.4,0.1,0.5c-0.2,0-0.5,0.2-0.5,0
							c0.2,0,0.2-0.1,0.2-0.2l-0.3,0.1c-0.2-0.3,0.4-0.1,0.4-0.4c-0.5,0.1-1.1,0.4-1.5,0.3c-0.1-0.3,0.9-0.1,0.4-0.4l0.6,0.1
							c-0.5-0.5,0.4,0-0.1-0.5c-0.8-0.1-0.9,0.2-1.7,0.1c-0.2,0.2,0.1,0.3-0.1,0.5c-1.1,0.3-0.9-0.9-1.7-0.4
							c-0.2,0.2-0.3,0.7-0.9,0.4l0.2-0.4c-0.8,0-0.4,0.6-1.2,0.3c0.1-0.2,0.6-0.1,0.5-0.2c-0.5-0.3-0.4,0.2-0.8,0.2l-0.1-0.3
							c-0.8,0.1-1.7,0.3-2.6,0.4c0-0.1,0.2-0.2,0-0.3c-1.1,0.2-2.4,0-3.5-0.2l-0.4,0.3c-0.1,0-0.2-0.1-0.1-0.2
							c-0.4-0.1,0,0.2-0.2,0.3c-0.2,0-0.3-0.2-0.2-0.3c-0.7,0.2-2.1,0.5-2.9,0.2l0.2-0.1c-0.6-0.1-0.7,0.6-1.3,0.3l0.1-0.1
							c-1.3-0.1-2.8,0.1-3.8-0.3c-0.2,0.4-1.3-0.2-1.4,0.4c-0.8-0.3-0.5-0.4-1.6-0.6c-0.3,0-0.4,0.4-0.8,0.4l0-0.3l-0.5,0.3
							l-0.3-0.4l-0.3,0.1c0.1,0,0.3,0.1,0.3,0.2c-0.5,0.1-1.3-0.2-1.3-0.4l-1.2,0.3c0-0.1,0.2-0.2,0.4-0.2c-0.7,0.3-0.1-0.3-0.7,0
							c0.1,0.1,0,0.2-0.1,0.2c-0.3-0.2-1-0.2-1.5-0.1l0.1-0.2c-0.9-0.1-1.9,0.1-2.9,0.1c0.4,0.1,0.3,0.5,0,0.5l-0.1-0.3
							c-0.2,0.2,0.3,0.1-0.1,0.4c-0.4,0-0.3-0.4,0-0.5l-0.5,0.1c0-0.1,0.1-0.1,0.1-0.3c-0.2,0.2-0.8-0.3-1.1,0l0-0.1
							c-1,0-1.5,0.1-2.3,0.1c0,0.3-0.3,0.2-0.6,0.4c-0.6-0.1-1.3-0.3-2-0.3c-0.5,0.1-0.2,0.2-0.4,0.4c0-0.3-0.8-0.2-0.4-0.4
							c-0.9,0-1.1,0.1-2.2,0.3c0.1,0.1,0.3,0.2,0.2,0.2c-0.2,0-0.5-0.1-0.4-0.2l0.1,0c-1.3,0.4-2.9-0.7-3.9-0.2l0.1,0l-1,0.3
							c-0.5,0,0.3-0.2-0.1-0.4c-1.1,0.4-1.8-0.1-2.7,0.2c-0.4-0.4-1-0.4-1.6-0.3c-0.3,0-0.7,0.1-1,0.1c-0.2,0-0.3,0-0.5,0
							c-0.1,0-0.1,0-0.2,0c0,0,0,0,0-0.1l0,0.2c-0.1,0.2,0-0.1,0-0.1c-0.1,0.1,0,0.2-0.1,0.3c-0.1,0-0.2,0.1-0.3,0.1
							c0-0.1,0-0.3,0.1-0.4c0,0,0,0,0-0.1l0-0.3l0.1-0.7c0.1-0.9,0.2-1.8,0.3-2.7c0-0.8-0.9-0.4-0.5-1.4l0.3,0.3
							c-0.2-0.8-0.2-1.6-0.2-2.4c0-0.4,0-0.8,0-1.2c0-0.2-0.1-0.2-0.1-0.4c0.1,0.1,0.2,0.1,0.2,0.2c0.1,0,0.1,0,0.1-0.1
							c0-0.1,0-0.2-0.1-0.3c0.1,0,0.1,0.2,0.2,0.3c0.1,0.1,0-0.3,0.2-0.1c0,0-0.1,0.1-0.1,0.1c0.1-0.1,1,0,0.7-0.2
							c0.6,0.1,1.1-0.1,1.6,0c0.3-0.3,1,0.1,1.1-0.3c0,0.5,1,0.4,1.4,0.2c-0.1,0.1,0.3,0.1,0.2,0.3c0.4,0,0.8-0.1,0.7-0.3
							c0.8,0.5,1.6-0.4,2,0.3c1.3-0.2,2.4-0.4,3.5-0.5c0,0.5-1.2,0-1.2,0.5c1.1-0.2,1.7-0.6,2.7-0.5c0.3,0.1-0.2,0.2-0.2,0.3
							c1.1-0.2,2.1,0,3-0.2c0,0-0.1,0.1-0.2,0.1c0.2,0,0.4,0.1,0.4-0.1l-0.2,0.1c-0.3-0.3,0.7-0.6,0.8-0.8c-0.3,0.6,0.9,0.1,0.4,0.9
							c0.1,0,0.3-0.1,0.2-0.3c0.2,0,0.2,0.1,0.1,0.3c0.7-0.1,0.4-0.3,1-0.3c0,0.1-0.1,0.1-0.2,0.3c0.3-0.2,0.6-0.4,1.1-0.3
							c0,0.1,0,0.1-0.1,0.1c0.9,0,1.5-0.5,2.5-0.3c-0.3,0.4,0.3,0.1,0.4,0.5l0.5-0.1l-0.2-0.2c0.5,0,0.9-0.3,1.2-0.1l-0.3,0.2
							l0.9-0.1l-0.5-0.1c0.5-0.2,0-0.5,0.6-0.4c-0.1,0,0.5,0,0.7,0.2l0,0c0.2-0.1,0.5-0.2,0.8-0.2c0.1,0.1-0.1,0.4,0,0.5
							c0.2-0.3,1.1-0.1,1.3-0.4c-0.1,0.1-0.1,0.3-0.1,0.3l0.2-0.3c0.2,0.1,0.2,0.1,0.2,0.3c0.6,0-0.2-0.5,0.6-0.3
							c-0.1,0,0,0.1-0.2,0.1c0.8,0.1,1.5-0.2,2.2,0c0.2,0.4-0.6,0.1-0.4,0.4c1-0.1,2.1-0.5,3-0.4l-0.2,0c0.1-0.5,0.7,0.3,1.2,0
							c-0.1,0-0.2,0.3-0.1,0.2c0.7,0.1,1.4-0.1,2.4-0.3l-0.1,0.1c0.4,0.1,1,0.1,1.5,0.1c0.1-0.1,0.4-0.1,0.2-0.3
							c1.3,0.8,2.5-0.4,3.6,0.2c-0.1,0-0.3,0.1-0.2,0.1l1-0.1c-0.1-0.2-0.1-0.1-0.3-0.3c0.1-0.1,0.4-0.2,0.6-0.2
							c-0.4,0.2,0,0.4,0.2,0.5c0-0.1,0-0.1,0-0.2c0.5,0.4,0.1-0.5,0.8-0.2l0,0.1c0.3-0.1,0.5-0.2,0.8-0.2c0.1,0.3-0.3,0.1-0.3,0.3
							c0.4,0,0.8-0.5,1.1-0.2c-0.2,0.1-0.4,0.1-0.6,0.1c0.4,0.3,0.4,0.2,0.7,0.3l0,0l0.7,0.1l-0.2-0.1c0.5-0.7,1-0.1,1.7-0.6
							c-0.7,0.4-0.1,0.3-0.2,0.6c0.2,0.1,0.4,0.2,0.4,0.3c0.3-0.2,0.5,0.2,1-0.2c0,0.1,0.3,0,0.3,0.3c0.4-0.1-0.1-0.2-0.1-0.3
							c0.6-0.3,1.5,0.4,2.4-0.1c0.8-0.2,0.9-0.5,1.7-0.7c0.2,0.2-0.2,0.4-0.2,0.4c0.4,0.1,0.7,0.1,1.1,0c-0.1,0.1,0,0.2,0.1,0.3
							c0.3,0,0.2-0.4,0.6-0.2c-0.1,0.1-0.2,0.3-0.3,0.4c0.4-0.1,0.7-0.3,1.1-0.4c0.1,0.2-0.2,0.3-0.4,0.4c0.4-0.1,1.1-0.2,1.2-0.4
							l-0.3-0.1c0.2,0,0.1,0.2,0,0.3c-0.4,0.2-0.5-0.1-0.5-0.2l0.3-0.1c-0.3-0.6-1.1,0.1-1.6,0.1l0.2-0.4l-0.5,0.3
							c-0.1-0.1-0.2-0.3,0.1-0.4c-0.4-0.2-0.3,0.1-0.7-0.1c0,0,0-0.1,0-0.1l-0.4,0.1c0.1-0.1-0.1-0.3,0.2-0.2
							c-0.7-0.2-1.1,0.3-1.3,0l0.1,0c-0.9,0.1-0.1,0.3-0.8,0.7l-0.5-0.8l-0.1,0.3c-0.1,0-0.3,0-0.2-0.2c-0.4,0.2,0.1,0.1-0.1,0.3
							c-0.5-0.3-1.3,0.1-1.4-0.4c-0.2,0.2,0.4,0.2-0.1,0.3c-0.1-0.5-0.6,0.1-1-0.2c0.1-0.3,0.5-0.1,0.1-0.4c-0.3,0.5-0.8-0.1-1.2,0
							c0,0.4-0.8,0.2-1.4,0.3c0-0.1-1.1-0.2-1.7-0.3l0-0.1c-0.1,0.4-0.7,0.3-1.1,0.4c0-0.2,0.1-0.3,0.3-0.4l-0.4,0
							c-0.1,0.1-0.2,0.2-0.5,0.2l0.1-0.3c-0.5,0-1,0.3-1.7,0.1c0,0.3,0.5,0.7-0.2,0.9c0-0.1-0.1-0.4,0.1-0.4c-0.1,0-0.2,0.1-0.3,0.1
							l0.3-0.2c-0.3-0.1-0.2,0.2-0.4,0.2c0-0.2-0.2-0.1-0.1-0.3c0.1,0,0.2,0.1,0.3,0c-0.3,0-0.6-0.2-0.7-0.3c0,0.1,0,0.3-0.2,0.3
							c-0.5,0-0.2-0.2-0.5-0.3c-0.1,0.1-0.5,0-0.5,0.3c-0.2,0-0.2-0.1-0.2-0.2c-0.3,0.1-1.2,0-0.9,0.4l0.1,0c0,0,0,0,0,0h0h0
							c-0.9,0.3-1.8-0.2-2.7,0l0-0.1c-0.5,0.1-1.2,0.1-1.5,0.3c-0.2,0-0.4-0.2-0.3-0.3c-0.4,0.1-0.4,0.2-1,0
							c0.4-0.2-0.1-0.2,0.4-0.1c-0.5-0.1-0.6-0.2-1.2,0c0.2-0.3-0.4-0.3-0.6-0.2l0.4,0.2c-0.3,0-0.5,0-0.8,0l0.1-0.3
							c-1.1-0.4-1.9,0.7-2.7,0c-0.3,0.2,0.6,0.2,0.3,0.4c-0.5,0-1-0.5-1.1-0.5c-0.7-0.2-0.6,0.5-1.3,0.4c0.1,0.1,0.2,0.4-0.3,0.5
							c-0.5,0-0.6-0.5-0.3-0.6c0.1,0,0.2,0,0.2,0.1c0.2,0,0.4-0.1,0.2-0.2l-0.1,0.1c-0.2-0.1-0.9-0.1-0.8-0.3
							c-0.4,0.1-0.2,0.2,0.1,0.3c-0.6-0.2-1,0-1.6-0.1c0.1,0.1,0.2,0.2,0.1,0.2c-0.9-0.1-0.4,0.2-1.1,0.3c-0.4-0.2,0.1-0.4-0.5-0.3
							c-0.4-0.1-0.1-0.3,0.1-0.4c-0.6,0.2-1.1-0.2-1.4-0.2l0.3-0.1c-0.2,0.1-0.3,0.1-0.5,0.1l0.2,0.2c-0.2,0-0.3,0-0.3-0.1
							c-0.2,0.2,0.1,0.4-0.2,0.6c-0.2-0.1-0.7,0.1-0.8-0.2c0.8,0.1-0.1-0.3,0.6-0.4c-0.1,0-0.3,0-0.5,0c0,0,0-0.1,0.1-0.1
							c-0.7-0.3-0.3,0.4-1.1,0.3c0.1-0.2-0.2-0.3-0.3-0.3c0.3,0,0.1,0.3-0.1,0.4c-0.5-0.1-0.5,0.1-0.8,0.1l0.3,0.1
							c-0.1,0.2-0.3,0.2-0.7,0.2c0-0.1,0.3-0.1,0.2-0.2c-0.4,0.3-0.8-0.3-1.4-0.1c-0.2-0.1,0-0.3-0.2-0.4c-0.6,0.2-0.6-0.2-1.2-0.1
							c0.2,0.2,0.2,0.2-0.2,0.4l1-0.2l-0.6,0.3c0.3,0,0.6-0.1,0.8-0.1c-0.3,0.2-0.3,0.1-0.1,0.3c-0.4-0.4-0.8,0.2-1.3,0l0-0.6
							c-0.7-0.3-1.3,0.3-2.2,0.2l0.3,0.1c-0.1,0.2-0.6,0-0.9,0.1c0-0.2-0.2-0.3-0.3-0.4c0,0.1-0.7,0-0.8,0.4l-0.4-0.3
							c-0.8-0.1-0.9,0.6-1.6,0.5c0.2-0.2-0.1-0.4,0.4-0.5c-0.2,0-0.5,0-0.5,0.1c-0.1-0.1-0.7,0.3-0.9,0.1c-0.1,0.1-0.1,0.3-0.4,0.3
							c0,0,0-0.1,0-0.1c0,0.1-0.4,0.1-0.2,0.4c-0.7-0.6-2.1,0-2.7-0.5c-0.6,0.1-1.1,0.1-1.7,0.1c0-0.1,0-0.1,0.1-0.1
							c-1-0.2-0.4,0.6-1.4,0.4c-0.7-0.3,0.4-0.2,0-0.3c-0.3-0.3-0.7-0.3-1-0.2c0.1,0.5,0.1,1,0,1.3l0-0.2c-0.1,0.2,0,0.7,0,1.1
							c0,0.1,0,0.2,0.1,0.3l0.1,0.2c0,0.1,0.1,0.3,0,0.5c0,0-0.1,0-0.1,0c0.3,0.4,0.4,1.3,0.5,1.9c-0.3-0.2-0.1-0.3-0.4-0.2
							c0,0.3,0.4-0.1,0.5,0.5c-0.1,0.2-0.3,0.6-0.5,0.6l0-0.5c-0.4,0.3,0,0.7,0,0.9l-0.2,0c0.1,0.8,0.4,0.8,0.4,1.7l0.1-0.1
							c0.4,0.5-0.2,0.4,0.1,0.9l-0.4,0.1c0.1,0.3,0.4,1.1,0.5,1.6c-0.3-0.3-0.4-1-0.6-1.4c0,0.3,0,1,0.2,1.2c0-0.1-0.1-0.3-0.1-0.4
							c0.2,0.2,0.3,0.4,0.3,0.6c0.1,0.2,0.1,0.5,0.1,0.9c-0.5,0-0.4,1-0.5,2c0.5,0,0.9,0.1,1,0.3c0.5-0.1,0.9-0.1,1.4-0.1
							c0.3,0,0.6,0,0.8,0c0.6,0.1,1.1,0.1,1.8,0.1c-0.4-0.6,0.4,0,0.3-0.6c0.3,0,0.4,0,0.4,0l0.9,0.4c0.2,0.2-0.3,0.1-0.2,0.3
							c0.6,0,0.3,0.3,0.7,0.4c-0.1-0.2,0.2-0.3,0.6-0.2l-0.5-0.3c0.9-0.3,0.8,0.5,1.7,0.2l-0.3,0.2c0.5-0.1,1.7,0,2.1-0.5
							c0.1,0.1,0.2,0.2,0,0.3c1.1,0.1,2.4-0.5,3.3-0.2l-0.1,0.1c0.2,0,0.4-0.3,0.6-0.1c0,0.1-0.1,0.1,0,0.2c0.1-0.1,0.5-0.3,0.8-0.2
							l-0.2,0.2c1.1,0.2,1.6-0.4,2.5-0.5c0,0.4,0.8,0.6,1.3,0.7l0,0.1c1.2,0.1,2.1-0.4,3.3-0.5c0.7,0.5,2.4,0.2,3.6,0.5
							c-0.2-0.1,0-0.3,0.2-0.4c0.3,0.1,0.7-0.3,0.7,0.1l-0.1,0c0.2,0.4,0.8,0.3,1.2,0.3l0.1-0.5c1.1,0.8,3-0.3,3.6,0.4
							c0.3-0.1,0.6-0.1,0.9-0.3l0,0.3c0.8,0.1,1.1,0.1,2.1,0l-0.2,0.2c0.5,0,0.7-0.8,1.2-0.8l0.1,0.4c0.9,0,1.9,0.4,2.8,0
							c0,0.1,0,0.2-0.2,0.2c0.4,0,1.7,0.3,1.5-0.3c0,0.4,1,0,1.5-0.1l-0.1,0.3c0.4-0.4,0.4-0.5,1-0.6c0.1,0,0.1,0.2-0.1,0.2
							c0.5,0.1,0.4-0.3,0.9-0.1l-0.2,0.2c0.5,0,0.4-0.1,0.7-0.3c0.3-0.1,0.9,0.1,1,0.3c0.1-0.2,0.3-0.4,0.6-0.3
							c0,0.1-0.1,0.2-0.1,0.2c0.8,0.2,1.2-0.3,1.7-0.1c0,0.1,0,0.1,0.1,0.2c-0.6,0-1.1,0-1.1,0c0,0.3,0.5,0.3,0.1,0.7
							c0.4-0.2,1.1-0.6,1.6-0.5c0,0,0,0,0.1,0.1l-0.1,0c0.1,0,0.2,0,0.3,0c0.2,0,0.3,0.1,0.4,0.1c0.1,0.2,0.6,0.1,0.8,0.1
							c0-0.3,0.3-0.2,0-0.5c0,0,0,0-0.2,0c0,0-0.1,0-0.1,0l0,0c-0.2,0-0.4,0-0.6,0c0.2-0.1,0.4-0.3,0.7-0.1c0.1-0.2,0.3-0.4,0.4-0.5
							c0.3,0.4,1,0.6,1.1,0.8c0.8-0.2,1.8-0.1,2.3-0.6c0.2-0.1,0.3,0.2,0.3,0.2c-0.1,0.1-0.3,0-0.3,0.1c0.4-0.1,1.3-0.1,1.4-0.4
							c0.6,0.2-0.3,0.3,0.5,0.3l-0.1,0.1c1.5,0.6,2.5-0.9,4.1-0.2c-0.1,0-0.2-0.1-0.2-0.1c0.3,0.1,0.8,0.1,1.2,0.1
							c0.4,0,0.9,0,1.3,0c0-0.9-0.1-1.7-0.1-2.6c0-0.7,0-1.3,0.2-1.9c0.1-0.5-0.1-0.6-0.3-0.9l0.3-0.1l-0.3-0.6
							c-0.3-0.8,0.7-1.4,0.3-2.4l-0.2,0.1c0-0.4-0.1-1.1,0.1-1.1c0,0-0.2-0.1-0.1-0.3l0.2,0l-0.3-0.9c0.1-0.7,0.6,0.1,0.7-0.9
							c-0.1-0.4-0.5-1.1-0.6-0.9c0,0.2-0.1,0.4-0.3,0.4l-0.1-0.3c-0.5-0.1-0.9-0.3-1.3,0.5l0.3,0.6l-0.2,0.2l0-0.5
							c-0.2,0.3,0,0.5,0.1,0.7c-0.1,0-0.2,0.1-0.2,0.2l0.4,0.6c-0.2,0.1-0.4-0.3-0.5,0.1c0.2,0.3,0.4-0.3,0.5,0.2
							c-0.2,0.3-0.4,0.2-0.2,0.5c-0.1,0-0.2,0-0.2-0.2c0.1,0.3,0.1,0.8,0.3,0.9c-0.3,0.3,0.1,1-0.4,1c0.1,0.1,0.3,0.5,0.4,0.8
							c-0.5-0.5,0,1-0.6,0.9c0.5,0.4,0.2,1.3,0.5,1.9c0,0-0.1-0.1-0.1-0.2c0,0.4-0.2,0.5-0.3,0.7c0.4,0,0.5,0.6,0.7,0.9
							c-0.4,0.4-0.5-0.3-0.8-0.1c0.2,0,0.2,0.2,0.3,0.4c0.1,0.1,0.1,0.1,0.3,0.1c-0.2,0.1-0.1,0.1-0.4,0c0.5,0.2,0.1,0.1,0.4,0.4
							c-0.1,0-0.3-0.2-0.3-0.2c0,0,0,0,0,0C355.1,242.3,355,242.1,355,242.1z M343.7,242.9L343.7,242.9c0.1,0,0.2,0,0.3,0
							C343.9,242.9,343.8,242.9,343.7,242.9z M342.6,242.9c0.1,0,0.3,0,0.5,0c0,0.1,0,0.2-0.1,0.2C343,243.1,342.8,243,342.6,242.9z
							 M344.9,244.9c-0.2,0-0.2,0-0.3-0.1c0.1,0,0.2,0,0.3,0l0,0C344.9,244.8,344.9,244.8,344.9,244.9z"/>
						<path class="st2" d="M345.2,244.5C345.2,244.5,345.2,244.5,345.2,244.5C345.2,244.5,345.2,244.4,345.2,244.5L345.2,244.5
							C345.1,244.5,345.2,244.5,345.2,244.5z"/>
						<path class="st2" d="M335.2,231.4L335.2,231.4C335.2,231.4,335.2,231.5,335.2,231.4C335.2,231.5,335.2,231.4,335.2,231.4z"/>
						<polygon class="st2" points="327.8,242.4 327.8,242.5 327.9,242.4 						"/>
						<path class="st2" d="M341.1,232.4C341.1,232.4,341.2,232.5,341.1,232.4C341.2,232.5,341.2,232.4,341.1,232.4z"/>
						<path class="st2" d="M343.7,232.5l0.4,0.1C343.9,232.5,343.8,232.5,343.7,232.5z"/>
						<path class="st2" d="M345.7,232.6c0,0,0-0.1,0-0.1l0,0L345.7,232.6z"/>
						<path class="st2" d="M314.4,232.9C314.4,232.9,314.4,232.9,314.4,232.9C314.2,233,314.3,233,314.4,232.9z"/>
						<path class="st2" d="M323.7,232.3c-0.1,0.1-0.2,0.1-0.3,0.1C323.6,232.4,323.7,232.4,323.7,232.3z"/>
						<polygon class="st2" points="304,233.3 304,233.3 304,233.3 						"/>
						<path class="st2" d="M323,232.4c0.2,0.1,0.3,0,0.4,0C323.3,232.4,323.1,232.4,323,232.4z"/>
						<path class="st2" d="M354.2,232.7L354.2,232.7c0.1,0,0.1,0,0.1,0L354.2,232.7z"/>
						<path class="st2" d="M354.3,232.7l0.1,0C354.3,232.7,354.3,232.7,354.3,232.7z"/>
						<path class="st2" d="M354.6,232.6l-0.2,0.1C354.5,232.7,354.6,232.7,354.6,232.6z"/>
						<path class="st2" d="M351.6,232.6l0,0.1C351.6,232.7,351.6,232.7,351.6,232.6z"/>
						<path class="st2" d="M350.8,232.6c0.2,0,0.5,0.2,0.7,0.2l0-0.1C351.4,232.9,351,232.5,350.8,232.6z"/>
						<path class="st2" d="M347.5,231.4l0.7,0.1c-0.1-0.1-0.3-0.3,0-0.3C347.3,230.8,348.3,231.4,347.5,231.4z"/>
						<path class="st2" d="M345.4,231.2c0.4-0.1,0-0.2,0-0.2C345.2,231.1,345.2,231.1,345.4,231.2z"/>
						<path class="st2" d="M330.6,231.2l0-0.3C330.4,231,330.6,231.1,330.6,231.2z"/>
						<polygon class="st2" points="327.8,232.5 328,232.7 328.1,232.5 						"/>
						<polygon class="st2" points="326.1,230.7 326.2,230.7 325.7,230.8 						"/>
						<path class="st2" d="M301.2,230.8l0.1,0.3C301.4,231.1,301.5,230.7,301.2,230.8z"/>
						<path class="st2" d="M296.7,238.9c-0.2,0.1-0.3,0.4-0.1,0.6C296.6,239.3,296.8,239,296.7,238.9z"/>
						<polygon class="st2" points="324.9,244.9 324.7,245 325.1,244.9 						"/>
					</g>
				</g>
			</g>
		</g>
	</g>
	<path class="st3" d="M355.2,59.1c-10.2,1.4-16.6,10.7-18.9,20.1c-0.9,3.6-1.5,7.3-1.6,11c-0.2,4.4,1.4,8.4,3.2,12.3
		c3.1,8.4,4.3,17.3,5.7,26.1c0.6,4,1.4,8.1,2.2,12.1c1.2,5.8,3.7,11.6,6.5,16.8c2.6,4.8,6.4,9.3,10.4,12.9c3.5,3.2,7.2,6.4,10.8,9.4
		c5.9,4.8,12.5,9.3,17.3,15.2c0.7,1,1.3,2.1,1.9,3.2c0.9,2.5,1.5,5,1.9,7.6c0.3,2.2,0.4,4.3,0.2,6.5c0,0,0,0,0,0
		c0,0.3-0.1,0.6-0.2,0.8c0,0,0.1,0.1,0.1,0c1.5-2,2-4.8,2.5-7.2c0.6-3,1-6.2,0.7-9.2c-0.3-3.3-1.2-6.3-2.9-9.2
		c-2.2-3.6-4.7-6.9-7.3-10.2c-3.4-4.5-6.3-9.2-9.7-13.7c-3.5-4.6-6.8-9.1-9.2-14.3c-1.3-3.5-2.2-7-2.8-10.7
		c-0.3-2.6-0.6-5.2-0.6-7.8c-0.1-3-0.1-5.9-0.2-8.8c-0.3-6.8-1.2-13.6-2.2-20.3c-0.3-2.8-0.1-5.6-0.2-8.5c0-1.8-0.1-3.6-0.1-5.4
		c0.3-0.1,0.5-0.3,0.8-0.4c0.3-0.1,0.5-0.1,0.8-0.2c0.9,0,1.9-0.1,2.8,0c1.2,0.3,2.4,0.7,3.5,1.2c2.1,0.9,4.2,1.9,6.3,2.9
		c2.1,1,4,2.4,5.8,3.8c5.7,4.6,11.1,9.6,15.8,15.3c2.6,3.7,4.9,7.6,6.8,11.7c2.2,5.8,3.4,11.9,4.4,18c0.1,0.9,0.2,1.8,0.4,2.8
		c-0.1-0.6-0.2-1.3-0.3-1.9c1.1,10.1,1.5,20.3,0.3,30.4c-1.3,8.8-3.2,17.6-6.1,26c0,0,0.1,0.1,0.1,0c0.1-0.2,0.2-0.4,0.2-0.6
		c0,0,0,0,0,0c1.2-2.8,3-5.3,4.5-7.8c1.6-2.6,3.1-5.2,4.5-7.9c3-5.9,5.6-12,7.2-18.4c1.8-7.4,3.1-14.8,3.7-22.4
		c0.3-3.5,0.6-7,0.5-10.5c-0.1-3.6-0.5-7.3-0.8-10.9c-0.3-3.5-0.7-7-1.5-10.4c-1-4.3-2.6-8.4-4.6-12.2c-3.9-7.6-9.5-14.3-16.3-19.5
		c-2.6-1.9-5.3-3.6-8.1-5.2c-2.9-1.7-5.6-3.6-8.6-5.3c-3.9-2.3-8.4-3.5-12.5-5.2c-1.4-0.6-2.9-1.1-4.4-1.5c-1.7-0.5-4-0.8-5.7-0.9
		c-0.2,0-0.5,0-0.7,0C359.2,58.5,357.2,58.8,355.2,59.1L355.2,59.1L355.2,59.1z M410.1,170.2c0,0.1,0,0.2,0,0.3
		C410,170.5,410.1,170.4,410.1,170.2L410.1,170.2L410.1,170.2z M386.9,176.4c0.2,0.2,0.3,0.4,0.5,0.6
		C387.2,176.9,387,176.7,386.9,176.4L386.9,176.4L386.9,176.4z M394.5,205.5c0,0,0,0.1,0,0.1C394.5,205.6,394.5,205.6,394.5,205.5
		L394.5,205.5L394.5,205.5z M394.7,212.3C394.7,212.3,394.7,212.3,394.7,212.3C394.7,212.3,394.7,212.3,394.7,212.3L394.7,212.3
		L394.7,212.3z"/>
	<path class="st3" d="M452.5,195c-7.5,0.7-14.7,2.9-21.6,5.9c-7.1,3.1-14,6.6-20.9,10.1c-0.1,0,0,0.1,0,0.1c0.2-0.1,0.4-0.2,0.6-0.3
		c0,0,0,0,0,0c1.7-0.6,3.4-0.9,5.2-1.1c6.7-0.8,13.4-1.3,20.1-1.6c3.9-0.2,7.8-0.5,11.7-0.5c3.5-0.1,6.9,0.2,10.4,0.6
		c5.4,1,10.5,2.4,15.6,4.3c3.1,1.4,5.9,3,8.7,4.9c2.3,2,4.5,4.1,6.5,6.4c1.1,1.5,2,3,2.8,4.7c0.5,1.5,0.9,3,1.2,4.5
		c0.1,2,0.1,3.9,0,5.9c-0.2,0.8-0.4,1.5-0.6,2.2c-0.2,0.3-0.3,0.6-0.5,0.9c-0.4,0.4-0.8,0.8-1.3,1.2c-0.7,0.4-1.4,0.8-2.1,1.2
		c-1.4,0.5-2.9,0.8-4.3,1.1c-0.5,0-0.9,0.1-1.4,0.1c-0.9-0.2-1.7-0.5-2.5-0.8c-3.8-1.9-7.3-4.5-10.7-7c-3.2-2.5-6.3-5.1-9.5-7.6
		c-3.1-2.5-6.2-4.9-9.6-6.9c-5-2.8-10.4-4.2-15.9-5.4c-3.4-0.8-7-1.7-10.5-1.6c-2.9,0.1-5.8,0.8-8.5,1.9c0,0,0,0,0,0
		c-0.2,0.1-0.3,0.1-0.4,0.2c0,0,0,0.1,0,0.1c1.5-0.1,3.1,0.1,4.6,0.3c1.4,0.2,2.8,0.7,4.2,1.2c2.3,1,4.4,2.4,6.6,3.8
		c2.9,1.8,5.9,3.6,8.7,5.6c4.1,3.4,7.6,7.3,10.9,11.4c4.5,5.9,9.1,11.9,14.3,17.2c6.1,6,13.7,9.9,22.4,9.6c4.7-0.2,9-1.4,13.2-3.3
		c1.5-0.7,3-1.4,4.5-2.3c4.2-2.4,7.4-5.9,10.2-9.8c1.6-2.3,2.6-5.5,3.3-8.2c0.6-2.4,0.9-5,1-7.5c0.1-2.5-0.5-5.3-0.9-7.8
		c-0.4-2.2-1.2-4.3-2-6.4c-1-2.5-2-4.9-3.6-7.1c-1.3-1.9-2.7-3.7-4.2-5.5c-2.5-3.2-6.2-5.7-9.6-7.8c-3.6-2.3-8-3.7-12.1-4.8
		c-4-1.1-8.2-1.6-12.4-2c-3.1-0.3-6.3-0.5-9.5-0.5C460.6,194.5,456.5,194.7,452.5,195L452.5,195L452.5,195z M415.9,209.8
		C415.9,209.8,415.9,209.8,415.9,209.8C415.9,209.8,415.9,209.8,415.9,209.8L415.9,209.8L415.9,209.8z M424.1,219.9
		c0.1,0,0.2,0.1,0.3,0.1C424.2,220,424.1,219.9,424.1,219.9L424.1,219.9L424.1,219.9z"/>
	<path class="st3" d="M497.5,27.1c-1.3,0.2-2.7,0.4-4,0.5c-1.4,0.6-2.8,1.2-4.3,1.8c-1.3,0.5-4,2.9-4.4,3.3
		c-1.7,1.6-3.1,3.5-4.5,5.4c-1.6,2.1-2.8,4.6-4.2,6.8c-1.6,2.4-2.8,4.9-3.9,7.5c0.1-0.2,0.2-0.4,0.3-0.6
		c-3.5,8.3-9.3,15.5-14.6,22.8c-4.8,6.7-9,13.6-12.4,21.1c-3.8,8.1-5.7,17.3-2.9,26c1.3,4,2.9,7.9,4.1,11.9c1.2,4,2,8,2.6,12.1
		c0.3,2.1,0.5,4.2,0.3,6.4c0,0,0,0,0-0.1c-0.1,0.4-0.2,0.8-0.3,1.1c0,0.1,0.1,0.1,0.1,0c2.8-5.3,3.5-11.2,3.8-17.2
		c0.2-3.5,0.2-7.1,0.1-10.6c-0.1-3-0.2-5.9,0-8.9c0.4-1.8,0.9-3.5,1.6-5.2c1.4-3,3-5.8,5-8.5c6.5-8.1,13.4-15.8,20.1-23.7
		c3.6-4.2,7.2-8.5,11.4-12.2c0.5-0.5,1-1,1.5-1.4c0.5,2.1,1,4.2,1.6,6.2c1.7,5.5,4,10.7,6.2,15.9c0.6,1.9,1.1,3.8,1.5,5.7
		c0.7,6.9,0.8,13.8,0.1,20.8c-0.7,4-1.7,7.9-3,11.8c-1.6,3.4-3.4,6.5-5.6,9.5c-2.6,3-5.5,5.7-8.6,8.2c-4.5,3.3-9,6.6-13.7,9.5
		c-5,3.2-10.1,6.1-14.9,9.6c-4.3,3.1-8,6.5-11.7,10.4c-3.3,3.6-6.8,7.2-10.5,10.4c0,0,0,0.1,0.1,0.1c0.3-0.3,0.6-0.5,1-0.8
		c0,0,0,0,0,0c4.1-3.1,9-5,13.5-7.3c4.4-2.3,9-4.4,13.6-6.4c7-2.7,14.2-4.5,21.1-7.4c7.4-3.2,15.1-6.9,21.4-12
		c6.1-4.9,10.6-11.4,14.2-18.3c3.8-7.2,6.4-15,7.8-23c0.7-4.2,1.3-8.6,1.1-12.8c-0.2-4.6-0.9-9.2-1.6-13.8c-1-6.9-2.5-13.5-4.5-20.1
		c-0.9-2.9-1.9-5.8-2.8-8.8c-1-3.1-1.4-6.4-2.4-9.5c-0.7-2.5-1.7-5-3.1-7.2c-2.4-3.8-6.4-7.7-10.9-8.6c-1.4-0.3-2.9-0.7-4.4-0.7
		C498.2,27,497.8,27,497.5,27.1L497.5,27.1L497.5,27.1z"/>
</g>
<g>
	<path class="st4" d="M327.9,362.7c0,0.2-0.1,0.3-0.3,0.3c-0.1,0-0.4-0.1-0.8-0.3s-0.7-0.4-0.9-0.5c-1.4,1-3.1,1.5-5.1,1.5
		c-2.3,0-4.2-0.9-5.7-2.6c-1.4-1.6-2.1-3.6-2.1-5.9c0-2.4,0.7-4.4,2.1-6c1.5-1.7,3.4-2.6,5.7-2.6c1.2,0,2.4,0.3,3.5,0.8
		s2,1.3,2.7,2.3c0.1,0.1,0.2,0.3,0.2,0.3c0,0.1-0.3,0.5-0.8,1.1s-0.9,0.9-1,0.9c-0.1,0-0.3-0.2-0.7-0.7c-0.5-0.6-1-1-1.4-1.3
		c-0.7-0.5-1.5-0.7-2.2-0.7c-1.5,0-2.7,0.6-3.6,1.9c-0.9,1.1-1.3,2.5-1.3,4c0,1.5,0.4,2.8,1.3,4c1,1.2,2.2,1.9,3.6,1.9
		c1.4,0,2.7-0.4,3.9-1.2c0-0.2-0.1-1-0.2-2.2c-0.1-0.9-0.1-1.6-0.1-2.2c0-0.1,0.1-0.2,0.3-0.2c0.1,0,0.4,0,0.7,0s0.5,0,0.7,0
		s0.4,0,0.7,0s0.5,0,0.7,0c0.2,0,0.2,0.1,0.2,0.4c0,0.3,0,0.7,0,1.2s0,1,0,1.2c0,1.1,0.1,2.6,0.2,4.6L327.9,362.7z"/>
	<path class="st4" d="M336.4,352.3c0,0.9-0.1,1.6-0.2,2.3c0,0.2-0.1,0.3-0.2,0.3c-0.2,0-0.4,0-0.7-0.1s-0.6-0.1-0.8-0.1
		c-1,0-1.6,0.3-1.9,0.8c-0.2,0.3-0.2,1-0.2,2.1v1.3c0,0.4,0,1.1,0.1,2s0.1,1.6,0.1,2c0,0.2-0.1,0.3-0.3,0.3c-0.2,0-0.6,0-1.1,0
		s-0.9,0-1.1,0c-0.2,0-0.3-0.1-0.3-0.3c0-0.6,0-1.6,0-2.9s0-2.2,0-2.9c0-1.9-0.2-3.5-0.5-4.7c0-0.1,0-0.1,0-0.1
		c0-0.1,0.1-0.2,0.2-0.2c0.3,0,0.7-0.1,1.2-0.1c0.8-0.2,1.2-0.2,1.2-0.2c0.1,0,0.2,0.2,0.2,0.7s0.1,0.7,0.2,0.7c0,0,0,0,0.1,0
		c0.3-0.2,0.6-0.4,1-0.6c0.4-0.2,0.7-0.4,1.1-0.5c0.3-0.1,0.7-0.1,1.2-0.1C336.1,352.1,336.4,352.1,336.4,352.3z"/>
	<path class="st4" d="M348.3,357.6c0,1.6-0.5,3-1.6,4.2c-1.1,1.2-2.4,1.8-4.1,1.8c-1.6,0-3-0.6-4.1-1.8c-1.1-1.1-1.6-2.5-1.6-4.2
		s0.5-3,1.6-4.2c1.1-1.2,2.5-1.8,4.1-1.8c1.6,0,3,0.6,4.1,1.8C347.8,354.6,348.3,356,348.3,357.6z M345.8,357.6c0-1-0.3-1.8-0.9-2.4
		c-0.6-0.7-1.4-1.1-2.3-1.1s-1.7,0.4-2.3,1.1c-0.6,0.7-0.9,1.5-0.9,2.4c0,0.9,0.3,1.8,0.9,2.4c0.6,0.7,1.4,1.1,2.3,1.1
		c0.9,0,1.7-0.4,2.3-1.1C345.5,359.4,345.8,358.6,345.8,357.6z"/>
	<path class="st4" d="M365.7,354.9c0,1.5-0.1,2.4-0.2,2.8c-0.2,0.5-0.8,1.5-1.7,3.1c-1,1.7-1.6,2.5-1.8,2.6c-0.1,0-0.4,0-0.9,0
		c-0.4,0-0.6,0-0.7,0c-0.2-0.1-1.2-1.4-2.8-4c-0.4,0.7-0.9,1.5-1.3,2.2c-0.7,1.2-1.2,1.8-1.4,1.8c-0.1,0-0.3,0-0.8,0
		c-0.5,0-0.7,0-0.8,0c-0.2-0.1-0.9-0.9-1.8-2.6c-0.9-1.6-1.5-2.6-1.7-3.1c-0.2-0.5-0.3-1.4-0.3-2.8c0-1.1,0-1.9,0.1-2.4
		c0-0.2,0.1-0.3,0.3-0.3c0.2,0,0.6,0,1.1,0s0.8,0,1.1,0c0.1,0,0.2,0.1,0.2,0.4c0,0.2,0,0.4,0,0.8s0,0.6,0,0.8c0,1.4,0,2.3,0.1,2.9
		c0.1,0.5,0.7,1.5,1.8,3.1c0.1,0.2,0.2,0.3,0.2,0.3s0.1-0.1,0.2-0.3c1-1.5,1.6-2.5,1.7-3c0.1-0.4,0.1-1.2,0.1-2.5c0-0.3,0-0.7,0-1.2
		s0-0.9,0-1.2c0-0.2,0.1-0.3,0.2-0.3h2.2c0.1,0,0.2,0.1,0.2,0.3c0,0.3,0,0.6,0,1.1s0,0.9,0,1.1c0,1.4,0,2.2,0.1,2.4s0.4,0.8,1.1,1.8
		s1.1,1.5,1.2,1.5c0,0,0.1-0.1,0.2-0.3c1-1.5,1.5-2.5,1.6-3c0.1-0.4,0.1-1.1,0.1-2.1c0-0.3,0-0.7-0.1-1.3s-0.1-1-0.1-1.2
		c0-0.1,0.1-0.2,0.2-0.2c0.2,0,0.6,0,1,0s0.8,0,1,0c0.2,0,0.3,0.1,0.3,0.2C365.6,352.8,365.7,353.6,365.7,354.9z"/>
	<path class="st4" d="M370.5,349.3c0,1-0.5,1.4-1.6,1.4c-1.1,0-1.6-0.5-1.6-1.4c0-0.4,0.2-0.8,0.5-1.1c0.3-0.3,0.7-0.4,1.1-0.4
		s0.8,0.1,1.1,0.4S370.5,348.9,370.5,349.3z M370.4,352.5c0,0.6,0,1.5-0.1,2.7s-0.1,2.1-0.1,2.7c0,0.6,0,1.4,0,2.6s0,2,0,2.5
		c0,0.2-0.1,0.2-0.2,0.2h-2.3c-0.2,0-0.2-0.2-0.2-0.5c0-0.5,0-1.3,0-2.4s0-1.9,0-2.4c0-0.6,0-1.5-0.1-2.7s-0.1-2.1-0.1-2.7
		c0-0.1,0.1-0.2,0.2-0.2c0.1,0,0.4,0,0.7,0.1s0.5,0.1,0.7,0.1s0.4,0,0.7-0.1s0.5-0.1,0.7-0.1C370.3,352.2,370.4,352.3,370.4,352.5z"
		/>
	<path class="st4" d="M383,363.1c0,0.2-0.1,0.3-0.2,0.3c-0.3,0-0.6,0-1.2,0s-0.9,0-1.2,0c-0.1,0-0.2-0.1-0.2-0.3c0-0.4,0-1,0-1.7
		s0-1.4,0-1.8c0-0.3,0-0.8,0-1.4s0-1.1,0-1.4c0-0.9-0.1-1.5-0.4-1.9c-0.3-0.4-0.9-0.7-1.7-0.7c-0.4,0-0.9,0.2-1.6,0.7
		c-0.7,0.5-1.1,0.9-1.1,1.2v7c0,0.2-0.1,0.3-0.2,0.3c-0.3,0-0.6,0-1.1,0s-0.9,0-1.1,0c-0.2,0-0.2-0.1-0.2-0.3c0-0.6,0-1.5,0-2.8
		s0-2.2,0-2.8c0-1.7-0.2-3.2-0.5-4.6c0-0.1,0-0.1,0-0.2c0-0.1,0.1-0.1,0.2-0.2c0.1,0,0.5-0.1,1.3-0.2s1.3-0.2,1.3-0.2
		c0,0,0.1,0.1,0.1,0.2c0,0.5,0.1,1,0.3,1.5c0.4-0.3,0.9-0.7,1.6-1.2c0.8-0.5,1.6-0.8,2.4-0.8c1.5,0,2.5,0.4,3,1.3
		c0.4,0.6,0.6,1.6,0.6,3c0,0.2,0,0.6,0,1.1s0,0.9,0,1.1c0,0.5,0,1.3,0,2.3S383,362.6,383,363.1z"/>
	<path class="st4" d="M395.6,352.4c0,0.9,0,2.3,0,4.2s0,3.3,0,4.2c0,1.9-0.4,3.2-1.2,4.1c-0.8,0.9-2.2,1.4-4,1.4
		c-1.8,0-3.2-0.3-4.3-1c-0.2-0.1-0.3-0.2-0.3-0.3c0,0.1,0.1-0.5,0.4-1.7c0-0.1,0.1-0.2,0.2-0.2c0,0,0.1,0,0.2,0.1
		c1.2,0.7,2.3,1,3.5,1c0.8,0,1.4-0.2,1.9-0.5c0.6-0.4,0.9-1,0.9-1.7c0-0.2,0-0.5,0-1.1c-0.9,1.1-2,1.6-3.3,1.6
		c-1.4,0-2.6-0.5-3.6-1.6c-0.9-1-1.3-2.2-1.3-3.7c0-1.5,0.4-2.7,1.3-3.8c0.9-1.1,2.1-1.7,3.6-1.7c1.3,0,2.3,0.5,3.1,1.5
		c0.1,0.2,0.2,0.2,0.3,0.2c0.1,0,0.1-0.1,0.1-0.2c0-0.1,0-0.3,0-0.5s0-0.4,0-0.5c0-0.5,0-0.7,0.1-0.7c0.1,0,0.5,0.1,1.3,0.2
		s1.2,0.2,1.3,0.3C395.5,352.1,395.6,352.2,395.6,352.4z M392.8,357.2c0-0.9-0.2-1.6-0.7-2.2c-0.5-0.7-1.2-1-2.1-1
		c-0.8,0-1.5,0.3-2.1,1c-0.5,0.6-0.7,1.3-0.7,2.2c0,0.9,0.2,1.6,0.7,2.2c0.5,0.7,1.2,1,2,1c0.8,0,1.5-0.3,2-1
		C392.5,358.8,392.8,358.1,392.8,357.2z"/>
	<path class="st4" d="M410.3,361.2c0,0.2,0,0.4,0,0.7c0,0.4-0.1,0.6-0.1,0.7c0,0.1,0,0.2,0,0.3c0,0.1-0.1,0.1-0.2,0.2
		c-0.6,0.3-1.6,0.5-3,0.5c-1.8,0-2.7-0.8-2.7-2.5c0-0.7,0-1.7,0-3s0-2.3,0-3c0-0.3-0.2-0.5-0.5-0.5c-0.3,0-0.6,0-0.9,0
		c-0.2,0-0.2-0.4-0.2-1c0-0.2,0-0.5,0-0.7c0-0.2,0.1-0.3,0.4-0.3c0.2,0,0.4,0,0.6,0c0.4,0,0.5-0.2,0.5-0.5c0-0.3,0-0.8,0-1.4
		s0-1.1,0-1.4c0-0.6,0.1-0.9,0.3-0.9c0.1,0,0.8,0.1,2.2,0.4c0.2,0,0.3,0.1,0.3,0.3c0,0.3,0,0.9-0.1,1.5s-0.1,1.2-0.1,1.5
		c0,0.2,0.1,0.3,0.3,0.3h2.8c0.1,0,0.2,0,0.2,0.1s0,0.2,0,0.5s0,0.4,0,0.5c0,0.1,0,0.3,0,0.5s0,0.4,0,0.5c0,0.1-0.1,0.2-0.3,0.2
		c-0.3,0-0.8,0-1.4-0.1s-1.1-0.1-1.4-0.1c-0.1,0-0.1,0.2-0.1,0.7c0,0.6-0.1,1.3-0.1,2.3v1.7c0,0.7,0.1,1.1,0.2,1.4
		c0.2,0.4,0.6,0.6,1.2,0.6c0.2,0,0.6-0.1,1.1-0.2s0.8-0.2,1-0.2C410.2,360.9,410.3,361,410.3,361.2z"/>
	<path class="st4" d="M422.2,362.9c0,0.3-0.1,0.4-0.2,0.4c-0.2,0-0.6,0-1.1,0s-0.9,0-1.1,0c-0.2,0-0.3-0.1-0.3-0.4
		c0-0.4,0-0.9,0-1.7s0-1.3,0-1.7c0-0.4,0-0.9,0-1.6s0-1.3,0-1.6c0-1.4-0.7-2.1-2-2.1c-0.4,0-1,0.2-1.7,0.6c-0.7,0.5-1.1,0.9-1.1,1.3
		v7c0,0.2-0.1,0.3-0.2,0.3c-0.2,0-0.6,0-1.1,0s-0.8,0-1.1,0c-0.2,0-0.3-0.1-0.3-0.3v-5.7c0-0.9-0.1-2.9-0.2-5.9
		c0-0.9-0.1-2.3-0.2-4.1c0-0.1,0-0.2,0-0.2c0-0.1,0-0.2,0.1-0.2c0.1,0,0.6-0.1,1.3-0.1c0.2,0,0.4,0,0.7-0.1s0.6-0.1,0.7-0.1
		c0.1,0,0.2,0.1,0.2,0.2c0,0.7,0,1.8-0.1,3.3s-0.1,2.6-0.1,3.3c0,0.2,0,0.3,0.1,0.3c0.4-0.3,0.9-0.7,1.5-1.2
		c0.8-0.5,1.6-0.7,2.4-0.7c1.5,0,2.5,0.4,3,1.3c0.4,0.6,0.6,1.7,0.6,3c0,0.2,0,0.6,0,1.1s0,0.9,0,1.1c0,0.5,0,1.2,0,2.2
		S422.2,362.4,422.2,362.9z"/>
	<path class="st4" d="M431.1,352.3c0,0.9-0.1,1.6-0.2,2.3c0,0.2-0.1,0.3-0.2,0.3c-0.2,0-0.4,0-0.7-0.1s-0.6-0.1-0.8-0.1
		c-1,0-1.6,0.3-1.9,0.8c-0.2,0.3-0.2,1-0.2,2.1v1.3c0,0.4,0,1.1,0.1,2s0.1,1.6,0.1,2c0,0.2-0.1,0.3-0.3,0.3c-0.2,0-0.6,0-1.1,0
		s-0.9,0-1.1,0c-0.2,0-0.3-0.1-0.3-0.3c0-0.6,0-1.6,0-2.9s0-2.2,0-2.9c0-1.9-0.2-3.5-0.5-4.7c0-0.1,0-0.1,0-0.1
		c0-0.1,0.1-0.2,0.2-0.2c0.3,0,0.7-0.1,1.2-0.1c0.8-0.2,1.2-0.2,1.2-0.2c0.1,0,0.2,0.2,0.2,0.7s0.1,0.7,0.2,0.7c0,0,0,0,0.1,0
		c0.3-0.2,0.6-0.4,1-0.6c0.4-0.2,0.7-0.4,1.1-0.5c0.3-0.1,0.7-0.1,1.2-0.1C430.8,352.1,431.1,352.1,431.1,352.3z"/>
	<path class="st4" d="M443,357.6c0,1.6-0.5,3-1.6,4.2c-1.1,1.2-2.4,1.8-4.1,1.8c-1.6,0-3-0.6-4.1-1.8c-1.1-1.1-1.6-2.5-1.6-4.2
		s0.5-3,1.6-4.2c1.1-1.2,2.5-1.8,4.1-1.8c1.6,0,3,0.6,4.1,1.8C442.5,354.6,443,356,443,357.6z M440.6,357.6c0-1-0.3-1.8-0.9-2.4
		c-0.6-0.7-1.4-1.1-2.3-1.1s-1.7,0.4-2.3,1.1c-0.6,0.7-0.9,1.5-0.9,2.4c0,0.9,0.3,1.8,0.9,2.4c0.6,0.7,1.4,1.1,2.3,1.1
		c0.9,0,1.7-0.4,2.3-1.1C440.3,359.4,440.6,358.6,440.6,357.6z"/>
	<path class="st4" d="M455.6,352.7c0,0.6,0,1.4-0.1,2.6s-0.1,2-0.1,2.6c0,0.6,0,1.4,0.1,2.6s0.1,2,0.1,2.6c0,0.2-0.1,0.3-0.2,0.3
		c-0.1,0-0.9,0-2.4,0c-0.1,0-0.2-0.3-0.2-0.9s-0.1-0.9-0.1-0.9c0,0-0.1,0-0.2,0.1c-1.3,1.1-2.6,1.7-3.9,1.7c-1.7,0-2.9-0.6-3.4-1.9
		c-0.3-0.8-0.5-2.2-0.5-4.2c0-1.8,0.1-3.3,0.4-4.6c0.1-0.3,0.2-0.5,0.4-0.5c0.2,0,0.6,0,1,0s0.8,0,1,0c0.2,0,0.2,0.1,0.2,0.3
		c0,0.3-0.1,0.8-0.2,1.5c-0.1,0.8-0.2,1.3-0.2,1.6c0,0.5,0,1,0,1.5c0,1.4,0.1,2.3,0.3,2.8c0.3,0.8,1.1,1.3,2.2,1.3
		c0.5,0,1.1-0.2,1.7-0.7c0.7-0.5,1.1-1,1.1-1.5c0-0.6,0.1-2.6,0.1-6.2c0-0.4,0.2-0.6,0.5-0.6h1.9
		C455.4,352.3,455.6,352.4,455.6,352.7z"/>
	<path class="st4" d="M468.3,352.4c0,0.9,0,2.3,0,4.2s0,3.3,0,4.2c0,1.9-0.4,3.2-1.2,4.1c-0.8,0.9-2.2,1.4-4,1.4
		c-1.8,0-3.2-0.3-4.3-1c-0.2-0.1-0.3-0.2-0.3-0.3c0,0.1,0.1-0.5,0.4-1.7c0-0.1,0.1-0.2,0.2-0.2c0,0,0.1,0,0.2,0.1
		c1.2,0.7,2.3,1,3.5,1c0.8,0,1.4-0.2,1.9-0.5c0.6-0.4,0.9-1,0.9-1.7c0-0.2,0-0.5,0-1.1c-0.9,1.1-2,1.6-3.3,1.6
		c-1.4,0-2.6-0.5-3.6-1.6c-0.9-1-1.3-2.2-1.3-3.7c0-1.5,0.4-2.7,1.3-3.8c0.9-1.1,2.1-1.7,3.6-1.7c1.3,0,2.3,0.5,3.1,1.5
		c0.1,0.2,0.2,0.2,0.3,0.2c0.1,0,0.1-0.1,0.1-0.2c0-0.1,0-0.3,0-0.5s0-0.4,0-0.5c0-0.5,0-0.7,0.1-0.7c0.1,0,0.5,0.1,1.3,0.2
		s1.2,0.2,1.3,0.3C468.2,352.1,468.3,352.2,468.3,352.4z M465.5,357.2c0-0.9-0.2-1.6-0.7-2.2c-0.5-0.7-1.2-1-2.1-1
		c-0.8,0-1.5,0.3-2.1,1c-0.5,0.6-0.7,1.3-0.7,2.2c0,0.9,0.2,1.6,0.7,2.2c0.5,0.7,1.2,1,2,1c0.8,0,1.5-0.3,2-1
		C465.2,358.8,465.5,358.1,465.5,357.2z"/>
	<path class="st4" d="M480.7,362.9c0,0.3-0.1,0.4-0.2,0.4c-0.2,0-0.6,0-1.1,0s-0.9,0-1.1,0c-0.2,0-0.3-0.1-0.3-0.4
		c0-0.4,0-0.9,0-1.7s0-1.3,0-1.7c0-0.4,0-0.9,0-1.6s0-1.3,0-1.6c0-1.4-0.7-2.1-2-2.1c-0.4,0-1,0.2-1.7,0.6c-0.7,0.5-1.1,0.9-1.1,1.3
		v7c0,0.2-0.1,0.3-0.2,0.3c-0.2,0-0.6,0-1.1,0s-0.8,0-1.1,0c-0.2,0-0.3-0.1-0.3-0.3v-5.7c0-0.9-0.1-2.9-0.2-5.9
		c0-0.9-0.1-2.3-0.2-4.1c0-0.1,0-0.2,0-0.2c0-0.1,0-0.2,0.1-0.2c0.1,0,0.6-0.1,1.3-0.1c0.2,0,0.4,0,0.7-0.1s0.6-0.1,0.7-0.1
		c0.1,0,0.2,0.1,0.2,0.2c0,0.7,0,1.8-0.1,3.3s-0.1,2.6-0.1,3.3c0,0.2,0,0.3,0.1,0.3c0.4-0.3,0.9-0.7,1.5-1.2
		c0.8-0.5,1.6-0.7,2.4-0.7c1.5,0,2.5,0.4,3,1.3c0.4,0.6,0.6,1.7,0.6,3c0,0.2,0,0.6,0,1.1s0,0.9,0,1.1c0,0.5,0,1.2,0,2.2
		S480.7,362.4,480.7,362.9z"/>
	<path class="st4" d="M251.2,380c0,0.2-0.2,0.3-0.5,0.3c-1.2,0-3.1-0.1-5.6-0.3c-2.5-0.2-4.3-0.3-5.6-0.3c-1.6,0-2.5,0.1-2.7,0.2
		c-0.6,0.3-0.9,1.1-0.9,2.3c0,1.5,0.4,2.4,1.2,2.6c0.3,0.1,0.8,0.1,1.5,0.1c1.1,0,2.8-0.1,5-0.2c2.2-0.1,3.9-0.2,5-0.2
		c0.5,0,0.8,1.4,0.8,4.3c0,2.5-0.1,3.9-0.3,4.3c-0.1,0.3-0.3,0.4-0.7,0.4c0.2,0-0.3-0.1-1.5-0.2c-1.7-0.2-4.4-0.2-7.9-0.2
		c-1.1,0-1.8,0-1.9,0c-0.8,0.1-1.2,0.5-1.2,1.1c0,2.3,0.1,5,0.3,8c0.2,2.7,0.2,3.9,0.2,3.6c0,0.4-0.5,0.7-1.5,0.7c0.3,0-0.4,0-2.2,0
		c-3,0-5-0.1-5.9-0.3c-0.5-0.1-0.7-0.4-0.7-0.8c0-1.8,0.1-4.5,0.2-8.1c0.1-3.6,0.2-6.3,0.2-8.1c0-2.1-0.1-4.9-0.3-8.1
		c-0.3-5-0.4-7.7-0.5-8.1l0-0.3c0-0.4,0.2-0.6,0.7-0.6c1.2,0,3,0,5.5,0.1c2.4,0,4.3,0.1,5.5,0.1c1.3,0,3.3-0.1,5.9-0.3
		s4.6-0.3,5.9-0.3c0.8,0,1.3,0.3,1.4,1c0,0.7,0,1.8,0.1,3.1c0,0.4,0.1,1.1,0.3,2.1C251.1,378.8,251.2,379.5,251.2,380z"/>
	<path class="st4" d="M278.4,394.1c0,1.3,0.1,3.1,0.2,5.6c0.1,2.5,0.2,4.3,0.2,5.6c0,0.7-0.3,1-0.9,1.1c-2,0.1-4.3,0.2-6.9,0.2
		c-0.3,0-0.5-0.5-0.6-1.4c-0.1-0.9-0.2-1.4-0.4-1.4c-0.1,0.1-0.3,0.2-0.5,0.4c-1.8,1.8-3.8,2.8-5.9,2.8c-3.2,0-5.8-1.3-7.9-3.8
		c-2-2.3-3-5.1-3-8.4c0-3.8,1-6.8,3.1-9.1c2.1-2.4,5-3.6,8.7-3.6c2.6,0,4.6,0.9,6.1,2.7c0.1,0.1,0.1,0.1,0.2,0.1
		c0.1,0,0.3-0.4,0.5-1.2c0.2-0.8,0.4-1.2,0.7-1.2c0.6,0,1.7,0.2,3.4,0.5c1.6,0.3,2.8,0.6,3.5,0.8c0.2,0.1,0.4,0.2,0.4,0.4
		c0,0.1,0,0.2-0.1,0.5C278.7,387.7,278.4,390.8,278.4,394.1z M270.6,394.3c0-1.4-0.4-2.5-1.3-3.4c-0.9-0.9-2-1.4-3.4-1.4
		c-1.4,0-2.5,0.4-3.4,1.3c-0.9,0.9-1.3,2-1.3,3.4c0,1.3,0.5,2.4,1.4,3.4c0.9,0.9,2,1.4,3.3,1.4c1.4,0,2.5-0.5,3.4-1.4
		S270.6,395.6,270.6,394.3z"/>
	<path class="st4" d="M292.3,395.1c0,1.2,0,3,0.1,5.3s0.1,4.1,0.1,5.3c0,0.3-0.2,0.5-0.6,0.6c-0.6,0.1-1.8,0.1-3.7,0.1
		c-2,0-3.2,0-3.8-0.1c-0.4-0.1-0.6-0.2-0.7-0.3c0-0.1,0-0.3,0-0.7c0-1.1,0-2.8,0.1-5.1c0-2.3,0.1-4,0.1-5.1c0-4.6-0.2-8.3-0.5-11
		c0-0.3,0-0.4,0-0.5c0-0.3,0.2-0.5,0.7-0.5c0.5,0,1.2,0,2.1,0.1c0.9,0.1,1.6,0.1,2.1,0.1c0.5,0,1.2,0,2.1-0.1
		c0.9-0.1,1.7-0.1,2.1-0.1c0.4,0,0.6,0.2,0.6,0.5c0,0.1,0,0.2,0,0.5C292.5,387.2,292.3,390.9,292.3,395.1z M293,377
		c0,2.8-1.6,4.2-4.8,4.2c-1.4,0-2.5-0.4-3.4-1.1c-1-0.8-1.5-1.8-1.5-3.2c0-1.3,0.5-2.3,1.5-3.1c0.9-0.7,2-1.1,3.3-1.1
		c1.3,0,2.4,0.4,3.3,1.1C292.5,374.7,293,375.7,293,377z"/>
	<path class="st4" d="M313.4,399.2c0,0.5-0.1,1.2-0.2,2.2c-0.1,1-0.2,1.7-0.2,2.2s0,0.8-0.1,0.9c-0.1,0.1-0.4,0.3-0.8,0.6
		c-2.1,1.2-4.4,1.7-7,1.7c-4.7,0-7.1-1.8-7.1-5.4c0-1.1,0-2.7,0.1-4.8c0.1-2.2,0.1-3.8,0.1-4.8c0-0.7-0.4-1.1-1.2-1.1
		c-0.1,0-0.2,0-0.3,0c-0.1,0-0.3,0-0.3,0c-0.6,0-0.9-0.2-0.9-0.7c0-0.3,0-0.7,0.1-1.2c0-0.5,0.1-0.9,0.1-1.2c0-0.3,0-0.9-0.1-1.6
		c0-0.7-0.1-1.2-0.1-1.6c0-0.3,0.5-0.5,1.6-0.5c0.6,0,0.9-0.2,1-0.5c0.1-0.6,0.1-1.6,0.1-2.9c-0.1-2.1-0.1-3.1-0.1-3
		c0-1.9,0.2-2.8,0.5-2.8c0.4,0,1.1,0.1,1.9,0.3c0.9,0.2,1.6,0.3,1.9,0.4c0.8,0.1,2.1,0.3,3.8,0.5c0.4,0,0.6,0.2,0.6,0.4
		c0,0.7-0.1,1.6-0.2,3c-0.1,1.3-0.2,2.3-0.2,3c0,0.8,0.2,1.2,0.7,1.2c0.6,0,1.4,0,2.6-0.1c1.2,0,2-0.1,2.6-0.1
		c0.4,0,0.5,0.1,0.5,0.4c0,0.4,0,0.9-0.1,1.7c-0.1,0.7-0.1,1.3-0.1,1.7c0,0.4,0,1,0,1.7c0,0.8,0,1.3,0,1.7c0,0.3-0.2,0.5-0.7,0.5
		c-0.3,0-0.9,0-1.6,0c-0.8,0-1.3,0-1.6,0h-1.8c-0.2,0-0.4,0.4-0.4,1.1c0,0.4,0,1,0,1.7c0,0.8,0,1.4,0,1.7c0,1.4,0.2,2.3,0.5,2.8
		c0.4,0.7,1.3,1.1,2.6,1.1c0.4,0,1-0.1,1.7-0.3s1.3-0.3,1.6-0.3C313.2,398.6,313.4,398.8,313.4,399.2z"/>
	<path class="st4" d="M340.3,388.6l0,16.8c0,0.6-0.2,0.9-0.7,1c-0.5,0.1-1.7,0.1-3.6,0.1c-1.8,0-3-0.1-3.7-0.2
		c-0.5-0.1-0.8-0.4-0.8-1.1c0-1.4,0-3.5,0.1-6.3c0-2.8,0.1-4.9,0.1-6.3c0-1.9-1-2.9-2.9-2.9c-0.7,0-1.4,0.3-2.3,0.8
		c-1,0.6-1.4,1.2-1.4,1.8v6c0,0.8,0,2,0,3.5c0,1.6,0,2.7,0,3.5c0,0.6-0.3,0.9-0.8,1c-0.5,0.1-1.9,0.1-4.2,0.1
		c-1.3,0-2.3-0.1-2.9-0.2c-0.6-0.1-0.9-0.4-0.9-0.9c0-1.3,0-3.2,0-5.8c0-2.6,0-4.5,0-5.8c0-5.3-0.1-9.7-0.2-13.2
		c0-1.2-0.1-2.4-0.1-3.7c-0.1-1.4-0.2-2.6-0.4-3.6c0-0.2-0.1-0.4-0.1-0.5c0-0.2,0.1-0.4,0.4-0.5c0.5-0.1,1.2-0.2,2.2-0.3
		c1.3,0,2.1-0.1,2.3-0.1l4.4-0.5c0.3,0,0.4,0.2,0.4,0.5c0,0.5,0,1.2-0.1,2.1c-0.1,1-0.1,1.8-0.1,2.1c-0.1,3.7-0.1,6.6-0.1,8.7
		c0,0.3,0.1,0.5,0.2,0.5c0,0,0.4-0.3,1.2-0.9c0.9-0.7,1.8-1.2,2.7-1.6c1.3-0.6,2.5-0.9,3.7-0.9c2.1,0,3.8,0.5,5.2,1.6
		C339.6,385,340.3,386.6,340.3,388.6z"/>
	<path class="st4" d="M381.3,394.1c0,1.3,0.1,3.1,0.2,5.6c0.1,2.5,0.2,4.3,0.2,5.6c0,0.7-0.3,1-0.9,1.1c-2,0.1-4.3,0.2-6.9,0.2
		c-0.3,0-0.5-0.5-0.6-1.4c-0.1-0.9-0.2-1.4-0.4-1.4c-0.1,0.1-0.3,0.2-0.5,0.4c-1.8,1.8-3.8,2.8-5.9,2.8c-3.2,0-5.8-1.3-7.9-3.8
		c-2-2.3-3-5.1-3-8.4c0-3.8,1-6.8,3.1-9.1c2.1-2.4,5-3.6,8.7-3.6c2.6,0,4.6,0.9,6.1,2.7c0.1,0.1,0.1,0.1,0.2,0.1
		c0.1,0,0.3-0.4,0.5-1.2c0.2-0.8,0.4-1.2,0.7-1.2c0.6,0,1.7,0.2,3.4,0.5c1.6,0.3,2.8,0.6,3.5,0.8c0.2,0.1,0.4,0.2,0.4,0.4
		c0,0.1,0,0.2-0.1,0.5C381.6,387.7,381.3,390.8,381.3,394.1z M373.5,394.3c0-1.4-0.4-2.5-1.3-3.4c-0.9-0.9-2-1.4-3.4-1.4
		c-1.4,0-2.5,0.4-3.4,1.3c-0.9,0.9-1.3,2-1.3,3.4c0,1.3,0.5,2.4,1.4,3.4c0.9,0.9,2,1.4,3.3,1.4c1.4,0,2.5-0.5,3.4-1.4
		S373.5,395.6,373.5,394.3z"/>
	<path class="st4" d="M410.4,405.6c0,0.4-0.2,0.7-0.7,0.8c-0.5,0.1-1.6,0.1-3.6,0.1c-2.1,0-3.3,0-3.8-0.1s-0.7-0.4-0.7-1
		c0-0.8,0-1.9,0.1-3.5c0-1.5,0.1-2.7,0.1-3.5c0-0.6,0-1.5,0-2.7c0-1.2,0-2.1,0-2.7c0-2.2-1-3.3-2.9-3.3c-0.6,0-1.4,0.3-2.2,0.8
		c-0.9,0.6-1.4,1.2-1.4,1.8v13.2c0,0.5-0.3,0.8-0.8,0.9c-0.6,0.1-1.7,0.1-3.5,0.1c-1.9,0-3.1,0-3.7-0.1c-0.5-0.1-0.8-0.3-0.8-0.8
		c0-1.3,0-3.2,0-5.7c0-2.6,0-4.5,0-5.8c0-4.1-0.3-7.2-1-9.5c0-0.1,0-0.3,0-0.4c0-0.3,0.1-0.4,0.4-0.5c1-0.1,2.4-0.3,4.1-0.5
		c2.6-0.5,4-0.8,4.4-0.8c0.2,0,0.3,0.5,0.4,1.6s0.2,1.6,0.4,1.6c-0.2,0,0.7-0.6,2.6-1.7s3.6-1.7,5.1-1.7c2.1,0,3.8,0.5,5.2,1.5
		c1.5,1.1,2.3,2.7,2.3,4.7v7.8c0,1.1,0,2.6,0,4.7S410.4,404.5,410.4,405.6z"/>
	<path class="st4" d="M440.4,371.7c0-0.4-0.1,0.2-0.2,1.6c-0.2,1.8-0.3,4.1-0.4,6.9c-0.1,3.2-0.2,6.8-0.2,10.9
		c0,6.7,0.2,11.5,0.6,14.4c0,0.3,0,0.5,0,0.6c0,0.2-0.1,0.3-0.4,0.3c-0.6,0.1-2.7,0.1-6.5,0.1c-0.9,0-1.4-0.2-1.5-0.5
		c0-0.6-0.1-1.2-0.1-1.9c0-0.1-0.1-0.3-0.2-0.4c-0.1,0-0.2,0.1-0.4,0.3c-1.8,1.7-4,2.6-6.6,2.6c-3.4,0-6.2-1.2-8.3-3.6
		c-2-2.3-3-5.2-3-8.7c0-3.5,1-6.5,2.9-8.8c2.1-2.4,4.8-3.7,8.3-3.7c2.5,0,4.4,0.8,5.7,2.3c0.2,0.3,0.4,0.4,0.5,0.4
		c0.1,0,0.2-0.2,0.2-0.6c0-1.3,0-3.1-0.1-5.6c-0.1-2.5-0.1-4.4-0.1-5.6c0-0.5,0.1-0.7,0.4-0.8c1,0,2.5-0.1,4.3-0.3
		c3.3-0.4,4.7-0.6,4.3-0.6C440.2,371.1,440.4,371.3,440.4,371.7z M431.2,394.1c0-1.3-0.4-2.4-1.3-3.4c-0.9-1-2-1.5-3.2-1.5
		c-1.3,0-2.4,0.5-3.2,1.5c-0.8,1-1.2,2.1-1.2,3.5c0,1.3,0.4,2.4,1.2,3.3c0.8,1,1.9,1.5,3.2,1.5c1.3,0,2.4-0.5,3.3-1.5
		S431.2,395.4,431.2,394.1z"/>
	<path class="st4" d="M480.5,379.5c0,0.3-0.2,0.5-0.5,0.5c-0.6,0-3.1-0.1-7.3-0.4c-0.1,4.1-0.1,7-0.1,8.6c0,1.9,0.1,4.8,0.2,8.7
		s0.2,6.7,0.2,8.7c0,0.3-0.1,0.5-0.2,0.6c0,0-0.3,0.1-0.7,0.1c-1,0.1-2.4,0.2-4.3,0.2c-2.1,0-3.6-0.1-4.4-0.2
		c-0.5-0.1-0.7-0.3-0.7-0.8c0-1.9,0.1-4.8,0.2-8.6c0.2-3.8,0.2-6.7,0.2-8.6c0-1.3-0.1-4.1-0.2-8.5c-3.3,0.3-5.9,0.5-7.8,0.5
		c-0.3,0-0.4-0.1-0.4-0.2c0-0.2,0.1-0.8,0.3-1.9c0.3-1.1,0.4-1.8,0.4-2.1c0-0.8,0.1-1.5,0.2-2.3c0.1-1.2,0.3-1.8,0.6-1.8
		c0,0,0.1,0,0.3,0c2.6,0.3,6.5,0.5,11.7,0.5c1.5,0,4.2-0.2,8.1-0.5c2.1-0.2,3.2-0.2,3.2-0.2c0.3,0,0.5,0,0.6,0.1
		c0,0,0.1,0.2,0.1,0.5c0,0.4,0,1.1,0,1.8c0,0.9,0,1.5,0,1.8c0,0.4,0.1,1,0.2,1.8C480.4,378.5,480.5,379.1,480.5,379.5z"/>
	<path class="st4" d="M499.1,391.1c0,0.6-0.4,1-1,1c-0.3,0-0.8,0-1.4-0.1c-0.6,0-1-0.1-1.3-0.1c-1.4,0-2.3,0.2-2.8,0.6
		c-0.5,0.4-0.7,1.3-0.7,2.6c0,0.7,0,1.8,0,3.2c0,1.4,0,2.5,0,3.2c0,0.5,0,1.2,0.1,2.1c0.1,0.9,0.1,1.6,0.1,2.1
		c0,0.4-0.3,0.6-0.8,0.7c-0.8,0.1-2,0.1-3.6,0.1c-1.5,0-2.8,0-3.7-0.1c-0.5-0.1-0.8-0.3-0.8-0.8c0-1.3,0-3.3,0-5.8
		c0-2.6,0-4.5,0-5.8c0-3.8-0.4-7-1-9.4c0-0.1,0-0.3,0-0.4c0-0.2,0.1-0.4,0.4-0.5c0.9-0.1,2.2-0.3,3.9-0.5c2.6-0.5,3.9-0.8,4-0.8
		c0.3,0,0.5,0.5,0.6,1.5c0.1,1,0.2,1.5,0.4,1.5c-0.2,0,0.4-0.4,2-1.3s3.1-1.3,4.5-1.3c0.9,0,1.4,0.2,1.4,0.6c0,0.5,0,1.1-0.1,2
		c-0.1,0.9-0.2,1.6-0.2,2c0,0.5,0,1.1,0,1.9C499.1,390.2,499.1,390.8,499.1,391.1z"/>
	<path class="st4" d="M527.1,384.1c0,1.2-0.1,3-0.2,5.4c-0.1,2.4-0.2,4.2-0.2,5.4c0,1.2,0,2.9,0.1,5.3c0.1,2.3,0.1,4.1,0.1,5.3
		c0,0.4-0.2,0.7-0.6,0.8c-0.6,0.2-1.9,0.2-3.9,0.2c-1.8,0-3,0-3.7-0.1c-0.3,0-0.5-0.2-0.6-0.6c0-0.5-0.1-1-0.1-1.5
		c-0.1-0.7-0.2-1.1-0.3-1.1c0.2,0-0.6,0.6-2.5,1.7c-1.9,1.1-3.6,1.7-5.1,1.7c-4.3,0-6.9-1.9-7.7-5.8c-0.4-1.8-0.5-4.4-0.5-7.9
		c0-3.7,0.3-6.6,0.9-8.8c0.2-0.7,0.5-1,1-1c0.7,0,1.9,0,3.4,0c1.5,0,2.7,0,3.4,0c0.5,0,0.8,0.2,0.8,0.6c0,0.1,0,0.3,0,0.5
		c-0.3,2.2-0.5,4.5-0.5,6.7c0,2.8,0.1,4.8,0.3,5.8c0.3,1.8,1.4,2.7,3.2,2.7c0.7,0,1.5-0.3,2.3-1s1.3-1.3,1.3-2c0-0.6,0-4.7,0-12.3
		c0-0.5,0-0.9,0.1-1c0.1-0.2,0.4-0.2,0.9-0.2c0.8,0,2,0,3.6,0c1.6,0,2.8,0,3.6,0c0.5,0,0.8,0.1,0.9,0.4
		C527.1,383.7,527.1,383.9,527.1,384.1z"/>
	<path class="st4" d="M547.4,399.2c0,0.5-0.1,1.2-0.2,2.2c-0.1,1-0.2,1.7-0.2,2.2s0,0.8-0.1,0.9c-0.1,0.1-0.4,0.3-0.8,0.6
		c-2.1,1.2-4.4,1.7-7,1.7c-4.7,0-7.1-1.8-7.1-5.4c0-1.1,0-2.7,0.1-4.8s0.1-3.8,0.1-4.8c0-0.7-0.4-1.1-1.2-1.1c-0.1,0-0.2,0-0.3,0
		c-0.1,0-0.3,0-0.3,0c-0.6,0-0.9-0.2-0.9-0.7c0-0.3,0-0.7,0.1-1.2c0-0.5,0.1-0.9,0.1-1.2c0-0.3,0-0.9-0.1-1.6c0-0.7-0.1-1.2-0.1-1.6
		c0-0.3,0.5-0.5,1.6-0.5c0.6,0,0.9-0.2,1-0.5c0.1-0.6,0.1-1.6,0.1-2.9c-0.1-2.1-0.1-3.1-0.1-3c0-1.9,0.2-2.8,0.5-2.8
		c0.4,0,1.1,0.1,1.9,0.3c0.9,0.2,1.6,0.3,1.9,0.4c0.8,0.1,2.1,0.3,3.8,0.5c0.4,0,0.6,0.2,0.6,0.4c0,0.7-0.1,1.6-0.2,3
		s-0.2,2.3-0.2,3c0,0.8,0.2,1.2,0.7,1.2c0.6,0,1.4,0,2.6-0.1s2-0.1,2.6-0.1c0.4,0,0.5,0.1,0.5,0.4c0,0.4,0,0.9-0.1,1.7
		c-0.1,0.7-0.1,1.3-0.1,1.7c0,0.4,0,1,0,1.7c0,0.8,0,1.3,0,1.7c0,0.3-0.2,0.5-0.7,0.5c-0.3,0-0.9,0-1.6,0c-0.8,0-1.3,0-1.6,0h-1.8
		c-0.2,0-0.4,0.4-0.4,1.1c0,0.4,0,1,0,1.7c0,0.8,0,1.4,0,1.7c0,1.4,0.2,2.3,0.5,2.8c0.4,0.7,1.3,1.1,2.6,1.1c0.4,0,1-0.1,1.7-0.3
		c0.8-0.2,1.3-0.3,1.6-0.3C547.3,398.6,547.4,398.8,547.4,399.2z"/>
	<path class="st4" d="M574.4,388.6l0,16.8c0,0.6-0.2,0.9-0.7,1c-0.5,0.1-1.7,0.1-3.6,0.1c-1.8,0-3-0.1-3.7-0.2
		c-0.5-0.1-0.8-0.4-0.8-1.1c0-1.4,0-3.5,0.1-6.3c0-2.8,0.1-4.9,0.1-6.3c0-1.9-1-2.9-2.9-2.9c-0.7,0-1.4,0.3-2.3,0.8
		c-1,0.6-1.4,1.2-1.4,1.8v6c0,0.8,0,2,0,3.5c0,1.6,0,2.7,0,3.5c0,0.6-0.3,0.9-0.8,1c-0.5,0.1-1.9,0.1-4.2,0.1
		c-1.3,0-2.3-0.1-2.9-0.2c-0.6-0.1-0.9-0.4-0.9-0.9c0-1.3,0-3.2,0-5.8c0-2.6,0-4.5,0-5.8c0-5.3-0.1-9.7-0.2-13.2
		c0-1.2-0.1-2.4-0.1-3.7c-0.1-1.4-0.2-2.6-0.4-3.6c0-0.2-0.1-0.4-0.1-0.5c0-0.2,0.1-0.4,0.4-0.5c0.5-0.1,1.2-0.2,2.2-0.3
		c1.3,0,2.1-0.1,2.3-0.1l4.4-0.5c0.3,0,0.4,0.2,0.4,0.5c0,0.5,0,1.2-0.1,2.1c-0.1,1-0.1,1.8-0.1,2.1c-0.1,3.7-0.1,6.6-0.1,8.7
		c0,0.3,0.1,0.5,0.2,0.5c0,0,0.4-0.3,1.2-0.9c0.9-0.7,1.8-1.2,2.7-1.6c1.3-0.6,2.5-0.9,3.7-0.9c2.1,0,3.8,0.5,5.2,1.6
		C573.6,385,574.4,386.6,574.4,388.6z"/>
</g>
</svg>
