<?xml version="1.0" encoding="utf-8"?>
<!-- Generator: Adobe Illustrator 21.0.0, SVG Export Plug-In . SVG Version: 6.00 Build 0)  -->
<svg version="1.1" id="Layer_1" xmlns="http://www.w3.org/2000/svg" xmlns:xlink="http://www.w3.org/1999/xlink" x="0px" y="0px"
	 viewBox="0 0 1033.7 1241.3" style="enable-background:new 0 0 1033.7 1241.3;" xml:space="preserve">
<style type="text/css">
	.st0{fill:none;}
	.st1{fill:#03EDFF;}
	.st2{fill:#23EFFF;}
	.st3{fill:#FFFFFF;}
	.st4{fill:#1AFF0C;}
	.st5{fill:#8C8C8C;}
</style>
<rect class="st0" width="1033.7" height="1241.3"/>
<g>
	<g>
		<circle class="st1" cx="245" cy="411" r="28"/>
		<g>
			<g>
				<g>
					<g>
						<path class="st2" d="M216.3,411c0.1,0.1,0.3,0,0.3-0.2l-0.3-0.2L216.3,411z"/>
						<path class="st2" d="M217,409.3c-0.1-0.3-0.4-0.7-0.7-0.5c0.3,0.3,0.2,0.4,0.5,0.7c0,0.3-0.1,0.4-0.2,0.4
							c0.1,0.1-0.1,0.4,0.1,0.5c0.3-0.3,0.3-0.7,0.1-1.2C216.9,409.2,217,409.3,217,409.3z"/>
						<path class="st2" d="M229,388.6l-0.1,0.1C228.9,388.6,229,388.6,229,388.6z"/>
						<path class="st2" d="M243.2,383.7c-0.1,0-0.2,0-0.2,0.1C243.1,383.8,243.2,383.8,243.2,383.7z"/>
						<path class="st2" d="M245.8,384c-0.1,0-0.1,0-0.1,0C245.7,384.1,245.7,384.1,245.8,384z"/>
						<path class="st2" d="M229,388.6l0.4-0.2C229.4,388.3,229.2,388.5,229,388.6z"/>
						<path class="st2" d="M216.7,405.7c0,0.1,0,0.2,0.1,0.2L216.7,405.7L216.7,405.7z"/>
						<path class="st2" d="M224.3,393.3L224.3,393.3c-0.1,0.1-0.1,0.2,0,0.3L224.3,393.3z"/>
						<path class="st2" d="M221.4,397.4c0.1-0.1-0.2-0.3-0.2-0.4c0.1,0.1,0.1,0.2,0,0.3C221.3,397.4,221.3,397.4,221.4,397.4z"/>
						<path class="st2" d="M218,404.8l0,0.1C218,404.9,218,404.8,218,404.8z"/>
						<path class="st2" d="M226.9,390.7c0,0,0.1,0,0.1,0C227,390.7,227,390.7,226.9,390.7z"/>
						<path class="st2" d="M216.4,417.3C216.4,417.3,216.4,417.3,216.4,417.3C216.4,417.3,216.4,417.3,216.4,417.3z"/>
						<path class="st2" d="M217.1,411L217.1,411c0.1,0.1,0.1,0.1,0.2,0.1L217.1,411z"/>
						<path class="st2" d="M250.3,384.9C250.3,384.9,250.3,384.9,250.3,384.9C250.2,384.9,250.2,384.9,250.3,384.9z"/>
						<path class="st2" d="M271.2,416.7c0.4-0.4,0.1,0.8,0.6,0.2C271.7,416.9,271.5,416.1,271.2,416.7z"/>
						<path class="st2" d="M216.7,405.6l0-0.2C216.7,405.5,216.7,405.5,216.7,405.6z"/>
						<path class="st2" d="M271.8,416.9L271.8,416.9L271.8,416.9C271.8,416.8,271.8,416.8,271.8,416.9z"/>
						<path class="st2" d="M260.1,388.9c0-0.1,0-0.1,0-0.2C260.1,388.7,260.1,388.8,260.1,388.9z"/>
						<path class="st2" d="M253.1,385l0.2,0.1C253.2,385.1,253.1,385,253.1,385z"/>
						<path class="st2" d="M263.5,391.2c0.1,0.1,0.1,0.1,0.2,0.2c0,0,0,0,0-0.1C263.7,391.3,263.6,391.3,263.5,391.2z"/>
						<path class="st2" d="M266.5,394.4C266.5,394.3,266.5,394.3,266.5,394.4c0-0.1-0.1-0.2-0.1-0.2L266.5,394.4z"/>
						<path class="st2" d="M222.7,429.9c0-0.1,0-0.2,0-0.3C222.7,429.7,222.2,429.3,222.7,429.9z"/>
						<path class="st2" d="M216.8,405.7c-0.1,0-0.1-0.1-0.1-0.2c0,0.1,0,0.1,0,0.2C216.7,405.8,216.8,405.8,216.8,405.7z"/>
						<path class="st2" d="M265.2,389.7l0.5,0.5C265.6,390,265.4,389.8,265.2,389.7z"/>
						<path class="st2" d="M253.1,439l-0.2,0.1C253,439.1,253,439,253.1,439z"/>
						<path class="st2" d="M267.3,391.8c0,0.2,0.1,0.3,0.1,0.4c0,0,0.1,0,0.1,0L267.3,391.8z"/>
						<path class="st2" d="M222.8,429.5L222.8,429.5L222.8,429.5z"/>
						<path class="st2" d="M219.5,425.9c0.4,0.6,0.5,0.1,0.7,0.1c0.5,0.7,0,0.5,0,0.8c0.4,0.4,0.9,0.6,1.1,0.9c0,0.1,0,0.1-0.1,0.1
							c0.6,0.3,1,1.3,1.7,1.6c0,0.1,0,0.1,0,0.1c0.1-0.2,0.2-0.3,0.3-0.4c0.2,0.2,0.6,0.3,0.5,0.5c-0.1-0.1-0.2-0.1-0.3-0.1l0.3,0.2
							c-0.1,0.4-0.4-0.3-0.6-0.1c0.5,0.4,1.2,0.8,1.5,1.2c-0.2,0.3-0.9-0.8-0.6-0.1l-0.4-0.6c0,0.8-0.3-0.4-0.4,0.4
							c0.6,0.8,0.9,0.7,1.5,1.5c0.3,0,0.1-0.3,0.4-0.2c1.3,0.7,0.3,1.4,1.3,1.8c0.4,0,0.7-0.3,1.2,0.3l-0.4,0.2
							c0.8,0.6,0.8-0.1,1.4,0.7c-0.2,0-0.7-0.4-0.6-0.2c0.4,0.6,0.5,0.1,0.9,0.4l-0.1,0.3c0.9,0.5,2,0.9,3.1,1.4
							c-0.1,0.1-0.3,0.1-0.1,0.3c0.7,0.2,1.4,0.6,2.1,1c0.7,0.3,1.4,0.7,2,1l0.6-0.1c0.1,0,0.2,0.2,0,0.2c0.5,0.2,0.1-0.2,0.4-0.2
							c0.3,0.1,0.3,0.3,0.1,0.3c0.5,0,1.2,0,1.9,0.2c0.7,0.1,1.4,0.2,1.8,0.4l-0.2,0.1c0.8,0.2,1-0.5,1.6-0.1l-0.1,0
							c1.7,0.3,3.6,0.1,4.9,0.4c0.2-0.4,1.7,0.1,1.8-0.5c1,0.1,0.7,0.3,2.1,0.3c0.4,0,0.5-0.5,0.9-0.6l0.1,0.3l0.5-0.5l0.4,0.3
							l0.4-0.2c-0.2,0-0.4,0-0.4-0.1c0.3-0.2,0.7-0.2,1-0.2c0.3,0,0.6,0,0.6,0.1l1.4-0.8c0,0.1-0.2,0.3-0.4,0.4
							c0.7-0.6,0.3,0.2,0.9-0.3c-0.1,0,0-0.2,0-0.3c0.4,0.1,1.2-0.4,1.8-0.7l0,0.2c1.1-0.4,2.1-1.3,3.3-2c-0.5,0.2-0.6-0.2-0.3-0.4
							l0.3,0.2c0.1-0.3-0.4,0.1-0.1-0.4c0.4-0.2,0.5,0.1,0.3,0.4l0.4-0.4c0.1,0.1,0,0.2,0,0.3c0.1-0.3,1-0.4,1.1-0.9l0.1,0.1
							c1.1-0.8,1.4-1.3,2.2-2c-0.2-0.2,0.2-0.5,0.2-0.8c0.6-0.5,1.3-1,2-1.7c0.3-0.6-0.1-0.3,0-0.6c0.2,0.1,0.8-0.6,0.6-0.1
							c0.3-0.5,0.5-0.8,0.7-1.1c0.1-0.2,0.2-0.4,0.3-0.6c0.1-0.2,0.2-0.5,0.4-0.8c-0.2,0.1-0.3,0.2-0.3,0.1c0.1-0.2,0.4-0.4,0.5-0.3
							l0,0.1c0.2-0.8,0.9-1.5,1.4-2.2c0.5-0.7,1.1-1.4,1-2.1l0,0.1l0.2-1.3c0.3-0.6,0.1,0.4,0.4,0c0-0.4,0.1-0.7,0.2-1
							c0.1-0.3,0.1-0.6,0.2-0.8c0.2-0.5,0.3-1,0.3-1.6c0.5-0.4,0.6-1.2,0.7-2c0-0.4,0.1-0.9,0.1-1.3c0-0.4,0.1-0.8,0.2-1.1l-0.2,0.1
							c-0.2-0.3,0.1-0.4,0.2-0.6c-0.1,0-0.2,0.3-0.3,0.1c0-1.4,0-2.7,0-4.2c0-0.7-0.1-1.4-0.1-2.1l-0.1-1.1c-0.1-0.4-0.1-0.7-0.2-1
							c-0.2-1-1-0.3-0.9-1.7l0.4,0.3c-0.5-0.9-0.9-1.9-1.2-2.9c-0.4-1-0.9-1.9-1.5-2.7c0.1,0.1,0.2,0,0.3,0.2c0-0.5-0.8-1.4-1-1.3
							c-0.1-0.3,0.1-0.2,0.1-0.4c-0.1-0.4-0.8-0.8-0.7-1.1c0-0.1,0.1,0.1,0.2,0.1c-0.3-0.2-0.8-1.1-0.8-0.7
							c-0.4-0.7-0.9-1.1-1.2-1.6c-0.5-0.1-0.8-1.1-1.2-0.9c0.4-0.3-0.6-1.3-1.1-1.4c0.2,0-0.2-0.4,0.1-0.4c-0.4-0.4-0.8-0.6-0.9-0.4
							c-0.4-1.1-1.8-0.9-1.8-1.8c-0.4-0.2-0.7-0.4-1.1-0.6c-0.4-0.2-0.7-0.3-1.1-0.5c-0.7-0.3-1.3-0.7-2-0.9
							c0.3-0.4,1.4,0.7,1.6,0.3c-0.3-0.1-0.6-0.2-0.9-0.3c-0.3-0.1-0.6-0.1-0.8-0.2c-0.5-0.1-1-0.3-1.6-0.7
							c-0.3-0.2,0.3-0.1,0.4-0.1c-0.6-0.2-1.3-0.4-1.9-0.7c-0.6-0.2-1.2-0.5-1.8-0.5c0,0,0.2-0.1,0.3-0.1c-0.2,0-0.5-0.2-0.6,0
							l0.2,0c0.3,0.4-1.1,0.4-1.2,0.5c0.5-0.5-1.1-0.4-0.3-1c-0.2,0-0.4,0-0.4,0.2c-0.2-0.1-0.3-0.2,0-0.3c-0.9-0.1-0.6,0.2-1.4,0.1
							c0-0.1,0.2-0.1,0.3-0.2c-0.4,0.1-0.8,0.3-1.5,0.1c0-0.1,0-0.1,0.2-0.1c-1.1-0.2-1.9,0.3-3.2,0.1c0.4-0.4-0.4-0.2-0.5-0.5
							c-0.2,0-0.4,0.1-0.7,0.1l0.3,0.2c-0.6,0-1.1,0.3-1.6,0.2l0.4-0.2l-1.1,0.1l0.6,0.1c-0.6,0.2,0.1,0.5-0.7,0.4
							c0.2,0-0.6,0-0.9-0.1l0,0c-0.3,0.2-0.5,0.3-1,0.3c-0.1-0.1,0-0.4-0.1-0.5c-0.2,0.4-1.3,0.3-1.6,0.7c0.1-0.1,0.1-0.3,0-0.3
							l-0.2,0.3c-0.3,0-0.3,0-0.3-0.2c-0.8,0.2,0.4,0.4-0.6,0.4c0.1,0,0-0.1,0.2-0.1c-1,0.1-1.7,0.6-2.6,0.8
							c-0.4-0.3,0.7-0.4,0.3-0.5c-0.6,0.3-1.2,0.6-1.8,0.9c-0.6,0.3-1.1,0.7-1.7,0.9l0.2-0.1c0.1,0.6-0.9,0.1-1.4,0.7
							c0.1-0.1,0-0.4,0-0.3c-0.8,0.4-1.4,1-2.4,1.8l0-0.2c-0.5,0.2-1.1,0.7-1.6,1c0,0.2-0.3,0.4,0,0.4c-0.9,0.2-1.4,0.8-1.9,1.4
							c-0.5,0.6-0.9,1.2-1.6,1.5c0.1-0.1,0.2-0.4,0.1-0.3l-0.7,1c0.2,0.1,0.2,0,0.5-0.1c0,0.2-0.2,0.5-0.4,0.8
							c0.3-0.5-0.3-0.2-0.5-0.1c0.1,0,0.1,0.1,0.2,0.2c-0.7,0.3,0.3,0.4-0.4,0.9l-0.1-0.1c-0.1,0.3-0.2,0.6-0.4,0.9
							c-0.3,0,0.1-0.4-0.1-0.5c-0.3,0.4-0.2,1.1-0.6,1.3c0-0.2,0.2-0.5,0.3-0.7c-0.6,0.2-0.5,0.3-0.7,0.6l0,0l-0.6,0.7l0.2-0.1
							c0.3,0.9-0.6,1.1-0.5,2.1c0-0.9-0.2-0.2-0.4-0.4c-0.2,0.2-0.4,0.4-0.4,0.3c0,0.5-0.5,0.5-0.4,1.2c-0.1,0-0.2,0.4-0.4,0.2
							c-0.2,0.5,0.2,0,0.3,0c0,0.8-1.1,1.6-1,2.9c-0.1,1,0.2,1.3,0.1,2.2c-0.2,0.3-0.3-0.3-0.3-0.3c-0.3,0.5-0.4,0.8-0.3,1.3
							c-0.1-0.1-0.2,0-0.3,0.1c0,0.4,0.3,0.3,0.1,0.8c-0.1-0.1-0.2-0.2-0.3-0.4c0,0.5,0.1,0.9,0.2,1.4c-0.2,0.1-0.2-0.3-0.3-0.5
							c0,0.5-0.1,1.4,0.2,1.6l0.1-0.3c0,0.2-0.2,0.1-0.3-0.1c-0.1-0.5,0.2-0.6,0.3-0.6l0,0.3c0.6-0.3,0.1-1.3,0.2-2l0.4,0.3
							l-0.2-0.7c0.1-0.1,0.4-0.2,0.4,0.2c0.3-0.4,0-0.4,0.3-0.8c0,0,0.1,0,0.1,0l0-0.5c0.1,0.1,0.3,0,0.2,0.3c0.4-0.7,0-1.3,0.4-1.6
							l0,0.1c0.2-1.1-0.3-0.2-0.3-1.1l0.9-0.3l-0.2-0.2c0.1-0.1,0.2-0.3,0.3-0.2c0-0.5-0.1,0-0.2-0.3c0.2-0.2,0.3-0.6,0.4-0.9
							c0.1-0.3,0.3-0.5,0.5-0.5c-0.1-0.3-0.4,0.4-0.3-0.2c0.5,0.1,0.2-0.7,0.7-1c0.2,0.3-0.2,0.6,0.3,0.3c-0.3-0.5,0.5-0.8,0.7-1.2
							c-0.3-0.2,0.4-0.9,0.6-1.6c0,0.1,0.9-1,1.5-1.4l0,0.1c-0.2-0.3,0.2-0.9,0.5-1.3c0.2,0.2,0.2,0.3,0.1,0.5
							c0.1-0.1,0.2-0.2,0.3-0.4c0-0.2,0-0.3,0.2-0.6l0.1,0.3c0.4-0.5,0.6-1.2,1.3-1.6c-0.1-0.2-1-0.1-0.5-0.8
							c0.1,0.1,0.3,0.2,0.2,0.4c0-0.1,0.1-0.3,0.3-0.3l-0.1,0.4c0.3-0.2,0-0.3,0.2-0.5c0.1,0.1,0.3,0,0.3,0.1c0,0.1-0.2,0.1-0.3,0.2
							c0.3-0.2,0.6-0.4,0.8-0.4c-0.1-0.1-0.2-0.2,0-0.4c0.5-0.4,0.3,0,0.6-0.1c0-0.2,0.4-0.3,0.2-0.6c0.1-0.1,0.3,0,0.4,0
							c0.2-0.3,1.2-0.9,0.7-1l-0.1,0l0,0l0,0l0,0c0.7-0.9,2-1.1,2.8-1.7l0,0.1c0.5-0.4,1.2-0.7,1.5-1.1c0.2-0.1,0.5,0,0.5,0.1
							c0.4-0.3,0.4-0.4,1.1-0.5c-0.4,0.3,0.2,0.1-0.4,0.3c0.6-0.1,0.8,0,1.3-0.5c-0.1,0.3,0.5,0.1,0.8,0l-0.5,0
							c0.3-0.1,0.6-0.2,0.9-0.3l0,0.4c0.7,0,1.2-0.3,1.6-0.5c0.5-0.3,0.9-0.5,1.5-0.2c0.3-0.3-0.7-0.1-0.5-0.4
							c0.6,0,1.3,0.3,1.4,0.3c0.8,0.1,0.7-0.6,1.5-0.6c-0.1-0.1-0.3-0.4,0.4-0.6c0.6,0,0.8,0.5,0.4,0.6c-0.1,0-0.2,0-0.2-0.1
							c-0.2,0.1-0.4,0.1-0.2,0.2l0.1-0.1c0.3,0.1,1.1,0.1,0.9,0.3c0.4-0.1,0.2-0.2-0.1-0.2c0.8,0.2,1.2-0.1,1.9,0.1
							c-0.1-0.1-0.2-0.2-0.1-0.2c1.1,0.2,0.5-0.2,1.3-0.2c0.4,0.2-0.2,0.4,0.6,0.3c0.5,0.1,0.1,0.3-0.1,0.4c0.7-0.2,1.3,0.3,1.6,0.4
							l-0.4,0c0.2,0,0.4,0,0.6,0l-0.2-0.3c0.2,0.1,0.4,0.1,0.4,0.2c0.2-0.1-0.1-0.4,0.4-0.6c0.3,0.2,0.9,0,0.9,0.3
							c-0.9-0.3,0,0.3-0.7,0.2c0.2,0,0.3,0,0.5,0.1c0,0,0,0.1-0.1,0.1c0.8,0.5,0.5-0.3,1.3,0c-0.2,0.1,0.1,0.4,0.3,0.4
							c-0.3-0.1-0.1-0.3,0.3-0.4c0.5,0.3,0.6,0.1,0.9,0.1l-0.3-0.1c0.2-0.1,0.4-0.1,0.8,0c0,0.1-0.4,0-0.3,0.1
							c0.5-0.1,0.8,0.7,1.5,0.7c0.2,0.2-0.1,0.3,0.1,0.5c0.7,0,0.6,0.5,1.3,0.6c-0.1-0.3-0.1-0.3,0.4-0.3l-1.2-0.4l0.8,0
							c-0.3-0.2-0.8-0.2-0.9-0.3c0.4,0,0.4,0,0.3-0.3c0.3,0.5,1,0.2,1.4,0.7l-0.3,0.5c0.3,0.3,0.7,0.4,1.1,0.5
							c0.4,0.1,0.8,0.3,1.3,0.6l-0.3-0.3c0.3-0.1,0.6,0.3,1,0.4c-0.1,0.1,0,0.3,0.1,0.5c0.1-0.1,0.6,0.5,1,0.2l0.2,0.5
							c0.7,0.6,1.2,0.2,1.8,0.8c-0.3,0-0.1,0.4-0.7,0.1c0.2,0.2,0.4,0.4,0.5,0.3c0,0.2,0.8,0.3,0.9,0.7c0.2,0,0.3-0.1,0.6,0.1
							c0,0.1-0.1,0.1-0.1,0.1c0.1-0.1,0.5,0.3,0.4-0.1c0.1,0.6,0.5,1,1,1.5c0.2,0.2,0.4,0.4,0.6,0.7c0.1,0.2,0.3,0.5,0.3,0.7
							c0.4,0.5,1,1,1.3,1.5c-0.1,0-0.1,0.1-0.1-0.1c0.3,0.8,0.7,0.1,1,1c0,0.6-0.4-0.3-0.4,0c-0.5,0.4,0.7,0.9,0.6,1.6l-0.1-0.1
							c0,0.5,0.7,0.9,1,1.6c0,0-0.1,0-0.1,0c0.6,0.3,1,1.2,1.3,1.9c-0.3-0.1-0.2-0.3-0.4-0.1c0.1,0.3,0.4-0.2,0.7,0.4
							c-0.1,0.3,0,0.7-0.3,0.9c-0.1-0.2-0.1-0.4-0.2-0.6c-0.2,0.4,0.3,0.8,0.3,1.1l-0.2,0c0.3,0.9,0.7,0.8,0.9,1.8l0.1-0.1
							c0.5,0.5-0.1,0.5,0.2,1l-0.4,0.2c0.1,0.3,0.6,1.2,0.7,1.9c-0.3-0.4-0.6-1.1-0.8-1.5c0.1,0.4,0.2,1.2,0.4,1.4
							c-0.1-0.1-0.2-0.3-0.1-0.5c0.4,0.4,0.6,1,0.6,1.7c-0.8-0.1-0.1,1.9-0.8,2.4c0.1,0.6,0.1,1.3-0.1,1.9c-0.2,0.6-0.4,1.3-0.4,2
							c0.7-0.4,0,0.4,0.6,0.5c0,0.4-0.1,0.5-0.1,0.5l-0.6,0.9c-0.2,0.2,0-0.4-0.2-0.4c-0.2,0.7-0.3,0.2-0.6,0.7
							c0.2,0,0.2,0.3,0.1,0.7l0.4-0.5c0.1,1.1-0.8,0.7-0.8,1.8l-0.1-0.4c-0.1,0.6-0.7,1.9-0.5,2.5c-0.1,0.1-0.3,0.1-0.2-0.1
							c-0.3,0.6-0.5,1.3-0.8,1.9c-0.3,0.6-0.6,1.2-0.9,1.6l-0.1-0.2c-0.1,0.2,0,0.5-0.3,0.7c0,0-0.1-0.2-0.1-0.1
							c0,0.1-0.2,0.7-0.4,0.9l0-0.3c-0.5,0.4-0.7,0.9-0.8,1.4c-0.2,0.4-0.4,0.9-0.7,1.3c-0.3-0.3-1.1,0.4-1.5,0.6l0-0.1
							c-0.6,0.5-1,1-1.3,1.5c-0.4,0.5-0.8,0.9-1.3,1.4c-0.5,0.1-1.1,0.5-1.8,0.8c-0.7,0.4-1.4,0.9-2.1,1c0.2,0,0.1,0.3-0.1,0.5
							c-0.3,0.1-0.7,0.7-0.8,0.3l0.1,0c-0.4-0.3-0.9,0.2-1.4,0.3l0.1,0.5c-0.8-0.1-1.6,0.3-2.3,0.6c-0.8,0.3-1.5,0.6-1.9,0.3
							c-0.3,0.2-0.7,0.3-1,0.5l0-0.3c-0.9,0-1.3,0.1-2.4,0.3l0.2-0.2c-0.6,0-0.7,0.9-1.3,0.9l-0.2-0.4c-1.1,0.1-2.2-0.4-3.3,0
							c0-0.1,0.1-0.2,0.2-0.2c-0.5,0-1.9-0.5-1.8,0.1c0-0.4-1.1-0.2-1.7-0.1l0.1-0.2c-0.6,0.2-0.6,0.3-1.3,0.2
							c-0.2-0.1-0.1-0.3,0.1-0.1c-0.5-0.3-0.5,0.1-1.1-0.2l0.3-0.1c-0.5-0.2-0.5,0-0.9,0c-0.4,0-1-0.4-1-0.7c-0.1,0.1-0.5,0.2-0.8,0
							c0-0.1,0.1-0.1,0.2-0.1c-0.8-0.5-1.4-0.3-1.9-0.8c0-0.1,0-0.1,0-0.2c0.7,0.3,1.2,0.6,1.2,0.6c0.1-0.2-0.4-0.5,0.1-0.7
							c-0.5,0-1.5,0-1.9-0.4c0,0,0-0.1,0-0.1l0.1,0c-0.1-0.1-0.2-0.1-0.4-0.1c-0.1-0.1-0.2-0.2-0.4-0.3c0-0.2-0.5-0.5-0.8-0.6
							c-0.1,0.3-0.4,0-0.2,0.4c0,0,0.1,0,0.2,0.1c0,0,0.1,0,0.1,0l0,0c0.2,0.1,0.4,0.2,0.7,0.4c-0.3,0-0.6,0-0.8-0.3
							c-0.2,0.1-0.5,0.1-0.6,0.2c-0.2-0.5-0.7-1.2-0.7-1.4c-0.8-0.4-1.8-1.2-2.6-1.2c-0.2-0.1-0.1-0.3-0.1-0.5
							c0.1,0.1,0.3,0.2,0.4,0.2c-0.5-0.3-1.2-1-1.6-0.8c-0.4-0.6,0.5,0-0.2-0.6l0.2,0c-0.4-0.9-1.1-1.3-1.7-1.7
							c-0.6-0.5-1.3-1-1.6-2c0,0.1,0.1,0.2,0,0.3c-0.3-0.5-0.5-1-0.9-1.5c-0.3-0.5-0.7-1-0.9-1.5c-0.3-0.5-0.6-1.1-0.8-1.6
							c-0.3-0.5-0.4-1.1-0.4-1.7c-0.1-0.6-0.4-0.6-0.7-0.9l0.2-0.2c-0.2-0.2-0.3-0.4-0.5-0.6c-0.2-0.4-0.2-0.9-0.1-1.4
							c0-0.2,0-0.5,0-0.7c0-0.3-0.1-0.5-0.3-0.8l-0.2,0.2c0-0.4-0.3-1.4-0.1-1.3c0,0-0.2-0.1-0.2-0.3l0.2,0c-0.2-0.3-0.3-0.7-0.4-1
							c0.1-0.8,0.6,0.1,0.6-1.1c-0.1-0.4-0.5-1.3-0.6-1.1c0,0.2-0.1,0.5-0.2,0.5l-0.1-0.4c-0.5-0.1-1-0.4-1.2,0.7l0.3,0.7l-0.2,0.3
							l0-0.6c-0.2,0.4,0,0.6,0.1,0.8c-0.1,0.1-0.2,0.2-0.2,0.3l0.5,0.7c-0.2,0.1-0.4-0.3-0.4,0.2c0.3,0.3,0.4-0.4,0.6,0.2
							c-0.2,0.4-0.3,0.3-0.1,0.7c-0.1,0.1-0.2,0-0.3-0.2c0.2,0.4,0.2,1,0.5,1.1c-0.1,0.2,0,0.5,0,0.8c0,0.3,0.1,0.5-0.1,0.5
							c0.1,0.1,0.5,0.6,0.6,0.9c-0.7-0.5,0.3,1.3-0.3,1.3c0.5,0.3,0.8,1.5,1.3,2.2c-0.1,0-0.2-0.1-0.2-0.2c0.1,0.5,0,0.6,0.1,0.9
							c0.4-0.1,0.8,0.5,1.2,0.8c-0.1,0.7-0.6-0.1-0.8,0.2c0.3-0.2,0.7,0.8,0.9,0.5c0,0.5,0.1,0.4-0.1,0.7c0.5-0.2,0.2,0.3,0.7,0.5
							c0.1,0.7-0.3,0.4,0.2,0.9C219.9,426.3,219.5,425.9,219.5,425.9z M231.8,436.5L231.8,436.5c-0.1-0.1-0.2-0.1-0.3-0.1
							C231.6,436.4,231.6,436.5,231.8,436.5z M233,437.1c-0.1-0.1-0.3-0.2-0.5-0.3c0-0.1,0.1-0.2,0.2-0.1
							C232.6,436.8,232.9,437,233,437.1z M231.5,434.1c0.2,0.1,0.2,0.2,0.2,0.2c-0.1,0-0.2-0.1-0.3-0.2c0,0,0,0,0,0
							C231.4,434.1,231.4,434.1,231.5,434.1z"/>
						<path class="st2" d="M231,434.2C230.9,434.2,230.9,434.2,231,434.2C230.9,434.2,230.9,434.3,231,434.2L231,434.2
							C231,434.3,231,434.2,231,434.2z"/>
						<path class="st2" d="M228.9,388.7L228.9,388.7C228.9,388.6,228.9,388.7,228.9,388.7C228.9,388.6,228.9,388.7,228.9,388.7z"/>
						<polygon class="st2" points="251.6,439.5 251.6,439.4 251.5,439.5 						"/>
						<path class="st2" d="M222.9,393c0,0-0.1,0-0.1,0C222.8,393,222.8,393,222.9,393z"/>
						<path class="st2" d="M220.9,395.6l-0.3,0.3C220.8,395.8,220.9,395.6,220.9,395.6z"/>
						<path class="st2" d="M219.6,397.6c0,0.1,0.1,0.1,0.1,0.1L219.6,397.6L219.6,397.6z"/>
						<path class="st2" d="M253.5,383.2C253.5,383.2,253.5,383.2,253.5,383.2C253.8,383.2,253.7,383.2,253.5,383.2z"/>
						<path class="st2" d="M241.7,382.8c0.1-0.1,0.2-0.1,0.4-0.2C241.9,382.6,241.7,382.6,241.7,382.8z"/>
						<polygon class="st2" points="265.1,389.6 265.1,389.6 265.2,389.7 						"/>
						<path class="st2" d="M242.6,382.6c-0.2,0-0.4,0-0.5,0C242.2,382.6,242.5,382.6,242.6,382.6z"/>
						<path class="st2" d="M216.3,407.9l0,0.1c0,0,0,0,0,0L216.3,407.9z"/>
						<path class="st2" d="M216.3,408.1l0,0.1C216.3,408.1,216.3,408.1,216.3,408.1z"/>
						<path class="st2" d="M216.4,408.5l-0.1-0.3C216.3,408.3,216.3,408.4,216.4,408.5z"/>
						<path class="st2" d="M217,404.7L217,404.7C216.9,404.6,216.9,404.7,217,404.7z"/>
						<path class="st2" d="M217.2,403.7c-0.1,0.2-0.4,0.5-0.4,0.9l0.1,0C216.8,404.4,217.3,404,217.2,403.7z"/>
						<path class="st2" d="M219.7,400.2c-0.1,0.2-0.2,0.5-0.4,0.7c0.1-0.1,0.3-0.2,0.2,0.1C220.2,400.3,219.3,401.2,219.7,400.2z"/>
						<path class="st2" d="M220.9,398c-0.1,0.4,0.1,0.1,0.2,0.1C221.1,397.9,221.1,397.8,220.9,398z"/>
						<path class="st2" d="M233.9,386l0.1,0.3C234.2,386.1,233.9,386.2,233.9,386z"/>
						<path class="st2" d="M236.7,383.6c-0.1,0-0.3,0-0.4-0.1l-0.1,0.3C236.4,383.7,236.5,383.6,236.7,383.6z"/>
						<polygon class="st2" points="239.1,384.8 239,384.9 239.5,384.6 						"/>
						<path class="st2" d="M265.8,393.9l0.2-0.3C265.8,393.5,265.5,393.7,265.8,393.9z"/>
						<path class="st2" d="M271.7,405.3c-0.1,0.2-0.2,0.5,0,0.7C271.7,405.7,271.7,405.4,271.7,405.3z"/>
						<polygon class="st2" points="254.3,436.1 254.5,435.9 254,436.1 						"/>
					</g>
				</g>
			</g>
		</g>
	</g>
	<g>
		<rect x="242" y="396" class="st3" width="6" height="30"/>
		<g>
			<g>
				<g>
					<g>
						<path class="st3" d="M247.3,426c0.1,0,0.3,0,0.2-0.1l-0.3-0.1L247.3,426z"/>
						<path class="st3" d="M247.9,425.3c-0.2-0.1-0.4-0.3-0.7-0.2c0.3,0.1,0.2,0.2,0.6,0.3c0,0.1-0.1,0.2-0.2,0.2
							c0.1,0-0.1,0.2,0.1,0.2c0.3-0.1,0.3-0.3,0.1-0.5C247.8,425.2,247.9,425.3,247.9,425.3z"/>
						<path class="st3" d="M248.5,415.1L248.5,415.1C248.4,415.1,248.5,415.1,248.5,415.1z"/>
						<path class="st3" d="M248.6,408.8C248.7,408.8,248.7,408.8,248.6,408.8C248.7,408.8,248.7,408.8,248.6,408.8z"/>
						<path class="st3" d="M249,407.7C249,407.7,249,407.7,249,407.7C249,407.7,249,407.7,249,407.7z"/>
						<path class="st3" d="M248.5,415.1l0.1-0.2C248.5,414.9,248.5,415,248.5,415.1z"/>
						<path class="st3" d="M247.1,423.9C247.2,423.9,247.2,423.9,247.1,423.9C247.2,423.9,247.2,423.9,247.1,423.9L247.1,423.9z"/>
						<path class="st3" d="M248.7,417.9L248.7,417.9c0,0.1,0.1,0.1,0.1,0.1L248.7,417.9z"/>
						<path class="st3" d="M248.8,420c0,0-0.3-0.1-0.4-0.1c0.1,0,0.2,0.1,0.2,0.1C248.6,420,248.7,420,248.8,420z"/>
						<path class="st3" d="M248.3,423.4L248.3,423.4C248.3,423.4,248.3,423.4,248.3,423.4z"/>
						<path class="st3" d="M248.8,416.3c0,0,0.1,0,0.1,0C248.9,416.3,248.8,416.3,248.8,416.3z"/>
						<path class="st3" d="M245.5,424.7C245.5,424.7,245.5,424.7,245.5,424.7C245.5,424.7,245.5,424.7,245.5,424.7z"/>
						<polygon class="st3" points="248,426.1 248,426.1 248,426.2 						"/>
						<path class="st3" d="M249.4,405.7L249.4,405.7C249.4,405.8,249.4,405.7,249.4,405.7z"/>
						<path class="st3" d="M240.8,398.5c0.3-0.2,0.3,0.3,0.6,0C241.3,398.5,241,398.2,240.8,398.5z"/>
						<path class="st3" d="M247.2,423.8C247.2,423.8,247.2,423.8,247.2,423.8C247.2,423.8,247.2,423.8,247.2,423.8z"/>
						<path class="st3" d="M241.4,398.5L241.4,398.5L241.4,398.5C241.5,398.5,241.5,398.5,241.4,398.5z"/>
						<path class="st3" d="M249.2,401.2c0,0-0.1,0-0.1,0C249.1,401.2,249.1,401.2,249.2,401.2z"/>
						<path class="st3" d="M248.8,404.5L248.8,404.5C248.8,404.5,248.8,404.5,248.8,404.5z"/>
						<path class="st3" d="M248.8,399.4c0,0,0.1-0.1,0-0.1c0,0,0,0,0,0C248.8,399.3,248.8,399.3,248.8,399.4z"/>
						<path class="st3" d="M248.8,397.5C248.8,397.5,248.8,397.6,248.8,397.5l0,0.1C248.8,397.6,248.8,397.6,248.8,397.5z"/>
						<path class="st3" d="M243.2,423.9c-0.1,0-0.2,0.1-0.3,0.1C243.1,424,243.2,424.3,243.2,423.9z"/>
						<path class="st3" d="M247.3,423.9c-0.1,0-0.1,0-0.1-0.1l0,0.1C247.2,423.9,247.3,423.9,247.3,423.9z"/>
						<path class="st3" d="M246.6,399.3l0-0.3C246.6,399.1,246.6,399.2,246.6,399.3z"/>
						<path class="st3" d="M243.1,410.8L243.1,410.8C243.2,410.8,243.2,410.8,243.1,410.8z"/>
						<path class="st3" d="M246.6,398.2c0.1-0.1,0.2-0.1,0.2-0.2c0,0,0,0-0.1,0L246.6,398.2z"/>
						<path class="st3" d="M242.9,424L242.9,424L242.9,424z"/>
						<path class="st3" d="M243.6,424.4c-0.2,0.2-0.4,0.3-0.6,0.5c-0.1,0,0.3-0.3,0.5-0.4c-0.1,0.1-0.4,0.2-0.4,0.1
							c0.1,0,0.1,0,0.2-0.1c-0.3,0,0-0.1-0.4-0.5c0,0,0.1,0,0.1,0c-0.2,0-0.4,0-0.5,0c0-0.1-0.2-0.2,0-0.3c0,0.1,0.1,0.1,0.2,0.1
							l-0.1-0.1c0.3-0.1,0.1,0.2,0.4,0.2c-0.1-0.3-0.4-0.6-0.3-0.7c0.3,0,0.1,0.5,0.4,0.2l-0.1,0.3c0.5-0.2,0,0.2,0.5,0
							c0.1-0.4-0.2-0.4-0.1-0.8c-0.2-0.1-0.3,0-0.5-0.1c-0.3-0.6,0.9-0.4,0.4-0.9c-0.2-0.1-0.7-0.1-0.4-0.4l0.4,0.1
							c0-0.4-0.6-0.2-0.3-0.6c0.2,0.1,0.1,0.3,0.2,0.2c0.3-0.3-0.2-0.2-0.2-0.4l0.3,0c-0.1-0.4-0.3-0.9-0.4-1.3c0.1,0,0.2,0.1,0.3,0
							c-0.2-0.6,0-1.2,0.2-1.8l-0.3-0.2c0,0,0.1-0.1,0.2,0c0.1-0.2-0.2,0-0.3-0.1c0-0.1,0.2-0.2,0.3-0.1c-0.2-0.4-0.5-1.1-0.2-1.5
							l0.1,0.1c0.1-0.3-0.6-0.4-0.3-0.6l0.1,0.1c0.1-0.7-0.1-1.4,0.3-1.9c-0.4-0.1,0.2-0.7-0.4-0.7c0.3-0.4,0.4-0.3,0.6-0.8
							c0-0.1-0.4-0.2-0.4-0.4l0.3,0l-0.3-0.2l0.4-0.1l-0.1-0.2c0,0.1-0.1,0.1-0.2,0.1c-0.1-0.3,0.2-0.6,0.4-0.6l-0.3-0.6
							c0.1,0,0.2,0.1,0.2,0.2c-0.3-0.3,0.3-0.1,0-0.4c-0.1,0-0.2,0-0.2,0c0.2-0.2,0.2-0.5,0.1-0.8l0.2,0c0.1-0.5-0.1-1-0.1-1.5
							c-0.1,0.2-0.5,0.1-0.5,0l0.3-0.1c-0.2-0.1-0.1,0.2-0.4,0c0-0.2,0.4-0.1,0.5,0l-0.1-0.2c0.1,0,0.1,0,0.3,0.1
							c-0.2-0.1,0.3-0.4,0-0.5l0.1,0c0-0.5-0.1-0.8-0.1-1.2c-0.3,0-0.2-0.2-0.4-0.3c0.1-0.3,0.3-0.7,0.3-1c-0.1-0.3-0.2-0.1-0.4-0.2
							c0.3,0,0.2-0.4,0.4-0.2c0-0.4-0.1-0.6-0.3-1.1c-0.1,0.1-0.2,0.1-0.2,0.1c0-0.1,0.1-0.2,0.2-0.2l0,0c-0.4-0.6,0.7-1.5,0.2-2
							l0,0l-0.3-0.5c0-0.2,0.2,0.1,0.4,0c-0.4-0.6,0.1-0.9-0.2-1.4c0.4-0.2,0.4-0.5,0.3-0.8c0-0.1-0.1-0.2,0.1-0.1l-0.2-0.1
							c-0.2-0.1,0.1,0,0.1,0.1c-0.1-0.1-0.2-0.1-0.3-0.2c0-0.1-0.1-0.1-0.1-0.2c0.1,0,0.3,0.1,0.4,0.2l0,0l0,0l0.1,0l0.3,0.1
							c0.2,0.1,0.5,0.1,0.7,0.1c0.4,0,0.2-0.9,0.7-0.5l-0.1,0.3c0.2-0.1,0.4-0.1,0.6-0.2c0.1,0,0.2,0,0.3,0l0.1,0l0,0
							c0.1,0,0.1,0,0.4-0.1c-0.1,0.1-0.2,0.2-0.2,0.2c-0.1,0.1-0.1,0.1,0,0.1c0.1,0,0.2-0.1,0.3-0.2c0,0.1-0.2,0.2-0.3,0.2
							c-0.1,0.1,0.3-0.1,0.1,0c0,0-0.1,0-0.1,0c0.1,0,0,0.1,0.2,0c-0.1,0.1,0,0.1,0,0.1c0,0.1,0,0.3,0,0.4c0.3,0.2-0.1,0.5,0.3,0.6
							c-0.5,0-0.4,0.5-0.2,0.7c-0.1-0.1-0.1,0.2-0.3,0.1c0,0.2,0.1,0.4,0.3,0.4c-0.5,0.4,0.4,0.8-0.3,1c0.2,0.6,0.4,1.2,0.5,1.8
							c-0.5,0,0-0.6-0.5-0.6c0.2,0.5,0.6,0.9,0.5,1.4c-0.1,0.1-0.2-0.1-0.3-0.1c0.2,0.5,0,1,0.2,1.5c0,0-0.1-0.1-0.1-0.1
							c0,0.1-0.1,0.2,0.1,0.2l-0.1-0.1c0.3-0.2,0.6,0.4,0.8,0.4c-0.6-0.2-0.1,0.5-0.9,0.2c0,0.1,0.1,0.1,0.3,0.1
							c0,0.1-0.1,0.1-0.3,0c0.1,0.3,0.3,0.2,0.3,0.5c-0.1,0-0.1-0.1-0.3-0.1c0.2,0.2,0.4,0.3,0.3,0.6c-0.1,0-0.1,0-0.1-0.1
							c0,0.4,0.5,0.8,0.3,1.3c-0.4-0.1-0.1,0.2-0.5,0.2l0.1,0.3l0.2-0.1c0,0.2,0.3,0.4,0.1,0.6l-0.2-0.2l0.1,0.4l0.1-0.2
							c0.2,0.2,0.5,0,0.4,0.3c0-0.1,0,0.2-0.2,0.4l0,0c0.1,0.1,0.2,0.2,0.2,0.4c-0.1,0-0.4,0-0.5,0c0.3,0.1,0.1,0.5,0.4,0.7
							c-0.1,0-0.3-0.1-0.3,0l0.3,0.1c-0.1,0.1-0.1,0.1-0.3,0.1c0,0.3,0.5-0.1,0.3,0.3c0,0-0.1,0-0.1-0.1c-0.1,0.4,0.2,0.7,0,1.1
							c-0.4,0.1-0.1-0.3-0.4-0.2c0.1,0.5,0.5,1.1,0.4,1.5l0-0.1c0.5,0.1-0.3,0.4,0,0.6c0-0.1-0.3-0.1-0.2-0.1
							c-0.1,0.3,0.1,0.7,0.3,1.2l-0.1-0.1c-0.1,0.2-0.1,0.5-0.1,0.7c0.1,0.1,0.1,0.2,0.3,0.1c-0.8,0.7,0.4,1.3-0.2,1.8
							c0-0.1-0.1-0.2-0.1-0.1l0.1,0.5c0.2,0,0.1-0.1,0.3-0.2c0.1,0.1,0.2,0.2,0.2,0.3c-0.2-0.2-0.4,0-0.5,0.1c0.1,0,0.1,0,0.2,0
							c-0.4,0.3,0.5,0,0.2,0.4l-0.1,0c0.1,0.1,0.2,0.3,0.2,0.4c-0.3,0.1-0.1-0.1-0.3-0.2c0,0.2,0.5,0.4,0.2,0.6
							c-0.1-0.1-0.1-0.2-0.1-0.3c-0.3,0.2-0.2,0.2-0.3,0.4l0,0l-0.1,0.3l0.1-0.1c0.7,0.3,0.1,0.5,0.6,0.9c-0.4-0.3-0.3-0.1-0.6-0.1
							c-0.1,0.1-0.2,0.2-0.3,0.2c0.2,0.2-0.2,0.3,0.2,0.5c-0.1,0,0,0.2-0.3,0.1c0.1,0.2,0.2,0,0.3,0c0.3,0.3-0.4,0.8,0.1,1.2
							c0.2,0.4,0.5,0.5,0.7,0.8c-0.2,0.1-0.4-0.1-0.4-0.1c-0.1,0.2-0.1,0.4,0,0.5c-0.1,0-0.2,0-0.3,0.1c0,0.2,0.4,0.1,0.2,0.3
							c-0.1,0-0.3-0.1-0.4-0.2c0.1,0.2,0.3,0.4,0.4,0.5c-0.2,0-0.3-0.1-0.4-0.2c0.1,0.2,0.2,0.5,0.4,0.6l0.1-0.1c0,0.1-0.2,0-0.3,0
							c-0.2-0.2,0.1-0.3,0.2-0.3l0.1,0.1c0.6-0.1-0.1-0.5-0.1-0.8l0.4,0.1l-0.3-0.3c0.1-0.1,0.3-0.1,0.4,0c0.2-0.2-0.1-0.2,0.1-0.3
							c0,0,0.1,0,0.1,0l-0.1-0.2c0.1,0,0.3,0,0.2,0.1c0.2-0.3-0.3-0.5,0-0.7l0,0c-0.1-0.5-0.3,0-0.7-0.4l0.8-0.2l-0.3,0
							c0,0,0-0.1,0.2-0.1c-0.2-0.2-0.1,0-0.3-0.1c0.3-0.2-0.1-0.6,0.4-0.7c-0.2-0.1-0.2,0.2-0.3,0c0.5-0.1-0.1-0.3,0.2-0.5
							c0.3,0.1,0.1,0.3,0.4,0.1c-0.5-0.1,0.1-0.4,0-0.6c-0.4,0-0.2-0.4-0.3-0.7c0.1,0,0.2-0.6,0.3-0.8l0.1,0
							c-0.4-0.1-0.3-0.3-0.4-0.6c0.2,0,0.3,0,0.4,0.2l0-0.2c-0.1,0-0.2-0.1-0.2-0.2l0.3,0c0-0.3-0.3-0.5-0.1-0.9
							c-0.3,0-0.7,0.3-0.9-0.1c0.1,0,0.4,0,0.4,0.1c0,0-0.1-0.1-0.1-0.2l0.2,0.1c0.1-0.2-0.2-0.1-0.2-0.2c0.2,0,0.1-0.1,0.3-0.1
							c0,0-0.1,0.1,0,0.2c0-0.1,0.2-0.3,0.3-0.4c-0.1,0-0.3,0-0.3-0.1c0-0.3,0.2-0.1,0.3-0.2c-0.1-0.1,0-0.2-0.3-0.2
							c0-0.1,0.1-0.1,0.2-0.1c-0.1-0.1,0-0.6-0.4-0.5l0,0l0,0v0v0c-0.3-0.4,0.2-0.9,0-1.4l0.1,0c-0.1-0.3-0.1-0.6-0.3-0.8
							c0-0.1,0.2-0.2,0.3-0.2c-0.1-0.2-0.2-0.2,0-0.5c0.2,0.2,0.2-0.1,0.1,0.2c0.1-0.3,0.2-0.3,0-0.6c0.3,0.1,0.3-0.2,0.2-0.3
							l-0.2,0.2c0-0.1,0-0.3,0-0.4l0.3,0.1c0.4-0.5-0.7-1,0-1.4c-0.2-0.1-0.2,0.3-0.4,0.2c0-0.2,0.5-0.5,0.5-0.6
							c0.2-0.3-0.5-0.3-0.4-0.7c-0.1,0-0.4,0.1-0.5-0.2c0-0.2,0.5-0.3,0.6-0.1c0,0.1,0,0.1-0.1,0.1c0,0.1,0.1,0.2,0.2,0.1l-0.1,0
							c0.1-0.1,0.1-0.5,0.3-0.4c-0.1-0.2-0.2-0.1-0.3,0.1c0.2-0.3,0-0.5,0.1-0.8c-0.1,0.1-0.2,0.1-0.2,0c0.1-0.5-0.2-0.2-0.3-0.5
							c0.2-0.2,0.4,0.1,0.3-0.3c0.1-0.2,0.3,0,0.4,0c-0.2-0.3,0.2-0.6,0.2-0.7l0.1,0.2c-0.1-0.1-0.1-0.2-0.1-0.2l-0.2,0.1
							c0-0.1,0-0.2,0.1-0.2c-0.2-0.1-0.4,0.1-0.6-0.1c0.1-0.1-0.1-0.4,0.2-0.4c-0.1,0.4,0.3,0,0.4,0.3c0-0.1,0-0.1,0-0.2
							c0,0,0.1,0,0.1,0c0.3-0.4-0.4-0.2-0.3-0.5c0.2,0,0.3-0.1,0.3-0.2c0,0.2-0.3,0.1-0.4-0.1c0.1-0.2-0.1-0.3-0.1-0.4l-0.1,0.1
							c-0.2,0-0.2-0.2-0.2-0.3c0.1,0,0.1,0.2,0.2,0.1c-0.3-0.2,0.3-0.4,0.1-0.7c0.1-0.1,0.3,0,0.4-0.1c-0.2-0.3,0.2-0.3,0.1-0.6
							c-0.2,0.1-0.2,0.1-0.4-0.1l0.2,0.5l-0.3-0.3c0,0.2,0.1,0.3,0.1,0.4c-0.2-0.2-0.1-0.1-0.3-0.1c0.4-0.2-0.2-0.4,0-0.7l0.6,0
							c0.3-0.4-0.3-0.7-0.2-1.1l-0.1,0.2c-0.2-0.1,0-0.3-0.1-0.4c0.2,0,0.3-0.1,0.4-0.1c-0.1,0,0-0.3-0.4-0.4l0.3-0.2
							c0.1-0.4-0.6-0.4-0.5-0.8c0.2,0.1,0.4-0.1,0.5,0.2c0-0.1,0-0.2-0.1-0.2c0.1-0.1-0.3-0.3-0.1-0.5c-0.1-0.1-0.3-0.1-0.3-0.2
							c0,0,0.1,0,0.1,0c-0.1,0-0.1-0.2-0.4-0.1c0.6-0.4,0-1,0.5-1.4c-0.1-0.4-0.1-0.8-0.1-1.1c0.1,0,0.1-0.1,0.1,0
							c0.2-0.6-0.6,0.1-0.4-0.5c0.3-0.5,0.2,0.1,0.3-0.1c0.3-0.3,0.3-0.5,0.2-0.6c-0.3,0.1-0.6,0.1-0.6,0l0.1,0
							c-0.2-0.2-0.9,0.2-1.3,0.2c0,0,0-0.1,0-0.1c-0.2,0.2-0.4,0.3-0.7,0.4c-0.2,0.1-0.4,0.1-0.5,0.2c0.1-0.3,0.1-0.1,0.1-0.4
							c-0.1,0,0,0.4-0.2,0.5c-0.1-0.1-0.3-0.3-0.3-0.5l0.3,0c-0.1-0.4-0.3,0-0.5,0l0-0.2c-0.4,0.1-0.4,0.4-0.8,0.4l0,0.1
							c-0.2,0.4-0.2-0.2-0.4,0.1l-0.1-0.4c-0.1,0.1-0.6,0.4-0.9,0.5c0-0.1,0.2-0.3,0.3-0.4c0.1,0,0.2-0.1,0.3-0.1
							c0.1,0,0.1-0.1,0.2-0.1c0,0-0.1,0-0.1,0c-0.1,0-0.2,0-0.3,0c-0.2,0-0.3,0.1-0.4,0.2c0.1,0,0.2-0.1,0.3-0.1
							c-0.2,0.3-0.5,0.5-0.8,0.5c-0.2-0.5-0.7-0.4-1.2-0.5c0,0.2-0.1,0.4-0.3,0.4c0.1,0.6,0.1,0.9,0.1,1.4c0,0.2-0.1,0.5-0.1,0.7
							c0,0.1,0,0.3,0,0.5c0.6-0.2,0,0.2,0.6,0.1c0,0.1,0,0.2,0,0.2l-0.4,0.4c-0.2,0.1-0.1-0.1-0.3-0.1c0,0.3-0.3,0.1-0.4,0.3
							c0.2,0,0.3,0.1,0.2,0.3l0.3-0.3c0.3,0.5-0.5,0.4-0.2,0.8l-0.2-0.1c0.1,0.2,0,0.9,0.5,1.1c-0.1,0-0.2,0.1-0.3,0
							c-0.1,0.6,0.5,1.2,0.2,1.7l-0.1,0c0,0.1,0.3,0.2,0.1,0.3c-0.1,0-0.1,0-0.2,0c0.1,0.1,0.3,0.3,0.2,0.4l-0.2-0.1
							c-0.2,0.5,0.4,0.8,0.5,1.3c-0.4,0-0.6,0.4-0.7,0.6l-0.1,0c-0.1,0.6,0.4,1.1,0.5,1.7c-0.5,0.4-0.2,1.2-0.5,1.8
							c0.1-0.1,0.3,0,0.4,0.1c-0.1,0.1,0.3,0.4-0.1,0.4l0,0c-0.4,0.1-0.3,0.4-0.3,0.6l0.5,0c-0.8,0.6,0.3,1.5-0.4,1.8
							c0.1,0.1,0.1,0.3,0.3,0.4l-0.3,0c-0.1,0.4-0.1,0.6,0,1.1l-0.2-0.1c0,0.3,0.8,0.3,0.8,0.6l-0.4,0.1c0,0.5-0.4,0.9,0,1.4
							c-0.1,0-0.2,0-0.2-0.1c0,0.2-0.3,0.9,0.3,0.8c-0.4,0,0,0.5,0.1,0.7l-0.3,0c0.4,0.2,0.5,0.2,0.6,0.5c0,0.1-0.2,0.1-0.2,0
							c-0.1,0.2,0.3,0.2,0.1,0.5l-0.2-0.1c0,0.2,0.1,0.2,0.3,0.4c0.1,0.2-0.1,0.5-0.3,0.5c0.2,0,0.4,0.2,0.3,0.3
							c-0.1,0-0.2,0-0.2-0.1c-0.2,0.4,0.3,0.6,0.1,0.9c-0.1,0-0.1,0-0.2,0c0-0.3,0-0.6,0-0.6c-0.3,0-0.3,0.3-0.7,0.1
							c0.2,0.2,0.6,0.6,0.5,0.8c0,0,0,0-0.1,0l0,0c0,0.1,0,0.1,0,0.2c0,0.1-0.1,0.1-0.1,0.2c-0.2,0-0.1,0.3-0.1,0.4
							c0.3,0,0.2,0.2,0.5,0c0,0,0,0,0-0.1c0,0,0,0,0-0.1l0,0c0-0.1,0-0.2,0-0.3c0.1,0.1,0.3,0.2,0.1,0.4c0.2,0.1,0.4,0.1,0.5,0.2
							c-0.4,0.2-0.6,0.5-0.8,0.6c0.2,0.4,0.1,0.9,0.6,1.2c0.1,0.1-0.2,0.1-0.2,0.2c-0.1-0.1,0-0.1-0.1-0.2c0.1,0.2,0.1,0.7,0.4,0.7
							c-0.2,0.3-0.3-0.2-0.3,0.2l-0.1-0.1c-0.3,0.4-0.1,0.7,0.2,1c0.1,0.2,0.2,0.3,0.2,0.5c0,0.2,0,0.5-0.2,0.8
							c0-0.1,0.1-0.2,0.1-0.2c-0.1,0.5-0.1,0.9-0.1,1.4c0.5,0,1-0.1,1.4-0.1c0.4,0,0.9,0,1.2,0.2c0.3,0.1,0.3-0.1,0.5-0.3l0.1,0.3
							l0.3-0.3c0.4-0.3,0.7,0.7,1.2,0.3l-0.1-0.2c0.2,0,0.6-0.1,0.5,0.1c0,0,0.1-0.2,0.1-0.1l0,0.2l0.4-0.3c0.3,0.1-0.1,0.6,0.5,0.7
							c0.2-0.1,0.5-0.5,0.5-0.6c-0.1,0-0.2-0.1-0.2-0.3l0.2-0.1c0-0.5,0.2-0.9-0.3-1.3l-0.3,0.3l-0.1-0.2l0.2,0
							c-0.1-0.2-0.2,0-0.3,0.1c0-0.1-0.1-0.2-0.1-0.2l-0.3,0.4c0-0.2,0.1-0.4-0.1-0.5c-0.1,0.2,0.1,0.4-0.1,0.5
							c-0.1-0.2-0.1-0.4-0.3-0.2c0-0.1,0-0.2,0.1-0.2c-0.1,0.1-0.4,0.1-0.5,0.3c-0.1-0.3-0.5,0.1-0.5-0.4c0,0.1-0.3,0.3-0.4,0.4
							c0.2-0.5-0.5,0-0.4-0.6c-0.2,0.5-0.7,0.2-1,0.5c0,0,0.1-0.1,0.1-0.1c-0.2,0-0.2-0.2-0.2-0.3c0,0.4-0.2,0.5-0.4,0.7
							c0.1-0.4,0.2-0.5,0.3-0.8c-0.1,0.3-0.2,0.3-0.4,0.6c0.1-0.2,0-0.1,0.2-0.4c-0.4,0.5-0.1,0.1-0.4,0.4c0.1-0.1,0.2-0.3,0.3-0.3
							c0,0,0,0,0,0C243.4,424.5,243.6,424.4,243.6,424.4z M242.8,419.5L242.8,419.5c0,0.1,0,0.1,0,0.1
							C242.8,419.6,242.8,419.5,242.8,419.5z M242.7,418.9c0,0.1,0,0.1,0,0.2c-0.1,0-0.2,0-0.2-0.1
							C242.6,419.1,242.7,419,242.7,418.9z M240.8,420.1c0-0.1,0-0.1,0.1-0.1c0,0,0,0.1,0,0.2l0,0
							C240.9,420.1,240.8,420.1,240.8,420.1z"/>
						<path class="st3" d="M241.2,420.2C241.2,420.2,241.2,420.2,241.2,420.2C241.2,420.2,241.2,420.2,241.2,420.2L241.2,420.2
							L241.2,420.2z"/>
						<path class="st3" d="M248.4,415.2L248.4,415.2C248.4,415.2,248.4,415.2,248.4,415.2C248.4,415.2,248.4,415.2,248.4,415.2z"/>
						<polygon class="st3" points="243.3,411.4 243.2,411.4 243.3,411.4 						"/>
						<path class="st3" d="M247.5,418.2C247.4,418.2,247.4,418.2,247.5,418.2C247.4,418.2,247.4,418.2,247.5,418.2z"/>
						<path class="st3" d="M247.4,419.5l-0.1,0.2C247.3,419.6,247.4,419.5,247.4,419.5z"/>
						<path class="st3" d="M247.2,420.4c0,0,0.1,0,0.1,0l0,0L247.2,420.4z"/>
						<path class="st3" d="M246.9,404.6C246.9,404.6,246.9,404.6,246.9,404.6C246.9,404.5,246.9,404.5,246.9,404.6z"/>
						<path class="st3" d="M247.6,409.3c-0.1,0-0.1-0.1-0.1-0.2C247.4,409.3,247.4,409.3,247.6,409.3z"/>
						<polygon class="st3" points="246.6,399.4 246.6,399.4 246.6,399.3 						"/>
						<path class="st3" d="M247.4,409c-0.1,0.1,0,0.2,0,0.2C247.5,409.1,247.5,409,247.4,409z"/>
						<path class="st3" d="M247.1,424.8L247.1,424.8C247.1,424.8,247.1,424.8,247.1,424.8L247.1,424.8z"/>
						<path class="st3" d="M247.2,424.8L247.2,424.8C247.2,424.8,247.2,424.8,247.2,424.8z"/>
						<path class="st3" d="M247.3,425l-0.1-0.1C247.2,424.9,247.2,425,247.3,425z"/>
						<path class="st3" d="M247.3,423.4l-0.1,0C247.2,423.4,247.2,423.4,247.3,423.4z"/>
						<path class="st3" d="M247.2,423c0,0.1-0.2,0.2-0.2,0.4l0.1,0C247,423.4,247.4,423.1,247.2,423z"/>
						<path class="st3" d="M248.5,421.4l-0.1,0.3c0.1-0.1,0.3-0.1,0.3,0C249,421.3,248.4,421.8,248.5,421.4z"/>
						<path class="st3" d="M248.6,420.3c0.1,0.2,0.2,0,0.2,0C248.8,420.2,248.7,420.2,248.6,420.3z"/>
						<path class="st3" d="M248.6,412.8l0.3,0C248.9,412.7,248.8,412.8,248.6,412.8z"/>
						<polygon class="st3" points="247.3,411.4 247.2,411.5 247.4,411.6 						"/>
						<polygon class="st3" points="249.1,410.5 249.2,410.6 249.1,410.4 						"/>
						<path class="st3" d="M249,397.9l-0.3,0C248.8,398,249.1,398,249,397.9z"/>
						<path class="st3" d="M244.4,395.3c-0.1-0.2-0.2-0.3-0.3-0.1C244.2,395.2,244.4,395.3,244.4,395.3z"/>
						<polygon class="st3" points="240.8,410 240.7,409.8 240.7,410 						"/>
					</g>
				</g>
			</g>
		</g>
	</g>
	<g>
		<rect x="230" y="408" class="st3" width="30" height="6"/>
		<g>
			<g>
				<g>
					<g>
						<path class="st3" d="M260,408.7c0-0.1,0-0.3-0.1-0.2l-0.1,0.3L260,408.7z"/>
						<path class="st3" d="M259.3,408.1c-0.1,0.2-0.3,0.4-0.2,0.7c0.1-0.3,0.2-0.2,0.3-0.6c0.1,0,0.2,0.1,0.2,0.2
							c0-0.1,0.2,0.1,0.2-0.1c-0.1-0.3-0.3-0.3-0.5-0.1C259.2,408.2,259.3,408.1,259.3,408.1z"/>
						<path class="st3" d="M249.1,407.5L249.1,407.5C249.1,407.6,249.1,407.5,249.1,407.5z"/>
						<path class="st3" d="M242.8,407.4C242.8,407.3,242.8,407.3,242.8,407.4C242.8,407.3,242.8,407.3,242.8,407.4z"/>
						<path class="st3" d="M241.7,407C241.7,407,241.7,407,241.7,407C241.7,407,241.7,407,241.7,407z"/>
						<path class="st3" d="M249.1,407.5l-0.2-0.1C248.9,407.5,249,407.5,249.1,407.5z"/>
						<path class="st3" d="M257.9,408.9C257.9,408.8,257.9,408.8,257.9,408.9C257.9,408.8,257.9,408.8,257.9,408.9L257.9,408.9z"/>
						<path class="st3" d="M251.9,407.3L251.9,407.3c0.1,0,0.1-0.1,0.1-0.1L251.9,407.3z"/>
						<path class="st3" d="M254,407.2c0,0-0.1,0.3-0.1,0.4c0-0.1,0.1-0.2,0.1-0.2C254,407.4,254,407.3,254,407.2z"/>
						<path class="st3" d="M257.4,407.7L257.4,407.7C257.4,407.7,257.4,407.7,257.4,407.7z"/>
						<path class="st3" d="M250.3,407.2c0,0,0-0.1,0-0.1C250.3,407.1,250.3,407.2,250.3,407.2z"/>
						<path class="st3" d="M258.7,410.5C258.7,410.5,258.7,410.5,258.7,410.5C258.7,410.5,258.7,410.5,258.7,410.5z"/>
						<polygon class="st3" points="260.1,408 260.1,408 260.2,408 						"/>
						<path class="st3" d="M239.7,406.6L239.7,406.6C239.8,406.6,239.7,406.6,239.7,406.6z"/>
						<path class="st3" d="M232.5,415.2c-0.2-0.3,0.3-0.3,0-0.6C232.5,414.7,232.2,415,232.5,415.2z"/>
						<path class="st3" d="M257.8,408.8C257.8,408.8,257.8,408.8,257.8,408.8C257.8,408.8,257.8,408.8,257.8,408.8z"/>
						<path class="st3" d="M232.5,414.6L232.5,414.6L232.5,414.6C232.5,414.5,232.5,414.5,232.5,414.6z"/>
						<path class="st3" d="M235.2,406.8c0,0,0,0.1,0,0.1C235.2,406.9,235.2,406.9,235.2,406.8z"/>
						<path class="st3" d="M238.5,407.2L238.5,407.2C238.5,407.2,238.5,407.2,238.5,407.2z"/>
						<path class="st3" d="M233.4,407.2c0,0-0.1-0.1-0.1,0c0,0,0,0,0,0C233.3,407.2,233.3,407.2,233.4,407.2z"/>
						<path class="st3" d="M231.5,407.2C231.5,407.2,231.6,407.2,231.5,407.2l0.1,0C231.6,407.2,231.6,407.2,231.5,407.2z"/>
						<path class="st3" d="M257.9,412.8c0,0.1,0.1,0.2,0.1,0.3C258,412.9,258.3,412.8,257.9,412.8z"/>
						<path class="st3" d="M257.9,408.7c0,0.1,0,0.1-0.1,0.1l0.1,0C257.9,408.8,257.9,408.7,257.9,408.7z"/>
						<path class="st3" d="M233.3,409.4l-0.3,0C233.1,409.4,233.2,409.4,233.3,409.4z"/>
						<path class="st3" d="M244.8,412.9L244.8,412.9C244.8,412.8,244.8,412.8,244.8,412.9z"/>
						<path class="st3" d="M232.2,409.4c-0.1-0.1-0.1-0.2-0.2-0.2c0,0,0,0,0,0.1L232.2,409.4z"/>
						<path class="st3" d="M258,413.1L258,413.1L258,413.1z"/>
						<path class="st3" d="M258.4,412.4c0.2,0.2,0.3,0.4,0.5,0.6c0,0.1-0.3-0.3-0.4-0.5c0.1,0.1,0.2,0.4,0.1,0.4
							c0-0.1,0-0.1-0.1-0.2c0,0.3-0.1,0-0.5,0.4c0,0,0-0.1,0-0.1c0,0.2,0,0.4,0,0.5c-0.1,0-0.2,0.2-0.3,0c0.1,0,0.1-0.1,0.1-0.2
							l-0.1,0.1c-0.1-0.3,0.2-0.1,0.2-0.4c-0.3,0.1-0.6,0.4-0.7,0.3c0-0.3,0.5-0.1,0.2-0.4l0.3,0.1c-0.2-0.5,0.2,0,0-0.5
							c-0.4-0.1-0.4,0.2-0.8,0.1c-0.1,0.2,0,0.3-0.1,0.5c-0.6,0.3-0.4-0.9-0.9-0.4c-0.1,0.2-0.1,0.7-0.4,0.4l0.1-0.4
							c-0.4,0-0.2,0.6-0.6,0.3c0.1-0.2,0.3-0.1,0.2-0.2c-0.3-0.3-0.2,0.2-0.4,0.2l0-0.3c-0.4,0.1-0.9,0.3-1.3,0.4
							c0-0.1,0.1-0.2,0-0.3c-0.6,0.2-1.2,0-1.8-0.2l-0.2,0.3c0,0-0.1-0.1,0-0.2c-0.2-0.1,0,0.2-0.1,0.3c-0.1,0-0.2-0.2-0.1-0.3
							c-0.4,0.2-1.1,0.5-1.5,0.2l0.1-0.1c-0.3-0.1-0.4,0.6-0.6,0.3l0.1-0.1c-0.7-0.1-1.4,0.1-1.9-0.3c-0.1,0.4-0.7-0.2-0.7,0.4
							c-0.4-0.3-0.3-0.4-0.8-0.6c-0.1,0-0.2,0.4-0.4,0.4l0-0.3l-0.2,0.3l-0.1-0.4l-0.2,0.1c0.1,0,0.1,0.1,0.1,0.2
							c-0.3,0.1-0.6-0.2-0.6-0.4l-0.6,0.3c0-0.1,0.1-0.2,0.2-0.2c-0.3,0.3-0.1-0.3-0.4,0c0,0.1,0,0.2,0,0.2
							c-0.2-0.2-0.5-0.2-0.8-0.1l0-0.2c-0.5-0.1-1,0.1-1.5,0.1c0.2,0.1,0.1,0.5,0,0.5l-0.1-0.3c-0.1,0.2,0.2,0.1,0,0.4
							c-0.2,0-0.1-0.4,0-0.5l-0.2,0.1c0-0.1,0-0.1,0.1-0.3c-0.1,0.2-0.4-0.3-0.5,0l0-0.1c-0.5,0-0.8,0.1-1.2,0.1
							c0,0.3-0.2,0.2-0.3,0.4c-0.3-0.1-0.7-0.3-1-0.3c-0.3,0.1-0.1,0.2-0.2,0.4c0-0.3-0.4-0.2-0.2-0.4c-0.4,0-0.6,0.1-1.1,0.3
							c0.1,0.1,0.1,0.2,0.1,0.2c-0.1,0-0.2-0.1-0.2-0.2l0,0c-0.6,0.4-1.5-0.7-2-0.2l0,0l-0.5,0.3c-0.2,0,0.1-0.2,0-0.4
							c-0.6,0.4-0.9-0.1-1.4,0.2c-0.2-0.4-0.5-0.4-0.8-0.3c-0.1,0-0.2,0.1-0.1-0.1l-0.1,0.2c-0.1,0.2,0-0.1,0.1-0.1
							c-0.1,0.1-0.1,0.2-0.2,0.3c-0.1,0-0.1,0.1-0.2,0.1c0-0.1,0.1-0.3,0.2-0.4l0,0l0,0l0-0.1l0.1-0.3c0.1-0.2,0.1-0.5,0.1-0.7
							c0-0.4-0.9-0.2-0.5-0.7l0.3,0.1c-0.1-0.2-0.1-0.4-0.2-0.6c0-0.1,0-0.2,0-0.3l0-0.1l0,0c0-0.1,0-0.1-0.1-0.4
							c0.1,0.1,0.2,0.2,0.2,0.2c0.1,0.1,0.1,0.1,0.1,0c0-0.1-0.1-0.2-0.2-0.3c0.1,0,0.2,0.2,0.2,0.3c0.1,0.1-0.1-0.3,0-0.1
							c0,0,0,0.1,0,0.1c0-0.1,0.1,0,0-0.2c0.1,0.1,0.1,0,0.1,0c0.1,0,0.3,0,0.4,0c0.2-0.3,0.5,0.1,0.6-0.3c0,0.5,0.5,0.4,0.7,0.2
							c-0.1,0.1,0.2,0.1,0.1,0.3c0.2,0,0.4-0.1,0.4-0.3c0.4,0.5,0.8-0.4,1,0.3c0.6-0.2,1.2-0.4,1.8-0.5c0,0.5-0.6,0-0.6,0.5
							c0.5-0.2,0.9-0.6,1.4-0.5c0.1,0.1-0.1,0.2-0.1,0.3c0.5-0.2,1,0,1.5-0.2c0,0-0.1,0.1-0.1,0.1c0.1,0,0.2,0.1,0.2-0.1l-0.1,0.1
							c-0.2-0.3,0.4-0.6,0.4-0.8c-0.2,0.6,0.5,0.1,0.2,0.9c0.1,0,0.1-0.1,0.1-0.3c0.1,0,0.1,0.1,0,0.3c0.3-0.1,0.2-0.3,0.5-0.3
							c0,0.1-0.1,0.1-0.1,0.3c0.2-0.2,0.3-0.4,0.6-0.3c0,0.1,0,0.1-0.1,0.1c0.4,0,0.8-0.5,1.3-0.3c-0.1,0.4,0.2,0.1,0.2,0.5l0.3-0.1
							l-0.1-0.2c0.2,0,0.4-0.3,0.6-0.1l-0.2,0.2l0.4-0.1l-0.2-0.1c0.2-0.2,0-0.5,0.3-0.4c-0.1,0,0.2,0,0.4,0.2l0,0
							c0.1-0.1,0.2-0.2,0.4-0.2c0,0.1,0,0.4,0,0.5c0.1-0.3,0.5-0.1,0.7-0.4c0,0.1-0.1,0.3,0,0.3l0.1-0.3c0.1,0.1,0.1,0.1,0.1,0.3
							c0.3,0-0.1-0.5,0.3-0.3c0,0,0,0.1-0.1,0.1c0.4,0.1,0.7-0.2,1.1,0c0.1,0.4-0.3,0.1-0.2,0.4c0.5-0.1,1.1-0.5,1.5-0.4l-0.1,0
							c0.1-0.5,0.4,0.3,0.6,0c-0.1,0-0.1,0.3-0.1,0.2c0.3,0.1,0.7-0.1,1.2-0.3l-0.1,0.1c0.2,0.1,0.5,0.1,0.7,0.1
							c0.1-0.1,0.2-0.1,0.1-0.3c0.7,0.8,1.3-0.4,1.8,0.2c-0.1,0-0.2,0.1-0.1,0.1l0.5-0.1c0-0.2-0.1-0.1-0.2-0.3
							c0.1-0.1,0.2-0.2,0.3-0.2c-0.2,0.2,0,0.4,0.1,0.5c0-0.1,0-0.1,0-0.2c0.3,0.4,0-0.5,0.4-0.2l0,0.1c0.1-0.1,0.3-0.2,0.4-0.2
							c0.1,0.3-0.1,0.1-0.2,0.3c0.2,0,0.4-0.5,0.6-0.2c-0.1,0.1-0.2,0.1-0.3,0.1c0.2,0.3,0.2,0.2,0.4,0.3l0,0l0.3,0.1l-0.1-0.1
							c0.3-0.7,0.5-0.1,0.9-0.6c-0.3,0.4-0.1,0.3-0.1,0.6c0.1,0.1,0.2,0.2,0.2,0.3c0.2-0.2,0.3,0.2,0.5-0.2c0,0.1,0.2,0,0.1,0.3
							c0.2-0.1,0-0.2,0-0.3c0.3-0.3,0.8,0.4,1.2-0.1c0.4-0.2,0.5-0.5,0.8-0.7c0.1,0.2-0.1,0.4-0.1,0.4c0.2,0.1,0.4,0.1,0.5,0
							c0,0.1,0,0.2,0.1,0.3c0.2,0,0.1-0.4,0.3-0.2c0,0.1-0.1,0.3-0.2,0.4c0.2-0.1,0.4-0.3,0.5-0.4c0,0.2-0.1,0.3-0.2,0.4
							c0.2-0.1,0.5-0.2,0.6-0.4l-0.1-0.1c0.1,0,0,0.2,0,0.3c-0.2,0.2-0.3-0.1-0.3-0.2l0.1-0.1c-0.1-0.6-0.5,0.1-0.8,0.1l0.1-0.4
							l-0.3,0.3c-0.1-0.1-0.1-0.3,0-0.4c-0.2-0.2-0.2,0.1-0.3-0.1c0,0,0-0.1,0-0.1l-0.2,0.1c0-0.1,0-0.3,0.1-0.2
							c-0.3-0.2-0.5,0.3-0.7,0l0,0c-0.5,0.1,0,0.3-0.4,0.7l-0.2-0.8l0,0.3c0,0-0.1,0-0.1-0.2c-0.2,0.2,0,0.1-0.1,0.3
							c-0.2-0.3-0.6,0.1-0.7-0.4c-0.1,0.2,0.2,0.2,0,0.3c-0.1-0.5-0.3,0.1-0.5-0.2c0.1-0.3,0.3-0.1,0.1-0.4c-0.1,0.5-0.4-0.1-0.6,0
							c0,0.4-0.4,0.2-0.7,0.3c0-0.1-0.6-0.2-0.8-0.3l0-0.1c-0.1,0.4-0.3,0.3-0.6,0.4c0-0.2,0-0.3,0.2-0.4l-0.2,0
							c0,0.1-0.1,0.2-0.2,0.2l0-0.3c-0.3,0-0.5,0.3-0.9,0.1c0,0.3,0.3,0.7-0.1,0.9c0-0.1,0-0.4,0.1-0.4c0,0-0.1,0.1-0.2,0.1l0.1-0.2
							c-0.2-0.1-0.1,0.2-0.2,0.2c0-0.2-0.1-0.1-0.1-0.3c0,0,0.1,0.1,0.2,0c-0.1,0-0.3-0.2-0.4-0.3c0,0.1,0,0.3-0.1,0.3
							c-0.3,0-0.1-0.2-0.2-0.3c-0.1,0.1-0.2,0-0.2,0.3c-0.1,0-0.1-0.1-0.1-0.2c-0.1,0.1-0.6,0-0.5,0.4l0,0l0,0h0h0
							c-0.4,0.3-0.9-0.2-1.4,0l0-0.1c-0.3,0.1-0.6,0.1-0.8,0.3c-0.1,0-0.2-0.2-0.2-0.3c-0.2,0.1-0.2,0.2-0.5,0
							c0.2-0.2-0.1-0.2,0.2-0.1c-0.3-0.1-0.3-0.2-0.6,0c0.1-0.3-0.2-0.3-0.3-0.2l0.2,0.2c-0.1,0-0.3,0-0.4,0l0.1-0.3
							c-0.5-0.4-1,0.7-1.4,0c-0.1,0.2,0.3,0.2,0.2,0.4c-0.2,0-0.5-0.5-0.6-0.5c-0.3-0.2-0.3,0.5-0.7,0.4c0,0.1,0.1,0.4-0.2,0.5
							c-0.2,0-0.3-0.5-0.1-0.6c0.1,0,0.1,0,0.1,0.1c0.1,0,0.2-0.1,0.1-0.2l0,0.1c-0.1-0.1-0.5-0.1-0.4-0.3c-0.2,0.1-0.1,0.2,0.1,0.3
							c-0.3-0.2-0.5,0-0.8-0.1c0.1,0.1,0.1,0.2,0,0.2c-0.5-0.1-0.2,0.2-0.5,0.3c-0.2-0.2,0.1-0.4-0.3-0.3c-0.2-0.1,0-0.3,0-0.4
							c-0.3,0.2-0.6-0.2-0.7-0.2l0.2-0.1c-0.1,0.1-0.2,0.1-0.2,0.1l0.1,0.2c-0.1,0-0.2,0-0.2-0.1c-0.1,0.2,0.1,0.4-0.1,0.6
							c-0.1-0.1-0.4,0.1-0.4-0.2c0.4,0.1,0-0.3,0.3-0.4c-0.1,0-0.1,0-0.2,0c0,0,0-0.1,0-0.1c-0.4-0.3-0.2,0.4-0.5,0.3
							c0-0.2-0.1-0.3-0.2-0.3c0.2,0,0.1,0.3-0.1,0.4c-0.2-0.1-0.3,0.1-0.4,0.1l0.1,0.1c0,0.2-0.2,0.2-0.3,0.2c0-0.1,0.2-0.1,0.1-0.2
							c-0.2,0.3-0.4-0.3-0.7-0.1c-0.1-0.1,0-0.3-0.1-0.4c-0.3,0.2-0.3-0.2-0.6-0.1c0.1,0.2,0.1,0.2-0.1,0.4l0.5-0.2l-0.3,0.3
							c0.2,0,0.3-0.1,0.4-0.1c-0.2,0.2-0.1,0.1-0.1,0.3c-0.2-0.4-0.4,0.2-0.7,0l0-0.6c-0.4-0.3-0.7,0.3-1.1,0.2l0.2,0.1
							c-0.1,0.2-0.3,0-0.4,0.1c0-0.2-0.1-0.3-0.1-0.4c0,0.1-0.3,0-0.4,0.4l-0.2-0.3c-0.4-0.1-0.4,0.6-0.8,0.5
							c0.1-0.2-0.1-0.4,0.2-0.5c-0.1,0-0.2,0-0.2,0.1c-0.1-0.1-0.3,0.3-0.5,0.1c-0.1,0.1-0.1,0.3-0.2,0.3c0,0,0-0.1,0-0.1
							c0,0.1-0.2,0.1-0.1,0.4c-0.4-0.6-1,0-1.4-0.5c-0.4,0.1-0.8,0.1-1.1,0.1c0-0.1-0.1-0.1,0-0.1c-0.6-0.2,0.1,0.6-0.5,0.4
							c-0.5-0.3,0.1-0.2-0.1-0.3c-0.3-0.3-0.5-0.3-0.6-0.2c0.1,0.3,0.1,0.6,0,0.6l0-0.1c-0.2,0.2,0.2,0.9,0.2,1.3c0,0-0.1,0-0.1,0
							c0.2,0.2,0.3,0.4,0.4,0.7c0.1,0.2,0.1,0.4,0.2,0.5c-0.3-0.1-0.1-0.1-0.4-0.1c0,0.1,0.4,0,0.5,0.2c-0.1,0.1-0.3,0.3-0.5,0.3
							l0-0.3c-0.4,0.1,0,0.3,0,0.5l-0.2,0c0.1,0.4,0.4,0.4,0.4,0.8l0.1,0c0.4,0.2-0.2,0.2,0.1,0.4l-0.4,0.1c0.1,0.1,0.4,0.6,0.5,0.9
							c-0.1,0-0.3-0.2-0.4-0.3c0-0.1-0.1-0.2-0.1-0.3c0-0.1-0.1-0.1-0.1-0.2c0,0,0,0.1,0,0.1c0,0.1,0,0.2,0,0.3
							c0,0.2,0.1,0.3,0.2,0.4c0-0.1-0.1-0.2-0.1-0.3c0.3,0.2,0.5,0.5,0.5,0.8c-0.5,0.2-0.4,0.7-0.5,1.2c0.2,0,0.4,0.1,0.4,0.3
							c0.6-0.1,0.9-0.1,1.4-0.1c0.2,0,0.5,0.1,0.7,0.1c0.1,0,0.3,0,0.5,0c-0.2-0.6,0.2,0,0.1-0.6c0.1,0,0.2,0,0.2,0l0.4,0.4
							c0.1,0.2-0.1,0.1-0.1,0.3c0.3,0,0.1,0.3,0.3,0.4c0-0.2,0.1-0.3,0.3-0.2l-0.3-0.3c0.5-0.3,0.4,0.5,0.8,0.2l-0.1,0.2
							c0.2-0.1,0.9,0,1.1-0.5c0,0.1,0.1,0.2,0,0.3c0.6,0.1,1.2-0.5,1.7-0.2l0,0.1c0.1,0,0.2-0.3,0.3-0.1c0,0.1,0,0.1,0,0.2
							c0.1-0.1,0.3-0.3,0.4-0.2l-0.1,0.2c0.5,0.2,0.8-0.4,1.3-0.5c0,0.4,0.4,0.6,0.6,0.7l0,0.1c0.6,0.1,1.1-0.4,1.7-0.5
							c0.4,0.5,1.2,0.2,1.8,0.5c-0.1-0.1,0-0.3,0.1-0.4c0.1,0.1,0.4-0.3,0.4,0.1l0,0c0.1,0.4,0.4,0.3,0.6,0.3l0-0.5
							c0.6,0.8,1.5-0.3,1.8,0.4c0.1-0.1,0.3-0.1,0.4-0.3l0,0.3c0.4,0.1,0.6,0.1,1.1,0l-0.1,0.2c0.3,0,0.3-0.8,0.6-0.8l0.1,0.4
							c0.5,0,0.9,0.4,1.4,0c0,0.1,0,0.2-0.1,0.2c0.2,0,0.9,0.3,0.8-0.3c0,0.4,0.5,0,0.7-0.1l0,0.3c0.2-0.4,0.2-0.5,0.5-0.6
							c0.1,0,0.1,0.2,0,0.2c0.2,0.1,0.2-0.3,0.5-0.1l-0.1,0.2c0.2,0,0.2-0.1,0.4-0.3c0.2-0.1,0.5,0.1,0.5,0.3c0-0.2,0.2-0.4,0.3-0.3
							c0,0.1,0,0.2-0.1,0.2c0.4,0.2,0.6-0.3,0.9-0.1c0,0.1,0,0.1,0,0.2c-0.3,0-0.6,0-0.6,0c0,0.3,0.3,0.3,0.1,0.7
							c0.2-0.2,0.6-0.6,0.8-0.5c0,0,0,0,0,0.1l0,0c0.1,0,0.1,0,0.2,0c0.1,0,0.1,0.1,0.2,0.1c0,0.2,0.3,0.1,0.4,0.1
							c0-0.3,0.2-0.2,0-0.5c0,0,0,0-0.1,0c0,0,0,0-0.1,0l0,0c-0.1,0-0.2,0-0.3,0c0.1-0.1,0.2-0.3,0.4-0.1c0.1-0.2,0.1-0.4,0.2-0.5
							c0.2,0.4,0.5,0.6,0.6,0.8c0.4-0.2,0.9-0.1,1.2-0.6c0.1-0.1,0.1,0.2,0.2,0.2c-0.1,0.1-0.1,0-0.2,0.1c0.2-0.1,0.7-0.1,0.7-0.4
							c0.3,0.2-0.2,0.3,0.2,0.3l-0.1,0.1c0.4,0.3,0.7,0.1,1-0.2c0.2-0.1,0.3-0.2,0.5-0.2c0.2,0,0.5,0,0.8,0.2
							c-0.1,0-0.2-0.1-0.2-0.1c0.5,0.1,0.9,0.1,1.4,0.1c0-0.5-0.1-1-0.1-1.4c0-0.4,0-0.9,0.2-1.2c0.1-0.3-0.1-0.3-0.3-0.5l0.3-0.1
							l-0.3-0.3c-0.3-0.4,0.7-0.7,0.3-1.2l-0.2,0.1c0-0.2-0.1-0.6,0.1-0.5c0,0-0.2-0.1-0.1-0.1l0.2,0l-0.3-0.4
							c0.1-0.3,0.6,0.1,0.7-0.5c-0.1-0.2-0.5-0.5-0.6-0.5c0,0.1-0.1,0.2-0.3,0.2l-0.1-0.2c-0.5,0-0.9-0.2-1.3,0.3l0.3,0.3l-0.2,0.1
							l0-0.2c-0.2,0.1,0,0.2,0.1,0.3c-0.1,0-0.2,0.1-0.2,0.1l0.4,0.3c-0.2,0-0.4-0.1-0.5,0.1c0.2,0.1,0.4-0.1,0.5,0.1
							c-0.2,0.1-0.4,0.1-0.2,0.3c-0.1,0-0.2,0-0.2-0.1c0.1,0.1,0.1,0.4,0.3,0.5c-0.3,0.1,0.1,0.5-0.4,0.5c0.1,0,0.3,0.3,0.4,0.4
							c-0.5-0.2,0,0.5-0.6,0.4c0.5,0.2,0.2,0.7,0.5,1c0,0-0.1-0.1-0.1-0.1c0,0.2-0.2,0.2-0.3,0.2c0.4,0,0.5,0.2,0.7,0.4
							c-0.4-0.1-0.5-0.2-0.8-0.3c0.3,0.1,0.3,0.2,0.6,0.4c-0.2-0.1-0.1,0-0.4-0.2c0.5,0.4,0.1,0.1,0.4,0.4c-0.1-0.1-0.3-0.2-0.3-0.3
							c0,0,0,0,0,0C258.5,412.6,258.4,412.4,258.4,412.4z M253.5,413.2L253.5,413.2c0.1,0,0.1,0,0.1,0
							C253.6,413.2,253.5,413.2,253.5,413.2z M252.9,413.3c0.1,0,0.1,0,0.2,0c0,0.1,0,0.2-0.1,0.2
							C253.1,413.4,253,413.3,252.9,413.3z M254.1,415.2c-0.1,0-0.1,0-0.1-0.1c0,0,0.1,0,0.2,0l0,0
							C254.1,415.1,254.1,415.2,254.1,415.2z"/>
						<path class="st3" d="M254.2,414.8C254.2,414.8,254.2,414.8,254.2,414.8C254.2,414.8,254.2,414.8,254.2,414.8L254.2,414.8
							L254.2,414.8z"/>
						<path class="st3" d="M249.2,407.6L249.2,407.6C249.2,407.6,249.2,407.6,249.2,407.6C249.2,407.6,249.2,407.6,249.2,407.6z"/>
						<polygon class="st3" points="245.4,412.7 245.4,412.8 245.4,412.7 						"/>
						<path class="st3" d="M252.2,408.5C252.2,408.6,252.2,408.6,252.2,408.5C252.2,408.6,252.2,408.6,252.2,408.5z"/>
						<path class="st3" d="M253.5,408.6l0.2,0.1C253.6,408.7,253.5,408.6,253.5,408.6z"/>
						<path class="st3" d="M254.4,408.8c0,0,0-0.1,0-0.1l0,0L254.4,408.8z"/>
						<path class="st3" d="M238.6,409.1C238.6,409.1,238.6,409.1,238.6,409.1C238.5,409.1,238.5,409.1,238.6,409.1z"/>
						<path class="st3" d="M243.3,408.4c0,0.1-0.1,0.1-0.2,0.1C243.3,408.6,243.3,408.6,243.3,408.4z"/>
						<polygon class="st3" points="233.4,409.4 233.4,409.4 233.3,409.4 						"/>
						<path class="st3" d="M243,408.6c0.1,0.1,0.2,0,0.2,0C243.1,408.5,243,408.5,243,408.6z"/>
						<path class="st3" d="M258.8,408.9L258.8,408.9C258.8,408.9,258.8,408.9,258.8,408.9L258.8,408.9z"/>
						<path class="st3" d="M258.8,408.8L258.8,408.8C258.8,408.8,258.8,408.8,258.8,408.8z"/>
						<path class="st3" d="M259,408.7l-0.1,0.1C258.9,408.8,259,408.8,259,408.7z"/>
						<path class="st3" d="M257.4,408.7l0,0.1C257.4,408.8,257.4,408.8,257.4,408.7z"/>
						<path class="st3" d="M257,408.8c0.1,0,0.2,0.2,0.4,0.2l0-0.1C257.4,409,257.1,408.6,257,408.8z"/>
						<path class="st3" d="M255.4,407.5l0.3,0.1c-0.1-0.1-0.1-0.3,0-0.3C255.3,407,255.8,407.6,255.4,407.5z"/>
						<path class="st3" d="M254.3,407.4c0.2-0.1,0-0.2,0-0.2C254.2,407.2,254.2,407.3,254.3,407.4z"/>
						<path class="st3" d="M246.8,407.4l0-0.3C246.7,407.1,246.8,407.2,246.8,407.4z"/>
						<polygon class="st3" points="245.4,408.7 245.5,408.8 245.6,408.6 						"/>
						<polygon class="st3" points="244.5,406.9 244.6,406.8 244.4,406.9 						"/>
						<path class="st3" d="M231.9,407l0,0.3C232,407.2,232,406.9,231.9,407z"/>
						<path class="st3" d="M229.3,411.6c-0.2,0.1-0.3,0.2-0.1,0.3C229.2,411.8,229.3,411.6,229.3,411.6z"/>
						<polygon class="st3" points="244,415.2 243.8,415.3 244,415.3 						"/>
					</g>
				</g>
			</g>
		</g>
	</g>
	<path class="st4" d="M259.3,320.4c-5.2,0.7-8.4,5.4-9.6,10.2c-0.4,1.8-0.7,3.7-0.8,5.6c-0.1,2.2,0.7,4.3,1.6,6.3
		c1.6,4.2,2.2,8.8,2.9,13.2c0.3,2.1,0.7,4.1,1.1,6.1c0.6,3,1.9,5.9,3.3,8.5c1.3,2.4,3.2,4.7,5.3,6.6c1.8,1.6,3.6,3.2,5.5,4.8
		c3,2.4,6.3,4.7,8.7,7.7c0.4,0.5,0.7,1,1,1.6c0.5,1.3,0.7,2.5,1,3.9c0.1,1.1,0.2,2.2,0.1,3.3c0,0,0,0,0,0c0,0.1,0,0.3-0.1,0.4
		c0,0,0,0,0,0c0.7-1,1-2.5,1.3-3.7c0.3-1.5,0.5-3.1,0.3-4.7c-0.2-1.7-0.6-3.2-1.5-4.7c-1.1-1.8-2.4-3.5-3.7-5.2
		c-1.7-2.3-3.2-4.7-4.9-6.9c-1.8-2.3-3.4-4.6-4.7-7.2c-0.7-1.8-1.1-3.6-1.4-5.4c-0.2-1.3-0.3-2.6-0.3-4c0-1.5,0-3-0.1-4.5
		c-0.2-3.4-0.6-6.9-1.1-10.3c-0.1-1.4-0.1-2.9-0.1-4.3c0-0.9-0.1-1.8,0-2.8c0.1-0.1,0.3-0.1,0.4-0.2c0.1,0,0.3-0.1,0.4-0.1
		c0.5,0,0.9,0,1.4,0c0.6,0.2,1.2,0.4,1.8,0.6c1.1,0.5,2.2,0.9,3.2,1.5c1,0.5,2,1.2,3,1.9c2.9,2.3,5.6,4.9,8,7.7
		c1.3,1.9,2.5,3.8,3.4,5.9c1.1,2.9,1.7,6,2.3,9.1c0.1,0.5,0.1,0.9,0.2,1.4c0-0.3-0.1-0.6-0.1-1c0.5,5.1,0.8,10.3,0.2,15.4
		c-0.7,4.5-1.6,8.9-3.1,13.2c0,0,0,0,0,0c0-0.1,0.1-0.2,0.1-0.3c0,0,0,0,0,0c0.6-1.4,1.5-2.7,2.3-4c0.8-1.3,1.6-2.6,2.3-4
		c1.5-3,2.8-6.1,3.6-9.3c0.9-3.7,1.6-7.5,1.9-11.4c0.2-1.8,0.3-3.5,0.2-5.3c-0.1-1.8-0.2-3.7-0.4-5.5c-0.2-1.8-0.4-3.5-0.8-5.3
		c-0.5-2.2-1.3-4.2-2.4-6.2c-2-3.9-4.8-7.3-8.3-9.9c-1.3-1-2.7-1.8-4.1-2.6c-1.5-0.9-2.9-1.8-4.3-2.7c-2-1.2-4.2-1.8-6.4-2.6
		c-0.7-0.3-1.5-0.6-2.2-0.8c-0.9-0.2-2-0.4-2.9-0.4c-0.1,0-0.3,0-0.4,0C261.3,320.1,260.3,320.3,259.3,320.4L259.3,320.4
		L259.3,320.4z M287.1,376.8c0,0.1,0,0.1,0,0.2C287.1,376.9,287.1,376.8,287.1,376.8L287.1,376.8L287.1,376.8z M275.3,379.9
		c0.1,0.1,0.2,0.2,0.3,0.3C275.5,380.1,275.4,380,275.3,379.9L275.3,379.9L275.3,379.9z M279.2,394.7
		C279.2,394.7,279.2,394.7,279.2,394.7C279.2,394.7,279.2,394.7,279.2,394.7L279.2,394.7L279.2,394.7z M279.3,398.1
		C279.3,398.1,279.3,398.1,279.3,398.1C279.3,398.1,279.3,398.1,279.3,398.1L279.3,398.1L279.3,398.1z"/>
	<path class="st4" d="M308.6,389.3c-3.8,0.3-7.5,1.5-10.9,3c-3.6,1.6-7.1,3.3-10.6,5.1c0,0,0,0,0,0c0.1-0.1,0.2-0.1,0.3-0.1
		c0,0,0,0,0,0c0.9-0.3,1.7-0.5,2.6-0.6c3.4-0.4,6.8-0.7,10.2-0.8c2-0.1,3.9-0.2,5.9-0.3c1.8,0,3.5,0.1,5.3,0.3
		c2.7,0.5,5.3,1.2,7.9,2.2c1.5,0.7,3,1.5,4.4,2.5c1.2,1,2.3,2.1,3.3,3.3c0.5,0.8,1,1.5,1.4,2.4c0.3,0.8,0.5,1.5,0.6,2.3
		c0.1,1,0.1,2,0,3c-0.1,0.4-0.2,0.8-0.3,1.1c-0.1,0.2-0.2,0.3-0.3,0.4c-0.2,0.2-0.4,0.4-0.7,0.6c-0.3,0.2-0.7,0.4-1.1,0.6
		c-0.7,0.2-1.5,0.4-2.2,0.5c-0.2,0-0.5,0-0.7,0c-0.4-0.1-0.9-0.2-1.3-0.4c-1.9-1-3.7-2.3-5.4-3.6c-1.6-1.3-3.2-2.6-4.8-3.9
		c-1.6-1.3-3.1-2.5-4.9-3.5c-2.5-1.4-5.3-2.1-8.1-2.8c-1.7-0.4-3.5-0.9-5.3-0.8c-1.5,0-2.9,0.4-4.3,1c0,0,0,0,0,0
		c-0.1,0-0.1,0.1-0.2,0.1c0,0,0,0,0,0c0.8,0,1.6,0.1,2.3,0.2c0.7,0.1,1.4,0.3,2.1,0.6c1.2,0.5,2.2,1.2,3.3,1.9
		c1.5,0.9,3,1.8,4.4,2.8c2.1,1.7,3.9,3.7,5.5,5.8c2.3,3,4.6,6.1,7.3,8.7c3.1,3,6.9,5,11.4,4.8c2.4-0.1,4.5-0.7,6.7-1.7
		c0.8-0.3,1.5-0.7,2.3-1.2c2.1-1.2,3.8-3,5.2-5c0.8-1.2,1.3-2.8,1.7-4.2c0.3-1.2,0.4-2.5,0.5-3.8c0.1-1.3-0.2-2.7-0.5-3.9
		c-0.2-1.1-0.6-2.2-1-3.2c-0.5-1.2-1-2.5-1.8-3.6c-0.7-1-1.4-1.9-2.1-2.8c-1.3-1.6-3.1-2.9-4.9-4c-1.8-1.1-4.1-1.9-6.1-2.4
		c-2-0.6-4.2-0.8-6.3-1c-1.6-0.2-3.2-0.2-4.8-0.2C312.7,389,310.6,389.2,308.6,389.3L308.6,389.3L308.6,389.3z M290.1,396.8
		C290.1,396.8,290,396.8,290.1,396.8C290,396.8,290.1,396.8,290.1,396.8L290.1,396.8L290.1,396.8z M294.2,401.9c0,0,0.1,0,0.1,0.1
		C294.3,402,294.2,402,294.2,401.9L294.2,401.9L294.2,401.9z"/>
	<path class="st4" d="M331.4,304.2c-0.7,0.1-1.4,0.2-2,0.3c-0.7,0.3-1.4,0.6-2.2,0.9c-0.6,0.3-2,1.5-2.2,1.7
		c-0.9,0.8-1.6,1.8-2.3,2.7c-0.8,1.1-1.4,2.3-2.1,3.4c-0.8,1.2-1.4,2.5-2,3.8c0-0.1,0.1-0.2,0.1-0.3c-1.8,4.2-4.7,7.9-7.4,11.6
		c-2.4,3.4-4.5,6.9-6.3,10.7c-1.9,4.1-2.9,8.8-1.5,13.2c0.6,2,1.5,4,2.1,6c0.6,2,1,4.1,1.3,6.1c0.1,1.1,0.3,2.1,0.1,3.2c0,0,0,0,0,0
		c0,0.2-0.1,0.4-0.1,0.6c0,0,0,0,0,0c1.4-2.7,1.8-5.7,1.9-8.7c0.1-1.8,0.1-3.6,0.1-5.4c-0.1-1.5-0.1-3,0-4.5
		c0.2-0.9,0.5-1.8,0.8-2.6c0.7-1.5,1.5-2.9,2.5-4.3c3.3-4.1,6.8-8,10.2-12c1.8-2.1,3.7-4.3,5.8-6.2c0.3-0.2,0.5-0.5,0.8-0.7
		c0.3,1.1,0.5,2.1,0.8,3.2c0.8,2.8,2,5.4,3.2,8c0.3,1,0.6,1.9,0.7,2.9c0.4,3.5,0.4,7,0.1,10.5c-0.4,2-0.8,4-1.5,6
		c-0.8,1.7-1.7,3.3-2.8,4.8c-1.3,1.5-2.8,2.9-4.4,4.2c-2.3,1.7-4.6,3.3-7,4.8c-2.5,1.6-5.1,3.1-7.6,4.9c-2.2,1.6-4.1,3.3-5.9,5.3
		c-1.7,1.8-3.4,3.6-5.3,5.3c0,0,0,0,0,0c0.2-0.1,0.3-0.3,0.5-0.4c0,0,0,0,0,0c2.1-1.6,4.6-2.5,6.9-3.7c2.3-1.2,4.5-2.2,6.9-3.3
		c3.5-1.4,7.2-2.3,10.7-3.8c3.8-1.6,7.7-3.5,10.9-6.1c3.1-2.5,5.4-5.8,7.2-9.3c1.9-3.7,3.2-7.6,4-11.7c0.4-2.1,0.7-4.3,0.6-6.5
		c-0.1-2.4-0.5-4.7-0.8-7c-0.5-3.5-1.3-6.8-2.3-10.2c-0.5-1.5-1-3-1.4-4.4c-0.5-1.6-0.7-3.2-1.2-4.8c-0.4-1.3-0.9-2.5-1.6-3.6
		c-1.2-1.9-3.2-3.9-5.5-4.4c-0.7-0.2-1.5-0.3-2.2-0.3C331.8,304.1,331.6,304.2,331.4,304.2L331.4,304.2L331.4,304.2z"/>
	<g>
		<path class="st1" d="M391.1,366.8c0,6-2.5,11.1-7.5,15.3c-4.4,3.8-9.8,6.1-16.1,7.2c-0.2,0-0.4,0-0.6,0c-0.7,0-2.2-2.1-4.5-6.2
			c-2.3-4.1-3.5-6.6-3.5-7.5c0-0.3,0.2-0.5,0.7-0.6c4.3-1,7.1-1.8,8.4-2.5c3.1-1.5,4.6-3.8,4.6-6.8c0-1.9-1-4-3-6.4
			c-3.5-4-5.3-6.2-5.6-6.6c-2-3.1-3-6.4-3-10.1c0-5.4,2.5-9.8,7.4-13.4c4-2.9,9-4.8,14.9-5.7c0.3,0,0.6,0,0.7,0
			c0.4,0,0.8,0.4,1.1,1.1c0.8,2.1,2.5,6,5.3,11.6c0.1,0.2,0.1,0.3,0.1,0.4c0,0.5-0.3,0.7-0.8,0.7c-0.2,0-0.6,0-1.2-0.1
			c-0.6-0.1-1-0.1-1.3-0.1c-2.1,0-4,0.5-5.5,1.5c-1.9,1.1-2.9,2.7-2.9,4.7c0,1.8,1.1,4,3.2,6.6c3.7,4.7,5.7,7.2,5.9,7.4
			C390,360.4,391.1,363.6,391.1,366.8z"/>
		<path class="st1" d="M427.5,374.2c0,0.9-0.1,2.2-0.3,4c-0.2,1.8-0.3,3.1-0.3,3.9s-0.1,1.4-0.3,1.6c-0.2,0.2-0.7,0.6-1.5,1
			c-3.8,2.1-8,3.1-12.6,3.1c-8.5,0-12.7-3.2-12.7-9.7c0-1.9,0.1-4.8,0.2-8.7c0.1-3.9,0.2-6.8,0.2-8.7c0-1.3-0.7-1.9-2.2-1.9
			c-0.1,0-0.3,0-0.6,0c-0.3,0-0.5,0-0.6,0c-1.1,0-1.7-0.4-1.7-1.2c0-0.5,0-1.2,0.1-2.2c0.1-1,0.1-1.7,0.1-2.2c0-0.6,0-1.6-0.1-2.8
			c-0.1-1.3-0.1-2.2-0.1-2.8c0-0.6,0.9-0.9,2.8-1c1.1,0,1.6-0.3,1.7-0.9c0.2-1.1,0.2-2.9,0.2-5.3c-0.1-3.8-0.2-5.6-0.2-5.4
			c0-3.4,0.3-5.1,1-5.1c0.8,0,1.9,0.2,3.4,0.5c1.7,0.4,2.8,0.6,3.5,0.7c1.5,0.2,3.8,0.5,6.8,0.8c0.7,0.1,1.1,0.3,1.1,0.7
			c0,1.2-0.1,2.9-0.3,5.3c-0.2,2.4-0.3,4.2-0.3,5.4c0,1.4,0.4,2.2,1.3,2.2c1,0,2.6,0,4.7-0.1c2.1-0.1,3.7-0.1,4.7-0.1
			c0.6,0,1,0.2,1,0.7c0,0.7-0.1,1.7-0.2,3c-0.1,1.3-0.2,2.4-0.2,3c0,0.7,0,1.7,0,3.1c0,1.3,0,2.4,0,3.1c0,0.6-0.4,0.9-1.3,0.9
			c-0.6,0-1.6,0-2.9-0.1c-1.4,0-2.4-0.1-2.9-0.1h-3.3c-0.4,0-0.7,0.6-0.7,1.9c0,0.7,0,1.7,0,3.1c0,1.4,0,2.4,0,3.1
			c0,2.5,0.3,4.2,0.8,5.1c0.8,1.3,2.3,1.9,4.7,1.9c0.7,0,1.8-0.2,3.1-0.5c1.4-0.3,2.3-0.5,2.9-0.5
			C427.2,373.2,427.5,373.5,427.5,374.2z"/>
		<path class="st1" d="M451.3,377.4c0,2.9-1,5.4-3,7.4c-2,2.1-4.5,3.1-7.3,3.1c-2.9,0-5.3-1-7.3-3.1c-2-2.1-3-4.5-3-7.4
			c0-2.9,1-5.3,3-7.4c2-2.1,4.4-3.1,7.3-3.1c2.9,0,5.3,1,7.3,3.1C450.3,372.1,451.3,374.5,451.3,377.4z"/>
		<path class="st1" d="M510.2,366.8c0,6-2.5,11.1-7.5,15.3c-4.4,3.8-9.8,6.1-16.1,7.2c-0.2,0-0.4,0-0.6,0c-0.7,0-2.2-2.1-4.5-6.2
			c-2.3-4.1-3.5-6.6-3.5-7.5c0-0.3,0.2-0.5,0.7-0.6c4.3-1,7.1-1.8,8.4-2.5c3-1.5,4.6-3.8,4.6-6.8c0-1.9-1-4-3-6.4
			c-3.5-4-5.3-6.2-5.6-6.6c-2-3.1-3-6.4-3-10.1c0-5.4,2.5-9.8,7.4-13.4c4-2.9,9-4.8,14.9-5.7c0.3,0,0.6,0,0.7,0
			c0.4,0,0.8,0.4,1.1,1.1c0.8,2.1,2.5,6,5.3,11.6c0.1,0.2,0.1,0.3,0.1,0.4c0,0.5-0.3,0.7-0.8,0.7c-0.2,0-0.6,0-1.2-0.1
			c-0.6-0.1-1-0.1-1.3-0.1c-2.1,0-4,0.5-5.5,1.5c-1.9,1.1-2.9,2.7-2.9,4.7c0,1.8,1.1,4,3.2,6.6c3.7,4.7,5.7,7.2,5.9,7.4
			C509.2,360.4,510.2,363.6,510.2,366.8z"/>
		<path class="st1" d="M546.7,374.2c0,0.9-0.1,2.2-0.3,4c-0.2,1.8-0.3,3.1-0.3,3.9s-0.1,1.4-0.3,1.6c-0.2,0.2-0.7,0.6-1.5,1
			c-3.8,2.1-8,3.1-12.6,3.1c-8.5,0-12.7-3.2-12.7-9.7c0-1.9,0.1-4.8,0.2-8.7c0.1-3.9,0.2-6.8,0.2-8.7c0-1.3-0.7-1.9-2.2-1.9
			c-0.1,0-0.3,0-0.6,0c-0.3,0-0.5,0-0.6,0c-1.1,0-1.7-0.4-1.7-1.2c0-0.5,0-1.2,0.1-2.2c0.1-1,0.1-1.7,0.1-2.2c0-0.6,0-1.6-0.1-2.8
			c-0.1-1.3-0.1-2.2-0.1-2.8c0-0.6,0.9-0.9,2.8-1c1.1,0,1.6-0.3,1.7-0.9c0.2-1.1,0.2-2.9,0.2-5.3c-0.1-3.8-0.2-5.6-0.2-5.4
			c0-3.4,0.3-5.1,1-5.1c0.8,0,1.9,0.2,3.4,0.5c1.7,0.4,2.8,0.6,3.5,0.7c1.5,0.2,3.8,0.5,6.8,0.8c0.7,0.1,1.1,0.3,1.1,0.7
			c0,1.2-0.1,2.9-0.3,5.3c-0.2,2.4-0.3,4.2-0.3,5.4c0,1.4,0.4,2.2,1.3,2.2c1,0,2.6,0,4.7-0.1c2.1-0.1,3.7-0.1,4.7-0.1
			c0.6,0,1,0.2,1,0.7c0,0.7-0.1,1.7-0.2,3c-0.1,1.3-0.2,2.4-0.2,3c0,0.7,0,1.7,0,3.1c0,1.3,0,2.4,0,3.1c0,0.6-0.4,0.9-1.3,0.9
			c-0.6,0-1.6,0-2.9-0.1c-1.4,0-2.4-0.1-2.9-0.1h-3.3c-0.4,0-0.7,0.6-0.7,1.9c0,0.7,0,1.7,0,3.1c0,1.4,0,2.4,0,3.1
			c0,2.5,0.3,4.2,0.8,5.1c0.8,1.3,2.3,1.9,4.7,1.9c0.7,0,1.8-0.2,3.1-0.5c1.4-0.3,2.3-0.5,2.9-0.5
			C546.4,373.2,546.7,373.5,546.7,374.2z"/>
		<path class="st1" d="M591.6,363.2c0,3-1,4.6-2.9,5.1c-0.3,0.1-3.4,0.4-9.1,1c-3.5,0.4-8.6,0.8-15.5,1.4c0.4,1.9,1.7,3.4,3.7,4.4
			c1.7,0.8,3.6,1.2,5.8,1.2c2.6,0,5.2-0.7,7.9-2.1c1.1-0.7,2.2-1.4,3.3-2.1c0.6,0.3,1.6,1.8,3.1,4.5c1.5,2.7,2.2,4.4,2.2,5.1
			c0,0.2-0.2,0.5-0.7,1c-3.6,3.8-9.1,5.8-16.7,5.8c-7,0-12.6-2-16.9-6.1c-4.4-4.1-6.6-9.7-6.6-16.6c0-6.7,2-12.3,5.9-16.6
			c4-4.5,9.4-6.7,16.1-6.7c5.6,0,10.4,2.1,14.3,6.2C589.6,352.6,591.6,357.5,591.6,363.2z M576.2,360.5c0-1.8-0.6-3.4-1.9-4.8
			c-1.3-1.4-2.8-2.1-4.6-2.1c-1.8,0-3.4,0.8-4.6,2.3c-1.1,1.4-1.7,3.1-1.7,5.1c0,0.8,0.4,1.2,1.2,1.2c2.2,0,5.5-0.3,10.1-1
			C575.7,361,576.2,360.8,576.2,360.5z"/>
		<path class="st1" d="M644.9,365.9c0,6.3-1.8,11.5-5.5,15.6c-3.8,4.3-8.8,6.4-15,6.4c-2.3,0-4.7-0.6-7.3-1.7
			c-2.6-1.1-3.8-1.7-3.5-1.7c-0.4,0-0.6,0.4-0.6,1.3c0,1.5,0.1,3.7,0.2,6.8c0.1,3,0.2,5.3,0.2,6.8c0,0.9-0.5,1.4-1.5,1.4l-9,0
			c-2,0-3.3-0.1-3.9-0.2c-0.9-0.2-1.3-0.7-1.3-1.6l0.1-33.9c0-6.8-0.5-12.6-1.5-17.3c-0.1-0.3-0.1-0.5-0.1-0.7
			c0-0.4,0.2-0.7,0.5-0.9c1.1-0.4,3.3-0.9,6.6-1.4c3.1-0.5,5.4-0.7,6.8-0.7c1.1,0,1.8,0.8,2,2.3c0.2,1.5,0.4,2.3,0.6,2.3
			c-0.3,0,1-0.8,3.8-2.4c2.8-1.6,5.3-2.4,7.6-2.4c6.4,0,11.5,2.1,15.3,6.3C643.1,354.1,644.9,359.4,644.9,365.9z M628.6,365.8
			c0-2.3-0.7-4.4-2.2-6.2c-1.6-1.8-3.5-2.8-5.8-2.8c-2.3,0-4.2,0.9-5.6,2.8c-1.2,1.7-1.8,3.7-1.8,6.2c0,2.5,0.6,4.6,1.9,6.2
			c1.4,1.8,3.3,2.7,5.7,2.7C626,374.7,628.6,371.7,628.6,365.8z"/>
		<path class="st1" d="M694.6,355.1l-0.1,30.4c0,1-0.4,1.6-1.2,1.7c-0.9,0.1-3.1,0.2-6.4,0.2c-3.2,0-5.5-0.1-6.7-0.4
			c-1-0.2-1.5-0.8-1.5-1.9c0-2.5,0-6.3,0.1-11.4c0.1-5.1,0.1-8.9,0.1-11.4c0-3.4-1.7-5.1-5.2-5.1c-1.2,0-2.6,0.5-4.1,1.4
			c-1.7,1-2.6,2.1-2.6,3.2v10.9c0,1.4,0,3.5,0.1,6.4c0.1,2.8,0.1,4.9,0.1,6.4c0,1.1-0.5,1.7-1.4,1.8c-0.9,0.1-3.5,0.2-7.7,0.2
			c-2.4,0-4.1-0.1-5.2-0.4s-1.6-0.7-1.6-1.5c0-2.3,0-5.8,0-10.4c0-4.6,0-8.1,0-10.4c0-9.6-0.1-17.5-0.3-23.8
			c-0.1-2.2-0.2-4.4-0.2-6.6c-0.1-2.6-0.4-4.7-0.8-6.6c-0.1-0.4-0.1-0.7-0.1-0.8c0-0.4,0.2-0.7,0.7-0.9c0.9-0.3,2.2-0.4,4-0.5
			c2.3-0.1,3.7-0.2,4.1-0.2l8-0.9c0.5,0,0.7,0.3,0.7,0.9c0,0.9-0.1,2.2-0.2,3.8c-0.1,1.9-0.2,3.2-0.2,3.8
			c-0.2,6.6-0.3,11.9-0.3,15.7c0,0.6,0.1,0.9,0.4,0.9c0.1,0,0.8-0.5,2.2-1.5c1.7-1.2,3.3-2.2,4.9-2.9c2.3-1,4.6-1.5,6.7-1.5
			c3.8,0,6.9,1,9.4,2.9C693.2,348.6,694.6,351.5,694.6,355.1z"/>
		<path class="st1" d="M742,363.2c0,3-1,4.6-2.9,5.1c-0.3,0.1-3.4,0.4-9.1,1c-3.5,0.4-8.6,0.8-15.5,1.4c0.4,1.9,1.7,3.4,3.7,4.4
			c1.7,0.8,3.6,1.2,5.8,1.2c2.6,0,5.2-0.7,7.9-2.1c1.1-0.7,2.2-1.4,3.3-2.1c0.6,0.3,1.6,1.8,3.1,4.5c1.5,2.7,2.2,4.4,2.2,5.1
			c0,0.2-0.2,0.5-0.7,1c-3.6,3.8-9.1,5.8-16.7,5.8c-7,0-12.6-2-16.9-6.1c-4.4-4.1-6.6-9.7-6.6-16.6c0-6.7,2-12.3,5.9-16.6
			c4-4.5,9.4-6.7,16.1-6.7c5.6,0,10.4,2.1,14.3,6.2C740.1,352.6,742,357.5,742,363.2z M726.6,360.5c0-1.8-0.6-3.4-1.9-4.8
			c-1.3-1.4-2.8-2.1-4.6-2.1c-1.8,0-3.4,0.8-4.6,2.3c-1.1,1.4-1.7,3.1-1.7,5.1c0,0.8,0.4,1.2,1.2,1.2c2.2,0,5.5-0.3,10.1-1
			C726.2,361,726.6,360.8,726.6,360.5z"/>
		<path class="st1" d="M790.6,385.8c0,0.8-0.4,1.2-1.2,1.4c-0.8,0.1-3,0.2-6.4,0.2c-3.7,0-6-0.1-6.9-0.3s-1.3-0.8-1.3-1.8
			c0-1.4,0-3.5,0.1-6.2c0.1-2.8,0.1-4.9,0.1-6.3c0-1.1,0-2.7-0.1-4.9s-0.1-3.8-0.1-4.9c0-4-1.7-6-5.2-6c-1.1,0-2.5,0.5-4,1.5
			c-1.6,1.1-2.5,2.2-2.5,3.3v23.8c0,1-0.5,1.5-1.4,1.6c-1,0.1-3.1,0.2-6.3,0.2c-3.4,0-5.7-0.1-6.7-0.3c-0.9-0.1-1.4-0.6-1.4-1.5
			c0-2.3,0-5.7,0-10.3c0-4.6,0-8.1,0-10.4c0-7.3-0.6-13-1.7-17.2c-0.1-0.3-0.1-0.5-0.1-0.7c0-0.5,0.2-0.8,0.7-1
			c1.8-0.2,4.3-0.5,7.4-1c4.7-0.9,7.3-1.4,7.9-1.4c0.3,0,0.6,1,0.7,3c0.2,2,0.4,3,0.7,3c-0.3,0,1.3-1,4.7-3.1s6.5-3.1,9.1-3.1
			c3.7,0,6.8,0.9,9.3,2.6c2.8,2,4.2,4.8,4.2,8.4v14c0,1.9,0,4.8,0,8.6S790.6,383.9,790.6,385.8z"/>
		<path class="st1" d="M823.7,351.4c0,0.3-0.2,0.7-0.7,1.2c-0.8-0.2-1.6-0.3-2.5-0.3c-1.7,0-3.2,0.4-4.4,1.1
			c-1.4,0.9-2.1,2.1-2.1,3.7c0,1,0.7,2.3,2.2,3.9c2.3,2.4,3.7,4,4.2,4.8c1.5,2.2,2.2,4.6,2.2,7.2c0,1.5-0.3,3.1-0.9,4.8
			c-0.7,1.8-1.5,3.2-2.6,4c-2.2,1.9-4.7,3.5-7.6,4.8c-3.1,1.3-6,2-8.7,2c-0.6,0-1.9-1.6-3.9-4.8c-2-3.2-3.1-5.1-3.1-5.8
			c0-0.3,0.2-0.4,0.5-0.5c2.1-0.4,4.1-0.8,6.2-1.1c2.6-0.8,3.9-2.2,3.9-4c0-1.3-0.7-2.8-2.2-4.5c-2.7-3-4.1-4.5-4.2-4.7
			c-1.5-2.1-2.2-4.3-2.2-6.7c0-4.4,2.2-8.1,6.7-11.2c4-2.7,8.3-4.1,12.8-4.1c0.5,0,1.6,1.6,3.5,4.7
			C822.8,349.1,823.7,350.9,823.7,351.4z"/>
	</g>
	<g>
		<path class="st5" d="M375.4,407.2c0,0.2-0.1,0.3-0.3,0.3c-0.8,0-2,0-3.7-0.1c-1.6-0.1-2.9-0.1-3.7-0.1l-1.1,0c-0.7,0-1,0-1.1,0
			c-0.2,0.1-0.3,0.4-0.3,0.9v3.5c0,0.7,0.1,1,0.4,1c0.9,0,2.4,0,4.3-0.1c1.9-0.1,3.3-0.1,4.3-0.1c0.2,0,0.3,0.1,0.3,0.2
			c0,0.2,0,0.4,0,0.7c0,0.3,0,0.6,0,0.7c0,0.2,0,0.4,0,0.8c0,0.4,0,0.6,0,0.8c0,0.1-0.1,0.2-0.3,0.2c-0.7,0-1.7,0-3.1-0.1
			c-1.4,0-2.4-0.1-3.1-0.1c-1.3,0-2,0-2.1,0c-0.4,0-0.7,0.2-0.7,0.5c0,0.9,0,2.2,0.1,3.9c0,1.7,0.1,3.1,0.1,3.9
			c0,0.3-0.1,0.4-0.4,0.4c-0.2,0-0.5,0-0.9-0.1c-0.4,0-0.7-0.1-0.9-0.1c-0.2,0-0.4,0-0.8,0c-0.3,0-0.6,0-0.8,0
			c-0.2,0-0.4-0.1-0.4-0.3c0-1.1,0-2.7,0.1-4.9s0.1-3.8,0.1-4.9c0-1-0.1-4.3-0.3-9.8v-0.2c0-0.2,0.1-0.3,0.4-0.3c0.1,0,0.7,0,1.9,0
			c1.5,0,2.9,0,4.2,0c1.8,0,4-0.1,6.7-0.3c0.4,0,0.6,0.1,0.6,0.5c0,0.3,0,0.7,0.1,1.2C375.4,406.4,375.4,406.9,375.4,407.2z"/>
		<path class="st5" d="M391.5,411.4c0,0,0,0.1,0,0.3c-0.4,2.2-0.6,4.1-0.6,5.8c0,0.1,0.1,2.3,0.4,6.5l0,0.2c0,0.3-0.1,0.4-0.4,0.4
			s-0.7,0-1.2,0.1c-0.5,0.1-0.9,0.1-1.2,0.1c-0.2,0-0.3-0.3-0.4-1c-0.1-0.7-0.2-1-0.3-1c-0.1,0-0.3,0.2-0.8,0.6
			c-0.6,0.5-1.1,0.8-1.6,1.1c-0.8,0.4-1.5,0.6-2.3,0.6c-1.9,0-3.5-0.8-4.8-2.3c-1.2-1.4-1.8-3.1-1.8-5c0-2.2,0.6-3.9,1.9-5.3
			c1.3-1.5,3-2.2,5.1-2.2c1.5,0,2.8,0.5,3.9,1.5c0.2,0.2,0.4,0.5,0.8,0.8c0,0,0.1,0,0.1,0c0.1,0,0.1-0.3,0.2-0.9s0.2-0.9,0.4-0.9
			c0.3,0,0.8,0.1,1.5,0.2C391.1,411.1,391.5,411.3,391.5,411.4z M387.7,417.5c0-1.2-0.4-2.2-1.1-3.1c-0.7-0.9-1.7-1.4-2.9-1.4
			c-1.2,0-2.1,0.5-2.9,1.4c-0.7,0.9-1.1,1.9-1.1,3.1c0,1.2,0.4,2.2,1.1,3.1c0.8,0.9,1.7,1.4,2.9,1.4c1.1,0,2.1-0.5,2.9-1.4
			C387.4,419.7,387.7,418.7,387.7,417.5z"/>
		<path class="st5" d="M397.6,407.2c0,1.2-0.7,1.8-2,1.8c-1.4,0-2-0.6-2-1.8c0-0.5,0.2-1,0.6-1.3c0.4-0.3,0.9-0.5,1.4-0.5
			c0.5,0,1,0.2,1.4,0.5C397.4,406.2,397.6,406.7,397.6,407.2z M397.5,411.1c0,0.7,0,1.9-0.1,3.4s-0.1,2.6-0.1,3.4c0,0.7,0,1.8,0,3.2
			c0,1.4,0,2.5,0,3.2c0,0.2-0.1,0.3-0.3,0.3h-2.8c-0.2,0-0.3-0.2-0.3-0.6c0-0.7,0-1.7,0.1-3c0-1.3,0.1-2.4,0.1-3
			c0-0.8-0.1-1.9-0.2-3.4c-0.1-1.5-0.2-2.7-0.2-3.4c0-0.2,0.1-0.2,0.3-0.2c0.2,0,0.4,0,0.8,0.1s0.6,0.1,0.8,0.1c0.2,0,0.5,0,0.8-0.1
			s0.6-0.1,0.8-0.1C397.4,410.9,397.5,411,397.5,411.1z"/>
		<path class="st5" d="M408.5,421.9c0,0.2,0,0.5-0.1,0.9c0,0.5-0.1,0.8-0.1,0.9c0,0.2,0,0.3,0,0.3c0,0.1-0.1,0.1-0.3,0.2
			c-0.8,0.4-2,0.6-3.8,0.6c-2.3,0-3.4-1-3.4-3.1c0-0.8,0-2.1,0.1-3.7c0-1.7,0.1-2.9,0.1-3.7c0-0.4-0.2-0.6-0.6-0.6
			c-0.4,0-0.7,0-1.1,0c-0.2,0-0.3-0.4-0.3-1.2c0-0.3,0-0.6,0.1-0.9c0-0.2,0.2-0.4,0.5-0.4c0.2,0,0.5,0,0.7,0c0.4,0,0.7-0.2,0.7-0.6
			c0-0.4,0-1,0-1.8c0-0.8,0-1.4,0-1.8c0-0.7,0.1-1.1,0.4-1.1c0.1,0,1,0.2,2.7,0.5c0.2,0,0.3,0.1,0.3,0.3c0,0.4,0,1.1-0.1,1.9
			s-0.1,1.5-0.1,1.9c0,0.3,0.1,0.4,0.4,0.4h3.5c0.2,0,0.2,0.1,0.2,0.2c0,0.1,0,0.3-0.1,0.6c0,0.3-0.1,0.4-0.1,0.6c0,0.1,0,0.4,0,0.7
			c0,0.3,0,0.5,0,0.7c0,0.2-0.1,0.3-0.4,0.3c-0.4,0-1,0-1.8-0.1c-0.8-0.1-1.4-0.1-1.8-0.1c-0.1,0-0.1,0.3-0.2,0.8
			c0,0.7-0.1,1.7-0.1,2.9v2.2c0,0.8,0.1,1.4,0.2,1.7c0.2,0.5,0.7,0.8,1.4,0.8c0.3,0,0.7-0.1,1.3-0.2c0.6-0.1,1-0.2,1.3-0.2
			C408.5,421.7,408.5,421.8,408.5,421.9z"/>
		<path class="st5" d="M423.3,424.1c0,0.4-0.1,0.5-0.3,0.5c-0.3,0-0.8,0-1.4,0c-0.6,0-1.1,0-1.4,0c-0.2,0-0.4-0.2-0.4-0.5
			c0-0.5,0-1.2,0.1-2.1c0-0.9,0.1-1.7,0.1-2.1c0-0.4,0-1.1-0.1-2c0-0.9-0.1-1.6-0.1-2c0-1.7-0.8-2.6-2.5-2.6c-0.5,0-1.2,0.3-2.1,0.8
			c-0.9,0.6-1.4,1.1-1.4,1.6v8.7c0,0.3-0.1,0.4-0.3,0.4c-0.3,0-0.8,0-1.4,0c-0.6,0-1.1,0-1.4,0c-0.2,0-0.3-0.1-0.3-0.4v-7
			c0-1.1-0.1-3.6-0.2-7.3c0-1.2-0.1-2.9-0.2-5.1c0-0.1,0-0.2,0-0.2c0-0.2,0.1-0.3,0.2-0.3c0.2-0.1,0.7-0.1,1.6-0.1
			c0.2,0,0.5,0,0.9-0.1c0.4-0.1,0.7-0.1,0.9-0.1c0.1,0,0.2,0.1,0.2,0.3c0,0.9,0,2.3-0.1,4.1s-0.1,3.2-0.1,4.1c0,0.2,0,0.3,0.1,0.3
			c0.5-0.4,1.1-0.9,1.9-1.5c1-0.6,2-0.9,3-0.9c1.8,0,3.1,0.5,3.8,1.6c0.5,0.8,0.7,2.1,0.7,3.8c0,0.3,0,0.8,0,1.4c0,0.6,0,1.1,0,1.4
			c0,0.6,0,1.5,0,2.8C423.3,422.6,423.3,423.5,423.3,424.1z"/>
		<path class="st5" d="M452.1,422.2c0,0.1,0,0.3,0,0.5c0,0.2,0,0.4,0,0.5c0,0.1,0,0.2,0,0.4c0,0.2,0,0.3,0,0.4
			c0,0.4-0.2,0.6-0.7,0.6c-0.3,0-0.7,0-1.2,0c-0.5,0-0.9,0-1.2,0c-0.8,0-1.7-0.3-2.7-0.9c-0.8-0.5-1.5-1.2-2.1-1.9
			c-1,1.1-1.9,1.9-2.7,2.4c-1,0.6-2.2,0.9-3.5,0.9c-1.5,0-2.7-0.5-3.6-1.5c-0.9-1-1.3-2.2-1.3-3.7c0-1.6,0.5-3,1.4-4.1
			c0.7-0.9,1.9-1.8,3.5-2.7c-0.6-1.5-0.8-2.7-0.8-3.8c0-1.6,0.4-2.9,1.3-3.9c0.9-1,2.2-1.5,3.8-1.5c1.3,0,2.4,0.3,3.3,1
			c1,0.7,1.5,1.7,1.5,2.9c0,1.4-0.6,2.6-1.7,3.7c-0.6,0.6-1.8,1.4-3.5,2.3c0.9,1.5,1.8,2.7,2.7,3.8c1.1-1.4,2-2.3,2.6-2.7
			c0.9-0.7,2.1-1,3.6-1c0.4,0,0.7,0,0.8,0.1c0.3,0.1,0.4,0.3,0.4,0.6c0,0.9-0.2,1.6-0.7,2.3c-0.4,0-0.9,0.1-1.3,0.1
			c-0.5,0.1-1,0.2-1.3,0.3c-0.9,0.4-1.7,1.1-2.4,2.1c0.8,0.9,1.5,1.5,2.1,1.8c0.7,0.3,1.6,0.5,2.7,0.5c0.5,0,0.7,0,0.7,0
			C451.9,421.8,452.1,422,452.1,422.2z M442.8,420.1c-1.7-1.9-2.8-3.5-3.6-4.8c-1.8,1.2-2.8,2.6-2.8,4.2c0,0.8,0.2,1.4,0.7,2
			c0.5,0.5,1.1,0.8,1.9,0.8C440.2,422.3,441.4,421.5,442.8,420.1z M444.4,407.9c0-0.6-0.2-1-0.6-1.4s-0.8-0.5-1.4-0.5
			c-1.6,0-2.4,0.8-2.4,2.4c0,0.8,0.2,1.9,0.6,3.2c1.2-0.7,2-1.2,2.4-1.5C443.9,409.5,444.4,408.7,444.4,407.9z"/>
		<path class="st5" d="M475.2,406.9c0,0.3-0.1,0.4-0.3,0.4c-0.3,0-2-0.1-5.2-0.2c-0.1,3-0.1,5.3-0.1,7.1c0,1.1,0,2.8,0.1,5
			c0.1,2.2,0.1,3.9,0.1,5c0,0.2-0.1,0.3-0.4,0.3c-0.2,0-0.4,0-0.8,0s-0.6,0-0.8,0c-0.2,0-0.4,0-0.8,0s-0.6,0-0.8,0
			c-0.2,0-0.4-0.1-0.4-0.4c0-1.1,0-2.8,0.1-5c0.1-2.2,0.1-3.9,0.1-5c0-1.7-0.1-4.1-0.2-7.1c-2.5,0.2-4.3,0.2-5.5,0.2
			c-0.1,0-0.2,0-0.2-0.1c0-0.2,0-0.4,0.1-0.8c0.1-0.4,0.2-0.7,0.2-0.8c0-0.3,0.1-0.8,0.2-1.4c0-0.1,0.1-0.2,0.2-0.2l0.2,0
			c3.4,0.2,5.7,0.3,6.8,0.3c1,0,2.6-0.1,4.8-0.2c1.5-0.1,2.1-0.1,1.9-0.1c0.3,0,0.4,0.1,0.4,0.3c0-0.1,0,0.4,0,1.4
			c0,0.1,0,0.3,0,0.6C475.1,406.6,475.2,406.8,475.2,406.9z"/>
		<path class="st5" d="M485.2,410.9c0,1.1-0.1,2-0.2,2.9c0,0.2-0.1,0.3-0.3,0.3c-0.2,0-0.5,0-0.9-0.1c-0.4,0-0.7-0.1-0.9-0.1
			c-1.2,0-2,0.3-2.3,1c-0.2,0.4-0.3,1.3-0.3,2.6v1.6c0,0.5,0,1.4,0.1,2.5s0.1,1.9,0.1,2.5c0,0.3-0.1,0.4-0.3,0.4c-0.3,0-0.8,0-1.4,0
			c-0.6,0-1.1,0-1.4,0c-0.2,0-0.3-0.1-0.3-0.4c0-0.8,0-2,0-3.6c0-1.6,0-2.8,0-3.6c0-2.4-0.2-4.3-0.7-5.8c0-0.1,0-0.1,0-0.2
			c0-0.1,0.1-0.2,0.2-0.2c0.4,0,0.9-0.1,1.5-0.2c1-0.2,1.5-0.3,1.5-0.3c0.2,0,0.3,0.3,0.3,0.9c0,0.6,0.1,0.9,0.3,0.9c0,0,0,0,0.1,0
			c0.4-0.3,0.8-0.5,1.2-0.8c0.4-0.3,0.9-0.5,1.3-0.6c0.4-0.1,0.9-0.2,1.5-0.2C484.9,410.6,485.2,410.7,485.2,410.9z"/>
		<path class="st5" d="M500.3,411.4c0,0.7,0,1.8-0.1,3.2c-0.1,1.4-0.1,2.5-0.1,3.2c0,0.7,0,1.8,0.1,3.2s0.1,2.5,0.1,3.2
			c0,0.2-0.1,0.3-0.3,0.4c-0.1,0-1.1,0-3,0c-0.1,0-0.2-0.4-0.2-1.1s-0.1-1.1-0.2-1.1c0,0-0.1,0-0.2,0.1c-1.6,1.4-3.2,2.1-4.8,2.1
			c-2.1,0-3.6-0.8-4.3-2.3c-0.4-1-0.6-2.7-0.6-5.2c0-2.3,0.2-4.2,0.5-5.7c0.1-0.4,0.2-0.6,0.5-0.6c0.3,0,0.7,0,1.3,0
			c0.6,0,1,0,1.3,0c0.2,0,0.3,0.1,0.3,0.3c0,0.4-0.1,1-0.2,1.9c-0.1,0.9-0.2,1.6-0.2,2c0,0.6,0,1.2,0,1.9c0,1.7,0.1,2.8,0.4,3.4
			c0.4,1,1.3,1.6,2.8,1.6c0.6,0,1.3-0.3,2.2-0.9c0.9-0.6,1.3-1.2,1.4-1.8c0-0.7,0.1-3.3,0.1-7.7c0-0.5,0.2-0.7,0.6-0.7h2.4
			C500.2,410.9,500.3,411.1,500.3,411.4z"/>
		<path class="st5" d="M511.4,421.9c0,0.2,0,0.5-0.1,0.9c0,0.5-0.1,0.8-0.1,0.9c0,0.2,0,0.3,0,0.3c0,0.1-0.1,0.1-0.3,0.2
			c-0.8,0.4-2,0.6-3.8,0.6c-2.3,0-3.4-1-3.4-3.1c0-0.8,0-2.1,0.1-3.7c0-1.7,0.1-2.9,0.1-3.7c0-0.4-0.2-0.6-0.6-0.6
			c-0.4,0-0.7,0-1.1,0c-0.2,0-0.3-0.4-0.3-1.2c0-0.3,0-0.6,0.1-0.9c0-0.2,0.2-0.4,0.5-0.4c0.2,0,0.5,0,0.7,0c0.4,0,0.7-0.2,0.7-0.6
			c0-0.4,0-1,0-1.8c0-0.8,0-1.4,0-1.8c0-0.7,0.1-1.1,0.4-1.1c0.1,0,1,0.2,2.7,0.5c0.2,0,0.3,0.1,0.3,0.3c0,0.4,0,1.1-0.1,1.9
			c-0.1,0.9-0.1,1.5-0.1,1.9c0,0.3,0.1,0.4,0.4,0.4h3.5c0.2,0,0.2,0.1,0.2,0.2c0,0.1,0,0.3-0.1,0.6s-0.1,0.4-0.1,0.6
			c0,0.1,0,0.4,0,0.7c0,0.3,0,0.5,0,0.7c0,0.2-0.1,0.3-0.4,0.3c-0.4,0-1,0-1.8-0.1c-0.8-0.1-1.4-0.1-1.8-0.1c-0.1,0-0.1,0.3-0.2,0.8
			c0,0.7-0.1,1.7-0.1,2.9v2.2c0,0.8,0.1,1.4,0.2,1.7c0.2,0.5,0.7,0.8,1.4,0.8c0.3,0,0.7-0.1,1.3-0.2c0.6-0.1,1-0.2,1.3-0.2
			C511.4,421.7,511.4,421.8,511.4,421.9z"/>
		<path class="st5" d="M526.2,424.1c0,0.4-0.1,0.5-0.3,0.5c-0.3,0-0.8,0-1.4,0s-1.1,0-1.4,0c-0.2,0-0.4-0.2-0.4-0.5
			c0-0.5,0-1.2,0.1-2.1s0.1-1.7,0.1-2.1c0-0.4,0-1.1-0.1-2s-0.1-1.6-0.1-2c0-1.7-0.8-2.6-2.5-2.6c-0.5,0-1.2,0.3-2.1,0.8
			c-0.9,0.6-1.4,1.1-1.4,1.6v8.7c0,0.3-0.1,0.4-0.3,0.4c-0.3,0-0.8,0-1.4,0c-0.6,0-1.1,0-1.4,0c-0.2,0-0.3-0.1-0.3-0.4v-7
			c0-1.1-0.1-3.6-0.2-7.3c0-1.2-0.1-2.9-0.2-5.1c0-0.1,0-0.2,0-0.2c0-0.2,0.1-0.3,0.2-0.3c0.2-0.1,0.7-0.1,1.6-0.1
			c0.2,0,0.5,0,0.9-0.1c0.4-0.1,0.7-0.1,0.9-0.1c0.1,0,0.2,0.1,0.2,0.3c0,0.9,0,2.3-0.1,4.1s-0.1,3.2-0.1,4.1c0,0.2,0,0.3,0.1,0.3
			c0.5-0.4,1.1-0.9,1.9-1.5c1-0.6,2-0.9,3-0.9c1.8,0,3.1,0.5,3.8,1.6c0.5,0.8,0.7,2.1,0.7,3.8c0,0.3,0,0.8,0,1.4c0,0.6,0,1.1,0,1.4
			c0,0.6,0,1.5,0,2.8S526.2,423.5,526.2,424.1z"/>
		<path class="st5" d="M557,424.3c0,0.2-0.1,0.4-0.4,0.4c-0.2,0-0.4,0-0.8,0c-0.4,0-0.6,0-0.8,0c-0.2,0-0.4,0-0.8,0s-0.6,0-0.8,0
			c-0.2,0-0.4-0.2-0.4-0.5c0-1.2,0-3.1,0.1-5.6c0.1-2.5,0.1-4.3,0.1-5.6c0-0.2,0-0.3-0.1-0.3c-0.1,0-0.2,0.1-0.2,0.2
			c-0.5,1.1-1.7,3.9-3.5,8.5c-0.3,0.9-0.7,2-1.3,3.3c-0.1,0.1-0.4,0.2-1,0.2c-0.9,0-1.4-0.1-1.5-0.2c-0.3-0.8-0.8-1.9-1.4-3.3
			c-0.8-1.9-2-4.8-3.7-8.6c0-0.1-0.1-0.1-0.2-0.2c-0.1,0.1-0.1,0.2-0.1,0.3c0,1.3,0,3.1,0.1,5.6c0,2.5,0.1,4.4,0.1,5.6
			c0,0.3-0.1,0.5-0.4,0.5c-0.2,0-0.4,0-0.8,0s-0.6,0-0.8,0c-0.2,0-0.4,0-0.8,0s-0.6,0-0.8,0c-0.2,0-0.4-0.1-0.4-0.3
			c0-1.1,0.1-2.7,0.2-4.8c0.1-2.2,0.2-3.8,0.2-4.8c0-1.1-0.1-2.8-0.2-5c-0.1-2.2-0.2-3.9-0.2-5c0-0.2,0.1-0.3,0.3-0.3
			c1.3-0.2,2.3-0.3,3-0.3c0.1,0,0.2,0.2,0.4,0.6c2.4,5.2,4.4,9.8,6.1,13.8c0.4,1,0.6,1.4,0.7,1.4c0.1,0,0.3-0.4,0.6-1.2
			c1.3-3.1,3.2-7.8,5.5-14c0.1-0.4,0.3-0.6,0.5-0.6c0.3,0,0.8,0,1.5,0.1c0.7,0,1.2,0.1,1.5,0.1c0.2,0,0.4,0.1,0.4,0.3
			c0,1.1,0,2.8-0.1,5c-0.1,2.2-0.1,3.9-0.1,5c0,1.1,0,2.7,0.1,4.8C557,421.6,557,423.2,557,424.3z"/>
		<path class="st5" d="M563.8,407.2c0,1.2-0.7,1.8-2,1.8c-1.4,0-2-0.6-2-1.8c0-0.5,0.2-1,0.6-1.3c0.4-0.3,0.9-0.5,1.4-0.5
			s1,0.2,1.4,0.5C563.6,406.2,563.8,406.7,563.8,407.2z M563.7,411.1c0,0.7,0,1.9-0.1,3.4c-0.1,1.5-0.1,2.6-0.1,3.4
			c0,0.7,0,1.8,0,3.2c0,1.4,0,2.5,0,3.2c0,0.2-0.1,0.3-0.3,0.3h-2.8c-0.2,0-0.3-0.2-0.3-0.6c0-0.7,0-1.7,0.1-3c0-1.3,0.1-2.4,0.1-3
			c0-0.8-0.1-1.9-0.2-3.4c-0.1-1.5-0.2-2.7-0.2-3.4c0-0.2,0.1-0.2,0.3-0.2c0.2,0,0.4,0,0.8,0.1s0.6,0.1,0.8,0.1s0.5,0,0.8-0.1
			s0.6-0.1,0.8-0.1C563.7,410.9,563.7,411,563.7,411.1z"/>
		<path class="st5" d="M573.4,420.1c0,1.4-0.6,2.6-1.7,3.5c-1,0.8-2.3,1.2-3.8,1.2c-0.6,0-0.9,0-1,0c-0.2-0.1-0.2-0.3-0.2-0.7
			c0-0.2,0-0.5-0.1-1c-0.1-0.4-0.1-0.7-0.1-0.9c0-0.1,0.1-0.2,0.3-0.2c0.1,0,0.3,0,0.5,0c0.3,0,0.4,0,0.4,0c1.8,0,2.8-0.6,2.8-1.7
			c0-0.5-0.4-1-1.2-1.5c-1.3-0.7-2.1-1.2-2.3-1.3c-0.8-0.7-1.2-1.6-1.2-2.7c0-1.5,0.5-2.6,1.6-3.4c1-0.7,2.2-1.1,3.8-1.1
			c0.1,0,0.2,0.1,0.3,0.2s0.2,0.5,0.4,1.2c0.2,0.7,0.3,1.1,0.3,1.2c0,0.1-0.1,0.2-0.3,0.2c-0.6,0.1-1.2,0.2-1.9,0.2
			c-0.7,0.2-1.1,0.6-1.1,1.2c0,0.4,0.4,0.9,1.2,1.3c1.2,0.7,1.9,1.1,2.2,1.4C573,418,573.4,418.9,573.4,420.1z"/>
		<path class="st5" d="M582.4,420.1c0,1.4-0.6,2.6-1.7,3.5c-1,0.8-2.3,1.2-3.8,1.2c-0.6,0-0.9,0-1,0c-0.2-0.1-0.2-0.3-0.2-0.7
			c0-0.2,0-0.5-0.1-1c-0.1-0.4-0.1-0.7-0.1-0.9c0-0.1,0.1-0.2,0.3-0.2c0.1,0,0.3,0,0.5,0c0.3,0,0.4,0,0.4,0c1.8,0,2.8-0.6,2.8-1.7
			c0-0.5-0.4-1-1.2-1.5c-1.3-0.7-2.1-1.2-2.3-1.3c-0.8-0.7-1.2-1.6-1.2-2.7c0-1.5,0.5-2.6,1.6-3.4c1-0.7,2.2-1.1,3.8-1.1
			c0.1,0,0.2,0.1,0.3,0.2s0.2,0.5,0.4,1.2c0.2,0.7,0.3,1.1,0.3,1.2c0,0.1-0.1,0.2-0.3,0.2c-0.6,0.1-1.2,0.2-1.9,0.2
			c-0.7,0.2-1.1,0.6-1.1,1.2c0,0.4,0.4,0.9,1.2,1.3c1.2,0.7,1.9,1.1,2.2,1.4C582,418,582.4,418.9,582.4,420.1z"/>
		<path class="st5" d="M588.3,407.2c0,1.2-0.7,1.8-2,1.8c-1.4,0-2-0.6-2-1.8c0-0.5,0.2-1,0.6-1.3c0.4-0.3,0.9-0.5,1.4-0.5
			s1,0.2,1.4,0.5C588.1,406.2,588.3,406.7,588.3,407.2z M588.1,411.1c0,0.7,0,1.9-0.1,3.4c-0.1,1.5-0.1,2.6-0.1,3.4
			c0,0.7,0,1.8,0,3.2c0,1.4,0,2.5,0,3.2c0,0.2-0.1,0.3-0.3,0.3h-2.8c-0.2,0-0.3-0.2-0.3-0.6c0-0.7,0-1.7,0.1-3c0-1.3,0.1-2.4,0.1-3
			c0-0.8-0.1-1.9-0.2-3.4c-0.1-1.5-0.2-2.7-0.2-3.4c0-0.2,0.1-0.2,0.3-0.2c0.2,0,0.4,0,0.8,0.1s0.6,0.1,0.8,0.1s0.5,0,0.8-0.1
			s0.6-0.1,0.8-0.1C588.1,410.9,588.1,411,588.1,411.1z"/>
		<path class="st5" d="M604.2,417.5c0,2-0.7,3.8-2,5.2c-1.4,1.5-3,2.2-5.1,2.2c-2,0-3.7-0.7-5.1-2.2c-1.3-1.4-2-3.2-2-5.2
			s0.7-3.8,2-5.2c1.4-1.5,3.1-2.2,5.1-2.2c2,0,3.7,0.7,5,2.2C603.6,413.8,604.2,415.5,604.2,417.5z M601.2,417.5
			c0-1.2-0.4-2.2-1.1-3c-0.8-0.9-1.7-1.3-2.9-1.3c-1.2,0-2.1,0.4-2.9,1.3c-0.7,0.8-1.1,1.9-1.1,3c0,1.2,0.4,2.2,1.1,3
			c0.8,0.9,1.7,1.4,2.9,1.4c1.2,0,2.1-0.5,2.9-1.4C600.8,419.7,601.2,418.7,601.2,417.5z"/>
		<path class="st5" d="M619.1,424.3c0,0.2-0.1,0.3-0.3,0.3c-0.3,0-0.8,0-1.4,0c-0.6,0-1.1,0-1.4,0c-0.2,0-0.3-0.1-0.3-0.4
			c0-0.5,0-1.2,0-2.2s0-1.7,0-2.2c0-0.4,0-1,0-1.7c0-0.8,0-1.4,0-1.7c0-1.1-0.2-1.9-0.5-2.3c-0.4-0.5-1.1-0.8-2.2-0.8
			c-0.5,0-1.2,0.3-2,0.8c-0.9,0.6-1.4,1.1-1.4,1.5v8.7c0,0.2-0.1,0.4-0.3,0.4c-0.3,0-0.8,0-1.4,0c-0.6,0-1.1,0-1.4,0
			c-0.2,0-0.3-0.1-0.3-0.3c0-0.8,0-1.9,0-3.5c0-1.5,0-2.7,0-3.5c0-2.1-0.2-4-0.7-5.7c0-0.1,0-0.2,0-0.2c0-0.1,0.1-0.2,0.2-0.2
			c0.1,0,0.6-0.1,1.7-0.3c1-0.2,1.6-0.3,1.6-0.3c0.1,0,0.1,0.1,0.1,0.2c0,0.6,0.2,1.2,0.3,1.8c0.5-0.4,1.2-0.9,2-1.5
			c1-0.6,2-0.9,3-0.9c1.8,0,3.1,0.5,3.7,1.6c0.5,0.8,0.7,2,0.7,3.8c0,0.3,0,0.8,0,1.4c0,0.6,0,1.1,0,1.4c0,0.7,0,1.6,0,2.9
			C619.1,422.7,619.1,423.7,619.1,424.3z"/>
		<path class="st5" d="M636.9,405.9c0,0.1-0.1,0.2-0.3,0.2c-0.5,0-0.9,0.1-1.4,0.1c-0.6,0.1-1,0.3-1.3,0.6c-0.5,0.5-0.7,1.8-0.7,3.9
			c0.3,0,0.8,0,1.5,0c0.7,0,1.2,0,1.6,0c0.2,0,0.4,0.1,0.4,0.3c0,0.3,0,0.7,0,1.2s0,0.9,0,1.2c0,0.2-0.1,0.3-0.3,0.3
			c-0.3,0-0.9,0-1.5-0.1c-0.7,0-1.2-0.1-1.5-0.1v4.4c0,0.7,0,1.7,0.1,3.1c0,1.4,0.1,2.4,0.1,3.1c0,0.3-0.1,0.4-0.3,0.4h-2.7
			c-0.3,0-0.4-0.2-0.4-0.5v-10c0-0.3-0.3-0.4-0.9-0.4c-0.6,0-1,0-1-0.1c0,0,0-0.2,0-0.5c0-0.2,0-0.5,0-1c0-0.4,0-0.7,0-1
			c0-0.2,0.6-0.3,1.9-0.4c0-0.6,0-1.1,0-1.5c0-1.7,0.3-3,0.9-3.8c0.5-0.7,1.3-1.3,2.4-1.7c0.9-0.4,1.9-0.6,2.9-0.6
			c0.1,0,0.2,0.1,0.2,0.2c0,0,0.1,0.4,0.3,1.2C636.8,405.5,636.9,405.9,636.9,405.9z"/>
		<path class="st5" d="M651.3,417.5c0,2-0.7,3.8-2,5.2c-1.4,1.5-3,2.2-5.1,2.2c-2,0-3.7-0.7-5.1-2.2c-1.3-1.4-2-3.2-2-5.2
			s0.7-3.8,2-5.2c1.4-1.5,3.1-2.2,5.1-2.2c2,0,3.7,0.7,5,2.2C650.7,413.8,651.3,415.5,651.3,417.5z M648.3,417.5
			c0-1.2-0.4-2.2-1.1-3c-0.8-0.9-1.7-1.3-2.9-1.3c-1.2,0-2.1,0.4-2.9,1.3c-0.7,0.8-1.1,1.9-1.1,3c0,1.2,0.4,2.2,1.1,3
			c0.8,0.9,1.7,1.4,2.9,1.4c1.2,0,2.1-0.5,2.9-1.4C647.9,419.7,648.3,418.7,648.3,417.5z"/>
		<path class="st5" d="M661.7,410.9c0,1.1-0.1,2-0.2,2.9c0,0.2-0.1,0.3-0.3,0.3c-0.2,0-0.5,0-0.9-0.1c-0.4,0-0.7-0.1-0.9-0.1
			c-1.2,0-2,0.3-2.3,1c-0.2,0.4-0.3,1.3-0.3,2.6v1.6c0,0.5,0,1.4,0.1,2.5s0.1,1.9,0.1,2.5c0,0.3-0.1,0.4-0.3,0.4c-0.3,0-0.8,0-1.4,0
			c-0.6,0-1.1,0-1.4,0c-0.2,0-0.3-0.1-0.3-0.4c0-0.8,0-2,0-3.6c0-1.6,0-2.8,0-3.6c0-2.4-0.2-4.3-0.7-5.8c0-0.1,0-0.1,0-0.2
			c0-0.1,0.1-0.2,0.2-0.2c0.4,0,0.9-0.1,1.5-0.2c1-0.2,1.5-0.3,1.5-0.3c0.2,0,0.3,0.3,0.3,0.9c0,0.6,0.1,0.9,0.3,0.9c0,0,0,0,0.1,0
			c0.4-0.3,0.8-0.5,1.2-0.8c0.4-0.3,0.9-0.5,1.3-0.6c0.4-0.1,0.9-0.2,1.5-0.2C661.3,410.6,661.7,410.7,661.7,410.9z"/>
		<path class="st5" d="M675.8,404.5c0,1,0,2.4-0.1,4.3c-0.1,1.9-0.1,3.3-0.1,4.3c0,0.5,0,1.2,0,2.1s0,1.6,0,2.1
			c0,2.1-0.2,3.9-0.6,5.2c-0.5,1.8-1.5,3.2-2.8,4.3c-0.2,0.1-0.3,0.2-0.4,0.2c-0.1,0-0.1-0.1-0.2-0.2c-0.7-0.8-1.4-1.5-2-2.1
			c-0.1-0.1-0.1-0.2-0.1-0.2c0-0.1,0.1-0.2,0.2-0.3c0.7-0.6,1.1-1,1.3-1.3c0.4-0.5,0.6-1,0.8-1.7c0.2-0.9,0.4-2.7,0.4-5.5l0-2.2
			c0-0.9-0.1-2.4-0.2-4.4c-0.1-2-0.2-3.4-0.2-4.4c0-0.3,0.1-0.4,0.4-0.4c0.2,0,0.5,0,0.8,0s0.6,0,0.8,0c0.2,0,0.5,0,0.8,0
			s0.6,0,0.8,0C675.7,404.2,675.8,404.3,675.8,404.5z"/>
		<path class="st5" d="M691.1,416.8c0,0.7-0.3,1.2-0.9,1.4c-0.4,0.2-3.4,0.4-9,0.9c0.1,0.9,0.6,1.6,1.4,2.2c0.8,0.6,1.6,0.9,2.5,0.9
			c1.5,0,2.9-0.5,4.2-1.5c0.2-0.1,0.3-0.3,0.5-0.4c0.1,0,0.1,0,0.2,0c0,0,0.2,0.4,0.5,1c0.3,0.7,0.5,1,0.5,1.1
			c0,0.1-0.1,0.2-0.2,0.3c-1.4,1.5-3.3,2.3-5.5,2.3c-2.3,0-4.1-0.7-5.4-2c-1.3-1.3-2-3.1-2-5.4c0-2,0.6-3.7,1.9-5.2
			c1.3-1.5,3-2.3,5-2.3c1.8,0,3.4,0.7,4.6,2C690.5,413.3,691.1,414.9,691.1,416.8z M687.6,415.9c0-0.8-0.3-1.5-1-2.1
			c-0.6-0.6-1.4-0.9-2.1-0.9c-0.9,0-1.7,0.4-2.4,1.1s-1,1.5-1,2.4c0,0.2,0.2,0.3,0.5,0.3c1.4,0,3.2-0.1,5.2-0.4
			C687.3,416.1,687.6,416,687.6,415.9z"/>
		<path class="st5" d="M700,420.1c0,1.4-0.6,2.6-1.7,3.5c-1,0.8-2.3,1.2-3.8,1.2c-0.6,0-0.9,0-1,0c-0.2-0.1-0.2-0.3-0.2-0.7
			c0-0.2,0-0.5-0.1-1c-0.1-0.4-0.1-0.7-0.1-0.9c0-0.1,0.1-0.2,0.3-0.2c0.1,0,0.3,0,0.5,0c0.3,0,0.4,0,0.4,0c1.8,0,2.8-0.6,2.8-1.7
			c0-0.5-0.4-1-1.2-1.5c-1.3-0.7-2.1-1.2-2.3-1.3c-0.8-0.7-1.2-1.6-1.2-2.7c0-1.5,0.5-2.6,1.6-3.4c1-0.7,2.2-1.1,3.8-1.1
			c0.1,0,0.2,0.1,0.3,0.2s0.2,0.5,0.4,1.2c0.2,0.7,0.3,1.1,0.3,1.2c0,0.1-0.1,0.2-0.3,0.2c-0.6,0.1-1.2,0.2-1.9,0.2
			c-0.7,0.2-1.1,0.6-1.1,1.2c0,0.4,0.4,0.9,1.2,1.3c1.2,0.7,1.9,1.1,2.2,1.4C699.6,418,700,418.9,700,420.1z"/>
		<path class="st5" d="M715.5,411.4c0,0.7,0,1.8-0.1,3.2c-0.1,1.4-0.1,2.5-0.1,3.2c0,0.7,0,1.8,0.1,3.2s0.1,2.5,0.1,3.2
			c0,0.2-0.1,0.3-0.3,0.4c-0.1,0-1.1,0-3,0c-0.1,0-0.2-0.4-0.2-1.1s-0.1-1.1-0.2-1.1c0,0-0.1,0-0.2,0.1c-1.6,1.4-3.2,2.1-4.8,2.1
			c-2.1,0-3.6-0.8-4.3-2.3c-0.4-1-0.6-2.7-0.6-5.2c0-2.3,0.2-4.2,0.5-5.7c0.1-0.4,0.2-0.6,0.5-0.6c0.3,0,0.7,0,1.3,0
			c0.6,0,1,0,1.3,0c0.2,0,0.3,0.1,0.3,0.3c0,0.4-0.1,1-0.2,1.9c-0.1,0.9-0.2,1.6-0.2,2c0,0.6,0,1.2,0,1.9c0,1.7,0.1,2.8,0.4,3.4
			c0.4,1,1.3,1.6,2.8,1.6c0.6,0,1.3-0.3,2.2-0.9c0.9-0.6,1.3-1.2,1.4-1.8c0-0.7,0.1-3.3,0.1-7.7c0-0.5,0.2-0.7,0.6-0.7h2.4
			C715.4,410.9,715.5,411.1,715.5,411.4z"/>
		<path class="st5" d="M725.3,420.1c0,1.4-0.6,2.6-1.7,3.5c-1,0.8-2.3,1.2-3.8,1.2c-0.6,0-0.9,0-1,0c-0.2-0.1-0.2-0.3-0.2-0.7
			c0-0.2,0-0.5-0.1-1c-0.1-0.4-0.1-0.7-0.1-0.9c0-0.1,0.1-0.2,0.3-0.2c0.1,0,0.3,0,0.5,0c0.3,0,0.4,0,0.4,0c1.8,0,2.8-0.6,2.8-1.7
			c0-0.5-0.4-1-1.2-1.5c-1.3-0.7-2.1-1.2-2.3-1.3c-0.8-0.7-1.2-1.6-1.2-2.7c0-1.5,0.5-2.6,1.6-3.4c1-0.7,2.2-1.1,3.8-1.1
			c0.1,0,0.2,0.1,0.3,0.2s0.2,0.5,0.4,1.2c0.2,0.7,0.3,1.1,0.3,1.2c0,0.1-0.1,0.2-0.3,0.2c-0.6,0.1-1.2,0.2-1.9,0.2
			c-0.7,0.2-1.1,0.6-1.1,1.2c0,0.4,0.4,0.9,1.2,1.3c1.2,0.7,1.9,1.1,2.2,1.4C724.9,418,725.3,418.9,725.3,420.1z"/>
		<path class="st5" d="M755.4,424.3c0,0.2-0.1,0.4-0.4,0.4c-0.2,0-0.4,0-0.8,0c-0.4,0-0.6,0-0.8,0c-0.2,0-0.4,0-0.8,0s-0.6,0-0.8,0
			c-0.2,0-0.4-0.2-0.4-0.5c0-1.2,0-3.1,0.1-5.6c0.1-2.5,0.1-4.3,0.1-5.6c0-0.2,0-0.3-0.1-0.3c-0.1,0-0.2,0.1-0.2,0.2
			c-0.5,1.1-1.7,3.9-3.5,8.5c-0.3,0.9-0.7,2-1.3,3.3c-0.1,0.1-0.4,0.2-1,0.2c-0.9,0-1.4-0.1-1.5-0.2c-0.3-0.8-0.8-1.9-1.4-3.3
			c-0.8-1.9-2-4.8-3.7-8.6c0-0.1-0.1-0.1-0.2-0.2c-0.1,0.1-0.1,0.2-0.1,0.3c0,1.3,0,3.1,0.1,5.6c0,2.5,0.1,4.4,0.1,5.6
			c0,0.3-0.1,0.5-0.4,0.5c-0.2,0-0.4,0-0.8,0s-0.6,0-0.8,0c-0.2,0-0.4,0-0.8,0s-0.6,0-0.8,0c-0.2,0-0.4-0.1-0.4-0.3
			c0-1.1,0.1-2.7,0.2-4.8c0.1-2.2,0.2-3.8,0.2-4.8c0-1.1-0.1-2.8-0.2-5c-0.1-2.2-0.2-3.9-0.2-5c0-0.2,0.1-0.3,0.3-0.3
			c1.3-0.2,2.3-0.3,3-0.3c0.1,0,0.2,0.2,0.4,0.6c2.4,5.2,4.4,9.8,6.1,13.8c0.4,1,0.6,1.4,0.7,1.4c0.1,0,0.3-0.4,0.6-1.2
			c1.3-3.1,3.2-7.8,5.5-14c0.1-0.4,0.3-0.6,0.5-0.6c0.3,0,0.8,0,1.5,0.1c0.7,0,1.2,0.1,1.5,0.1c0.2,0,0.4,0.1,0.4,0.3
			c0,1.1,0,2.8-0.1,5c-0.1,2.2-0.1,3.9-0.1,5c0,1.1,0,2.7,0.1,4.8C755.4,421.6,755.4,423.2,755.4,424.3z"/>
		<path class="st5" d="M762.3,407.2c0,1.2-0.7,1.8-2,1.8c-1.4,0-2-0.6-2-1.8c0-0.5,0.2-1,0.6-1.3c0.4-0.3,0.9-0.5,1.4-0.5
			s1,0.2,1.4,0.5C762.1,406.2,762.3,406.7,762.3,407.2z M762.2,411.1c0,0.7,0,1.9-0.1,3.4c-0.1,1.5-0.1,2.6-0.1,3.4
			c0,0.7,0,1.8,0,3.2c0,1.4,0,2.5,0,3.2c0,0.2-0.1,0.3-0.3,0.3h-2.8c-0.2,0-0.3-0.2-0.3-0.6c0-0.7,0-1.7,0.1-3c0-1.3,0.1-2.4,0.1-3
			c0-0.8-0.1-1.9-0.2-3.4c-0.1-1.5-0.2-2.7-0.2-3.4c0-0.2,0.1-0.2,0.3-0.2c0.2,0,0.4,0,0.8,0.1s0.6,0.1,0.8,0.1s0.5,0,0.8-0.1
			s0.6-0.1,0.8-0.1C762.1,410.9,762.2,411,762.2,411.1z"/>
		<path class="st5" d="M777.9,424.3c0,0.2-0.1,0.3-0.3,0.3c-0.3,0-0.8,0-1.4,0c-0.6,0-1.1,0-1.4,0c-0.2,0-0.3-0.1-0.3-0.4
			c0-0.5,0-1.2,0-2.2s0-1.7,0-2.2c0-0.4,0-1,0-1.7c0-0.8,0-1.4,0-1.7c0-1.1-0.2-1.9-0.5-2.3c-0.4-0.5-1.1-0.8-2.2-0.8
			c-0.5,0-1.2,0.3-2,0.8c-0.9,0.6-1.4,1.1-1.4,1.5v8.7c0,0.2-0.1,0.4-0.3,0.4c-0.3,0-0.8,0-1.4,0c-0.6,0-1.1,0-1.4,0
			c-0.2,0-0.3-0.1-0.3-0.3c0-0.8,0-1.9,0-3.5c0-1.5,0-2.7,0-3.5c0-2.1-0.2-4-0.7-5.7c0-0.1,0-0.2,0-0.2c0-0.1,0.1-0.2,0.2-0.2
			c0.1,0,0.6-0.1,1.7-0.3c1-0.2,1.6-0.3,1.6-0.3c0.1,0,0.1,0.1,0.1,0.2c0,0.6,0.2,1.2,0.3,1.8c0.5-0.4,1.2-0.9,2-1.5
			c1-0.6,2-0.9,3-0.9c1.8,0,3.1,0.5,3.7,1.6c0.5,0.8,0.7,2,0.7,3.8c0,0.3,0,0.8,0,1.4c0,0.6,0,1.1,0,1.4c0,0.7,0,1.6,0,2.9
			C777.9,422.7,777.9,423.7,777.9,424.3z"/>
		<path class="st5" d="M784.4,407.2c0,1.2-0.7,1.8-2,1.8c-1.4,0-2-0.6-2-1.8c0-0.5,0.2-1,0.6-1.3c0.4-0.3,0.9-0.5,1.4-0.5
			s1,0.2,1.4,0.5C784.2,406.2,784.4,406.7,784.4,407.2z M784.3,411.1c0,0.7,0,1.9-0.1,3.4c-0.1,1.5-0.1,2.6-0.1,3.4
			c0,0.7,0,1.8,0,3.2c0,1.4,0,2.5,0,3.2c0,0.2-0.1,0.3-0.3,0.3H781c-0.2,0-0.3-0.2-0.3-0.6c0-0.7,0-1.7,0.1-3c0-1.3,0.1-2.4,0.1-3
			c0-0.8-0.1-1.9-0.2-3.4c-0.1-1.5-0.2-2.7-0.2-3.4c0-0.2,0.1-0.2,0.3-0.2c0.2,0,0.4,0,0.8,0.1s0.6,0.1,0.8,0.1s0.5,0,0.8-0.1
			s0.6-0.1,0.8-0.1C784.3,410.9,784.3,411,784.3,411.1z"/>
		<path class="st5" d="M794,420.1c0,1.4-0.6,2.6-1.7,3.5c-1,0.8-2.3,1.2-3.8,1.2c-0.6,0-0.9,0-1,0c-0.2-0.1-0.2-0.3-0.2-0.7
			c0-0.2,0-0.5-0.1-1c-0.1-0.4-0.1-0.7-0.1-0.9c0-0.1,0.1-0.2,0.3-0.2c0.1,0,0.3,0,0.5,0c0.3,0,0.4,0,0.4,0c1.8,0,2.8-0.6,2.8-1.7
			c0-0.5-0.4-1-1.2-1.5c-1.3-0.7-2.1-1.2-2.3-1.3c-0.8-0.7-1.2-1.6-1.2-2.7c0-1.5,0.5-2.6,1.6-3.4c1-0.7,2.2-1.1,3.8-1.1
			c0.1,0,0.2,0.1,0.3,0.2s0.2,0.5,0.4,1.2c0.2,0.7,0.3,1.1,0.3,1.2c0,0.1-0.1,0.2-0.3,0.2c-0.6,0.1-1.2,0.2-1.9,0.2
			c-0.7,0.2-1.1,0.6-1.1,1.2c0,0.4,0.4,0.9,1.2,1.3c1.2,0.7,1.9,1.1,2.2,1.4C793.6,418,794,418.9,794,420.1z"/>
		<path class="st5" d="M804.3,421.9c0,0.2,0,0.5-0.1,0.9c0,0.5-0.1,0.8-0.1,0.9c0,0.2,0,0.3,0,0.3c0,0.1-0.1,0.1-0.3,0.2
			c-0.8,0.4-2,0.6-3.8,0.6c-2.3,0-3.4-1-3.4-3.1c0-0.8,0-2.1,0.1-3.7c0-1.7,0.1-2.9,0.1-3.7c0-0.4-0.2-0.6-0.6-0.6
			c-0.4,0-0.7,0-1.1,0c-0.2,0-0.3-0.4-0.3-1.2c0-0.3,0-0.6,0.1-0.9c0-0.2,0.2-0.4,0.5-0.4c0.2,0,0.5,0,0.7,0c0.4,0,0.7-0.2,0.7-0.6
			c0-0.4,0-1,0-1.8c0-0.8,0-1.4,0-1.8c0-0.7,0.1-1.1,0.4-1.1c0.1,0,1,0.2,2.7,0.5c0.2,0,0.3,0.1,0.3,0.3c0,0.4,0,1.1-0.1,1.9
			c-0.1,0.9-0.1,1.5-0.1,1.9c0,0.3,0.1,0.4,0.4,0.4h3.5c0.2,0,0.2,0.1,0.2,0.2c0,0.1,0,0.3-0.1,0.6s-0.1,0.4-0.1,0.6
			c0,0.1,0,0.4,0,0.7c0,0.3,0,0.5,0,0.7c0,0.2-0.1,0.3-0.4,0.3c-0.4,0-1,0-1.8-0.1c-0.8-0.1-1.4-0.1-1.8-0.1c-0.1,0-0.1,0.3-0.2,0.8
			c0,0.7-0.1,1.7-0.1,2.9v2.2c0,0.8,0.1,1.4,0.2,1.7c0.2,0.5,0.7,0.8,1.4,0.8c0.3,0,0.7-0.1,1.3-0.2c0.6-0.1,1-0.2,1.3-0.2
			C804.2,421.7,804.3,421.8,804.3,421.9z"/>
		<path class="st5" d="M814.7,410.9c0,1.1-0.1,2-0.2,2.9c0,0.2-0.1,0.3-0.3,0.3c-0.2,0-0.5,0-0.9-0.1c-0.4,0-0.7-0.1-0.9-0.1
			c-1.2,0-2,0.3-2.3,1c-0.2,0.4-0.3,1.3-0.3,2.6v1.6c0,0.5,0,1.4,0.1,2.5s0.1,1.9,0.1,2.5c0,0.3-0.1,0.4-0.3,0.4c-0.3,0-0.8,0-1.4,0
			c-0.6,0-1.1,0-1.4,0c-0.2,0-0.3-0.1-0.3-0.4c0-0.8,0-2,0-3.6c0-1.6,0-2.8,0-3.6c0-2.4-0.2-4.3-0.7-5.8c0-0.1,0-0.1,0-0.2
			c0-0.1,0.1-0.2,0.2-0.2c0.4,0,0.9-0.1,1.5-0.2c1-0.2,1.5-0.3,1.5-0.3c0.2,0,0.3,0.3,0.3,0.9c0,0.6,0.1,0.9,0.3,0.9c0,0,0,0,0.1,0
			c0.4-0.3,0.8-0.5,1.2-0.8c0.4-0.3,0.9-0.5,1.3-0.6c0.4-0.1,0.9-0.2,1.5-0.2C814.3,410.6,814.7,410.7,814.7,410.9z"/>
		<path class="st5" d="M828.5,414.5c0,1.6,0,2.6-0.1,3c-0.1,0.4-1.3,2.3-3.6,5.7c-2.3,3.4-3.6,5.3-4.1,5.7c-0.4,0.3-1.6,0.5-3.8,0.5
			c-0.3,0-0.4,0-0.5-0.1c-0.1-0.1-0.2-0.4-0.5-1.1c-0.3-0.7-0.4-1-0.4-1.2c0-0.2,0.3-0.3,0.8-0.3c1.1,0,1.9-0.2,2.4-0.5
			c0.2-0.1,0.4-0.4,0.8-1c0.4-0.6,0.5-0.9,0.5-1.1c0-0.3-0.7-1.3-2.1-3.1c-1.5-1.9-2.3-3.1-2.5-3.6c-0.1-0.4-0.2-1.4-0.2-2.9
			c0-0.4,0-0.9,0-1.7s0-1.3,0-1.7c0-0.2,0.1-0.3,0.3-0.3c0.3,0,0.8,0,1.4,0.1s1.1,0.1,1.4,0.1c0.2,0,0.2,0.1,0.2,0.3
			c0,0.3,0,0.7,0,1.2s0,1,0,1.2c0,1.2,0,2.1,0.1,2.7c0.1,0.4,0.6,1.3,1.6,2.8c1,1.5,1.6,2.2,1.9,2.2c0.2,0,0.7-0.7,1.6-2.2
			c0.9-1.4,1.4-2.3,1.4-2.7c0.1-0.5,0.1-1.4,0.1-2.7c0-0.3,0-0.7-0.1-1.2s-0.1-1-0.1-1.2c0-0.2,0.1-0.4,0.2-0.4c0.3,0,0.8,0,1.4-0.1
			s1.1-0.1,1.4-0.1C828.4,410.9,828.5,412.1,828.5,414.5z"/>
	</g>
</g>
</svg>
