<?xml version="1.0" encoding="utf-8"?>
<!-- Generator: Adobe Illustrator 21.0.0, SVG Export Plug-In . SVG Version: 6.00 Build 0)  -->
<svg version="1.1" id="Layer_1" xmlns="http://www.w3.org/2000/svg" xmlns:xlink="http://www.w3.org/1999/xlink" x="0px" y="0px"
	 viewBox="0 0 1033.7 1241.3" style="enable-background:new 0 0 1033.7 1241.3;" xml:space="preserve">
<style type="text/css">
	.st0{fill:#E22027;}
	.st1{fill:#6D6E71;}
	.st2{fill:none;}
</style>
<polygon points="197.1,347.6 197.1,391.7 177.1,391.7 177.1,316 202.9,316 226.5,350.9 226.5,316 248.3,316 248.3,357.1 
	225.8,387.2 "/>
<rect x="311.4" y="316" width="20" height="75.6"/>
<polygon class="st0" points="281.7,391.7 304.7,391.7 304.7,292.2 230.3,391.6 253.9,391.6 285.1,350 285.1,372.8 269.2,372.9 "/>
<g>
	<path class="st1" d="M373,352.9c-0.7-1.1-1.5-2-2.5-2.8c-1-0.8-2.1-1.4-3.4-1.9c-1.3-0.5-2.6-0.7-4-0.7c-2.5,0-4.7,0.5-6.4,1.5
		c-1.8,1-3.2,2.3-4.3,3.9c-1.1,1.6-1.9,3.5-2.4,5.6c-0.5,2.1-0.8,4.3-0.8,6.5c0,2.1,0.3,4.2,0.8,6.3c0.5,2,1.3,3.8,2.4,5.5
		c1.1,1.6,2.5,2.9,4.3,3.9c1.8,1,3.9,1.5,6.4,1.5c3.4,0,6.1-1,8-3.1c1.9-2.1,3.1-4.9,3.5-8.3h10.9c-0.3,3.2-1,6.1-2.2,8.6
		c-1.2,2.6-2.8,4.8-4.7,6.6c-2,1.8-4.2,3.2-6.9,4.1c-2.6,1-5.5,1.4-8.6,1.4c-3.9,0-7.4-0.7-10.5-2c-3.1-1.4-5.8-3.2-7.9-5.6
		c-2.1-2.4-3.8-5.2-4.9-8.4s-1.7-6.7-1.7-10.4c0-3.8,0.6-7.3,1.7-10.6s2.8-6.1,4.9-8.5c2.1-2.4,4.8-4.3,7.9-5.7
		c3.1-1.4,6.6-2.1,10.5-2.1c2.8,0,5.5,0.4,8,1.2c2.5,0.8,4.7,2,6.7,3.5c2,1.5,3.6,3.5,4.9,5.8c1.3,2.3,2.1,4.9,2.4,7.9h-10.9
		C374.1,355.2,373.7,354,373,352.9z"/>
	<path class="st1" d="M389.5,358.8c1-1.6,2.4-2.8,4-3.8c1.6-1,3.4-1.6,5.5-2c2-0.4,4.1-0.6,6.1-0.6c1.9,0,3.7,0.1,5.6,0.4
		c1.9,0.3,3.6,0.8,5.2,1.5c1.6,0.8,2.9,1.8,3.9,3.2c1,1.4,1.5,3.2,1.5,5.4v19.2c0,1.7,0.1,3.3,0.3,4.8c0.2,1.5,0.5,2.7,1,3.4h-10.3
		c-0.2-0.6-0.3-1.2-0.5-1.8c-0.1-0.6-0.2-1.2-0.3-1.8c-1.6,1.7-3.5,2.8-5.7,3.5c-2.2,0.7-4.4,1-6.7,1c-1.8,0-3.4-0.2-4.9-0.6
		c-1.5-0.4-2.9-1.1-4-2c-1.1-0.9-2-2-2.7-3.4c-0.6-1.4-1-3-1-4.9c0-2.1,0.4-3.8,1.1-5.2c0.7-1.4,1.7-2.4,2.9-3.3
		c1.2-0.8,2.5-1.4,4-1.8c1.5-0.4,3-0.7,4.5-1c1.5-0.2,3-0.4,4.5-0.6c1.5-0.1,2.8-0.4,3.9-0.6s2-0.7,2.7-1.3c0.7-0.5,1-1.3,0.9-2.4
		c0-1.1-0.2-2-0.5-2.6s-0.8-1.1-1.4-1.5s-1.3-0.6-2.1-0.7s-1.6-0.2-2.5-0.2c-2,0-3.6,0.4-4.7,1.3s-1.8,2.3-2,4.3h-10.1
		C387.9,362.3,388.5,360.4,389.5,358.8z M409.6,373.1c-0.6,0.2-1.3,0.4-2.1,0.5c-0.7,0.1-1.5,0.3-2.3,0.4c-0.8,0.1-1.6,0.2-2.4,0.4
		c-0.8,0.1-1.5,0.3-2.3,0.6c-0.7,0.2-1.4,0.6-1.9,1c-0.5,0.4-1,0.9-1.3,1.5c-0.3,0.6-0.5,1.4-0.5,2.4c0,0.9,0.2,1.7,0.5,2.3
		c0.3,0.6,0.8,1.1,1.4,1.5c0.6,0.4,1.2,0.6,2,0.8s1.5,0.2,2.4,0.2c2,0,3.5-0.3,4.6-1c1.1-0.7,1.9-1.5,2.4-2.4c0.5-0.9,0.8-1.9,1-2.8
		c0.1-1,0.2-1.7,0.2-2.3v-3.8C410.8,372.6,410.2,372.9,409.6,373.1z"/>
	<path class="st1" d="M434.8,353.4v6.9h0.1c0.5-1.1,1.1-2.2,1.9-3.2c0.8-1,1.7-1.8,2.8-2.5c1-0.7,2.2-1.2,3.4-1.6
		c1.2-0.4,2.4-0.6,3.7-0.6c0.7,0,1.4,0.1,2.2,0.4v9.4c-0.5-0.1-1-0.2-1.7-0.3s-1.3-0.1-1.9-0.1c-1.9,0-3.4,0.3-4.7,0.9
		c-1.3,0.6-2.3,1.5-3.1,2.5c-0.8,1.1-1.3,2.3-1.7,3.8c-0.3,1.4-0.5,3-0.5,4.6v16.7h-10.1v-36.9H434.8z"/>
	<path class="st1" d="M447.9,363.8c0.9-2.4,2.2-4.5,3.9-6.1c1.7-1.7,3.7-3,6-3.9c2.3-0.9,5-1.4,7.9-1.4c2.9,0,5.5,0.5,7.9,1.4
		c2.4,0.9,4.4,2.2,6,3.9c1.7,1.7,3,3.7,3.9,6.1c0.9,2.4,1.4,5.1,1.4,8c0,3-0.5,5.6-1.4,8c-0.9,2.4-2.2,4.4-3.9,6.1
		c-1.7,1.7-3.7,3-6,3.9s-5,1.4-7.9,1.4c-2.9,0-5.5-0.5-7.9-1.4c-2.3-0.9-4.3-2.2-6-3.9c-1.7-1.7-3-3.7-3.9-6.1c-0.9-2.4-1.4-5-1.4-8
		C446.6,368.9,447,366.2,447.9,363.8z M457.1,376.2c0.3,1.4,0.8,2.7,1.5,3.8c0.7,1.1,1.6,2,2.8,2.7c1.1,0.7,2.6,1,4.3,1
		s3.2-0.3,4.3-1c1.2-0.7,2.1-1.6,2.8-2.7c0.7-1.1,1.2-2.4,1.5-3.8c0.3-1.4,0.4-2.8,0.4-4.3c0-1.5-0.1-2.9-0.4-4.4
		c-0.3-1.4-0.8-2.7-1.5-3.8c-0.7-1.1-1.6-2-2.8-2.7c-1.2-0.7-2.6-1-4.3-1s-3.1,0.3-4.3,1c-1.1,0.7-2.1,1.6-2.8,2.7
		c-0.7,1.1-1.2,2.4-1.5,3.8c-0.3,1.4-0.4,2.9-0.4,4.4C456.7,373.3,456.9,374.8,457.1,376.2z"/>
	<path class="st1" d="M497.8,339.3v51h-10.1v-51H497.8z"/>
	<path class="st1" d="M503.2,358.8c1-1.6,2.4-2.8,4-3.8c1.6-1,3.4-1.6,5.5-2c2-0.4,4.1-0.6,6.1-0.6c1.9,0,3.7,0.1,5.6,0.4
		c1.9,0.3,3.6,0.8,5.2,1.5c1.6,0.8,2.9,1.8,3.9,3.2c1,1.4,1.5,3.2,1.5,5.4v19.2c0,1.7,0.1,3.3,0.3,4.8c0.2,1.5,0.5,2.7,1,3.4H526
		c-0.2-0.6-0.3-1.2-0.5-1.8c-0.1-0.6-0.2-1.2-0.3-1.8c-1.6,1.7-3.5,2.8-5.7,3.5c-2.2,0.7-4.4,1-6.7,1c-1.8,0-3.4-0.2-4.9-0.6
		c-1.5-0.4-2.9-1.1-4-2c-1.1-0.9-2-2-2.7-3.4c-0.6-1.4-1-3-1-4.9c0-2.1,0.4-3.8,1.1-5.2c0.7-1.4,1.7-2.4,2.9-3.3
		c1.2-0.8,2.5-1.4,4-1.8c1.5-0.4,3-0.7,4.5-1c1.5-0.2,3-0.4,4.5-0.6c1.5-0.1,2.8-0.4,3.9-0.6s2-0.7,2.7-1.3c0.7-0.5,1-1.3,0.9-2.4
		c0-1.1-0.2-2-0.5-2.6s-0.8-1.1-1.4-1.5s-1.3-0.6-2.1-0.7s-1.6-0.2-2.5-0.2c-2,0-3.6,0.4-4.7,1.3s-1.8,2.3-2,4.3h-10.1
		C501.5,362.3,502.1,360.4,503.2,358.8z M523.2,373.1c-0.6,0.2-1.3,0.4-2.1,0.5c-0.7,0.1-1.5,0.3-2.3,0.4c-0.8,0.1-1.6,0.2-2.4,0.4
		c-0.8,0.1-1.5,0.3-2.3,0.6c-0.7,0.2-1.4,0.6-1.9,1c-0.5,0.4-1,0.9-1.3,1.5c-0.3,0.6-0.5,1.4-0.5,2.4c0,0.9,0.2,1.7,0.5,2.3
		c0.3,0.6,0.8,1.1,1.4,1.5c0.6,0.4,1.2,0.6,2,0.8s1.5,0.2,2.4,0.2c2,0,3.5-0.3,4.6-1c1.1-0.7,1.9-1.5,2.4-2.4c0.5-0.9,0.8-1.9,1-2.8
		c0.1-1,0.2-1.7,0.2-2.3v-3.8C524.4,372.6,523.9,372.9,523.2,373.1z"/>
	<path class="st1" d="M548.5,353.4v5.1h0.2c1.3-2.1,3-3.7,5-4.7c2-1,4.1-1.5,6.3-1.5c2.7,0,4.9,0.4,6.7,1.1c1.7,0.7,3.1,1.8,4.1,3.1
		c1,1.3,1.7,2.9,2.1,4.8c0.4,1.9,0.6,4,0.6,6.3v22.7h-10.1v-20.9c0-3-0.5-5.3-1.4-6.8c-1-1.5-2.6-2.3-5.1-2.3c-2.8,0-4.8,0.8-6,2.5
		c-1.2,1.6-1.9,4.3-1.9,8.1v19.4h-10.1v-36.9H548.5z"/>
	<path class="st1" d="M597.5,353.4v6.8h-7.4v18.3c0,1.7,0.3,2.9,0.9,3.4c0.6,0.6,1.7,0.9,3.4,0.9c0.6,0,1.1,0,1.6-0.1
		c0.5,0,1-0.1,1.5-0.2v7.9c-0.9,0.1-1.8,0.2-2.9,0.3c-1,0-2.1,0.1-3.1,0.1c-1.6,0-3.1-0.1-4.5-0.3c-1.4-0.2-2.6-0.6-3.7-1.3
		c-1.1-0.6-1.9-1.5-2.5-2.6c-0.6-1.1-0.9-2.6-0.9-4.5v-21.8h-6.1v-6.8h6.1v-11.1h10.1v11.1H597.5z"/>
	<path class="st1" d="M598.6,347.6v-8.4h10.1v8.4H598.6z M608.8,353.4v36.9h-10.1v-36.9H608.8z"/>
	<path class="st1" d="M630.4,360c-1.6,0-3,0.4-4.1,1.1c-1.1,0.7-2,1.7-2.7,2.9c-0.7,1.2-1.2,2.5-1.5,3.9s-0.4,2.8-0.4,4.2
		c0,1.3,0.1,2.7,0.4,4.1s0.8,2.6,1.4,3.8c0.6,1.1,1.5,2,2.6,2.8c1.1,0.7,2.4,1.1,4,1.1c2.4,0,4.3-0.7,5.6-2s2.1-3.2,2.5-5.5h9.8
		c-0.7,4.9-2.6,8.6-5.7,11.2c-3.1,2.6-7.2,3.9-12.1,3.9c-2.8,0-5.3-0.5-7.6-1.4c-2.3-0.9-4.3-2.2-5.9-3.9c-1.6-1.7-2.9-3.7-3.8-6
		c-0.9-2.3-1.4-4.8-1.4-7.6c0-2.9,0.4-5.5,1.3-8c0.8-2.5,2.1-4.6,3.7-6.4c1.6-1.8,3.6-3.2,5.9-4.2c2.3-1,5-1.5,8-1.5
		c2.2,0,4.3,0.3,6.3,0.9c2,0.6,3.8,1.4,5.4,2.6c1.6,1.2,2.9,2.6,3.9,4.4c1,1.7,1.6,3.8,1.7,6.2h-9.9
		C637.3,362.1,634.8,360,630.4,360z"/>
	<path class="st1" d="M694.3,339.3c2.3,0,4.3,0.4,6.2,1.1c1.8,0.7,3.4,1.8,4.7,3c1.3,1.3,2.3,2.8,3,4.5c0.7,1.7,1,3.5,1,5.5
		c0,3-0.6,5.6-1.9,7.8c-1.3,2.2-3.3,3.9-6.2,5v0.1c1.4,0.4,2.5,1,3.4,1.8c0.9,0.8,1.6,1.7,2.2,2.8c0.6,1.1,1,2.3,1.3,3.5
		c0.3,1.3,0.4,2.6,0.5,3.9c0,0.8,0.1,1.8,0.1,2.9c0,1.1,0.1,2.2,0.3,3.4c0.1,1.1,0.3,2.2,0.6,3.3c0.3,1,0.7,1.9,1.2,2.6h-11.2
		c-0.6-1.6-1-3.5-1.1-5.8c-0.1-2.2-0.4-4.4-0.6-6.4c-0.4-2.7-1.2-4.6-2.4-5.9c-1.2-1.2-3.3-1.9-6.1-1.9H678v19.9h-11.2v-51H694.3z
		 M690.3,362.4c2.6,0,4.5-0.6,5.8-1.7s1.9-3,1.9-5.6c0-2.5-0.6-4.3-1.9-5.4c-1.3-1.1-3.2-1.7-5.8-1.7H678v14.4H690.3z"/>
	<path class="st1" d="M724.1,381.4c1.5,1.5,3.7,2.2,6.6,2.2c2,0,3.8-0.5,5.3-1.5c1.5-1,2.4-2.1,2.7-3.3h8.9
		c-1.4,4.4-3.6,7.6-6.6,9.5c-3,1.9-6.5,2.9-10.7,2.9c-2.9,0-5.5-0.5-7.9-1.4c-2.3-0.9-4.3-2.3-5.9-4c-1.6-1.7-2.9-3.8-3.8-6.1
		c-0.9-2.4-1.3-5-1.3-7.9c0-2.8,0.5-5.3,1.4-7.7c0.9-2.4,2.2-4.4,3.9-6.2c1.7-1.7,3.7-3.1,6-4.1s4.9-1.5,7.7-1.5
		c3.1,0,5.9,0.6,8.2,1.8s4.3,2.8,5.8,4.9c1.5,2,2.6,4.4,3.3,7c0.7,2.6,0.9,5.4,0.7,8.2h-26.7C721.8,377.6,722.6,380,724.1,381.4z
		 M735.6,362c-1.2-1.3-3.1-2-5.5-2c-1.6,0-3,0.3-4,0.8c-1.1,0.5-1.9,1.2-2.6,2c-0.6,0.8-1.1,1.7-1.4,2.6c-0.3,0.9-0.4,1.7-0.5,2.4
		h16.5C737.7,365.3,736.8,363.3,735.6,362z"/>
	<path class="st1" d="M751.6,358.8c1-1.6,2.4-2.8,4-3.8c1.6-1,3.4-1.6,5.5-2c2-0.4,4.1-0.6,6.1-0.6c1.9,0,3.7,0.1,5.6,0.4
		c1.9,0.3,3.6,0.8,5.2,1.5c1.6,0.8,2.9,1.8,3.9,3.2c1,1.4,1.5,3.2,1.5,5.4v19.2c0,1.7,0.1,3.3,0.3,4.8c0.2,1.5,0.5,2.7,1,3.4h-10.3
		c-0.2-0.6-0.3-1.2-0.5-1.8c-0.1-0.6-0.2-1.2-0.3-1.8c-1.6,1.7-3.5,2.8-5.7,3.5c-2.2,0.7-4.4,1-6.7,1c-1.8,0-3.4-0.2-4.9-0.6
		c-1.5-0.4-2.9-1.1-4-2c-1.1-0.9-2-2-2.7-3.4c-0.6-1.4-1-3-1-4.9c0-2.1,0.4-3.8,1.1-5.2c0.7-1.4,1.7-2.4,2.9-3.3
		c1.2-0.8,2.5-1.4,4-1.8c1.5-0.4,3-0.7,4.5-1c1.5-0.2,3-0.4,4.5-0.6c1.5-0.1,2.8-0.4,3.9-0.6s2-0.7,2.7-1.3c0.7-0.5,1-1.3,0.9-2.4
		c0-1.1-0.2-2-0.5-2.6s-0.8-1.1-1.4-1.5s-1.3-0.6-2.1-0.7s-1.6-0.2-2.5-0.2c-2,0-3.6,0.4-4.7,1.3s-1.8,2.3-2,4.3h-10.1
		C750,362.3,750.6,360.4,751.6,358.8z M771.7,373.1c-0.6,0.2-1.3,0.4-2.1,0.5c-0.7,0.1-1.5,0.3-2.3,0.4c-0.8,0.1-1.6,0.2-2.4,0.4
		c-0.8,0.1-1.5,0.3-2.3,0.6c-0.7,0.2-1.4,0.6-1.9,1c-0.5,0.4-1,0.9-1.3,1.5c-0.3,0.6-0.5,1.4-0.5,2.4c0,0.9,0.2,1.7,0.5,2.3
		c0.3,0.6,0.8,1.1,1.4,1.5c0.6,0.4,1.2,0.6,2,0.8s1.5,0.2,2.4,0.2c2,0,3.5-0.3,4.6-1c1.1-0.7,1.9-1.5,2.4-2.4c0.5-0.9,0.8-1.9,1-2.8
		c0.1-1,0.2-1.7,0.2-2.3v-3.8C772.9,372.6,772.3,372.9,771.7,373.1z"/>
	<path class="st1" d="M797.7,339.3v51h-10.1v-51H797.7z"/>
	<path class="st1" d="M822,353.4v6.8h-7.4v18.3c0,1.7,0.3,2.9,0.9,3.4c0.6,0.6,1.7,0.9,3.4,0.9c0.6,0,1.1,0,1.6-0.1
		c0.5,0,1-0.1,1.5-0.2v7.9c-0.9,0.1-1.8,0.2-2.9,0.3c-1,0-2.1,0.1-3.1,0.1c-1.6,0-3.1-0.1-4.5-0.3c-1.4-0.2-2.6-0.6-3.7-1.3
		c-1.1-0.6-1.9-1.5-2.5-2.6c-0.6-1.1-0.9-2.6-0.9-4.5v-21.8h-6.1v-6.8h6.1v-11.1h10.1v11.1H822z"/>
	<path class="st1" d="M836.5,401.3c-2,1.3-4.7,1.9-8.1,1.9c-1,0-2.1,0-3.1-0.1c-1-0.1-2.1-0.2-3.1-0.3v-8.4c1,0.1,1.9,0.2,2.9,0.3
		c1,0.1,2,0.1,3,0.1c1.3-0.1,2.3-0.7,3-1.6c0.6-0.9,1-1.9,1-3c0-0.8-0.1-1.6-0.4-2.3l-12.9-34.7h10.8l8.4,25.3h0.1l8.1-25.3h10.5
		l-15.4,41.5C840,397.9,838.5,400,836.5,401.3z"/>
</g>
<g>
	<path d="M194.9,420c-0.6,4.7-3.6,8-8.4,8c-5.1,0-8.7-4.1-8.7-9.9c0-4.6,2.5-10.2,9-10.2c5.1,0,7.6,3.8,7.7,6.2h-0.5
		c-0.2-2.8-2.9-5.7-7.1-5.7c-6.3,0-8.5,5.7-8.5,9.7c0,4.9,3,9.3,8.1,9.3c4.6,0,7.3-3.2,7.9-7.4H194.9z"/>
	<path d="M202.5,413.4c4,0,6.2,3.5,6.2,7.2c0,3.8-2.2,7.2-6.2,7.2c-4,0-6.2-3.4-6.2-7.2C196.3,416.8,198.4,413.4,202.5,413.4z
		 M202.5,427.3c3.7,0,5.7-3.2,5.7-6.7c0-3.4-2-6.7-5.7-6.7c-3.7,0-5.7,3.3-5.7,6.7C196.8,424.1,198.8,427.3,202.5,427.3z"/>
	<path d="M210.9,413.7h0.5v3.4h0.1c0.5-2.1,2.3-3.7,4.4-3.7c2.1-0.1,3.7,1.2,4.1,3.2h0.1c0.5-1.9,2.3-3.2,4.4-3.2
		c3.3,0,4.4,2.1,4.4,5v9.1h-0.5v-9.1c0-2.7-0.8-4.5-3.8-4.5c-2.7,0-4.3,2.3-4.3,4.8v8.8h-0.5v-8.9c0-2.6-0.6-4.7-3.7-4.7
		c-2.7,0-4.5,2.7-4.5,5.8v7.8h-0.5V413.7z"/>
	<path d="M231.8,413.7h0.5v3.4h0.1c0.5-2.1,2.3-3.7,4.4-3.7c2.1-0.1,3.7,1.2,4.1,3.2h0.1c0.5-1.9,2.3-3.2,4.4-3.2
		c3.3,0,4.4,2.1,4.4,5v9.1h-0.5v-9.1c0-2.7-0.8-4.5-3.8-4.5c-2.7,0-4.3,2.3-4.3,4.8v8.8h-0.5v-8.9c0-2.6-0.6-4.7-3.7-4.7
		c-2.7,0-4.5,2.7-4.5,5.8v7.8h-0.5V413.7z"/>
	<path d="M252.5,420.7c0.1,3.7,1.5,6.6,5.5,6.6c2.8,0,4.9-1.6,5.4-4.6h0.5c-0.4,3.2-2.7,5.1-5.9,5.1c-4.3,0.1-6-3.1-6-7.2
		c0-4.6,2.9-7.2,6-7.2c4.3,0,6.2,3.5,6,7.3H252.5z M263.5,420.1c0-3.4-1.9-6.3-5.5-6.3c-3,0-5.4,2.4-5.6,6.3H263.5z"/>
	<path d="M266.7,427.5h-0.5v-13.8h0.5v3.4h0.1c0.5-2,2.1-3.8,5.4-3.7v0.5c-3.8-0.2-5.5,2.8-5.5,5.8V427.5z"/>
	<path d="M284.2,422.8c-0.3,3.1-2.5,5-5.6,5c-3.9,0-6.1-3.2-6.1-6.9c0-4,2-7.5,6.4-7.5c2.6,0,4.9,1.6,5.2,4.5h-0.5
		c-0.4-2.7-2.4-4-4.7-4c-4.4,0-5.9,3.7-5.9,7c0,3.4,1.9,6.4,5.6,6.4c2.7,0,4.9-1.7,5.1-4.5H284.2z"/>
	<path d="M287.1,411h-0.5v-2.7h0.5V411z M287.1,427.5h-0.5v-13.8h0.5V427.5z"/>
	<path d="M290,417.9c0.1-2.6,1.9-4.6,5.3-4.6c2.4,0,4.5,0.9,4.6,3.9v8.8c0,1,1,0.9,1.7,0.9v0.5c-1,0.1-2.3,0.1-2.3-1.3v-1.8h-0.1
		c-0.5,1.8-2.6,3.5-5.5,3.5c-2.7,0-4.6-1.3-4.6-3.7c0-3.4,2.4-4,4.8-4.1c3.8-0.2,5.4-0.1,5.4-2.2c0-1.7-0.3-3.8-4-3.8
		c-2.9,0-4.5,1.5-4.7,4.1H290z M299.3,419.4L299.3,419.4c-0.8,1-3.2,0.9-5.4,1.1c-2.2,0.2-4.2,0.6-4.2,3.6c0,1.6,1,3.2,4,3.2
		c3.6,0,5.6-2.6,5.6-5.3V419.4z"/>
	<path d="M302.9,408.3h0.5v19.2h-0.5V408.3z"/>
	<path d="M314.4,427.5h-0.5v-19.2h7.8c3.9,0,5.8,1.6,5.9,4.9c0.1,2.5-1.4,4.4-4.1,4.9v0.1c3.2,0.4,3.8,2.3,3.8,5.3
		c0,1.2,0.1,3.4,0.5,3.9h-0.6c-0.3-0.8-0.4-2.8-0.4-4c0-3.1-0.7-5-5.1-5h-7.2V427.5z M314.4,417.9h7.2c2.8,0,5.5-1.4,5.5-4.8
		c0-2.7-1.5-4.3-5.2-4.3h-7.4V417.9z"/>
	<path d="M330,420.7c0.1,3.7,1.5,6.6,5.5,6.6c2.8,0,4.9-1.6,5.4-4.6h0.5c-0.4,3.2-2.7,5.1-5.9,5.1c-4.3,0.1-6-3.1-6-7.2
		c0-4.6,2.9-7.2,6-7.2c4.3,0,6.2,3.5,6,7.3H330z M341.1,420.1c0-3.4-1.9-6.3-5.5-6.3c-3,0-5.4,2.4-5.6,6.3H341.1z"/>
	<path d="M343.7,417.9c0.1-2.6,1.9-4.6,5.3-4.6c2.4,0,4.5,0.9,4.6,3.9v8.8c0,1,1,0.9,1.7,0.9v0.5c-1,0.1-2.3,0.1-2.3-1.3v-1.8H353
		c-0.5,1.8-2.6,3.5-5.5,3.5c-2.7,0-4.6-1.3-4.6-3.7c0-3.4,2.4-4,4.8-4.1c3.8-0.2,5.4-0.1,5.4-2.2c0-1.7-0.3-3.8-4-3.8
		c-2.9,0-4.5,1.5-4.7,4.1H343.7z M353,419.4L353,419.4c-0.8,1-3.2,0.9-5.4,1.1c-2.2,0.2-4.2,0.6-4.2,3.6c0,1.6,1,3.2,4,3.2
		c3.6,0,5.6-2.6,5.6-5.3V419.4z"/>
	<path d="M356.7,408.3h0.5v19.2h-0.5V408.3z"/>
	<path d="M368.1,426.9h12.3v0.5h-12.8v-19.2h12.7v0.5h-12.2v8.4h11.5v0.5h-11.5V426.9z"/>
	<path d="M391,417.8c0-2.8-1.8-3.9-4.5-3.9c-3.9,0-4.1,2.4-4.1,2.9c0,1.4,0.6,2,1.5,2.4c1,0.4,2.1,0.6,3.5,1
		c2.1,0.5,4.4,1.1,4.4,3.7c0,2.8-2.6,3.8-5,3.8c-3.6,0-5.6-1.6-5.6-5h0.5c0,3.1,1.9,4.5,5,4.5c2,0,4.5-0.9,4.5-3.2
		c0-2.4-2.4-2.8-4.8-3.4c-1.3-0.3-2.3-0.6-3.1-0.9c-1.1-0.5-1.7-1.4-1.7-2.8c0-1.5,1.2-3.5,4.7-3.5c3.1,0,5,1.3,5,4.4H391z"/>
	<path d="M396,414.2v10.6c0,2.1,1,2.1,1.9,2.1c0.5,0,1,0,1.2-0.1v0.5c-0.3,0-0.5,0.1-1.3,0.1c-1.3,0-2.3-0.6-2.3-2.6v-10.7h-2.6
		v-0.5h2.6v-4.4h0.5v4.4h3.1v0.5H396z"/>
	<path d="M400.9,417.9c0.1-2.6,1.9-4.6,5.3-4.6c2.4,0,4.5,0.9,4.6,3.9v8.8c0,1,1,0.9,1.7,0.9v0.5c-1,0.1-2.3,0.1-2.3-1.3v-1.8h-0.1
		c-0.5,1.8-2.6,3.5-5.5,3.5c-2.7,0-4.6-1.3-4.6-3.7c0-3.4,2.4-4,4.8-4.1c3.8-0.2,5.4-0.1,5.4-2.2c0-1.7-0.3-3.8-4-3.8
		c-2.9,0-4.5,1.5-4.7,4.1H400.9z M410.2,419.4L410.2,419.4c-0.8,1-3.2,0.9-5.4,1.1c-2.2,0.2-4.2,0.6-4.2,3.6c0,1.6,1,3.2,4,3.2
		c3.6,0,5.6-2.6,5.6-5.3V419.4z"/>
	<path d="M415.3,414.2v10.6c0,2.1,1,2.1,1.9,2.1c0.5,0,1,0,1.2-0.1v0.5c-0.3,0-0.5,0.1-1.3,0.1c-1.3,0-2.3-0.6-2.3-2.6v-10.7h-2.6
		v-0.5h2.6v-4.4h0.5v4.4h3.1v0.5H415.3z"/>
	<path d="M420.1,420.7c0.1,3.7,1.5,6.6,5.5,6.6c2.8,0,4.9-1.6,5.4-4.6h0.5c-0.4,3.2-2.7,5.1-5.9,5.1c-4.3,0.1-6-3.1-6-7.2
		c0-4.6,2.9-7.2,6-7.2c4.3,0,6.2,3.5,6,7.3H420.1z M431.1,420.1c0-3.4-1.9-6.3-5.5-6.3c-3,0-5.4,2.4-5.6,6.3H431.1z"/>
	<path d="M454,413.7c-0.1-3.9-2.8-5.3-6.2-5.3c-2.7,0-6,1-6,4.4c0,3.5,3.3,3.9,6.6,4.6c3.6,0.9,6.6,1.3,6.6,5.3
		c0,3.6-3.5,5.2-6.8,5.2c-4.3,0-7.6-2-7.5-6.8h0.5c0,4.6,2.9,6.3,7,6.3c3,0,6.2-1.3,6.2-4.6c0-3.9-3.8-4.2-6.7-4.9
		c-3.1-0.7-6.4-1.3-6.4-5c0-3.8,3.5-4.9,6.6-4.9c3.8,0,6.6,1.5,6.8,5.8H454z"/>
	<path d="M457.4,420.7c0.1,3.7,1.5,6.6,5.5,6.6c2.8,0,4.9-1.6,5.4-4.6h0.5c-0.4,3.2-2.7,5.1-5.9,5.1c-4.3,0.1-6-3.1-6-7.2
		c0-4.6,2.9-7.2,6-7.2c4.3,0,6.2,3.5,6,7.3H457.4z M468.4,420.1c0-3.4-1.9-6.3-5.5-6.3c-3,0-5.4,2.4-5.6,6.3H468.4z"/>
	<path d="M471.6,427.5h-0.5v-13.8h0.5v3.4h0.1c0.5-2,2.1-3.8,5.4-3.7v0.5c-3.8-0.2-5.5,2.8-5.5,5.8V427.5z"/>
	<path d="M487.7,413.7h0.6l-5.2,13.8h-0.7l-5.7-13.8h0.6l5.3,13.3h0.1L487.7,413.7z"/>
	<path d="M490,411h-0.5v-2.7h0.5V411z M490,427.5h-0.5v-13.8h0.5V427.5z"/>
	<path d="M504,422.8c-0.3,3.1-2.5,5-5.6,5c-3.9,0-6.1-3.2-6.1-6.9c0-4,2-7.5,6.4-7.5c2.6,0,4.9,1.6,5.2,4.5h-0.5
		c-0.4-2.7-2.4-4-4.7-4c-4.4,0-5.9,3.7-5.9,7c0,3.4,1.9,6.4,5.6,6.4c2.7,0,4.9-1.7,5.1-4.5H504z"/>
	<path d="M506.1,420.7c0.1,3.7,1.5,6.6,5.5,6.6c2.8,0,4.9-1.6,5.4-4.6h0.5c-0.4,3.2-2.7,5.1-5.9,5.1c-4.3,0.1-6-3.1-6-7.2
		c0-4.6,2.9-7.2,6-7.2c4.3,0,6.2,3.5,6,7.3H506.1z M517.1,420.1c0-3.4-1.9-6.3-5.5-6.3c-3,0-5.4,2.4-5.6,6.3H517.1z"/>
	<path d="M528.8,417.8c0-2.8-1.8-3.9-4.5-3.9c-3.9,0-4.1,2.4-4.1,2.9c0,1.4,0.6,2,1.5,2.4c1,0.4,2.1,0.6,3.5,1
		c2.1,0.5,4.4,1.1,4.4,3.7c0,2.8-2.6,3.8-5,3.8c-3.6,0-5.6-1.6-5.6-5h0.5c0,3.1,1.9,4.5,5,4.5c2,0,4.5-0.9,4.5-3.2
		c0-2.4-2.4-2.8-4.8-3.4c-1.3-0.3-2.3-0.6-3.1-0.9c-1.1-0.5-1.7-1.4-1.7-2.8c0-1.5,1.2-3.5,4.7-3.5c3.1,0,5,1.3,5,4.4H528.8z"/>
	<path d="M534.7,424.8v2.6c0,1.6-0.3,2.6-1.2,3.2v-0.5c0.5-0.5,0.6-1.2,0.6-2.7v-2.6H534.7z"/>
	<path d="M568.8,408.3h0.5l-5.6,19.2H563l-5.6-18.5h-0.1l-5.5,18.5h-0.7l-5.7-19.2h0.6l5.4,18.5h0.1l5.5-18.5h0.8l5.6,18.5h0.1
		L568.8,408.3z"/>
	<path d="M575.5,413.4c4,0,6.2,3.5,6.2,7.2c0,3.8-2.2,7.2-6.2,7.2c-4,0-6.2-3.4-6.2-7.2C569.3,416.8,571.5,413.4,575.5,413.4z
		 M575.5,427.3c3.7,0,5.7-3.2,5.7-6.7c0-3.4-2-6.7-5.7-6.7c-3.7,0-5.7,3.3-5.7,6.7C569.8,424.1,571.8,427.3,575.5,427.3z"/>
	<path d="M584.5,427.5H584v-13.8h0.5v3.4h0.1c0.5-2,2.1-3.8,5.4-3.7v0.5c-3.8-0.2-5.5,2.8-5.5,5.8V427.5z"/>
	<path d="M590.9,408.3h0.5v19.2h-0.5V408.3z"/>
	<path d="M605.2,408.3h0.5v19.2h-0.5v-3.9h-0.1c-0.7,2.4-2.7,4.2-5.5,4.2c-3.7,0-5.9-3-5.9-7.2c0-3.9,2.1-7.3,5.9-7.3
		c2.9,0,4.9,1.7,5.5,4.2h0.1V408.3z M599.6,413.9c-3.8,0-5.3,3.5-5.3,6.7c0,3.5,1.8,6.7,5.3,6.7c3.5,0,5.6-3.1,5.6-6.7
		C605.2,416.3,602.9,413.9,599.6,413.9z"/>
	<path d="M625.4,413.7h0.5l-4.4,13.8h-0.7l-4.3-13.3h-0.1l-4.3,13.3h-0.8l-4.3-13.8h0.5l4.1,13.3h0.1l4.3-13.3h0.8l4.2,13.3h0.1
		L625.4,413.7z"/>
	<path d="M627.8,411h-0.5v-2.7h0.5V411z M627.8,427.5h-0.5v-13.8h0.5V427.5z"/>
	<path d="M641.5,408.3h0.5v19.2h-0.5v-3.9h-0.1c-0.7,2.4-2.7,4.2-5.5,4.2c-3.7,0-5.9-3-5.9-7.2c0-3.9,2.1-7.3,5.9-7.3
		c2.9,0,4.9,1.7,5.5,4.2h0.1V408.3z M635.9,413.9c-3.8,0-5.3,3.5-5.3,6.7c0,3.5,1.8,6.7,5.3,6.7c3.5,0,5.6-3.1,5.6-6.7
		C641.5,416.3,639.2,413.9,635.9,413.9z"/>
	<path d="M644.9,420.7c0.1,3.7,1.5,6.6,5.5,6.6c2.8,0,4.9-1.6,5.4-4.6h0.5c-0.4,3.2-2.7,5.1-5.9,5.1c-4.3,0.1-6-3.1-6-7.2
		c0-4.6,2.9-7.2,6-7.2c4.3,0,6.2,3.5,6,7.3H644.9z M655.9,420.1c0-3.4-1.9-6.3-5.5-6.3c-3,0-5.4,2.4-5.6,6.3H655.9z"/>
	<path d="M661.1,427.5h-0.5v-2.6h0.5V427.5z"/>
</g>
<rect class="st2" width="1033.7" height="1241.3"/>
</svg>
