<?xml version="1.0" encoding="utf-8"?>
<!-- Generator: Adobe Illustrator 21.0.0, SVG Export Plug-In . SVG Version: 6.00 Build 0)  -->
<svg version="1.1" id="Layer_1" xmlns="http://www.w3.org/2000/svg" xmlns:xlink="http://www.w3.org/1999/xlink" x="0px" y="0px"
	 viewBox="0 0 1024 1024" style="enable-background:new 0 0 1024 1024;" xml:space="preserve">
<style type="text/css">
	.st0{display:none;}
	.st1{display:inline;}
	.st2{fill:#969696;}
	.st3{fill:#0C658E;}
	.st4{display:inline;opacity:0.6;fill:#7AB4E2;enable-background:new    ;}
	.st5{fill:#FFFFFF;}
	.st6{opacity:0.6;fill:#4BEAA9;enable-background:new    ;}
	.st7{fill:#13C9E2;}
</style>
<g id="Layer_1_1_" class="st0">
	<g class="st1">
		<path class="st2" d="M911,40c19.4,0,37.7,7.6,51.5,21.5C976.4,75.3,984,93.6,984,113v798c0,19.4-7.6,37.7-21.5,51.5
			C948.7,976.4,930.4,984,911,984H113c-19.4,0-37.7-7.6-51.5-21.5C47.6,948.7,40,930.4,40,911V113c0-19.4,7.6-37.7,21.5-51.5
			S93.6,40,113,40H911 M911,0H113C50.9,0,0,50.9,0,113v798c0,62.2,50.9,113,113,113h798c62.2,0,113-50.9,113-113V113
			C1024,50.9,973.1,0,911,0L911,0z"/>
	</g>
	<g class="st1">
		<polygon class="st3" points="482.9,256.2 493.1,320.7 552,348.8 493.9,378.5 485.3,443.2 439.1,397 374.9,408.9 404.6,350.7 
			373.4,293.3 437.9,303.5 		"/>
	</g>
	<g class="st1">
		<polygon class="st3" points="720.3,397.8 706.3,481 766.9,539.7 683.4,552.2 646.3,628 608.7,552.4 525.1,540.5 585.4,481.4 
			570.8,398.3 645.7,437.3 		"/>
	</g>
	<g class="st1">
		<polygon class="st3" points="531.3,631.5 437.4,673.7 418.9,774.9 349.8,698.6 247.8,712.3 299,623 254.5,530.2 355.2,551.3 
			429.7,480.3 440.7,582.6 		"/>
	</g>
</g>
<g id="_x31_" class="st0">
	<path class="st4" d="M1012,1023.7H12.3c-6.6,0-12-5.4-12-12V12c0-6.6,5.4-12,12-12H1012c6.6,0,12,5.4,12,12v999.7
		C1024,1018.3,1018.6,1023.7,1012,1023.7z"/>
	<g class="st1">
		<polygon class="st5" points="247,421.7 247,626 154.4,626 154.4,275.2 273.9,275.2 383.4,436.9 383.4,275.2 484.4,275.2 
			484.4,465.5 380,605.2 		"/>
		<rect x="777.3" y="275.3" class="st5" width="92.6" height="350.7"/>
		<polygon class="st5" points="639.4,626 746.2,626 746.2,164.8 401.1,625.9 510.6,625.9 655.3,433 655.3,538.4 581.2,539 		"/>
	</g>
	<g class="st1">
		<path class="st5" d="M348.3,732.5c-2-8.7-6.9-14.8-14.8-18.2c-4.4-1.9-9.2-2.9-14.6-2.9c-10.3,0-18.7,3.9-25.3,11.6
			s-9.9,19.4-9.9,34.9c0,15.6,3.6,26.7,10.7,33.2s15.3,9.7,24.4,9.7c8.9,0,16.2-2.6,21.9-7.7c5.7-5.1,9.2-11.8,10.5-20.1h-29.5
			v-21.3h53V820h-17.6l-2.7-15.9c-5.1,6-9.7,10.3-13.8,12.7c-7,4.3-15.7,6.5-25.9,6.5c-16.9,0-30.7-5.8-41.5-17.5
			c-11.2-11.7-16.8-27.8-16.8-48.2c0-20.6,5.7-37.1,17-49.6s26.4-18.6,45-18.6c16.2,0,29.2,4.1,39,12.3s15.5,18.4,16.9,30.7
			L348.3,732.5L348.3,732.5z"/>
		<path class="st5" d="M419.6,820.1H395V692.8h24.6V820.1z"/>
		<path class="st5" d="M518.2,808.6c-7.9,9.8-20,14.7-36.2,14.7s-28.3-4.9-36.2-14.7c-7.9-9.8-11.9-21.6-11.9-35.4
			c0-13.6,4-25.3,11.9-35.3c7.9-9.9,20-14.9,36.2-14.9s28.3,5,36.2,14.9c7.9,10,11.9,21.7,11.9,35.3
			C530.2,787,526.2,798.8,518.2,808.6z M498.5,795c3.9-5.1,5.8-12.4,5.8-21.8c0-9.4-1.9-16.7-5.8-21.8s-9.4-7.6-16.6-7.6
			s-12.7,2.5-16.6,7.6s-5.8,12.4-5.8,21.8c0,9.4,1.9,16.7,5.8,21.8s9.4,7.7,16.6,7.7C489.2,802.7,494.7,800.1,498.5,795z"/>
		<path class="st5" d="M624.3,737.3c7,8.9,10.6,20.4,10.6,34.6c0,14.6-3.5,26.8-10.4,36.4c-6.9,9.6-16.6,14.4-29.1,14.4
			c-7.8,0-14.1-1.6-18.8-4.7c-2.8-1.8-5.9-5.1-9.2-9.7v11.8H543V693h24.6v45.3c3.1-4.4,6.6-7.7,10.3-10c4.5-2.9,10.1-4.3,17-4.3
			C607.5,723.9,617.3,728.4,624.3,737.3z M603.7,794.7c3.5-5.1,5.3-11.9,5.3-20.2c0-6.7-0.9-12.2-2.6-16.6
			c-3.3-8.3-9.4-12.4-18.3-12.4c-9,0-15.2,4.1-18.6,12.2c-1.7,4.3-2.6,9.9-2.6,16.8c0,8.1,1.8,14.7,5.4,20s9.1,7.9,16.5,7.9
			C595.2,802.3,600.2,799.8,603.7,794.7z"/>
		<path class="st5" d="M685.4,762.9c4.6-0.6,7.9-1.3,9.8-2.2c3.5-1.5,5.3-3.8,5.3-7c0-3.9-1.4-6.5-4.1-8c-2.7-1.5-6.7-2.2-12-2.2
			c-5.9,0-10.1,1.4-12.5,4.3c-1.8,2.1-2.9,5-3.5,8.6h-23.8c0.5-8.2,2.8-15,6.9-20.3c6.5-8.3,17.8-12.4,33.7-12.4
			c10.4,0,19.6,2,27.6,6.1S725,741.7,725,753v43.2c0,3,0.1,6.6,0.2,10.9c0.2,3.2,0.7,5.4,1.5,6.6c0.8,1.2,2,2.1,3.6,2.9v3.6h-26.8
			c-0.7-1.9-1.3-3.7-1.6-5.4s-0.5-3.6-0.7-5.7c-3.4,3.7-7.4,6.8-11.8,9.4c-5.3,3.1-11.4,4.6-18.1,4.6c-8.6,0-15.7-2.4-21.2-7.3
			c-5.6-4.9-8.4-11.8-8.4-20.7c0-11.6,4.5-20,13.5-25.1c4.9-2.8,12.2-4.8,21.8-6L685.4,762.9z M700.4,774.4c-1.6,1-3.2,1.8-4.8,2.4
			c-1.6,0.6-3.8,1.2-6.6,1.7l-5.6,1c-5.3,0.9-9,2-11.3,3.4c-3.9,2.2-5.8,5.7-5.8,10.5c0,4.2,1.2,7.2,3.6,9.1
			c2.4,1.9,5.2,2.8,8.6,2.8c5.4,0,10.3-1.6,14.9-4.7c4.5-3.1,6.9-8.8,7.1-17v-9.2H700.4z"/>
		<path class="st5" d="M767.7,820.1h-24.6V692.8h24.6V820.1z"/>
	</g>
</g>
<g id="_x32_">
	<g>
		<path class="st6" d="M1012,1024H12c-6.6,0-12-5.4-12-12V12C0,5.4,5.4,0,12,0h1000c6.6,0,12,5.4,12,12v1000
			C1024,1018.6,1018.6,1024,1012,1024z"/>
	</g>
</g>
<g>
	<path class="st5" d="M301,299c0,1.8-0.4,2.9-1.1,3.3c-0.3,0.3-1.5,0.5-3.5,0.6c-5.1,0.5-12.3,0.8-21.7,0.8
		c-13.2,0-20.9-0.3-23.2-0.8c-2.3-0.5-3.5-1.6-3.5-3.4c0-6.6,0.3-16.6,0.9-29.9c0.6-13.3,0.9-23.3,0.9-29.9c0-3.3-0.9-5.2-2.8-5.7
		c-2.9-0.7-13-1-30.5-1c-17.6,0-27.8,0.3-30.7,1c-1.8,0.4-2.8,2.3-2.8,5.7c0,6.6,0.2,16.4,0.6,29.4c0.4,13.1,0.6,22.9,0.6,29.4
		c0,2.5-1.1,4-3.4,4.4c-2.7,0.5-10.6,0.8-23.7,0.8c-11.3,0-18.6-0.3-21.7-0.8c-2.4-0.4-3.7-1.7-3.7-3.9c0-9.1,0.4-22.8,1.3-41.1
		c0.9-18.3,1.3-32,1.3-41.2c0-9.7-0.4-24.4-1.3-43.9c-0.8-19.5-1.3-34.2-1.3-43.9c0-1.8,0.9-2.8,2.6-2.8c2.6,0,6.5,0.1,11.8,0.4
		c5.2,0.3,9.2,0.4,11.8,0.4c2.7,0,6.7-0.1,12.2-0.4s9.5-0.4,12.2-0.4c1.4,0,2.1,0.8,2.1,2.3c0,6.3-0.5,15.7-1.4,28.3
		c-0.9,12.6-1.4,22-1.4,28.3c0,2.9,0.8,4.7,2.4,5.2c2.2,0.7,12.9,1,32.3,1c18,0,28.4-0.3,31.2-1c2-0.5,3-2.2,3-5.2
		c0-6-0.3-15.2-0.9-27.4c-0.6-12.2-0.9-21.4-0.9-27.5c0-2.6,1-3.9,3.1-3.9c2.4,0,6.2,0.1,11.1,0.4c5,0.3,8.8,0.4,11.3,0.4
		c2.4,0,6.2-0.1,11.1-0.4c5-0.3,8.8-0.4,11.3-0.4c2.4,0,3.7,1,3.7,3c0,9.7-0.4,24.2-1.2,43.7c-0.8,19.5-1.2,34.1-1.2,43.8
		c0,9.2,0.4,22.9,1.3,41.2C300.5,276.3,301,290,301,299z"/>
	<path class="st5" d="M449.9,240c0,6.5,0.4,16.1,1.1,28.8c0.8,12.8,1.1,22.3,1.1,28.7c0,3.4-1.5,5.2-4.4,5.4
		c-10.4,0.8-22.3,1.1-35.8,1.1c-1.6,0-2.7-2.4-3.2-7.2c-0.5-4.8-1.2-7.3-2-7.4c-0.7,0.3-1.6,1.1-2.6,2.1
		c-9.4,9.5-19.5,14.2-30.2,14.2c-16.4,0-29.9-6.5-40.7-19.4c-10.2-12.1-15.2-26.5-15.2-43.3c0-19.4,5.2-35,15.7-46.9
		c10.9-12.3,25.9-18.4,44.8-18.4c13.2,0,23.6,4.6,31.2,13.9c0.3,0.4,0.6,0.6,0.9,0.6c0.8,0,1.6-2,2.6-6.1c1-4.1,2.1-6.1,3.5-6.1
		c3.1,0,9,0.9,17.8,2.6c8.3,1.7,14.3,3.1,17.9,4.3c1.3,0.5,1.9,1.2,1.9,2c0,0.3-0.1,1.2-0.4,2.6C451.2,206.9,449.9,223,449.9,240z
		 M409.3,240.7c0-7.1-2.2-13-6.7-17.7c-4.5-4.7-10.4-7-17.6-7c-7.2,0-13.1,2.3-17.5,6.9c-4.5,4.6-6.7,10.5-6.7,17.8
		c0,6.8,2.4,12.6,7.1,17.5c4.7,4.9,10.4,7.3,17.1,7.3c7.1,0,13-2.3,17.5-7S409.3,247.9,409.3,240.7z"/>
	<path class="st5" d="M613.9,242.4c0,18-5.3,32.9-15.9,44.7c-10.9,12.3-25.2,18.4-43,18.4c-6.5,0-13.4-1.6-20.8-4.8
		c-7.4-3.2-10.8-4.8-10.1-4.8c-1.1,0-1.6,1.3-1.6,3.8c0,4.3,0.2,10.7,0.6,19.3c0.4,8.6,0.6,15.1,0.6,19.3c0,2.7-1.4,4-4.2,4
		l-25.7,0.1c-5.8,0-9.5-0.2-11.2-0.6c-2.5-0.6-3.8-2.1-3.8-4.7l0.3-97c0-19.6-1.5-36.1-4.4-49.5c-0.2-0.8-0.3-1.6-0.3-2.1
		c0-1.3,0.5-2.1,1.5-2.5c3.3-1.3,9.5-2.6,18.8-4c9-1.4,15.5-2.1,19.5-2.1c3.3,0,5.1,2.2,5.6,6.5c0.5,4.3,1,6.5,1.7,6.5
		c-0.8,0,2.8-2.3,10.8-6.9c8-4.6,15.3-6.9,21.9-6.9c18.2,0,32.8,6,43.7,18C608.6,208.7,613.9,223.8,613.9,242.4z M567.2,242.1
		c0-6.7-2.1-12.6-6.2-17.6c-4.5-5.3-10-7.9-16.5-7.9c-6.7,0-12.1,2.6-16.1,7.9c-3.5,4.8-5.3,10.7-5.3,17.6c0,7.1,1.8,13.1,5.5,17.8
		c3.9,5.1,9.4,7.7,16.4,7.7C559.8,267.6,567.2,259.1,567.2,242.1z"/>
	<path class="st5" d="M769.2,242.4c0,18-5.3,32.9-15.9,44.7c-10.9,12.3-25.2,18.4-43,18.4c-6.5,0-13.4-1.6-20.8-4.8
		c-7.4-3.2-10.8-4.8-10.1-4.8c-1.1,0-1.6,1.3-1.6,3.8c0,4.3,0.2,10.7,0.6,19.3c0.4,8.6,0.6,15.1,0.6,19.3c0,2.7-1.4,4-4.2,4
		l-25.7,0.1c-5.8,0-9.5-0.2-11.2-0.6c-2.5-0.6-3.8-2.1-3.8-4.7l0.3-97c0-19.6-1.5-36.1-4.4-49.5c-0.2-0.8-0.3-1.6-0.3-2.1
		c0-1.3,0.5-2.1,1.5-2.5c3.3-1.3,9.5-2.6,18.8-4c9-1.4,15.5-2.1,19.5-2.1c3.3,0,5.1,2.2,5.6,6.5c0.5,4.3,1,6.5,1.7,6.5
		c-0.8,0,2.8-2.3,10.8-6.9c8-4.6,15.3-6.9,21.9-6.9c18.2,0,32.8,6,43.7,18C763.9,208.7,769.2,223.8,769.2,242.4z M722.5,242.1
		c0-6.7-2.1-12.6-6.2-17.6c-4.5-5.3-10-7.9-16.5-7.9c-6.7,0-12.1,2.6-16.1,7.9c-3.5,4.8-5.3,10.7-5.3,17.6c0,7.1,1.8,13.1,5.5,17.8
		c3.9,5.1,9.4,7.7,16.4,7.7C715.1,267.6,722.5,259.1,722.5,242.1z"/>
	<path class="st5" d="M909.3,213.1c0,16.3-0.5,26.2-1.5,29.7c-1.3,4.2-10.5,19.4-27.6,45.6c-2.7,4.1-9.6,13.6-20.8,28.6
		c-12.3,16.5-19.4,25.2-21,26.1c-2,1.3-14.9,1.9-38.7,1.9c-3.6,0-6-0.4-7.3-1.3c-1.1-3.4-2.5-7.5-4.2-12.2c-1.3-2.9-2.7-5.9-4-8.9
		c-1.9-4.4-2.9-7.3-2.9-8.7c0-1.6,0.7-2.4,2.1-2.4c23.3,0,35-5.3,35-16c0-0.9-5.7-9.3-17.1-25.1c-11.8-16.2-18.4-26.5-19.5-30.7
		c-0.7-2.4-1-11.1-1-26.1c0-3,0.1-7.6,0.3-13.7c0.2-6.1,0.3-10.6,0.3-13.7c0-2.2,1.4-3.3,4.2-3.3c4.3,0,10.8,0.1,19.5,0.4
		c8.7,0.3,15.2,0.4,19.5,0.4c1.8,0,2.6,1.3,2.6,3.9c0,2.4-0.1,5.9-0.4,10.6c-0.3,4.7-0.4,8.3-0.4,10.6c0,10.6,0.2,17.8,0.5,21.5
		c0.3,2.9,2.8,8.4,7.6,16.4c5,8.3,8.7,12.5,11,12.5c1.9,0,5.2-4.1,9.8-12.3c4.3-7.8,6.6-13.1,6.9-15.7c0.8-7.4,1.3-15.4,1.3-24.1
		c0-2.3-0.2-5.7-0.6-10.3c-0.4-4.6-0.6-8.1-0.6-10.5c0-1.6,0.9-2.4,2.6-2.4c4.3,0,10.7-0.2,19.2-0.5c8.5-0.3,14.9-0.5,19.2-0.5
		c2.2,0,3.7,1.1,4.4,3.3C908.7,190.2,909.3,199.1,909.3,213.1z"/>
	<path class="st5" d="M204.8,452c0,12.2-3.8,22.3-11.4,30.3c-8.7,9.2-23.9,13.8-45.7,13.8c-1.7,0-4,0-7.2-0.1c-3.2,0-5.5,0-7.1,0
		c-24.5,0-39-0.5-43.6-1.5c-1.9-0.4-2.9-1.4-2.9-3.1c0-7.1,0.4-17.8,1.2-32.2c0.8-14.4,1.2-25.1,1.2-32.3c0-7.7-0.4-22.1-1.2-43.3
		c-0.2-5.4-0.6-13.6-1.1-24.5l-0.1-1.4c-0.1-1.3,1-2,3.1-2.3c2.2-0.3,9.8-0.4,23-0.4c21.1,0,33.5,0.1,37.1,0.2
		c16.3,0.6,28.3,3.2,36.1,8c10.3,6.3,15.4,16.9,15.4,31.9c0,3.9-1.2,8.1-3.6,12.4c-1.7,3.1-4,6.2-6.8,9.3c-2.5,2.7-3.7,4-3.7,3.8
		c0,0.5,0.9,1.2,2.6,2.2c4.6,2.7,8.3,6.9,10.9,12.6C203.6,440.7,204.8,446.2,204.8,452z M162.1,396.1c0-5.7-2.8-9.5-8.5-11.3
		c-3.2-1-8.4-1.5-15.7-1.5c-7.2,0-10.7,0.5-10.7,1.6c0,1.3-0.1,3.2-0.3,5.7c-0.2,2.6-0.3,4.5-0.3,5.7c0,6.6,0.6,10.3,1.7,11.1
		c0.7,0.6,4.9,0.9,12.6,0.9C154.9,408.3,162.1,404.2,162.1,396.1z M165.1,451.6c0-6-2.5-10-7.5-12.1c-3.2-1.3-8.3-2-15.5-2
		c-8.5,0-13.2,0.3-13.9,0.9c-0.7,0.6-1.1,4.7-1.1,12.2c0,7.8,0.4,12.1,1.3,13c0.9,0.8,5.6,1.2,14.3,1.2c7.2,0,12.2-0.6,15.1-1.7
		C162.6,461.2,165.1,457.4,165.1,451.6z"/>
	<path class="st5" d="M253.5,449.3c0,4.8,0.1,12,0.3,21.6c0.2,9.6,0.3,16.7,0.3,21.5c0,1.4-0.8,2.2-2.5,2.5
		c-2.3,0.4-7.3,0.6-15.2,0.6c-8,0-13.1-0.2-15.3-0.6c-1.5-0.3-2.4-0.7-2.7-1.3c-0.1-0.3-0.2-1.3-0.2-3c0-4.6,0.1-11.4,0.3-20.6
		c0.2-9.2,0.3-16.1,0.3-20.7c0-18.8-0.7-33.8-2.2-44.9c-0.1-1.1-0.2-1.8-0.2-2.1c0-1.3,0.9-2,2.7-2c1.9,0,4.7,0.2,8.5,0.6
		c3.8,0.4,6.7,0.6,8.6,0.6c1.9,0,4.8-0.2,8.6-0.5c3.8-0.3,6.7-0.5,8.6-0.5c1.6,0,2.4,0.7,2.4,2c0,0.3-0.1,0.9-0.2,1.9
		C254.2,417.3,253.5,432.3,253.5,449.3z M256.1,375.5c0,11.5-6.5,17.3-19.5,17.3c-5.6,0-10.2-1.5-13.8-4.4c-4-3.2-6-7.5-6-12.9
		c0-5.2,2.1-9.4,6.2-12.7c3.8-3,8.3-4.6,13.6-4.6c5.2,0,9.6,1.6,13.4,4.7C254.1,366.2,256.1,370.4,256.1,375.5z"/>
	<path class="st5" d="M338.6,433c0,2.6-1.4,3.9-4.3,3.9c-1.3,0-3.1-0.1-5.5-0.2c-2.4-0.2-4.2-0.2-5.4-0.2c-5.5,0-9.2,0.9-11.2,2.6
		c-2,1.7-3,5.2-3,10.4c0,2.9,0,7.2,0.1,13c0.1,5.8,0.1,10.1,0.1,13c0,1.9,0.1,4.8,0.4,8.6c0.3,3.8,0.4,6.6,0.4,8.5
		c0,1.6-1.1,2.5-3.3,2.7c-3.2,0.3-8.1,0.4-14.6,0.4c-6.3,0-11.3-0.2-15.1-0.6c-2.2-0.3-3.3-1.4-3.3-3.3c0-5.3,0-13.2,0.1-23.8
		c0.1-10.6,0.1-18.5,0.1-23.8c0-15.6-1.4-28.4-4.3-38.5c-0.1-0.6-0.2-1.1-0.2-1.5c0-1,0.5-1.7,1.5-2c3.6-0.4,9-1.1,16-2.2
		c10.5-2.1,15.9-3.1,16.2-3.1c1.2,0,2,2.1,2.3,6.3c0.3,4.2,0.9,6.3,1.8,6.3c-0.9,0,1.8-1.7,8.2-5.2s12.5-5.2,18.4-5.2
		c3.7,0,5.6,0.8,5.6,2.4c0,1.9-0.2,4.6-0.6,8.2c-0.4,3.8-0.6,6.5-0.7,8.2c0,1.9,0,4.5,0.1,7.7C338.5,429.2,338.6,431.8,338.6,433z"
		/>
	<path class="st5" d="M416.7,465.8c0,2-0.2,5-0.7,9c-0.5,4-0.7,7-0.7,8.9s-0.2,3.1-0.6,3.6c-0.4,0.5-1.5,1.3-3.3,2.3
		c-8.5,4.7-18,7.1-28.4,7.1c-19.2,0-28.7-7.3-28.7-22c0-4.4,0.2-10.9,0.5-19.7c0.3-8.8,0.5-15.4,0.5-19.7c0-2.9-1.7-4.4-5.1-4.4
		c-0.3,0-0.7,0-1.3,0c-0.6,0.1-1,0.1-1.3,0.1c-2.5,0-3.8-0.9-3.8-2.7c0-1.1,0.1-2.7,0.2-4.9c0.2-2.2,0.2-3.8,0.2-4.9
		c0-1.4-0.1-3.5-0.2-6.4c-0.2-2.8-0.2-5-0.2-6.4c0-1.3,2.1-2.1,6.4-2.2c2.4-0.1,3.7-0.7,3.9-2c0.4-2.5,0.5-6.5,0.4-11.9
		c-0.3-8.5-0.4-12.6-0.4-12.2c0-7.7,0.7-11.5,2.2-11.5c1.8,0,4.3,0.4,7.7,1.2c3.8,0.9,6.4,1.4,7.9,1.5c3.4,0.5,8.5,1.1,15.3,1.9
		c1.7,0.1,2.5,0.7,2.5,1.7c0,2.7-0.2,6.7-0.6,12c-0.4,5.4-0.6,9.4-0.6,12.1c0,3.2,1,4.9,2.9,4.9c2.3,0,5.8-0.1,10.5-0.3
		c4.7-0.2,8.3-0.3,10.6-0.3c1.5,0,2.2,0.5,2.2,1.5c0,1.5-0.2,3.8-0.5,6.9c-0.3,3-0.5,5.3-0.5,6.9c0,1.6,0,3.9,0.1,7
		c0.1,3,0.1,5.4,0.1,7c0,1.4-1,2.1-2.9,2.1c-1.3,0-3.5,0-6.7-0.1c-3.1-0.1-5.3-0.1-6.7-0.1H390c-1,0-1.5,1.5-1.5,4.4
		c0,1.6,0,3.9,0,7.1c0.1,3.2,0.1,5.5,0.1,7.1c0,5.6,0.6,9.4,1.9,11.5c1.8,2.8,5.3,4.3,10.5,4.3c1.7,0,4-0.4,7.1-1.1
		c3.1-0.8,5.3-1.1,6.5-1.1C416,463.6,416.7,464.4,416.7,465.8z"/>
	<path class="st5" d="M526.4,422.9l-0.2,68.6c0,2.3-0.9,3.6-2.8,3.9c-2.1,0.3-7,0.4-14.5,0.4c-7.3,0-12.4-0.3-15.2-0.8
		c-2.2-0.4-3.3-1.8-3.3-4.3c0-5.7,0.1-14.3,0.3-25.7c0.2-11.5,0.3-20,0.3-25.7c0-7.8-3.9-11.6-11.8-11.6c-2.7,0-5.8,1.1-9.3,3.2
		c-3.9,2.3-5.9,4.7-5.9,7.3v24.6c0,3.2,0.1,8,0.2,14.4c0.1,6.4,0.2,11.2,0.2,14.4c0,2.5-1,3.8-3.1,4.1c-2.1,0.3-7.8,0.4-17.3,0.4
		c-5.4,0-9.3-0.3-11.7-0.8c-2.4-0.5-3.6-1.7-3.6-3.5c0-5.2,0-13.1,0.1-23.6c0.1-10.5,0.1-18.4,0.1-23.6c0-21.7-0.2-39.6-0.7-53.8
		c-0.2-5-0.4-9.9-0.5-14.9c-0.3-5.8-0.9-10.7-1.8-14.8c-0.2-0.9-0.3-1.5-0.3-1.9c0-1,0.5-1.7,1.5-2c2.1-0.6,5.1-1,9-1.1
		c5.3-0.2,8.4-0.4,9.2-0.5l18-2.1c1.1,0,1.6,0.7,1.6,2.1c0,2.1-0.1,5-0.4,8.6c-0.3,4.2-0.4,7.1-0.4,8.6c-0.4,15-0.6,26.8-0.6,35.5
		c0,1.3,0.3,2,1,2c0.1,0,1.8-1.2,5.1-3.5c3.8-2.7,7.5-4.9,11-6.5c5.2-2.3,10.3-3.5,15.2-3.5c8.5,0,15.6,2.2,21.3,6.7
		C523.3,408.1,526.4,414.6,526.4,422.9z"/>
	<path class="st5" d="M647.9,353.9c0-1.5-0.3,0.7-0.8,6.6c-0.7,7.4-1.3,16.8-1.7,28.2c-0.5,13-0.8,27.8-0.8,44.3
		c0,27.4,0.8,46.9,2.3,58.4c0.1,1.3,0.2,2.1,0.2,2.4c0,0.7-0.5,1.2-1.5,1.3c-2.4,0.3-11.2,0.5-26.3,0.5c-3.6,0-5.6-0.7-6.2-2.1
		c-0.1-2.5-0.3-5-0.4-7.6c-0.1-0.5-0.3-1.1-0.8-1.6c-0.4,0.2-0.9,0.6-1.5,1.2c-7.2,7-16.1,10.5-26.8,10.5c-14,0-25.2-4.9-33.6-14.7
		c-8-9.3-12-21.1-12-35.4c0-14.4,3.9-26.3,11.8-35.7c8.3-9.9,19.6-14.9,33.8-14.9c10,0,17.8,3.2,23.4,9.5c0.9,1.1,1.6,1.6,2,1.6
		c0.6,0,0.9-0.9,0.9-2.6c0-5.1-0.1-12.7-0.4-22.9c-0.3-10.1-0.4-17.7-0.4-22.8c0-1.9,0.5-3,1.6-3.3c4.2-0.2,10.1-0.6,17.5-1.2
		c13.3-1.7,19.1-2.5,17.6-2.5C647.2,351.4,647.9,352.3,647.9,353.9z M610.4,445.3c0-5.2-1.8-9.8-5.5-13.8c-3.6-3.9-8.1-5.9-13.2-5.9
		c-5.4,0-9.8,2-13,5.9c-3.2,3.9-4.8,8.7-4.8,14.2c0,5.4,1.6,9.9,4.9,13.6c3.3,4,7.6,6,12.9,6c5.3,0,9.7-2,13.3-6
		S610.4,450.6,610.4,445.3z"/>
	<path class="st5" d="M762.5,445.3c0,5.1,0.3,12.7,0.9,22.8c0.6,10.1,0.9,17.6,0.9,22.7c0,2.7-1.2,4.1-3.5,4.3
		c-8.2,0.6-17.6,0.9-28.2,0.9c-1.3,0-2.1-1.9-2.5-5.7c-0.4-3.8-0.9-5.7-1.5-5.8c-0.5,0.3-1.2,0.8-2.1,1.7
		c-7.4,7.5-15.4,11.2-23.9,11.2c-12.9,0-23.6-5.1-32.1-15.3c-8-9.5-12-20.9-12-34.2c0-15.3,4.1-27.6,12.4-37
		c8.6-9.7,20.4-14.5,35.4-14.5c10.4,0,18.6,3.6,24.7,10.9c0.3,0.3,0.5,0.5,0.7,0.5c0.6,0,1.3-1.6,2-4.8c0.8-3.2,1.7-4.8,2.7-4.8
		c2.5,0,7.1,0.7,14,2.1c6.6,1.3,11.3,2.5,14.1,3.4c1,0.4,1.5,0.9,1.5,1.6c0,0.3-0.1,1-0.3,2.1C763.6,419.2,762.5,431.9,762.5,445.3z
		 M730.5,445.8c0-5.6-1.8-10.3-5.3-14c-3.5-3.7-8.2-5.5-13.9-5.5c-5.7,0-10.3,1.8-13.8,5.5c-3.5,3.6-5.3,8.3-5.3,14
		c0,5.4,1.9,10,5.6,13.8c3.7,3.8,8.2,5.8,13.5,5.8c5.6,0,10.2-1.8,13.8-5.5S730.5,451.5,730.5,445.8z"/>
	<path class="st5" d="M879.9,424.1c0,12.9-0.4,20.7-1.2,23.5c-1,3.3-8.3,15.3-21.8,36c-2.1,3.2-7.6,10.8-16.4,22.6
		c-9.7,13-15.3,19.8-16.6,20.6c-1.6,1-11.8,1.5-30.5,1.5c-2.8,0-4.8-0.3-5.8-1c-0.9-2.7-2-5.9-3.3-9.6c-1.1-2.3-2.1-4.7-3.2-7.1
		c-1.5-3.4-2.3-5.7-2.3-6.9c0-1.3,0.6-1.9,1.7-1.9c18.4,0,27.6-4.2,27.6-12.6c0-0.7-4.5-7.3-13.5-19.8
		c-9.3-12.8-14.5-20.9-15.4-24.3c-0.5-1.9-0.8-8.8-0.8-20.6c0-2.4,0.1-6,0.2-10.8c0.1-4.8,0.2-8.4,0.2-10.8c0-1.7,1.1-2.6,3.3-2.6
		c3.4,0,8.5,0.1,15.4,0.3c6.9,0.2,12,0.3,15.4,0.3c1.4,0,2.1,1,2.1,3.1c0,1.9-0.1,4.7-0.3,8.4c-0.2,3.7-0.3,6.5-0.3,8.4
		c0,8.3,0.1,14,0.4,17c0.2,2.3,2.2,6.6,6,12.9c4,6.6,6.9,9.8,8.6,9.8c1.5,0,4.1-3.2,7.8-9.7c3.4-6.2,5.2-10.3,5.5-12.4
		c0.7-5.8,1-12.2,1-19c0-1.8-0.2-4.5-0.5-8.2c-0.3-3.6-0.5-6.4-0.5-8.3c0-1.3,0.7-1.9,2.1-1.9c3.4,0,8.4-0.1,15.2-0.4
		c6.7-0.3,11.8-0.4,15.2-0.4c1.7,0,2.9,0.9,3.5,2.6C879.5,406,879.9,413,879.9,424.1z"/>
	<path class="st5" d="M950,414.5c0,0.7-0.5,1.6-1.5,2.7c-1.9-0.5-3.7-0.7-5.6-0.7c-3.9,0-7.2,0.9-9.8,2.6c-3.2,2-4.8,4.8-4.8,8.4
		c0,2.3,1.7,5.3,5.1,8.8c5.1,5.4,8.3,9,9.4,10.8c3.4,5,5.1,10.4,5.1,16.2c0,3.4-0.7,7-2,10.7c-1.5,4.2-3.4,7.2-5.8,9.1
		c-4.9,4.2-10.6,7.8-17.2,10.7c-7.1,3-13.6,4.6-19.6,4.6c-1.3,0-4.3-3.6-8.9-10.8c-4.6-7.2-6.9-11.6-6.9-13.2c0-0.6,0.4-1,1.1-1.1
		c4.6-0.9,9.3-1.7,14-2.6c5.8-1.9,8.7-4.9,8.7-9.1c0-2.9-1.7-6.3-5.1-10.1c-6-6.7-9.2-10.2-9.4-10.6c-3.4-4.8-5.1-9.8-5.1-15.1
		c0-9.9,5-18.4,15.1-25.3c9-6.2,18.7-9.2,28.9-9.2c1.1,0,3.7,3.6,7.9,10.7C947.9,409.2,950,413.3,950,414.5z"/>
</g>
<path class="st7" d="M375.1,535.9c-20.1,2.8-32.6,21-37.2,39.4c-1.7,7-2.9,14.3-3.2,21.5c-0.4,8.6,2.8,16.6,6.2,24.2
	c6.1,16.4,8.5,34,11.2,51.2c1.3,7.9,2.7,15.9,4.3,23.8c2.4,11.5,7.3,22.8,12.8,33.1c5.1,9.5,12.5,18.2,20.5,25.4
	c6.9,6.3,14.1,12.6,21.3,18.5c11.5,9.4,24.5,18.3,33.9,29.9c1.4,2,2.6,4,3.7,6.3c1.9,4.8,2.9,9.8,3.7,14.9c0.5,4.2,0.8,8.5,0.5,12.7
	c0,0,0,0,0,0c0,0.6-0.2,1.1-0.4,1.7c0,0.1,0.1,0.1,0.1,0c2.9-3.9,4-9.5,4.9-14.2c1.1-5.8,2-12.2,1.3-18.1
	c-0.6-6.5-2.4-12.4-5.8-18.1c-4.2-7.1-9.3-13.5-14.4-20c-6.7-8.8-12.5-18.1-19.1-26.9c-6.8-9-13.3-17.8-18.1-28
	c-2.5-6.9-4.4-13.8-5.6-21.1c-0.6-5.1-1.1-10.2-1.3-15.4c-0.1-5.8-0.1-11.6-0.4-17.4c-0.6-13.3-2.4-26.8-4.4-40
	c-0.5-5.6-0.3-11.1-0.4-16.7c-0.1-3.6-0.3-7.1-0.2-10.7c0.5-0.3,1.1-0.6,1.6-0.9c0.5-0.1,1-0.3,1.5-0.4c1.8-0.1,3.7-0.1,5.5,0
	c2.4,0.6,4.6,1.4,6.9,2.3c4.2,1.8,8.4,3.7,12.4,5.7c4.1,2,7.8,4.7,11.4,7.5c11.3,9.1,21.8,18.9,31,30c5.2,7.2,9.6,14.9,13.3,23
	c4.3,11.4,6.8,23.4,8.7,35.4c0.2,1.8,0.5,3.6,0.7,5.4c-0.2-1.3-0.3-2.5-0.5-3.8c2.1,19.9,3,39.8,0.6,59.8
	c-2.5,17.3-6.2,34.6-12.1,51.1c0,0.1,0.1,0.1,0.1,0c0.1-0.4,0.3-0.7,0.5-1.1c0,0,0,0,0,0c2.4-5.4,5.8-10.4,8.9-15.4
	c3.1-5.1,6.1-10.3,8.8-15.5c5.9-11.5,11-23.6,14.1-36.2c3.6-14.5,6-29.1,7.3-44c0.6-6.9,1.1-13.7,0.9-20.6
	c-0.2-7.2-0.9-14.3-1.6-21.4c-0.6-6.8-1.4-13.8-2.9-20.4c-2-8.4-5.2-16.4-9.1-24.1c-7.7-15-18.6-28.2-32.1-38.3
	c-5.1-3.8-10.5-7-16-10.2c-5.7-3.4-11.1-7.1-16.8-10.5c-7.6-4.5-16.4-7-24.7-10.2c-2.8-1.1-5.6-2.2-8.6-3c-3.4-0.9-7.9-1.6-11.2-1.7
	c-0.5,0-1,0-1.5,0C382.8,534.7,379,535.4,375.1,535.9L375.1,535.9L375.1,535.9z M482.9,754.4c0,0.2-0.1,0.4-0.1,0.7
	C482.9,754.8,482.9,754.6,482.9,754.4L482.9,754.4L482.9,754.4z M437.3,766.6c0.3,0.4,0.6,0.8,1,1.2
	C437.9,767.4,437.6,767,437.3,766.6L437.3,766.6L437.3,766.6z M452.2,823.8c0,0.1,0,0.2,0,0.2C452.2,823.9,452.2,823.9,452.2,823.8
	L452.2,823.8L452.2,823.8z M452.8,837.1C452.8,837,452.8,837,452.8,837.1C452.8,837,452.8,837,452.8,837.1L452.8,837.1L452.8,837.1z
	"/>
<path class="st7" d="M566.2,803.2c-14.7,1.3-28.9,5.8-42.4,11.6c-13.9,6.1-27.6,12.9-41.1,19.9c-0.1,0,0,0.2,0.1,0.1
	c0.4-0.2,0.8-0.4,1.1-0.5c0,0,0,0,0,0c3.3-1.2,6.7-1.8,10.1-2.2c13.2-1.6,26.4-2.6,39.6-3.2c7.6-0.3,15.3-0.9,23-1
	c6.9-0.1,13.7,0.3,20.5,1.1c10.6,2,20.6,4.8,30.7,8.5c6,2.8,11.6,5.9,17.2,9.6c4.6,3.9,8.8,8.1,12.8,12.7c2.1,2.9,3.9,5.9,5.6,9.1
	c1,2.9,1.8,5.8,2.4,8.8c0.3,3.9,0.2,7.7-0.1,11.5c-0.3,1.5-0.7,3-1.1,4.4c-0.3,0.6-0.7,1.2-1,1.7c-0.8,0.8-1.7,1.6-2.5,2.4
	c-1.3,0.9-2.7,1.7-4.1,2.4c-2.8,0.9-5.6,1.6-8.5,2.1c-0.9,0.1-1.8,0.1-2.8,0.1c-1.7-0.4-3.3-0.9-4.9-1.5c-7.4-3.7-14.3-8.8-21-13.8
	c-6.2-5-12.5-10-18.7-15c-6.1-4.9-12.1-9.7-18.9-13.6c-9.8-5.5-20.4-8.2-31.3-10.7c-6.6-1.5-13.7-3.4-20.6-3.2
	c-5.7,0.2-11.4,1.6-16.7,3.8c0,0,0,0,0.1,0c-0.3,0.1-0.6,0.2-0.8,0.3c-0.1,0-0.1,0.1,0,0.1c3-0.1,6.1,0.3,9.1,0.6
	c2.8,0.5,5.6,1.3,8.3,2.4c4.5,2,8.7,4.8,12.9,7.4c5.8,3.6,11.7,7,17.1,11c8,6.6,14.9,14.3,21.4,22.4c8.8,11.6,17.8,23.5,28.2,33.7
	c11.9,11.8,26.9,19.4,44,18.8c9.2-0.3,17.6-2.8,25.9-6.5c3-1.3,5.9-2.8,8.8-4.5c8.3-4.8,14.6-11.5,20-19.3
	c3.1-4.6,5.1-10.8,6.5-16.2c1.2-4.8,1.7-9.8,1.9-14.7c0.2-4.9-1-10.5-1.8-15.2c-0.8-4.3-2.3-8.4-4-12.5c-2-4.8-4-9.6-7-13.9
	c-2.6-3.7-5.4-7.3-8.2-10.8c-5-6.3-12.1-11.1-18.8-15.3c-7.1-4.4-15.8-7.2-23.8-9.4c-7.9-2.2-16.1-3.2-24.3-4
	c-6.1-0.7-12.4-0.9-18.6-0.9C582.3,802,574.2,802.4,566.2,803.2L566.2,803.2L566.2,803.2z M494.4,832.1c-0.1,0-0.1,0-0.2,0
	C494.3,832.1,494.4,832.1,494.4,832.1L494.4,832.1L494.4,832.1z M510.4,852c0.2,0.1,0.4,0.1,0.5,0.2
	C510.7,852.1,510.6,852.1,510.4,852L510.4,852L510.4,852z"/>
<path class="st7" d="M654.7,473c-2.6,0.4-5.3,0.7-7.9,1.1c-2.8,1.2-5.6,2.4-8.4,3.6c-2.5,1-7.8,5.7-8.6,6.5
	c-3.4,3.1-6.1,6.9-8.8,10.7c-3.1,4.2-5.4,9-8.3,13.3c-3.2,4.7-5.5,9.6-7.7,14.7c0.2-0.4,0.3-0.8,0.5-1.2
	c-6.9,16.3-18.4,30.5-28.6,44.8c-9.5,13.1-17.6,26.8-24.4,41.5c-7.4,16-11.2,34-5.7,51.1c2.5,7.8,5.7,15.4,8.1,23.3
	c2.4,7.8,4,15.7,5.2,23.8c0.5,4.2,1,8.3,0.6,12.5c0,0,0-0.1,0-0.1c-0.2,0.7-0.3,1.5-0.5,2.2c0,0.1,0.1,0.1,0.1,0.1
	c5.5-10.5,6.8-22,7.5-33.7c0.4-6.9,0.5-13.9,0.2-20.8c-0.2-5.8-0.5-11.6,0-17.4c0.7-3.5,1.8-6.8,3-10.1c2.8-5.9,5.9-11.3,9.7-16.6
	c12.7-15.9,26.3-31.1,39.5-46.6c7.1-8.3,14.2-16.7,22.4-23.9c1-0.9,2-1.9,3-2.8c1,4.1,2,8.2,3.2,12.3c3.3,10.8,7.8,21,12.3,31.2
	c1.2,3.7,2.2,7.4,2.9,11.3c1.4,13.6,1.6,27.2,0.3,40.8c-1.4,7.9-3.3,15.6-6,23.2c-3.1,6.6-6.7,12.7-10.9,18.7
	c-5.2,5.9-10.8,11.2-16.9,16.2c-8.9,6.5-17.7,12.9-27,18.8c-9.9,6.2-19.9,12.1-29.4,18.9c-8.5,6.1-15.8,12.9-22.9,20.4
	c-6.6,7-13.3,14.1-20.5,20.5c-0.1,0,0,0.2,0.1,0.1c0.6-0.5,1.3-1,1.9-1.5c0,0,0,0,0,0c8.1-6.1,17.7-9.7,26.6-14.4
	c8.7-4.5,17.6-8.7,26.6-12.6c13.7-5.3,27.9-8.9,41.5-14.6c14.6-6.2,29.7-13.5,42.1-23.6c11.9-9.7,20.9-22.5,28-36.1
	c7.5-14.2,12.5-29.4,15.4-45.2c1.5-8.2,2.5-16.8,2.2-25.2c-0.3-9.1-1.8-18.1-3.1-27.1c-1.9-13.5-5-26.5-8.9-39.6
	c-1.8-5.8-3.8-11.5-5.5-17.2c-1.9-6.2-2.8-12.5-4.6-18.7c-1.4-4.9-3.4-9.8-6.2-14.1c-4.7-7.4-12.5-15.1-21.4-16.9
	c-2.8-0.6-5.7-1.3-8.6-1.3C656,472.9,655.3,472.9,654.7,473L654.7,473L654.7,473z"/>
</svg>
