<?xml version="1.0" encoding="utf-8"?>
<!-- Generator: Adobe Illustrator 21.0.0, SVG Export Plug-In . SVG Version: 6.00 Build 0)  -->
<svg version="1.1" id="Layer_1" xmlns="http://www.w3.org/2000/svg" xmlns:xlink="http://www.w3.org/1999/xlink" x="0px" y="0px"
	 viewBox="0 0 1024 1024" style="enable-background:new 0 0 1024 1024;" xml:space="preserve">
<style type="text/css">
	.st0{display:none;}
	.st1{display:inline;}
	.st2{fill:#969696;}
	.st3{fill:#0C658E;}
	.st4{display:inline;opacity:0.6;fill:#7AB4E2;enable-background:new    ;}
	.st5{fill:#FFFFFF;}
	.st6{opacity:0.6;fill:#7AB4E2;enable-background:new    ;}
	.st7{fill:#06FFDB;}
	.st8{fill:#26FFE0;}
</style>
<g id="Layer_1_1_" class="st0">
	<g class="st1">
		<path class="st2" d="M911,40c19.4,0,37.7,7.6,51.5,21.5C976.4,75.3,984,93.6,984,113v798c0,19.4-7.6,37.7-21.5,51.5
			C948.7,976.4,930.4,984,911,984H113c-19.4,0-37.7-7.6-51.5-21.5C47.6,948.7,40,930.4,40,911V113c0-19.4,7.6-37.7,21.5-51.5
			S93.6,40,113,40H911 M911,0H113C50.9,0,0,50.9,0,113v798c0,62.2,50.9,113,113,113h798c62.2,0,113-50.9,113-113V113
			C1024,50.9,973.1,0,911,0L911,0z"/>
	</g>
	<g class="st1">
		<polygon class="st3" points="482.9,256.2 493.1,320.7 552,348.8 493.9,378.5 485.3,443.2 439.1,397 374.9,408.9 404.6,350.7 
			373.4,293.3 437.9,303.5 		"/>
	</g>
	<g class="st1">
		<polygon class="st3" points="720.3,397.8 706.3,481 766.9,539.7 683.4,552.2 646.3,628 608.7,552.4 525.1,540.5 585.4,481.4 
			570.8,398.3 645.7,437.3 		"/>
	</g>
	<g class="st1">
		<polygon class="st3" points="531.3,631.5 437.4,673.7 418.9,774.9 349.8,698.6 247.8,712.3 299,623 254.5,530.2 355.2,551.3 
			429.7,480.3 440.7,582.6 		"/>
	</g>
</g>
<g id="_x31_" class="st0">
	<path class="st4" d="M1012,1023.7H12.3c-6.6,0-12-5.4-12-12V12c0-6.6,5.4-12,12-12H1012c6.6,0,12,5.4,12,12v999.7
		C1024,1018.3,1018.6,1023.7,1012,1023.7z"/>
	<g class="st1">
		<polygon class="st5" points="247,421.7 247,626 154.4,626 154.4,275.2 273.9,275.2 383.4,436.9 383.4,275.2 484.4,275.2 
			484.4,465.5 380,605.2 		"/>
		<rect x="777.3" y="275.3" class="st5" width="92.6" height="350.7"/>
		<polygon class="st5" points="639.4,626 746.2,626 746.2,164.8 401.1,625.9 510.6,625.9 655.3,433 655.3,538.4 581.2,539 		"/>
	</g>
	<g class="st1">
		<path class="st5" d="M348.3,732.5c-2-8.7-6.9-14.8-14.8-18.2c-4.4-1.9-9.2-2.9-14.6-2.9c-10.3,0-18.7,3.9-25.3,11.6
			s-9.9,19.4-9.9,34.9c0,15.6,3.6,26.7,10.7,33.2s15.3,9.7,24.4,9.7c8.9,0,16.2-2.6,21.9-7.7c5.7-5.1,9.2-11.8,10.5-20.1h-29.5
			v-21.3h53V820h-17.6l-2.7-15.9c-5.1,6-9.7,10.3-13.8,12.7c-7,4.3-15.7,6.5-25.9,6.5c-16.9,0-30.7-5.8-41.5-17.5
			c-11.2-11.7-16.8-27.8-16.8-48.2c0-20.6,5.7-37.1,17-49.6s26.4-18.6,45-18.6c16.2,0,29.2,4.1,39,12.3s15.5,18.4,16.9,30.7
			L348.3,732.5L348.3,732.5z"/>
		<path class="st5" d="M419.6,820.1H395V692.8h24.6V820.1z"/>
		<path class="st5" d="M518.2,808.6c-7.9,9.8-20,14.7-36.2,14.7s-28.3-4.9-36.2-14.7c-7.9-9.8-11.9-21.6-11.9-35.4
			c0-13.6,4-25.3,11.9-35.3c7.9-9.9,20-14.9,36.2-14.9s28.3,5,36.2,14.9c7.9,10,11.9,21.7,11.9,35.3
			C530.2,787,526.2,798.8,518.2,808.6z M498.5,795c3.9-5.1,5.8-12.4,5.8-21.8c0-9.4-1.9-16.7-5.8-21.8s-9.4-7.6-16.6-7.6
			s-12.7,2.5-16.6,7.6s-5.8,12.4-5.8,21.8c0,9.4,1.9,16.7,5.8,21.8s9.4,7.7,16.6,7.7C489.2,802.7,494.7,800.1,498.5,795z"/>
		<path class="st5" d="M624.3,737.3c7,8.9,10.6,20.4,10.6,34.6c0,14.6-3.5,26.8-10.4,36.4c-6.9,9.6-16.6,14.4-29.1,14.4
			c-7.8,0-14.1-1.6-18.8-4.7c-2.8-1.8-5.9-5.1-9.2-9.7v11.8H543V693h24.6v45.3c3.1-4.4,6.6-7.7,10.3-10c4.5-2.9,10.1-4.3,17-4.3
			C607.5,723.9,617.3,728.4,624.3,737.3z M603.7,794.7c3.5-5.1,5.3-11.9,5.3-20.2c0-6.7-0.9-12.2-2.6-16.6
			c-3.3-8.3-9.4-12.4-18.3-12.4c-9,0-15.2,4.1-18.6,12.2c-1.7,4.3-2.6,9.9-2.6,16.8c0,8.1,1.8,14.7,5.4,20s9.1,7.9,16.5,7.9
			C595.2,802.3,600.2,799.8,603.7,794.7z"/>
		<path class="st5" d="M685.4,762.9c4.6-0.6,7.9-1.3,9.8-2.2c3.5-1.5,5.3-3.8,5.3-7c0-3.9-1.4-6.5-4.1-8c-2.7-1.5-6.7-2.2-12-2.2
			c-5.9,0-10.1,1.4-12.5,4.3c-1.8,2.1-2.9,5-3.5,8.6h-23.8c0.5-8.2,2.8-15,6.9-20.3c6.5-8.3,17.8-12.4,33.7-12.4
			c10.4,0,19.6,2,27.6,6.1S725,741.7,725,753v43.2c0,3,0.1,6.6,0.2,10.9c0.2,3.2,0.7,5.4,1.5,6.6c0.8,1.2,2,2.1,3.6,2.9v3.6h-26.8
			c-0.7-1.9-1.3-3.7-1.6-5.4s-0.5-3.6-0.7-5.7c-3.4,3.7-7.4,6.8-11.8,9.4c-5.3,3.1-11.4,4.6-18.1,4.6c-8.6,0-15.7-2.4-21.2-7.3
			c-5.6-4.9-8.4-11.8-8.4-20.7c0-11.6,4.5-20,13.5-25.1c4.9-2.8,12.2-4.8,21.8-6L685.4,762.9z M700.4,774.4c-1.6,1-3.2,1.8-4.8,2.4
			c-1.6,0.6-3.8,1.2-6.6,1.7l-5.6,1c-5.3,0.9-9,2-11.3,3.4c-3.9,2.2-5.8,5.7-5.8,10.5c0,4.2,1.2,7.2,3.6,9.1
			c2.4,1.9,5.2,2.8,8.6,2.8c5.4,0,10.3-1.6,14.9-4.7c4.5-3.1,6.9-8.8,7.1-17v-9.2H700.4z"/>
		<path class="st5" d="M767.7,820.1h-24.6V692.8h24.6V820.1z"/>
	</g>
</g>
<g id="_x32_">
	<g>
		<path class="st6" d="M1012,1024H12c-6.6,0-12-5.4-12-12V12C0,5.4,5.4,0,12,0h1000c6.6,0,12,5.4,12,12v1000
			C1024,1018.6,1018.6,1024,1012,1024z"/>
	</g>
</g>
<g>
	<path class="st5" d="M224.2,255.4c0,15.3-6.5,28.5-19.4,39.4c-11.3,9.7-25.1,15.8-41.3,18.5c-0.6,0.1-1.1,0.1-1.5,0.1
		c-1.7,0-5.6-5.3-11.6-15.9c-6-10.6-8.9-17.1-8.9-19.4c0-0.8,0.6-1.4,1.7-1.6c10.9-2.5,18.2-4.6,21.8-6.3
		c7.9-3.9,11.8-9.7,11.8-17.4c0-4.9-2.6-10.4-7.7-16.4c-8.9-10.3-13.7-16-14.5-17.1c-5.2-7.9-7.8-16.5-7.8-26.1
		c0-13.8,6.4-25.3,19.1-34.4c10.4-7.6,23.2-12.5,38.4-14.7c0.8-0.1,1.5-0.1,1.9-0.1c1.1,0,2,0.9,2.7,2.7c2,5.5,6.5,15.5,13.7,29.9
		c0.2,0.5,0.3,0.8,0.3,1.1c0,1.3-0.7,1.9-2,1.9c-0.6,0-1.6-0.1-3.1-0.3c-1.4-0.2-2.5-0.3-3.3-0.3c-5.4,0-10.2,1.2-14.3,3.7
		c-4.9,2.9-7.4,6.9-7.4,12c0,4.6,2.7,10.3,8.2,17c9.6,12.1,14.6,18.4,15.1,19C221.5,238.9,224.2,247.2,224.2,255.4z"/>
	<path class="st5" d="M358.8,204.6c0,5.6-0.3,14-0.8,25.1c-0.5,11.2-0.8,19.6-0.8,25.1c0,5.4,0.2,13.6,0.6,24.5
		c0.4,10.9,0.6,19,0.6,24.4c0,2-0.9,3.3-2.8,3.9c-2.9,0.8-8.9,1.1-18.2,1.1c-8.2,0-14-0.2-17.2-0.7c-1.4-0.2-2.3-1.1-2.7-2.7
		c-0.2-2.3-0.5-4.5-0.7-6.8c-0.4-3.5-0.9-5.2-1.6-5.2c1.1,0-2.8,2.6-11.4,7.7c-8.7,5.1-16.6,7.7-23.7,7.7c-20,0-31.9-9-35.6-27.1
		c-1.7-8.4-2.5-20.5-2.5-36.5c0-17.2,1.4-30.8,4.2-40.8c0.8-3.1,2.4-4.6,4.6-4.6c3.5,0,8.8,0,15.9,0.1c7.1,0.1,12.4,0.1,15.9,0.1
		c2.3,0,3.5,1,3.5,2.9c0,0.5-0.1,1.3-0.2,2.4c-1.6,10.3-2.4,20.7-2.4,31.3c0,13.1,0.4,22.1,1.2,27c1.4,8.3,6.3,12.5,14.8,12.5
		c3.3,0,6.9-1.5,10.8-4.4c3.9-2.9,5.9-6,6.1-9.2c0.2-2.8,0.2-21.8,0.2-56.9c0-2.5,0.2-4,0.6-4.4c0.5-0.8,1.8-1.1,4.1-1.1
		c3.7,0,9.3,0,16.7,0.1c7.4,0.1,13,0.1,16.7,0.1c2.3,0,3.6,0.6,4,1.7C358.7,202.5,358.8,203.4,358.8,204.6z"/>
	<path class="st5" d="M490.1,304.3c0,2-1.1,3.2-3.2,3.5c-2.1,0.3-7.6,0.5-16.5,0.5c-9.5,0-15.4-0.2-17.7-0.7s-3.4-2-3.4-4.6
		c0-3.5,0.1-8.9,0.3-16.1c0.2-7.2,0.3-12.6,0.3-16.2c0-2.8-0.1-7-0.2-12.5c-0.2-5.6-0.2-9.7-0.2-12.5c0-10.3-4.5-15.5-13.5-15.5
		c-2.9,0-6.4,1.3-10.3,3.9c-4.2,2.9-6.3,5.7-6.3,8.5v61.2c0,2.5-1.2,3.9-3.5,4.2c-2.6,0.3-8,0.5-16.2,0.5c-8.8,0-14.6-0.2-17.2-0.7
		c-2.3-0.4-3.5-1.6-3.5-3.7c0-5.9,0-14.8,0.1-26.6c0.1-11.9,0.1-20.8,0.1-26.7c0-18.8-1.5-33.6-4.4-44.3c-0.2-0.7-0.2-1.2-0.2-1.7
		c0-1.2,0.6-2,1.7-2.5c4.8-0.5,11.1-1.4,19-2.5c12-2.3,18.8-3.5,20.3-3.5c0.8,0,1.5,2.5,1.9,7.6s1.1,7.6,1.9,7.6
		c-0.8,0,3.2-2.6,12.2-7.9c8.9-5.2,16.8-7.9,23.5-7.9c9.6,0,17.6,2.3,24,6.8c7.2,5.2,10.8,12.5,10.8,21.8v36.1c0,4.9,0,12.3,0.1,22
		C490.1,292,490.1,299.4,490.1,304.3z"/>
	<path class="st5" d="M629.1,146.8c0-1.7-0.3,0.8-0.9,7.5c-0.8,8.4-1.5,19.1-1.9,32.2c-0.6,14.8-0.9,31.6-0.9,50.5
		c0,31.2,0.9,53.4,2.6,66.6c0.2,1.4,0.2,2.3,0.2,2.7c0,0.8-0.6,1.3-1.7,1.5c-2.7,0.4-12.7,0.6-30,0.6c-4.1,0-6.4-0.8-7-2.4
		c-0.2-2.9-0.3-5.7-0.5-8.6c-0.1-0.6-0.4-1.2-0.9-1.8c-0.5,0.2-1,0.7-1.7,1.4c-8.2,8-18.4,12-30.6,12c-15.9,0-28.7-5.6-38.3-16.8
		c-9.1-10.6-13.7-24.1-13.7-40.3c0-16.5,4.5-30,13.5-40.7c9.5-11.3,22.4-17,38.5-17c11.4,0,20.3,3.6,26.6,10.9
		c1.1,1.2,1.8,1.8,2.3,1.8c0.7,0,1-1,1-2.9c0-5.8-0.2-14.5-0.5-26.1c-0.3-11.6-0.5-20.2-0.5-25.9c0-2.2,0.6-3.4,1.8-3.7
		c4.8-0.2,11.5-0.7,19.9-1.4c15.1-1.9,21.8-2.8,20.1-2.8C628.3,144,629.1,144.9,629.1,146.8z M586.4,250.9c0-6-2.1-11.2-6.2-15.7
		c-4.2-4.5-9.2-6.7-15.1-6.7c-6.2,0-11.1,2.2-14.8,6.7c-3.7,4.5-5.5,9.9-5.5,16.1c0,6.1,1.8,11.3,5.6,15.5c3.8,4.5,8.7,6.8,14.7,6.8
		c6,0,11.1-2.3,15.2-6.8S586.4,257,586.4,250.9z"/>
	<path class="st5" d="M759.7,250.9c0,5.8,0.3,14.5,1,25.9c0.7,11.5,1,20.1,1,25.8c0,3-1.3,4.6-4,4.9c-9.4,0.7-20.1,1-32.2,1
		c-1.4,0-2.4-2.2-2.9-6.5c-0.5-4.3-1.1-6.6-1.8-6.6c-0.6,0.3-1.4,0.9-2.4,1.9c-8.5,8.5-17.5,12.8-27.2,12.8
		c-14.7,0-26.9-5.8-36.6-17.4c-9.1-10.9-13.7-23.9-13.7-39c0-17.4,4.7-31.5,14.2-42.1c9.8-11,23.3-16.5,40.3-16.5
		c11.9,0,21.2,4.2,28.1,12.5c0.3,0.4,0.6,0.6,0.8,0.6c0.7,0,1.5-1.8,2.3-5.5c0.9-3.7,1.9-5.5,3.1-5.5c2.8,0,8.1,0.8,16,2.4
		c7.5,1.5,12.8,2.8,16.1,3.9c1.1,0.5,1.7,1.1,1.7,1.8c0,0.3-0.1,1.1-0.3,2.4C760.9,221.2,759.7,235.7,759.7,250.9z M723.2,251.6
		c0-6.4-2-11.7-6.1-15.9c-4-4.2-9.3-6.3-15.8-6.3c-6.5,0-11.7,2.1-15.7,6.2c-4,4.2-6,9.5-6,16c0,6.1,2.1,11.4,6.3,15.7
		c4.2,4.4,9.4,6.6,15.4,6.6c6.4,0,11.7-2.1,15.7-6.3S723.2,258.1,723.2,251.6z"/>
	<path class="st5" d="M893.5,226.8c0,14.7-0.5,23.6-1.4,26.7c-1.1,3.8-9.4,17.4-24.8,41c-2.4,3.7-8.6,12.3-18.7,25.7
		c-11.1,14.8-17.4,22.6-18.9,23.4c-1.8,1.1-13.4,1.7-34.8,1.7c-3.2,0-5.4-0.4-6.6-1.1c-1-3.1-2.2-6.8-3.7-11c-1.2-2.6-2.4-5.3-3.6-8
		c-1.7-3.9-2.6-6.5-2.6-7.8c0-1.4,0.6-2.2,1.9-2.2c21,0,31.5-4.8,31.5-14.4c0-0.8-5.1-8.3-15.4-22.5c-10.6-14.6-16.5-23.8-17.6-27.6
		c-0.6-2.2-0.9-10-0.9-23.4c0-2.7,0.1-6.8,0.2-12.3c0.2-5.5,0.2-9.6,0.2-12.3c0-2,1.2-2.9,3.7-2.9c3.9,0,9.7,0.1,17.5,0.3
		s13.7,0.3,17.5,0.3c1.6,0,2.4,1.2,2.4,3.5c0,2.1-0.1,5.3-0.3,9.6c-0.2,4.3-0.3,7.5-0.3,9.6c0,9.5,0.2,16,0.5,19.4
		c0.2,2.6,2.5,7.6,6.8,14.7c4.5,7.5,7.8,11.2,9.9,11.2c1.7,0,4.7-3.7,8.8-11.1c3.9-7,5.9-11.7,6.2-14.2c0.8-6.6,1.1-13.9,1.1-21.6
		c0-2-0.2-5.1-0.6-9.3c-0.4-4.2-0.6-7.3-0.6-9.4c0-1.4,0.8-2.2,2.4-2.2c3.9,0,9.6-0.2,17.3-0.5c7.7-0.3,13.4-0.5,17.3-0.5
		c2,0,3.3,1,4,2.9C893,206.1,893.5,214.2,893.5,226.8z"/>
	<path class="st5" d="M289,455.4c0,15.3-6.5,28.5-19.4,39.4c-11.3,9.7-25.1,15.8-41.3,18.5c-0.6,0.1-1.1,0.1-1.5,0.1
		c-1.7,0-5.6-5.3-11.6-15.9c-6-10.6-8.9-17.1-8.9-19.4c0-0.8,0.6-1.4,1.7-1.6c10.9-2.5,18.2-4.6,21.8-6.3
		c7.9-3.9,11.8-9.7,11.8-17.4c0-4.9-2.6-10.4-7.7-16.4c-8.9-10.3-13.7-16-14.5-17.1c-5.2-7.9-7.8-16.5-7.8-26.1
		c0-13.8,6.4-25.3,19.1-34.4c10.4-7.6,23.2-12.5,38.4-14.7c0.8-0.1,1.5-0.1,1.9-0.1c1.1,0,2,0.9,2.7,2.7c2,5.5,6.5,15.5,13.7,29.9
		c0.2,0.5,0.3,0.8,0.3,1.1c0,1.3-0.7,1.9-2,1.9c-0.6,0-1.6-0.1-3.1-0.3c-1.4-0.2-2.5-0.3-3.3-0.3c-5.4,0-10.2,1.2-14.3,3.7
		c-4.9,2.9-7.4,6.9-7.4,12c0,4.6,2.7,10.3,8.2,17c9.6,12.1,14.6,18.4,15.1,19C286.3,438.9,289,447.2,289,455.4z"/>
	<path class="st5" d="M382,433c-0.1,0-2.4-0.6-6.9-1.8c-4.5-1.2-8.1-1.8-10.9-1.8c-6.7,0-12.1,2-16.1,6.1c-4,4-6,9.4-6,16.1
		c0,6.9,2.2,12.4,6.6,16.4c4.4,4,10.1,5.9,17.1,5.9c3.3,0,7.1-0.8,11.2-2.5c4.2-1.7,6.1-2.5,5.9-2.5c1.3,0,2.9,4.8,5,14.4
		c1.7,8.8,2.6,14.6,2.6,17.4c0,2.9-4.7,5.3-14,7.4c-7.3,1.6-13.1,2.4-17.6,2.4c-16.6,0-30.3-5.6-41.1-16.8
		c-10.8-11.2-16.2-25.1-16.2-41.8c0-16.5,5.4-30.5,16.3-41.7c10.8-11.3,24.5-16.9,41.1-16.9c11.3,0,21.1,2.4,29.7,7.3
		c2,1.1,2.9,2.1,2.9,3.1c0,1-1.1,5.4-3.4,13.4c-2.1,7.6-3.5,12.2-4.1,13.8C383.3,432.2,382.6,433,382,433z"/>
	<path class="st5" d="M516.5,425.4l-0.2,78.2c0,2.6-1.1,4.1-3.2,4.4c-2.4,0.3-7.9,0.5-16.5,0.5c-8.3,0-14.1-0.3-17.3-0.9
		c-2.5-0.5-3.7-2.1-3.7-4.9c0-6.5,0.1-16.3,0.3-29.3c0.2-13.1,0.3-22.8,0.3-29.3c0-8.8-4.5-13.3-13.5-13.3c-3,0-6.6,1.2-10.6,3.6
		c-4.5,2.6-6.7,5.4-6.7,8.3v28c0,3.6,0.1,9.1,0.2,16.4c0.2,7.3,0.2,12.7,0.2,16.4c0,2.8-1.2,4.3-3.5,4.6c-2.3,0.3-8.9,0.5-19.7,0.5
		c-6.2,0-10.6-0.3-13.4-0.9s-4.1-1.9-4.1-4c0-6,0-14.9,0.1-26.9c0.1-12,0.1-20.9,0.1-26.9c0-24.7-0.3-45.1-0.8-61.3
		c-0.2-5.7-0.4-11.3-0.6-17c-0.4-6.6-1.1-12.2-2-16.9c-0.2-1-0.3-1.7-0.3-2.2c0-1.1,0.6-1.9,1.7-2.3c2.3-0.7,5.8-1.1,10.3-1.2
		c6-0.2,9.6-0.4,10.5-0.6l20.5-2.4c1.2,0,1.8,0.8,1.8,2.4c0,2.4-0.2,5.7-0.5,9.9c-0.3,4.8-0.5,8.1-0.5,9.9
		c-0.5,17.1-0.7,30.5-0.7,40.4c0,1.5,0.4,2.3,1.1,2.3c0.2,0,2.1-1.3,5.8-4c4.4-3.1,8.6-5.6,12.6-7.4c6-2.6,11.7-4,17.3-4
		c9.7,0,17.7,2.5,24.2,7.6C513,408.5,516.5,416,516.5,425.4z"/>
	<path class="st5" d="M644,451.8c0,17.2-5.3,31.2-15.8,41.9c-10.5,10.7-24.4,16.1-41.5,16.1c-16.6,0-30.3-5.3-41-15.9
		c-10.7-10.6-16.1-24.2-16.1-40.8c0-17.5,5.1-31.7,15.4-42.7c10.3-10.9,24.2-16.4,41.7-16.4c17.1,0,30.9,5.3,41.5,16
		C638.7,420.9,644,434.7,644,451.8z M606.8,451.8c0-6-1.9-11.2-5.6-15.8c-3.7-4.6-8.5-6.9-14.4-6.9c-6,0-10.9,2.3-14.7,7
		c-3.6,4.4-5.4,9.6-5.4,15.6c0,6.1,1.8,11.4,5.4,15.7c3.9,4.7,8.8,7,14.7,7c5.9,0,10.8-2.3,14.6-7
		C605.1,463.2,606.8,457.9,606.8,451.8z"/>
	<path class="st5" d="M766.7,451.8c0,17.2-5.3,31.2-15.8,41.9c-10.5,10.7-24.4,16.1-41.5,16.1c-16.6,0-30.3-5.3-41-15.9
		c-10.7-10.6-16.1-24.2-16.1-40.8c0-17.5,5.1-31.7,15.4-42.7c10.3-10.9,24.2-16.4,41.7-16.4c17.1,0,30.9,5.3,41.5,16
		C761.4,420.9,766.7,434.7,766.7,451.8z M729.5,451.8c0-6-1.9-11.2-5.6-15.8c-3.7-4.6-8.5-6.9-14.4-6.9c-6,0-10.9,2.3-14.7,7
		c-3.6,4.4-5.4,9.6-5.4,15.6c0,6.1,1.8,11.4,5.4,15.7c3.9,4.7,8.8,7,14.7,7c5.9,0,10.8-2.3,14.6-7
		C727.7,463.2,729.5,457.9,729.5,451.8z"/>
	<path class="st5" d="M821.6,439.4c0,20.6,0.1,36.4,0.2,47.5c0,1.7,0.1,4.7,0.3,8.9c0.2,3.9,0.3,6.8,0.3,8.9c0,1.6-0.9,2.5-2.8,2.8
		c-3.4,0.6-9.5,0.9-18.4,0.9c-9.1,0-14.8-0.3-17.3-0.9c-1.7-0.4-2.6-1.4-2.8-3.1c0-0.2,0-1.8,0-4.9c0-6.7,0.1-16.8,0.2-30.2
		c0.2-13.4,0.2-23.4,0.2-30.1c0-31.7,0-46.2,0.1-43.4c-0.2-16.7-1.2-31.1-2.8-43.2c-0.2-0.8-0.2-1.5-0.2-1.9c0-1.7,1-2.5,2.9-2.5
		h40.4c1.9,0,2.8,0.8,2.6,2.4l-0.1,2C822.6,385.4,821.6,414.3,821.6,439.4z"/>
	<path class="st5" d="M300.3,709.5c-6.5,0-15-0.2-25.4-0.5c-13.6-0.3-22.1-0.5-25.4-0.6l-33.9-0.5c-3.4,0.1-8.3-0.1-14.6-0.5
		c-2.2-0.4-3.3-1.5-3.3-3.5c0-8.2,0.1-20.6,0.4-37c0.3-16.4,0.4-28.8,0.4-37c0-8.8-0.3-21.9-0.8-39.4c-0.5-17.5-0.8-30.6-0.8-39.4
		c0-1.7,1.1-2.5,3.4-2.5s5.6,0.1,10.1,0.3c4.5,0.2,7.8,0.3,10,0.3c2.5,0,6.2-0.1,11.1-0.4c4.9-0.3,8.6-0.4,11.1-0.4
		c1.1,0,1.7,0.7,1.6,2.2l-0.1,1.5c-0.9,14.2-1.9,35.5-3.1,64l-0.1,29.9c0,9.7,0,16.7,0.1,21.2c0.1,0.9,0.2,1.8,0.2,2.7
		c0.1,0.9,0.6,1.5,1.7,1.7c0.1,0,1.1,0,2.9,0c6.8,0,17-0.4,30.5-1.1c13.6-0.7,23.7-1.1,30.5-1.1c2,0,3.1,0.9,3.1,2.6
		c0,12.9-0.9,24.1-2.8,33.4c-0.4,2-1.2,3.1-2.4,3.5C304.6,709.4,303,709.5,300.3,709.5z"/>
	<path class="st5" d="M426,646c0,7.6-2.5,12-7.4,13c-0.8,0.2-8.6,1-23.4,2.5c-8.9,1-22.2,2.2-39.9,3.5c1.1,4.9,4.3,8.6,9.6,11.2
		c4.4,2.1,9.4,3.2,15,3.2c6.7,0,13.5-1.8,20.3-5.4c2.9-1.8,5.7-3.6,8.6-5.4c1.6,0.8,4.2,4.6,8,11.6c3.7,6.9,5.6,11.4,5.6,13.3
		c0,0.5-0.6,1.4-1.7,2.6c-9.2,9.9-23.5,14.8-42.9,14.8c-18,0-32.5-5.2-43.5-15.7c-11.3-10.6-17-24.9-17-42.7
		c0-17.4,5.1-31.6,15.2-42.7c10.4-11.5,24.2-17.2,41.5-17.2c14.5,0,26.8,5.3,36.9,15.9C421,618.9,426,631.5,426,646z M386.4,639.1
		c0-4.7-1.7-8.8-5-12.3c-3.3-3.5-7.3-5.3-11.9-5.3c-4.8,0-8.7,2-11.8,6c-2.9,3.7-4.3,8-4.3,13c0,2,1.1,3.1,3.2,3.1
		c5.6,0,14.3-0.9,26.1-2.6C385.1,640.6,386.4,640,386.4,639.1z"/>
	<path class="st5" d="M504.8,615.9c0,0.8-0.6,1.8-1.7,3.1c-2.1-0.5-4.2-0.8-6.3-0.8c-4.5,0-8.2,1-11.2,2.9c-3.6,2.3-5.4,5.5-5.4,9.6
		c0,2.6,1.9,6,5.8,10.1c5.8,6.1,9.4,10.2,10.8,12.3c3.9,5.7,5.8,11.9,5.8,18.5c0,3.9-0.8,7.9-2.3,12.2c-1.7,4.8-3.9,8.2-6.6,10.4
		c-5.6,4.8-12.1,8.9-19.6,12.2c-8.1,3.5-15.5,5.2-22.3,5.2c-1.5,0-4.9-4.1-10.1-12.3c-5.3-8.2-7.9-13.2-7.9-15
		c0-0.7,0.4-1.1,1.2-1.2c5.3-1,10.6-2,16-2.9c6.6-2.1,10-5.6,10-10.4c0-3.3-1.9-7.2-5.8-11.6c-6.9-7.6-10.5-11.7-10.8-12.1
		c-3.9-5.4-5.8-11.2-5.8-17.2c0-11.3,5.7-21,17.2-28.9c10.3-7,21.3-10.5,33-10.5c1.2,0,4.2,4.1,8.9,12.2
		C502.4,609.8,504.8,614.5,504.8,615.9z"/>
	<path class="st5" d="M587.3,615.9c0,0.8-0.6,1.8-1.7,3.1c-2.1-0.5-4.2-0.8-6.3-0.8c-4.5,0-8.2,1-11.2,2.9c-3.6,2.3-5.4,5.5-5.4,9.6
		c0,2.6,1.9,6,5.8,10.1c5.8,6.1,9.4,10.2,10.8,12.3c3.9,5.7,5.8,11.9,5.8,18.5c0,3.9-0.8,7.9-2.3,12.2c-1.7,4.8-3.9,8.2-6.6,10.4
		c-5.6,4.8-12.1,8.9-19.6,12.2c-8.1,3.5-15.5,5.2-22.3,5.2c-1.5,0-4.9-4.1-10.1-12.3c-5.3-8.2-7.9-13.2-7.9-15
		c0-0.7,0.4-1.1,1.2-1.2c5.3-1,10.6-2,16-2.9c6.6-2.1,10-5.6,10-10.4c0-3.3-1.9-7.2-5.8-11.6c-6.9-7.6-10.5-11.7-10.8-12.1
		c-3.9-5.4-5.8-11.2-5.8-17.2c0-11.3,5.7-21,17.2-28.9c10.3-7,21.3-10.5,33-10.5c1.2,0,4.2,4.1,8.9,12.2
		C585,609.8,587.3,614.5,587.3,615.9z"/>
	<path class="st5" d="M712.6,651.8c0,17.2-5.3,31.2-15.8,41.9c-10.5,10.7-24.4,16.1-41.5,16.1c-16.6,0-30.3-5.3-41-15.9
		c-10.7-10.6-16.1-24.2-16.1-40.8c0-17.5,5.1-31.7,15.4-42.7c10.3-10.9,24.2-16.4,41.7-16.4c17.1,0,30.9,5.3,41.5,16
		C707.3,620.9,712.6,634.7,712.6,651.8z M675.5,651.8c0-6-1.9-11.2-5.6-15.8c-3.7-4.6-8.5-6.9-14.4-6.9c-6,0-10.9,2.3-14.7,7
		c-3.6,4.4-5.4,9.6-5.4,15.6c0,6.1,1.8,11.4,5.4,15.7c3.9,4.7,8.8,7,14.7,7c5.9,0,10.8-2.3,14.6-7
		C673.7,663.2,675.5,657.9,675.5,651.8z"/>
	<path class="st5" d="M838.9,704.3c0,2-1.1,3.2-3.2,3.5c-2.1,0.3-7.6,0.5-16.5,0.5c-9.5,0-15.4-0.2-17.7-0.7s-3.4-2-3.4-4.6
		c0-3.5,0.1-8.9,0.3-16.1c0.2-7.2,0.3-12.6,0.3-16.2c0-2.8-0.1-7-0.2-12.5c-0.2-5.6-0.2-9.7-0.2-12.5c0-10.3-4.5-15.5-13.5-15.5
		c-2.9,0-6.4,1.3-10.3,3.9c-4.2,2.9-6.3,5.7-6.3,8.5v61.2c0,2.5-1.2,3.9-3.5,4.2c-2.6,0.3-8,0.5-16.2,0.5c-8.8,0-14.6-0.2-17.2-0.7
		c-2.3-0.4-3.5-1.6-3.5-3.7c0-5.9,0-14.8,0.1-26.6c0.1-11.9,0.1-20.8,0.1-26.7c0-18.8-1.5-33.6-4.4-44.3c-0.2-0.7-0.2-1.2-0.2-1.7
		c0-1.2,0.6-2,1.7-2.5c4.8-0.5,11.1-1.4,19-2.5c12-2.3,18.8-3.5,20.3-3.5c0.8,0,1.5,2.5,1.9,7.6s1.1,7.6,1.9,7.6
		c-0.8,0,3.2-2.6,12.2-7.9c8.9-5.2,16.8-7.9,23.5-7.9c9.6,0,17.6,2.3,24,6.8c7.2,5.2,10.8,12.5,10.8,21.8v36.1c0,4.9,0,12.3,0.1,22
		C838.9,692,838.9,699.4,838.9,704.3z"/>
</g>
<g>
	<g>
		<circle class="st7" cx="784.9" cy="803" r="128.4"/>
		<g>
			<g>
				<g>
					<g>
						<path class="st8" d="M655.9,803c0.1,0.4,0.3,0.2,0.3-1l-0.3-0.8L655.9,803z"/>
						<path class="st8" d="M656.8,795.1c-0.1-1.4-0.2-3-0.6-2.1c0.2,1.4,0.1,1.7,0.3,3.2c0,1.2-0.2,2-0.3,1.8
							c0.1,0.4-0.1,1.8,0.1,2.5c0.1-0.8,0.2-1.6,0.3-2.5c0-0.9,0-1.9,0-2.9C656.7,794.6,656.7,795,656.8,795.1z"/>
						<path class="st8" d="M710.8,698.8l-0.6,0.4C710.4,699.1,710.6,698.9,710.8,698.8z"/>
						<path class="st8" d="M776.5,675.6c-0.5,0-0.8,0.1-0.8,0.1C776.2,675.6,776.6,675.6,776.5,675.6z"/>
						<path class="st8" d="M788.5,675.7c-0.3,0-0.5,0-0.7,0C788.1,675.7,788.3,675.7,788.5,675.7z"/>
						<path class="st8" d="M710.8,698.8l1.6-1C712.4,697.6,711.6,698.3,710.8,698.8z"/>
						<path class="st8" d="M657.9,779.3c-0.1,0.4-0.1,0.7-0.1,1C657.9,780,657.9,779.7,657.9,779.3
							C657.9,779.4,657.9,779.4,657.9,779.3z"/>
						<path class="st8" d="M688.1,719.9l-0.4,0.4c-0.1,0.2-0.2,0.3-0.2,0.4L688.1,719.9z"/>
						<path class="st8" d="M674.4,739.4c0.3-0.5,0.1-0.8,0.1-1c-0.1,0.3-0.2,0.7-0.4,1.1C674.1,739.5,674.2,739.5,674.4,739.4z"/>
						<path class="st8" d="M660.1,774.3l-0.1,0.7C660,774.8,660.1,774.5,660.1,774.3z"/>
						<path class="st8" d="M700.1,707.8c0.1,0,0.1,0,0.2-0.1C700.3,707.7,700.2,707.7,700.1,707.8z"/>
						<path class="st8" d="M658.3,830.8C658.3,830.9,658.3,830.8,658.3,830.8C658.3,830.7,658.2,830.7,658.3,830.8z"/>
						<path class="st8" d="M656.6,803l0,0.4c0.1,0,0.1,0.1,0.2,0.1L656.6,803z"/>
						<path class="st8" d="M810.2,678.5C810.2,678.5,810.2,678.5,810.2,678.5C809.6,678.4,809.9,678.5,810.2,678.5z"/>
						<path class="st8" d="M909.3,829.9c0.8-2.2-0.5,3.7,0.5,0.4C909.6,830.6,910.1,827.2,909.3,829.9z"/>
						<path class="st8" d="M658.1,778.7c0.1-0.3,0.1-0.6,0.2-1C658.1,778.2,658.1,778.5,658.1,778.7z"/>
						<path class="st8" d="M909.8,830.3L909.8,830.3l0.1-0.3C909.9,830.1,909.8,830.2,909.8,830.3z"/>
						<path class="st8" d="M856.5,697.9c-0.1-0.1-0.2-0.2-0.4-0.4C856.2,697.5,856.2,697.6,856.5,697.9z"/>
						<path class="st8" d="M822.9,681.1l0.9,0.3C823.4,681.3,823.1,681.2,822.9,681.1z"/>
						<path class="st8" d="M872,709.8c0.4,0.4,0.5,0.5,1,1c0-0.1-0.1-0.1-0.1-0.2C872.7,710.5,872.4,710.2,872,709.8z"/>
						<path class="st8" d="M885.8,724.9c-0.1-0.1-0.1-0.2-0.2-0.3c-0.1-0.2-0.3-0.3-0.4-0.5L885.8,724.9z"/>
						<path class="st8" d="M686.1,886.7c-0.2-0.4-0.4-0.7-0.4-0.9C685.7,886.2,683.7,883.9,686.1,886.7z"/>
						<path class="st8" d="M658.1,779.3c0-0.1-0.1-0.3,0-0.6c0,0.2-0.1,0.5-0.1,0.7C658,779.5,658,779.5,658.1,779.3z"/>
						<path class="st8" d="M874.1,708.8l2.4,2.3C875.9,710.4,875,709.6,874.1,708.8z"/>
						<path class="st8" d="M820.7,927.5l-0.7,0.2C820.3,927.6,820.6,927.5,820.7,927.5z"/>
						<path class="st8" d="M883.2,718.2c0.3,0.5,0.7,1,1.1,1.5c0.1,0.1,0.2,0.2,0.3,0.2L883.2,718.2z"/>
						<path class="st8" d="M685.7,885.8C685.7,885.8,685.7,885.8,685.7,885.8C685.7,885.8,685.7,885.8,685.7,885.8z"/>
						<path class="st8" d="M672.7,868.4c1.6,2.7,1,1.1,1.6,1.6c2.1,3.1,0.7,1.6,1.2,2.8c0.7,1,1.3,1.8,1.9,2.5
							c0.6,0.7,1.2,1.4,1.7,2.1c0,0.1,0.2,0.4-0.1,0.2c0.4,0.5,0.9,1.1,1.4,1.7c0.5,0.7,1.1,1.4,1.7,2.2c1.2,1.5,2.4,3,3.4,4
							c0.1,0.2,0.2,0.3,0.2,0.3c-0.2-0.5-0.1-0.6,0.1-0.7c0.9,1.1,1.9,1.8,2,2.4c-0.6-0.7-0.7-0.6-1-0.9l1,1
							c0.6,1.2-1.4-1.4-1.6-1.3c1,1,2.1,2.2,3.1,3.2c1.1,1,2.1,2,2.8,2.8c0.1,0.6-3.6-3.6-1.8-1.3l-1.1-1.3l-1.1-1.3
							c1.3,2.3-1.3-1.6-0.2,0.6c0.4,0.4,0.7,0.8,1,1.2c0.3,0.3,0.6,0.6,0.9,0.9c0.5,0.5,1,1,1.4,1.4c0.9,0.9,1.8,1.8,3.4,3.3
							c0.9,0.6,0-0.4,0.8,0.1c1.2,1,2,1.8,2.6,2.4c0.6,0.6,1,1,1.3,1.5c0.7,0.8,1.2,1.5,3.1,2.9c1.1,0.6,1.7,0.5,4.2,2.8l-1.1-0.4
							c3.4,2.7,2.3,1.1,5.8,3.9c-0.7-0.3-2.9-1.9-2.3-1.5c2.2,2,1.8,1,3.7,2.3c0.1,0.2,0.1,0.4,0.2,0.5c2,1.2,4,2.5,6.2,3.7
							c2.2,1.2,4.4,2.4,6.7,3.5c-0.3,0-1.1-0.3-0.1,0.3c2.9,1.5,6,2.8,9.1,4.3c1.6,0.7,3.1,1.3,4.7,2c1.5,0.7,3.1,1.2,4.5,1.7
							l2.3,0.5c0.5,0.2,0.9,0.4,0.4,0.3c2.3,0.8,0.2-0.1,1.3,0.1c1.3,0.4,1.7,0.7,0.8,0.5c4.2,1.1,12,2.4,16.3,3.4l-0.9-0.1
							c3.5,0.7,4-0.1,7.2,0.6l-0.6,0c3.8,0.4,7.8,0.7,11.6,0.8c0.9,0,1.9,0.1,2.8,0.1c0.9,0,1.8,0,2.7,0c1.7,0,3.3,0.1,4.8,0
							c0.5-0.3,2.4-0.3,4.2-0.5c1.8-0.1,3.5-0.4,3.7-0.7c2.2-0.1,3-0.1,4-0.2c1-0.1,2.2-0.2,5.3-0.7c1.6-0.2,2.3-0.9,4.3-1.4
							l0.1,0.3l2.6-0.9c0.5,0,1,0,1.5,0l1.8-0.6c-0.7,0.2-1.6,0.3-1.5,0.2c1.4-0.5,3.2-0.9,4.6-1.2c1.4-0.3,2.5-0.6,2.5-0.5l3.3-1.2
							c1.1-0.4,2.2-0.9,3.2-1.4c-0.1,0.2-1.2,0.6-2,1.1c3.4-1.7,0.8,0.1,3.8-1.5c-0.5,0.1,0.2-0.3,0.2-0.3c0.8-0.2,2.1-0.7,3.6-1.4
							c1.4-0.6,3-1.3,4.2-2l-0.4,0.4c1.2-0.6,2.4-1.2,3.6-1.8c0.6-0.3,1.2-0.6,1.8-1c0.6-0.4,1.2-0.7,1.8-1.1
							c1.2-0.7,2.5-1.4,3.7-2.2c1.2-0.8,2.4-1.6,3.7-2.4c-1.8,1.1-1.6,0.5-0.2-0.5l0.8-0.1c0.8-0.8-1.6,0.9,0.2-0.6
							c1.8-1.2,1.4-0.5,0.4,0.3l2.1-1.6c0.2,0-0.3,0.4-0.4,0.6c0.8-0.8,4-2.4,5-3.7l0.2,0c1.1-0.9,2.1-1.7,3-2.4
							c0.9-0.7,1.6-1.4,2.4-2.1c0.7-0.7,1.5-1.3,2.2-2c0.8-0.7,1.5-1.4,2.4-2.3c-0.1-0.3,1.3-1.5,2.1-2.6c1.2-1.2,2.6-2.5,3.9-3.9
							c1.4-1.4,2.7-2.9,4.1-4.5c1.8-2.4,0.4-0.8,1.1-2c0.3,0,2.9-3.3,1.7-1.5c1.6-2,2.5-3.3,3.5-4.8c0.5-0.7,1-1.5,1.6-2.4
							c0.6-1,1.2-2.1,2.1-3.4c-0.5,0.5-0.9,1.2-0.8,0.8c0.6-1,1.5-2.2,1.5-2l-0.1,0.3c1.7-3.2,3.9-6.6,5.8-10.1
							c1-1.7,1.8-3.5,2.6-5.1c0.4-0.8,0.7-1.6,1.1-2.4c0.3-0.8,0.5-1.5,0.7-2.2l-0.1,0.3c0.6-1.9,1.3-3.7,1.8-5.6
							c0.9-2.6-0.3,1.6,0.5-0.2c0.4-1.6,0.8-2.9,1.2-4.2c0.3-1.3,0.7-2.5,1-3.6c0.7-2.3,1.3-4.5,1.7-7.1c0.2-0.5,0.4-1.1,0.6-1.7
							c0.2-0.7,0.3-1.4,0.5-2.2c0.3-1.6,0.7-3.4,0.9-5.3c0.2-1.9,0.4-3.8,0.6-5.6c0.1-1.8,0.3-3.5,0.5-4.9l-0.2,0.3
							c-0.1-1.4,0.2-1.7,0.3-2.8c-0.1,0.1-0.2,1.5-0.3,0.6c0-3,0.2-6.1,0-9.2c0-1.5,0-3.1-0.1-4.7c-0.1-1.6-0.2-3.1-0.3-4.7
							c-0.1-1.6-0.3-3.1-0.4-4.7c-0.2-1.6-0.3-3.1-0.6-4.7c-0.2-1.5-0.5-3.1-0.7-4.6c-0.3-1.5-0.7-3-1-4.6c-0.5-2.2-0.9-2.8-1.3-3.5
							c-0.4-0.7-0.8-1.6-1.4-4.4l0.8,1.5c-3-8.6-6.3-17.6-10.9-25.3c0.3,0.4,0.4,0.4,0.8,1.2c-0.7-1.8-3.5-6.1-3.6-6
							c-0.7-1.2,0-0.4-0.4-1.1c-0.9-1.7-2.8-3.9-3.2-4.8c-0.1-0.2,0.4,0.4,0.6,0.7c-0.8-0.9-3.3-4.7-2.8-3.6
							c-0.9-1.4-1.9-2.6-2.9-3.8c-1-1.2-1.8-2.3-2.7-3.4c-1.4-1.1-3.6-4.5-4.4-4.5c0.5-0.1-3.7-4.5-5.5-5.8c0.6,0.4-1.2-1.4-0.5-0.9
							c-1.7-1.7-3.5-3-3.3-2.6c-1.5-1.7-3.2-3.1-4.9-4.2c-1.6-1.1-3-2.2-3.8-3.2c-5.9-4.1-11.7-7.4-17.5-10.3
							c0.2-0.1,1.8,0.6,3.3,1.5c1.5,0.8,2.9,1.7,2.9,1.4c-1.4-0.7-2.6-1.3-3.7-1.9c-1.2-0.5-2.3-1-3.4-1.5c-2.2-1-4.4-1.9-7.1-3.2
							c-1.4-0.7,0.9,0.2,1.4,0.3c-2.8-1.2-5.6-2.2-8.3-3.3c-1.4-0.5-2.7-0.9-4-1.4c-0.7-0.2-1.3-0.4-2-0.6c-0.7-0.2-1.3-0.3-2-0.5
							c0,0,0.6,0.1,1.1,0.2c-1-0.3-2.4-0.7-2.3-0.5l1,0.2c1.6,0.8-4.3-0.6-4.5-0.5c1.9-0.2-5.2-1.3-2.2-1.4
							c-0.7-0.1-1.6-0.2-1.5-0.1c-1-0.3-1.3-0.4-0.2-0.3c-1.9-0.4-2.5-0.4-3.1-0.4c-0.6,0-1.1-0.1-2.8-0.4c0-0.1,0.7,0,1.1-0.1
							c-1.8-0.1-3.5-0.3-6.4-0.7c0.2,0-0.1-0.2,0.7,0c-2.5-0.3-4.6-0.5-6.9-0.5c-1.1,0-2.2-0.1-3.4-0.1c-1.2-0.1-2.4-0.1-3.8-0.2
							c1.6-0.4-1.9-0.2-2.2-0.6c-1,0-2,0.1-3,0.1l1.2,0.2c-2.6,0.1-4.9,0.3-7.1,0.4c0.6-0.1,1.3-0.2,1.9-0.3
							c-1.6,0.1-3.2,0.3-4.9,0.4l2.8-0.1c-2.6,0.4,0.3,0.5-3.1,0.6c0.7-0.1-2.6,0.2-4,0.2l0,0c-1.3,0.3-2.6,0.6-4.5,0.7
							c-0.5-0.1,0.3-0.5,0-0.5c-0.6,0.2-2.1,0.5-3.6,0.8c-1.5,0.3-3.1,0.6-3.9,1c0.5-0.2,0.5-0.4,0.3-0.4l-1,0.5
							c-1.2,0.2-1.4,0.2-1.2,0c-3.5,0.8,1.2,0.2-3,1c0.3-0.1,0.2-0.1,0.8-0.3c-4.2,0.9-8,2.3-11.8,3.5c-1.2,0,3.3-1.2,1.9-1.1
							c-5.5,1.8-10.9,4.6-16,6.9l0.9-0.4c-0.4,0.8-3.8,1.6-6.2,3.2c0.6-0.4,0.6-0.7,0.5-0.6c-1.7,0.9-3.3,1.9-5.2,3
							c-1.8,1.2-3.8,2.6-6.1,4.3l0.5-0.5c-1.9,1.2-4.9,3.3-6.8,4.8c-0.5,0.6-1.6,1.4-0.8,1c-0.8,0.5-1.6,1-2.3,1.6
							c-0.7,0.6-1.4,1.1-2.1,1.7c-1.4,1.2-2.7,2.3-3.8,3.6c-1.2,1.2-2.4,2.4-3.6,3.6c-1.2,1.2-2.3,2.4-3.6,3.5
							c0.5-0.6,1.2-1.4,0.8-1c-1.3,1.4-2.4,2.9-3.6,4.3c0.5-0.2,0.6-0.5,1.5-1.2c-0.4,0.6-1.3,1.9-2.2,2.9c1.5-2-0.3-0.2-1.1,0.5
							c0.2-0.1,0,0.2,0.1,0.2c-2.1,2.1,0.1,0.7-2.6,3.6l0-0.2c-0.9,1.2-1.5,2.5-2.5,3.7c-0.6,0.4,0.8-1.4,0.7-1.6
							c-1.3,1.9-2.2,3.9-3.5,5.5c0.5-0.9,1.2-2,1.7-2.8c-1.6,1.6-1.6,2-2.5,3.3l0.1-0.1c-0.7,1.1-1.5,2.1-2.2,3.2
							c0.2-0.3,0.4-0.5,0.6-0.8c-0.5,1.4-1.1,2.7-1.9,4c-0.4,0.7-0.8,1.4-1.2,2.1c-0.4,0.8-0.7,1.6-1.1,2.5c1.3-3.5,0.1-0.7-0.1-1.1
							c-0.5,0.8-1.3,2.1-1.2,1.7c-0.3,0.9-0.7,1.5-1.1,2.3c-0.4,0.8-0.8,1.6-1.2,2.9c-0.1,0.1-0.8,1.8-0.9,1.3
							c-0.9,2.2,0.4-0.4,0.4-0.2c-1.2,3.4-3.6,7.8-4.8,12.9c-0.6,2.2-0.8,3.5-1,4.8c-0.1,0.6-0.2,1.3-0.4,2
							c-0.1,0.7-0.3,1.6-0.4,2.6c-0.5,1.3-0.1-1.2-0.1-1.2c-0.6,2.2-1.1,3.8-1.3,6c0-0.4-0.2,0-0.4,0.6c-0.3,1.7,0.1,1.2-0.4,3.4
							c0-0.4-0.1-0.9-0.1-1.8c-0.1,1-0.2,2-0.4,3c-0.1,1-0.1,2-0.2,3.1c-0.2,0.5-0.1-1.3-0.1-2c-0.2,2.4-0.6,6.1-0.4,6.8l0.2-1.5
							c-0.1,0.9-0.3,0.4-0.3-0.2c0-2,0.5-2.9,0.6-3l-0.1,1.5c0.4-0.7,0.5-2.2,0.7-3.9c0.1-1.7,0.4-3.5,0.6-5l0.2,1.3l0.2-3.1
							c0.2-0.6,0.5-1,0.3,0.5c0.6-2.1,0.3-1.9,0.9-3.6c0.1-0.2,0.1-0.1,0.1,0.1l0.4-2.1c0,0.4,0.4-0.3,0,1c0.3-0.9,0.5-1.7,0.6-2.5
							c0.2-0.7,0.3-1.4,0.5-2c0.3-1.2,0.5-2.1,0.8-2.7l-0.1,0.3c0.3-1.3,0.5-1.9,0.6-2.3c0.1-0.3,0-0.4,0-0.4
							c-0.1,0-0.3,0.2,0.2-1.8l1.6-2.2l-0.1-0.6c0.2-0.5,0.6-1.5,0.7-1.3c0.5-1.9-0.2,0.3,0-0.9c0.6-1.2,1.2-2.8,1.8-4.3
							c0.6-1.4,1.2-2.6,1.5-2.7c0.2-0.9-1.2,2.2-0.2-0.4c0.4-0.3,0.7-1,1.1-1.9c0.4-0.9,0.9-2,1.5-3c-0.1,0.8-1.2,2.7,0.1,0.7
							c0.1-0.7,0.7-1.8,1.3-2.8c0.6-1,1.4-2.1,1.9-3c-0.1-0.1,0.4-1.1,1.1-2.4c0.8-1.3,1.8-2.9,2.7-4.3c-0.1,0.2,3.7-5.1,5.7-7.5
							l0,0.1c0-0.3,0.6-1.1,1.3-2.1c0.7-0.9,1.5-2,2.3-2.9c0.1,0.2-0.1,0.6-0.8,1.6c0.5-0.6,1-1.1,1.4-1.7c0.2-0.5,0.7-1,1.6-2.1
							l-0.2,0.6c0.5-0.6,0.9-1.1,1.4-1.7c0.5-0.6,1-1.1,1.5-1.7c0.5-0.6,1.1-1.2,1.7-1.8c0.3-0.3,0.6-0.6,0.9-0.9
							c0.3-0.3,0.7-0.6,1-0.9c0-0.3-2.7,1.6,0.1-1.3c0.2,0,0.5,0.1-0.2,0.8c0.2-0.2,0.8-0.9,1.3-1.4l-1,1.3c1.3-1.1,0.5-0.8,1.5-1.7
							c0.1,0.2,0.8-0.6,0.8-0.3c-0.2,0.3-0.9,0.8-1.2,1.2c1.1-1,2.6-2.2,3.2-2.5c-0.2,0-0.2-0.2,0.7-1c2.2-1.9,0.9-0.5,2.3-1.5
							c0.4-0.6,2-1.6,1.8-1.9c0.7-0.5,0.9-0.5,1.2-0.7c0.6-0.5,1.9-1.6,3-2.5c1.1-0.8,1.8-1.4,1.1-1.1l-0.3,0.2
							c0.1,0,0.1-0.1,0.2-0.2c0,0,0,0,0,0l0,0c1-0.8,2-1.5,3-2.3c1.1-0.7,2.2-1.4,3.3-2c2.2-1.4,4.5-2.5,6.6-3.8l0,0.1
							c1.2-0.8,2.7-1.5,4-2.3c1.4-0.7,2.6-1.4,3.5-1.9c0.8-0.4,1.9-0.7,1.7-0.4c2-1,2.2-1.3,5.3-2.3c-2,1,0.8-0.1-2.1,1
							c2.7-1,3.4-1.1,6.2-2.5c-0.9,0.6,2.2-0.4,3.5-0.9l-2,0.5c1.5-0.5,2.8-1,4.1-1.4l-0.6,0.6c1.4-0.4,2.8-0.7,4.1-1.1
							c1.3-0.4,2.5-0.9,3.7-1.2c2.4-0.7,4.6-1.4,7-1.4c1.5-0.5-3.2,0.4-1.9-0.1c2.7-0.4,5.6-0.5,6.4-0.6c3.7-0.3,3.4-1,7.3-1.2
							c-0.5-0.1-1-0.4,1.9-0.7c2.8-0.2,3.4,0.2,1.7,0.5c-0.7,0.1-1,0-0.9,0c-0.9,0.1-2,0.2-0.9,0.3l0.3-0.1c0.7,0,2-0.1,3-0.1
							c1,0,1.7,0,1.3,0.1c2.1-0.2,0.9-0.2-0.7-0.2c1.8,0,3.1,0,4.5,0c1.4-0.1,2.8,0,4.6,0.1c-0.6-0.1-1.1-0.2-0.5-0.2
							c2.7,0.1,3.2,0.1,3.6,0c0.4-0.1,0.5-0.2,2.3-0.1c2,0.3-0.8,0.4,2.9,0.5c2.2,0.3,0.4,0.3-0.4,0.4c0.8,0,1.6,0,2.4,0.1
							c0.8,0.1,1.5,0.2,2.1,0.3c1.3,0.2,2.5,0.5,3.4,0.6l-1.7-0.1c1,0.1,1.9,0.2,2.7,0.3c-0.3-0.1-0.6-0.3-0.9-0.4
							c1,0.2,1.8,0.4,1.8,0.4c1.1,0-0.7-0.5,1.4-0.4c1.3,0.4,4.1,0.6,4.5,1c-4.2-0.9,0.4,0.4-3.2-0.2c0.7,0.1,1.5,0.2,2.5,0.5
							c0.1,0.1-0.2,0-0.4,0c3.9,1.2,1.9,0.1,6,1c-0.6,0,0.9,0.5,1.5,0.7c-1.6-0.5-0.7-0.5,0.8-0.2c2.6,0.9,2.9,0.7,4.2,1.1l-1.5-0.5
							c0.3,0,0.8,0.1,1.4,0.2c0.6,0.2,1.4,0.4,2.3,0.7c0.1,0.2-1.7-0.5-1-0.2c2.1,0.4,4.4,1.8,7.2,2.7c1.2,0.6,0,0.4,1.1,0.9
							c3.2,1,3.2,1.6,6.4,2.8c-0.8-0.6-1-0.6,1.3,0.1l-5.2-2.2l3.5,1.2c-1.6-0.7-3.3-1.4-4.3-1.8c1.7,0.5,1.5,0.5,0.8,0
							c2,1.3,4.4,1.7,6.7,3.1l-0.3,0.5c1.7,1.1,3.4,1.8,5.2,2.6c0.9,0.5,1.8,0.9,2.8,1.4c1,0.5,2,1.1,3.1,1.9
							c-0.5-0.3-0.9-0.7-1.4-1c0.7,0.1,2.8,1.7,4.3,2.6c-0.2,0.1,0.6,0.7,1.2,1.2c0-0.2,3.1,2.3,3.8,2.2c0.6,0.5,1.2,1,1.8,1.6
							c3.3,2.7,4.2,2.5,7.3,5.3c-1.1-0.7,0.2,0.7-1.9-1c1,0.9,1.9,1.7,2.1,1.6c0.3,0.3,1,0.9,1.8,1.5c0.8,0.7,1.6,1.4,2,1.9
							c0.5,0.3,0.8,0.3,1.9,1.4c0.1,0.1-0.1,0.1-0.1,0.1c0.1-0.1,1.8,1.6,1,0.5c2.5,3.5,8.1,8.6,9.9,12c0.5,0.6,1,1.2,1.5,1.8
							c0.5,0.6,1,1.3,1.5,1.9c0.9,1.3,1.9,2.6,2.7,3.7c-0.1-0.1-0.1,0-0.3-0.4c1.9,3.3,1.7,1.6,3.8,5.4c0.4,1,0.1,0.6-0.3,0
							c-0.4-0.6-0.8-1.2-0.5-0.6c-0.1,0.4,0.5,1.5,1.4,2.9c0.8,1.3,1.9,2.9,2.3,4.3l-0.4-0.6c0.8,2.1,2.7,4.6,4.1,7.9
							c0,0-0.1-0.1-0.1,0c0.7,1,1.5,2.6,2.3,4.4c0.8,1.7,1.6,3.6,2.2,5.2c-0.6-0.9-0.6-1.4-0.7-0.7c0.5,1.5,0.2-0.6,1.3,2.3
							c0.2,1,0.8,3.1,0.6,3.5c-0.3-0.9-0.6-1.8-0.9-2.8c0.1,0.8,0.4,1.6,0.7,2.5c0.3,0.9,0.6,1.8,0.8,2.5l-0.2-0.1
							c1.3,4.3,1.6,4.3,2.7,8.9l0-0.5c0.9,2.5,0.2,2.2,1,4.7l-0.2,0.8c0.1,0.4,0.2,1,0.4,1.7c0.1,0.7,0.3,1.5,0.4,2.3
							c0.3,1.7,0.7,3.5,0.8,5.1c-0.2-0.9-0.5-2.2-0.8-3.6c-0.3-1.4-0.5-2.8-0.8-3.9c0.2,1.7,0.8,5.8,1.1,6.6
							c-0.1-0.7-0.3-1.5-0.4-2.2c0.6,2,0.9,4.8,1.2,8.2c-0.7-0.6,0.1,8.9-0.7,11.4c0,0.8,0,1.5,0,2.3c0,0.8-0.1,1.5-0.1,2.3
							c-0.1,1.5-0.2,3-0.4,4.6c-0.2,1.5-0.5,3.1-0.7,4.7c-0.2,1.6-0.6,3.3-0.9,5c1-2.3-0.3,2,0.3,1.7c-0.3,1.6-0.5,2.2-0.5,2.4
							l-1.5,4.8c-0.2,0.5-0.2,0.2-0.1-0.3c0.1-0.5,0.2-1.1,0.1-1.1c-0.9,3.5-0.6,1.4-1.4,3.6c0.3-0.4,0,1.3-0.7,3.2l1.1-2.7
							c-0.5,2.5-0.9,3.5-1.4,4.4c-0.5,1-0.9,2-1.6,4.4l0.3-1.6c-0.7,2.5-3.4,8.9-4.1,11.4c-0.3,0.4-0.7,0.9-0.2-0.2
							c-2.7,5.6-5.8,12.5-8.8,16.3l0.1-0.5c-0.6,1-0.8,1.9-1.8,3c0-0.1,0.1-0.5-0.2,0c-0.3,0.5-1.6,2.7-2.5,3.8l0.6-1.2
							c-0.9,1.2-1.7,2.3-2.5,3.2c-0.7,1-1.4,1.9-2,2.8c-1.3,1.8-2.5,3.5-4.2,5.4c-0.2-0.2-1.1,0.6-2.2,1.6c-1.1,1-2.3,2.3-3.3,3
							l0-0.1c-1.3,1.2-2.4,2.3-3.5,3.4c-1.1,1-2.2,2-3.3,3c-1,1-2.2,1.9-3.3,2.9c-1.1,1-2.3,2-3.6,2.9c-0.9,0.5-2,1.2-3.4,2.1
							c-1.3,0.9-2.9,1.8-4.4,2.8c-1.6,1-3.3,1.9-4.9,2.9c-1.6,1-3.3,1.7-4.7,2.4c0.9-0.4,0,0.4-1,0.9c-1.4,0.7-3.7,2.1-3.6,1.6
							l0.5-0.2c-1.2,0.1-4,1.6-6.3,2.4l-0.2,0.6c-1.6,0.4-3.3,1-5.1,1.6c-1.8,0.6-3.7,1.3-5.5,1.9c-1.8,0.5-3.6,1.1-5.1,1.5
							c-1.5,0.3-2.8,0.6-3.7,0.6c-1.5,0.5-3.4,0.8-4.8,1.2l0-0.3c-2.1,0.3-3.7,0.6-5.4,0.8c-0.9,0.1-1.7,0.2-2.7,0.3
							c-0.5,0.1-1,0.1-1.6,0.2c-0.6,0-1.2,0.1-1.8,0.2l1.1-0.3c-3,0.2-3.7,1.1-6.4,1.3l-0.8-0.4c-2.6,0.1-5.2,0.1-7.8-0.1
							c-1.3,0-2.6-0.1-3.9-0.1c-1.3-0.1-2.6-0.1-3.9-0.1c0.1-0.1,0.3-0.2,1.1-0.1c-2.5-0.1-9.4-1.3-8.6-0.6c0-0.3-5.3-0.9-8.1-1.3
							l0.5-0.2c-2.4-0.2-2.5-0.1-5.7-0.8c-0.8-0.2-0.6-0.4,0.4-0.1c-2.5-0.8-2-0.3-5.1-1.3l1.2,0.2c-2.6-0.8-2.4-0.6-3.9-0.9
							c-1.6-0.4-4.8-1.7-5.1-2.1c-0.4,0-1.8-0.3-3.3-1c-0.2-0.2,0.4,0,0.7,0.1c-1-0.5-1.9-0.8-2.8-1.1c-0.8-0.3-1.6-0.6-2.3-0.9
							c-1.4-0.6-2.6-1-4-1.8c0-0.1-0.2-0.2-0.4-0.4c3.2,1.6,5.9,2.7,5.6,2.6c0.1-0.2-2.5-1.5-0.3-0.8c-1.1-0.4-2.6-0.9-4.1-1.5
							c-1.5-0.6-3.1-1.3-4.3-2c-0.1-0.1-0.2-0.2-0.3-0.2l0.3,0.1c-0.6-0.3-1.1-0.6-1.6-0.8c-0.8-0.5-1.2-0.8-2-1.2
							c-0.2-0.4-2.8-1.7-4-2.5c0,0.3-1.6-0.8-0.2,0.4c-0.2-0.1,0.2,0.1,1.1,0.6c0.2,0.1,0.4,0.2,0.5,0.3c0,0-0.1,0-0.1,0
							c0.8,0.5,1.9,1.1,3.1,1.8c-1.1-0.4-2.2-0.9-3.5-1.9c-0.7-0.2-1.5-0.5-1.9-0.7c-0.7-0.7-1.9-1.6-2.9-2.4
							c-1-0.8-1.8-1.5-1.9-1.8c-0.9-0.6-1.9-1.3-2.9-2c-1-0.7-2-1.5-3-2.2c-1-0.7-1.9-1.4-2.7-2c-0.8-0.6-1.6-1.1-2.2-1.5
							c-1-0.8-1-1.1-1.3-1.4c0.6,0.4,1.2,1,1.6,1.2c-1-0.8-2.4-1.9-3.6-3c-1.2-1.1-2.2-2-2.6-2.1c-2.2-2.3,1.5,1-1.6-2l0.5,0.3
							c-1.4-1.7-2.7-3-4-4.4c-1.2-1.4-2.5-2.6-3.7-3.9c-1.2-1.3-2.4-2.7-3.7-4.2c-1.2-1.5-2.4-3.3-3.6-5.4c0.3,0.6,0.5,0.8,0.5,1
							c-0.4-0.6-0.8-1.1-1.1-1.7c-0.4-0.6-0.7-1.2-1.1-1.7c-0.7-1.2-1.5-2.3-2.2-3.5c-0.7-1.2-1.4-2.4-2.1-3.6
							c-0.3-0.6-0.7-1.2-1-1.8l-1-1.8c-2.7-4.9-4.8-10-6.5-15.1c-0.9-2.9-1.2-3.1-2-4.8l0.1-0.7c-0.4-1-0.8-2-1.2-2.9
							c-0.4-1.1-0.6-2.1-0.9-3.1c-0.2-1-0.3-2-0.5-3.1c-0.2-1-0.3-2.1-0.6-3.3c-0.2-1.2-0.4-2.4-0.8-3.8l-0.1,0.8
							c-0.1-1-0.5-2.6-0.7-3.9c-0.2-1.3-0.3-2.3-0.1-2.2c-0.1-0.2-0.3-0.6-0.3-1.4l0.1-0.1c-0.1-0.8-0.3-1.6-0.4-2.5l-0.3-2.5
							c-0.1-1.9,0.1-1.8,0.2-1.9c0.1,0,0.1-0.1,0.2-0.6c0-0.4,0-1.2,0-2.6c-0.1-2.1-0.6-6-0.7-5.2c0,0.9,0,2.2-0.2,2.2l-0.1-1.9
							c-0.5-0.3-1-1.9-1.2,2.9l0.4,3.3l-0.1,1.1c-0.1-0.9-0.1-1.9-0.1-2.8c-0.2,1.6,0.1,2.6,0.3,3.7c-0.1,0.3-0.1,0.7-0.1,1.4
							l0.7,3.2c-0.1,0.4-0.5-1.4-0.4,0.8c0.4,1.5,0.2-1.5,0.7,1c0,1.6-0.2,1.2,0.2,3c-0.1,0.3-0.2-0.1-0.4-0.8
							c0.2,0.8,0.3,1.9,0.5,2.9c0.2,1,0.4,1.9,0.6,2.3c0,0.8,0.3,2.2,0.5,3.4c0.2,1.2,0.4,2.1,0.2,2.1c0.2,0.5,1,2.8,1.4,4.3
							c-0.6-1.3-0.3,0.1,0.2,1.7c0.5,1.6,1,3.5,0.6,3.2c0.5,0.9,1.1,2.7,1.8,4.7c0.3,1,0.7,2,1.1,3c0.4,1,0.8,1.9,1.2,2.8
							c-0.1-0.2-0.3-0.5-0.4-0.8c0.7,1.9,0.8,2.6,1.2,3.8c0.5,0.1,1.9,3,2.8,4.5c0.7,2.5-1-1.2-1.1-0.3c0.1-0.1,0.6,0.9,1.1,1.7
							c0.5,0.9,1,1.7,0.9,1.2c0.7,1.8,0.7,1.5,0.8,2.6c0.6,0.1,0.9,1.6,2,2.8c1.2,2.5,0,0.9,1.6,3.5
							C674.2,870.7,672.7,868.4,672.7,868.4z M725.7,917.7L725.7,917.7c-0.6-0.3-1-0.5-1.4-0.7C724.6,917.2,725,917.3,725.7,917.7z
							 M731.2,920.4c-0.7-0.3-1.5-0.7-2.4-1.1c-0.1-0.2,0.1-0.2,0.7,0.1C729.1,919.3,730.4,919.9,731.2,920.4z M720.7,912.7
							c0.8,0.4,1.1,0.7,1.2,0.8c-0.4-0.2-0.9-0.5-1.5-0.8c0,0-0.1,0-0.1,0C720.4,912.6,720.5,912.6,720.7,912.7z"/>
						<path class="st8" d="M719,912.2c-0.1-0.1-0.2-0.1-0.3-0.2c0.2,0.1,0.3,0.2,0.5,0.3c0.1,0,0.2,0.1,0.3,0.1
							C719.3,912.3,719.1,912.2,719,912.2z"/>
						<path class="st8" d="M710.1,699.3l0.1-0.1c-0.1,0.1-0.2,0.1-0.2,0.1C710,699.3,710,699.3,710.1,699.3z"/>
						<polygon class="st8" points="814.1,929.3 814.1,929.2 813.6,929.4 						"/>
						<path class="st8" d="M685,721.6c-0.1,0-0.2,0.1-0.3,0.3C684.7,721.9,684.8,721.7,685,721.6z"/>
						<path class="st8" d="M676.4,733.3l-1.2,1.7C675.7,734.3,676.1,733.8,676.4,733.3z"/>
						<path class="st8" d="M670.6,742.9c0,0.1,0,0.2,0,0.3l0,0L670.6,742.9z"/>
						<path class="st8" d="M822.7,679.1c0.1,0,0.3,0.1,0.4,0.1C824.1,679.5,823.4,679.3,822.7,679.1z"/>
						<path class="st8" d="M770.1,675.1c0.6-0.1,1.1-0.2,1.7-0.3C770.8,674.8,770.1,674.9,770.1,675.1z"/>
						<path class="st8" d="M873.9,708.5C873.9,708.5,873.9,708.5,873.9,708.5c0.1,0.1,0.2,0.2,0.3,0.3L873.9,708.5z"/>
						<path class="st8" d="M774.2,674.5c-0.9,0-1.7,0.1-2.5,0.2C772.5,674.7,773.4,674.6,774.2,674.5z"/>
						<path class="st8" d="M656.4,789.2l-0.1,0.5c0,0,0,0,0,0.1L656.4,789.2z"/>
						<path class="st8" d="M656.4,789.8l0,0.6C656.4,790.2,656.4,789.9,656.4,789.8z"/>
						<path class="st8" d="M656.4,791.7l0-1.3C656.3,790.9,656.3,791.4,656.4,791.7z"/>
						<path class="st8" d="M659,774.6l-0.1-0.2C658.9,774.5,659,774.6,659,774.6z"/>
						<path class="st8" d="M660,770.2c-0.3,1-0.8,2.6-1.1,4.1l0,0.2C659,773.7,659.9,771.2,660,770.2z"/>
						<path class="st8" d="M667.3,752.8c-0.5,1.1-1,2.3-1.5,3.5c0.3-0.6,0.8-1.3,0.2,0.3C668,752.3,665.4,757.4,667.3,752.8z"/>
						<path class="st8" d="M672.4,742.4c-0.9,1.8,0.1,0.1,0.2,0.2C673.1,741.5,673.3,741.2,672.4,742.4z"/>
						<path class="st8" d="M732.9,686.4l-0.1,0.3C734.2,686,732.7,686.6,732.9,686.4z"/>
						<path class="st8" d="M747.5,679.5c-0.5,0.1-1,0.2-1.5,0.3l-0.6,0.5C746.1,680,746.8,679.7,747.5,679.5z"/>
						<polygon class="st8" points="757.1,678.8 756.5,679 759,678.4 						"/>
						<path class="st8" d="M883.3,722.2c0-0.2,0-0.4-0.1-0.6C882.5,720.9,882.1,720.9,883.3,722.2z"/>
						<path class="st8" d="M909.7,776.2c0,0.7,0.2,2.4,0.6,3.4C910.1,778.2,910,776.9,909.7,776.2z"/>
						<path class="st8" d="M829,922.3l1.1-0.5c-0.7,0.3-1.4,0.6-2.1,0.9C828.3,922.5,828.6,922.4,829,922.3z"/>
					</g>
				</g>
			</g>
		</g>
	</g>
	<g>
		<rect x="771.2" y="734.3" class="st5" width="27.5" height="137.4"/>
		<g>
			<g>
				<g>
					<g>
						<path class="st5" d="M798,871.7c0.1,0.2,0.3,0.1,0.2-0.4l-0.3-0.3L798,871.7z"/>
						<path class="st5" d="M798.6,868.5c-0.2-0.6-0.4-1.2-0.7-0.8c0.3,0.6,0.2,0.7,0.6,1.3c0,0.5-0.1,0.8-0.2,0.8
							c0.1,0.2-0.1,0.7,0.1,1c0.3-0.6,0.3-1.4,0.1-2.2C798.5,868.3,798.6,868.4,798.6,868.5z"/>
						<path class="st5" d="M799.1,821.7l0,0.3C799.1,821.9,799.1,821.8,799.1,821.7z"/>
						<path class="st5" d="M799.3,792.7c0,0.2,0,0.3,0.1,0.3C799.4,792.8,799.4,792.7,799.3,792.7z"/>
						<path class="st5" d="M799.7,787.8c0,0.1,0,0.2,0,0.3C799.7,788,799.7,787.8,799.7,787.8z"/>
						<path class="st5" d="M799.1,821.7l0.1-0.8C799.1,820.9,799.2,821.3,799.1,821.7z"/>
						<path class="st5" d="M797.8,862c0,0.2,0,0.3,0.1,0.4C797.9,862.3,797.9,862.2,797.8,862C797.9,862,797.8,862,797.8,862z"/>
						<path class="st5" d="M799.4,834.5l0,0.2c0,0.1,0.1,0.1,0.1,0.2L799.4,834.5z"/>
						<path class="st5" d="M799.5,844.3c0-0.2-0.3-0.3-0.4-0.4c0.1,0.1,0.2,0.3,0.2,0.5C799.3,844.4,799.4,844.4,799.5,844.3z"/>
						<path class="st5" d="M799,859.8l0,0.3C799,860,799,859.9,799,859.8z"/>
						<path class="st5" d="M799.5,827.5c0,0,0.1-0.1,0.1-0.1C799.5,827.4,799.5,827.4,799.5,827.5z"/>
						<path class="st5" d="M787.3,870.4C787.3,870.4,787.3,870.4,787.3,870.4C787.4,870.4,787.4,870.4,787.3,870.4z"/>
						<path class="st5" d="M798.7,871.8l-0.2,0c0,0.1,0,0.1,0,0.2L798.7,871.8z"/>
						<path class="st5" d="M800.1,778.7C800,778.7,800,778.8,800.1,778.7C800.1,779,800.1,778.9,800.1,778.7z"/>
						<path class="st5" d="M770,745.5c0.3-0.9,0.3,1.5,0.6,0.1C770.5,745.7,770.2,744.3,770,745.5z"/>
						<path class="st5" d="M797.9,861.8l0-0.4C797.9,861.6,797.9,861.7,797.9,861.8z"/>
						<path class="st5" d="M770.6,745.6L770.6,745.6l0-0.1C770.7,745.5,770.6,745.5,770.6,745.6z"/>
						<path class="st5" d="M799.9,757.9c0,0-0.1,0.1-0.1,0.2C799.8,758.1,799.8,758,799.9,757.9z"/>
						<path class="st5" d="M799.5,773.4l0-0.4C799.5,773.2,799.5,773.3,799.5,773.4z"/>
						<path class="st5" d="M799.5,749.8c0-0.2,0.1-0.3,0-0.6c0,0,0,0.1,0,0.1C799.5,749.4,799.5,749.6,799.5,749.8z"/>
						<path class="st5" d="M799.5,741.4c0,0,0,0.1-0.1,0.2c0,0.1,0,0.2,0,0.3L799.5,741.4z"/>
						<path class="st5" d="M772.4,862.3c-0.1,0.2-0.2,0.3-0.3,0.4C772.3,862.5,772.4,863.8,772.4,862.3z"/>
						<path class="st5" d="M798,862c-0.1,0-0.1-0.1-0.1-0.2c0,0.1,0,0.2,0,0.3C797.9,862.1,798,862.1,798,862z"/>
						<path class="st5" d="M797.3,749.5l0-1.3C797.3,748.5,797.3,749,797.3,749.5z"/>
						<path class="st5" d="M772.3,802l0,0.3C772.4,802.2,772.4,802.1,772.3,802z"/>
						<path class="st5" d="M797.3,744.2c0.1-0.2,0.2-0.5,0.2-0.8c0-0.1,0-0.1-0.1-0.2L797.3,744.2z"/>
						<path class="st5" d="M772.1,862.7L772.1,862.7L772.1,862.7z"/>
						<path class="st5" d="M772.8,870.1c0,0-0.4,0.1-0.6,0.2c0-0.1,0-0.1,0-0.2c0-0.1,0-0.2,0-0.3c0-0.1,0.1-0.2,0.1-0.2
							c0.1-0.1,0.2,0,0.3-0.2c-0.1-0.9-0.4-1.7-0.4-2.4c0.1-0.1,0.1-0.2,0.2,0c-0.3-1,0-3-0.4-4.1c0-0.1,0.1-0.1,0.1-0.2
							c-0.2,0.2-0.4,0.2-0.5,0.2c0-0.6-0.2-1.1,0-1.3c0,0.3,0.1,0.4,0.2,0.5l-0.1-0.6c0.3-0.5,0.1,0.8,0.4,0.8
							c-0.1-1.2-0.4-2.5-0.3-3.4c0.3-0.2,0.1,2.1,0.4,0.9l-0.1,1.4c0.5-1.1,0,0.8,0.5-0.1c0.1-1.8-0.2-2-0.1-3.8
							c-0.2-0.4-0.3,0.1-0.5-0.3c-0.3-2.6,0.9-2,0.4-3.9c-0.2-0.5-0.7-0.7-0.4-2l0.4,0.5c0-1.8-0.6-1-0.3-2.8
							c0.2,0.3,0.1,1.4,0.2,1.1c0.3-1.2-0.2-0.8-0.2-1.8l0.3-0.2c-0.1-1.9-0.3-3.9-0.4-6c0.1,0.1,0.2,0.5,0.3,0
							c-0.2-2.6,0-5.6,0.2-8.1l-0.3-1c0-0.2,0.1-0.4,0.2-0.2c0.1-1-0.2-0.1-0.3-0.5c0-0.6,0.2-0.7,0.3-0.4c-0.2-1.7-0.5-4.9-0.2-6.8
							l0.1,0.4c0.1-1.4-0.6-1.6-0.3-2.9l0.1,0.3c0.1-3.1-0.1-6.5,0.3-8.9c-0.4-0.4,0.2-3.1-0.4-3.3c0.3-1.8,0.4-1.3,0.6-3.7
							c0-0.7-0.4-1-0.4-1.8l0.3,0l-0.3-1.1l0.4-0.6l-0.1-0.8c0,0.3-0.1,0.7-0.2,0.6c-0.1-1.2,0.2-2.9,0.4-3l-0.3-2.8
							c0.1,0.1,0.2,0.5,0.2,0.9c-0.3-1.5,0.3-0.3,0-1.7c-0.1,0.2-0.2-0.1-0.2-0.1c0.2-0.7,0.2-2.3,0.1-3.4l0.2,0.2
							c0.1-2.1-0.1-4.4-0.1-6.8c-0.1,0.8-0.5,0.7-0.5,0l0.3-0.3c-0.2-0.4-0.1,0.7-0.4-0.2c0-0.9,0.4-0.6,0.5-0.1l-0.1-1.1
							c0.1-0.1,0.1,0.2,0.3,0.3c-0.2-0.4,0.3-1.9,0-2.5l0.1-0.1c0-2.4-0.1-3.4-0.1-5.4c-0.3,0-0.2-0.8-0.4-1.4
							c0.1-1.4,0.3-3,0.3-4.7c-0.1-1.2-0.2-0.4-0.4-0.9c0.3-0.1,0.2-1.8,0.4-0.9c0-2-0.1-2.6-0.3-5.2c-0.1,0.3-0.2,0.6-0.2,0.4
							c0-0.5,0.1-1.1,0.2-1l0,0.1c-0.4-2.9,0.7-6.7,0.2-9l0,0.1l-0.3-2.4c0-1.1,0.2,0.7,0.4-0.2c-0.4-2.6,0.1-4.1-0.2-6.2
							c0.8-1.7-0.1-5.9,0.4-8.1l-0.2,0.1c-0.2-0.6,0.1-0.7,0.1-1.1c-0.1,0.1-0.2,0.6-0.3,0.3c0-0.5,0-0.9-0.1-1.4c0.6,0,1.3,0,2,0.1
							c1,0,2.1,0.1,3.1,0.1c2.1,0.1,4.2,0.2,6.3,0.3c1.8,0,1-0.9,3.3-0.5l-0.7,0.3c1.8-0.2,3.7-0.2,5.6-0.2c0.9,0,1.9,0,2.8,0
							c0.5,0,0.9,0,1.4,0l0.7,0l0.2,0l0.1,0l0.1,0c-0.1,0.1,0,0.2-0.2,0.2c0.2,0.1,0.1,0.1,0.3,0.1c0.1,0,0.2,0.1,0.3,0.1
							c0,0.2-0.2,0.1-0.3,0.2c-0.1,0.8,0.3,1.9,0.1,2.3c0,0.1-0.1-0.2-0.1-0.4c0.1,0.5,0,2.3,0.2,1.8c-0.1,1.4,0.1,2.6,0,3.7
							c0.3,0.7-0.1,2.3,0.3,2.5c-0.5-0.1-0.4,2.4-0.2,3.2c-0.1-0.3-0.1,0.7-0.3,0.4c0,1,0.1,1.9,0.3,1.7c-0.5,1.8,0.4,3.6-0.3,4.6
							c0.2,2.9,0.4,5.6,0.5,8.2c-0.5-0.1,0-2.9-0.5-2.8c0.2,2.5,0.6,3.9,0.5,6.4c-0.1,0.6-0.2-0.4-0.3-0.6c0.2,2.5,0,4.8,0.2,7
							c0,0-0.1-0.2-0.1-0.5c0,0.4-0.1,1,0.1,1l-0.1-0.4c0.3-0.7,0.6,1.7,0.8,1.8c-0.6-0.7-0.1,2.2-0.9,1c0,0.3,0.1,0.6,0.3,0.6
							c0,0.4-0.1,0.6-0.3,0.1c0.1,1.6,0.3,1,0.3,2.4c-0.1,0-0.1-0.3-0.3-0.4c0.2,0.7,0.4,1.4,0.3,2.6c-0.1-0.1-0.1,0.1-0.1-0.3
							c0,2,0.5,3.5,0.3,5.7c-0.4-0.7-0.1,0.8-0.5,0.9l0.1,1.2l0.2-0.5c0,1.1,0.3,2,0.1,2.9l-0.2-0.8l0.1,2l0.1-1.1
							c0.2,1.1,0.5-0.1,0.4,1.3c0-0.3,0,1.1-0.2,1.6l0,0c0.1,0.5,0.2,1.1,0.2,1.8c-0.1,0.2-0.4-0.2-0.5,0c0.3,0.5,0.1,2.5,0.4,3.1
							c-0.1-0.2-0.3-0.2-0.3-0.2l0.3,0.4c-0.1,0.5-0.1,0.6-0.3,0.5c0,1.5,0.5-0.5,0.3,1.3c0-0.1-0.1-0.1-0.1-0.4
							c-0.1,1.8,0.2,3.4,0,5c-0.4,0.5-0.1-1.4-0.4-0.9c0.1,2.3,0.5,4.8,0.4,7.1l0-0.4c0.5,0.3-0.3,1.7,0,2.8c0-0.3-0.3-0.4-0.2-0.3
							c-0.1,1.5,0.1,3.2,0.3,5.5l-0.1-0.3c-0.1,0.9-0.1,2.4-0.1,3.4c0.1,0.3,0.1,0.9,0.3,0.5c-0.8,3,0.4,5.8-0.2,8.5
							c0-0.3-0.1-0.8-0.1-0.5l0.1,2.3c0.2-0.2,0.1-0.3,0.3-0.8c0.1,0.3,0.2,0.9,0.2,1.5c-0.2-1-0.4,0-0.5,0.5c0.1-0.1,0.1,0.1,0.2,0
							c-0.4,1.2,0.5,0.2,0.2,1.8l-0.1-0.1c0.1,0.6,0.2,1.2,0.2,1.8c-0.3,0.3-0.1-0.7-0.3-0.7c0,0.9,0.5,1.8,0.2,2.7
							c-0.1-0.4-0.1-1-0.1-1.4c-0.3,0.9-0.2,1-0.3,1.7l0-0.1l-0.1,1.6l0.1-0.4c0.7,1.2,0.1,2.4,0.6,3.9c-0.4-1.5-0.3-0.3-0.6-0.4
							c-0.1,0.4-0.2,1-0.3,0.8c0.2,0.7-0.2,1.2,0.2,2.3c-0.1,0,0,0.8-0.3,0.6c0.1,1,0.2-0.2,0.3-0.1c0.3,1.5-0.4,3.5,0.1,5.6
							c0.2,1.8,0.5,2.2,0.7,3.9c-0.2,0.6-0.4-0.5-0.4-0.5c-0.1,0.9-0.1,1.6,0,2.5c-0.1-0.2-0.2,0-0.3,0.3c0,0.7,0.4,0.5,0.2,1.4
							c-0.1-0.2-0.3-0.4-0.4-0.7c0.1,0.8,0.3,1.6,0.4,2.5c-0.2,0.2-0.3-0.5-0.4-0.8c0.1,1,0.2,2.5,0.4,2.8l0.1-0.6
							c0,0.4-0.2,0.2-0.3-0.1c-0.2-0.8,0.1-1.2,0.2-1.2l0.1,0.6c0.6-0.6-0.1-2.4-0.1-3.7l0.4,0.5l-0.3-1.3c0.1-0.3,0.3-0.5,0.4,0.2
							c0.2-0.9-0.1-0.8,0.1-1.5c0-0.1,0.1,0,0.1,0l-0.1-0.9c0.1,0.2,0.3-0.1,0.2,0.4c0.2-1.5-0.3-2.5,0-3.1l0,0.1
							c-0.1-2.1-0.3-0.2-0.7-1.8l0.8-1.1l-0.3-0.2c0-0.2,0-0.7,0.2-0.6c-0.2-0.8-0.1,0.1-0.3-0.3c0.3-1.1-0.1-2.9,0.4-3.2
							c-0.2-0.4-0.2,1-0.3-0.1c0.5-0.3-0.1-1.3,0.2-2.3c0.3,0.3,0.1,1.2,0.4,0.2c-0.5-0.6,0.1-1.9,0-2.7c-0.4,0-0.2-1.8-0.3-3.2
							c0.1,0.1,0.2-2.6,0.3-3.9l0.1,0c-0.4-0.2-0.3-1.6-0.4-2.5c0.2,0,0.3,0.2,0.4,0.7l0-0.9c-0.1-0.2-0.2-0.5-0.2-1.1l0.3,0.2
							c0-1.2-0.3-2.4-0.1-4c-0.3-0.1-0.7,1.2-0.9-0.4c0.1-0.1,0.4-0.1,0.4,0.3c0-0.1-0.1-0.5-0.1-0.8l0.2,0.7
							c0.1-0.7-0.2-0.4-0.2-0.9c0.2,0,0.1-0.4,0.3-0.3c0,0.1-0.1,0.5,0,0.7c0-0.6,0.2-1.4,0.3-1.7c-0.1,0.1-0.3,0-0.3-0.5
							c0-1.2,0.2-0.4,0.3-1.1c-0.1-0.3,0-1.1-0.3-1.1c0-0.4,0.1-0.4,0.2-0.6c-0.1-0.6,0-2.9-0.4-2.2l0,0.2c0,0,0-0.1,0-0.1
							c0,0,0,0,0,0v0c-0.3-2,0.2-4.2,0-6.2l0.1,0c-0.1-1.2-0.1-2.7-0.3-3.5c0-0.4,0.2-0.8,0.3-0.7c-0.1-0.9-0.2-1,0-2.4
							c0.2,0.9,0.2-0.3,0.1,0.9c0.1-1.2,0.2-1.5,0-2.8c0.3,0.4,0.3-0.9,0.2-1.5l-0.2,0.8c0-0.6,0-1.2,0-1.8l0.3,0.3
							c0.4-2.5-0.7-4.4,0-6.3c-0.2-0.6-0.2,1.3-0.4,0.8c0-1.1,0.5-2.3,0.5-2.7c0.2-1.5-0.5-1.4-0.4-3.1c-0.1,0.2-0.4,0.4-0.5-0.8
							c0-1.1,0.5-1.4,0.6-0.7c0,0.3,0,0.4-0.1,0.4c0,0.4,0.1,0.8,0.2,0.4l-0.1-0.1c0.1-0.6,0.1-2.1,0.3-1.7
							c-0.1-0.9-0.2-0.4-0.3,0.3c0.2-1.4,0-2.3,0.1-3.7c-0.1,0.2-0.2,0.5-0.2,0.2c0.1-2.2-0.2-1-0.3-2.4c0.2-0.8,0.4,0.3,0.3-1.2
							c0.1-0.9,0.3-0.2,0.4,0.2c-0.2-1.4,0.2-2.5,0.2-3.3l0.1,0.7c-0.1-0.4-0.1-0.8-0.1-1.1l-0.2,0.4c0-0.4,0-0.8,0.1-0.8
							c-0.2-0.4-0.4,0.3-0.6-0.5c0.1-0.6-0.1-1.7,0.2-1.9c-0.1,1.8,0.3-0.2,0.4,1.3c0-0.3,0-0.6,0-1.1c0-0.1,0.1,0.1,0.1,0.2
							c0.3-1.7-0.4-0.8-0.3-2.5c0.2,0.2,0.3-0.4,0.3-0.7c0,0.7-0.3,0.3-0.4-0.3c0.1-1.1-0.1-1.2-0.1-1.8l-0.1,0.7
							c-0.2-0.2-0.2-0.8-0.2-1.6c0.1-0.1,0.1,0.7,0.2,0.4c-0.3-0.9,0.3-2,0.1-3.2c0.1-0.6,0.3-0.1,0.4-0.5c-0.2-1.4,0.2-1.5,0.1-2.9
							c-0.2,0.4-0.2,0.5-0.4-0.5l0.2,2.3l-0.3-1.5c0,0.7,0.1,1.5,0.1,1.9c-0.2-0.7-0.1-0.6-0.3-0.3c0.4-1-0.2-1.9,0-3l0.6,0
							c0.3-1.7-0.3-3-0.2-5.2l-0.1,0.7c-0.2-0.3,0-1.3-0.1-2.1c0.2,0.1,0.3-0.4,0.4-0.7c-0.1,0,0-1.6-0.4-1.8l0.3-1
							c0.1-1.8-0.6-2-0.5-3.7c0.2,0.5,0.4-0.3,0.5,0.9c0-0.6,0-1.1-0.1-1.1c0.1-0.3-0.3-1.6-0.1-2.1c-0.1-0.2-0.3-0.3-0.3-1
							c0-0.1,0.1,0,0.1,0c-0.1,0-0.1-1-0.4-0.4c0.6-1.7,0-4.9,0.5-6.4c-0.1-1.2-0.1-2.7-0.1-3.8c0.1,0.1,0.1,0,0.1,0.2
							c0.1-0.8,0-1-0.2-1.3c-0.1-0.3-0.3-0.5-0.2-1.6c0.3-1.3,0.2,1.2,0.3,0.4c0.3-0.2,0.3-1.1,0.2-2.1c-0.5,0-1.1,0.1-1.6,0.1
							c-0.3,0-0.5,0-0.7,0c-0.3,0-0.3,0-0.5-0.1l0.3,0c-0.9-0.2-2.2,0.2-3.7,0.2c0,0,0.1-0.1,0-0.1c-1,0.3-2.9,0.4-4.3,0.5
							c0.4-0.3,0.6-0.1,0.4-0.4c-0.6,0,0.2,0.4-1.1,0.5c-0.4-0.1-1.3-0.3-1.5-0.5l1.2,0c-0.6-0.4-1.6,0-2.2,0l0.1-0.2
							c-1.8,0.1-1.9,0.4-3.8,0.4l0.2,0.1c-1.1,0.4-0.9-0.2-2,0.1l-0.3-0.4c-0.7,0.1-2.5,0.4-3.8,0.5c0.7-0.3,2.2-0.4,3.1-0.6
							c-0.7,0-2.4,0-2.8,0.2c0.3,0,0.6-0.1,0.9-0.1c-0.9,0.3-2,0.5-3.4,0.5c0.1-0.3-0.3-0.4-0.8-0.4c-0.1,0-0.3,0-0.5,0
							c-0.2,0-0.5,0-0.7,0c-0.5,0-1.1,0-1.6,0c0,0.5,0,1.1-0.1,1.5c0,0.4-0.1,1-0.2,1.1c0.3,2.5-0.1,4.9-0.1,7.8
							c0.6-1,0,0.8,0.6,0.7c0,0.7,0,0.9,0,1l-0.4,2c-0.2,0.5-0.1-0.6-0.3-0.6c0,1.5-0.3,0.6-0.4,1.6c0.2-0.2,0.3,0.5,0.2,1.4
							l0.3-1.2c0.3,2.1-0.5,1.8-0.2,3.9l-0.2-0.7c0.1,1.1,0,3.9,0.5,5c-0.1,0.2-0.2,0.4-0.3,0c-0.1,2.6,0.5,5.7,0.2,7.7l-0.1-0.2
							c0,0.5,0.3,0.8,0.1,1.4c-0.1,0-0.1-0.2-0.2,0c0.1,0.3,0.3,1.3,0.2,1.9l-0.2-0.5c-0.2,2.5,0.4,3.8,0.5,5.9
							c-0.4,0-0.6,2-0.7,2.9l-0.1,0c-0.1,2.9,0.4,4.9,0.5,7.6c-0.5,1.7-0.2,5.6-0.5,8.3c0.1-0.4,0.3,0.1,0.4,0.5
							c-0.1,0.6,0.3,1.7-0.1,1.6l0-0.2c-0.4,0.5-0.3,1.8-0.3,2.8l0.5,0.2c-0.8,2.6,0.3,6.9-0.4,8.4c0.1,0.6,0.1,1.4,0.3,2.1l-0.3,0
							c-0.1,1.8-0.1,2.6,0,4.8l-0.2-0.4c0,1.2,0.8,1.6,0.8,2.7l-0.4,0.3c0,2.1-0.4,4.3,0,6.4c-0.1,0-0.2-0.1-0.2-0.4
							c0,1-0.3,3.9,0.3,3.5c-0.4,0,0,2.2,0.1,3.4l-0.3-0.2c0.4,1,0.5,1,0.6,2.4c0,0.3-0.2,0.3-0.2-0.1c-0.1,1.1,0.3,0.8,0.1,2.1
							l-0.2-0.5c0,1.1,0.1,1,0.3,1.6c0.1,0.7-0.1,2.1-0.3,2.3c0.2,0.1,0.4,0.8,0.3,1.4c-0.1,0.1-0.2-0.1-0.2-0.3
							c-0.2,1.9,0.3,2.8,0.1,4c-0.1,0-0.1,0.1-0.2,0.2c0-1.5,0-2.7,0-2.6c-0.3,0-0.3,1.2-0.7,0.2c0.2,1,0.6,2.6,0.5,3.8
							c0,0.1,0,0.1-0.1,0.2l0-0.1c0,0.3,0,0.5,0,0.7c0,0.4-0.1,0.6-0.1,1c-0.2,0.1-0.1,1.4-0.1,2c0.3,0,0.2,0.7,0.5,0
							c0,0.1,0-0.1,0-0.5c0-0.1,0-0.2,0-0.3l0,0c0-0.4,0-0.9,0-1.5c0.1,0.5,0.3,1,0.1,1.6c0.2,0.3,0.4,0.6,0.5,0.8
							c-0.4,0.8-0.6,2.4-0.8,2.6c0.2,1.8,0.1,4.3,0.6,5.4c0.1,0.5-0.2,0.6-0.2,0.8c-0.1-0.3,0-0.7-0.1-0.8c0.1,1,0.1,3.1,0.4,3.3
							c-0.2,1.3-0.3-0.7-0.3,1.1l-0.1-0.2c-0.6,3.5,0.9,5.7,0.2,9.6c0-0.3,0.1-0.4,0.1-0.5c-0.1,0.7-0.1,1.5-0.1,2.2l0,1.3l0,1.5
							c1.7,0,3.5-0.1,5.2-0.1c1.5,0,3,0,4.5,0.2c1.2,0.1,1.4-0.1,2.1-0.3l0.3,0.3l1.3-0.3c1.8-0.3,3.2,0.7,5.5,0.3l-0.3-0.2
							c0.8,0,2.7-0.1,2.5,0.1c0.1,0,0.3-0.2,0.6-0.1l0,0.2l2.1-0.3c1.6,0.1-0.2,0.6,2.1,0.7c0.9-0.1,2.5-0.5,2.1-0.6
							c-0.3,0-0.9-0.1-0.9-0.3l0.8-0.1c0.1-0.5,0.8-0.9-1.2-1.3l-1.4,0.3l-0.4-0.2l1.1,0c-0.6-0.2-1.1,0-1.5,0.1
							c-0.1-0.1-0.3-0.2-0.6-0.2l-1.3,0.4c-0.2-0.2,0.6-0.4-0.3-0.5c-0.6,0.2,0.6,0.4-0.4,0.5c-0.6-0.2-0.5-0.4-1.2-0.2
							c-0.1-0.1,0.1-0.2,0.4-0.2c-0.7,0.1-1.8,0.1-2.1,0.3c-0.7-0.3-2.3,0.1-2.2-0.4c-0.2,0.1-1.2,0.3-1.8,0.4c1.1-0.5-2.3,0-2-0.6
							c-0.8,0.5-3,0.2-4.5,0.5c0.1,0,0.2-0.1,0.4-0.1c-0.8,0-1.1-0.2-1.6-0.3c-0.1,0.4-1.4,0.5-2.1,0.7c-1-0.4,0.6-0.5,0.3-0.8
							c0.1,0.3-1.8,0.3-1.4,0.6c-0.8-0.2-0.7-0.1-1.1-0.4c-0.1,0.2-0.3,0.3-0.5,0.3c-0.2,0-0.2,0-0.4,0.1c-0.2-0.1,0-0.3,0-0.3
							c0-0.1,0-0.1,0-0.1c0.1-0.1,0.2-0.1,0.2-0.1C772.8,870.1,772.8,870.1,772.8,870.1z M771.9,841.8L771.9,841.8
							c0,0.3,0,0.5,0,0.6C772,842.3,772,842.1,771.9,841.8z M771.9,839.3c0,0.3,0,0.7,0,1.1c-0.1,0.1-0.2,0-0.2-0.3
							C771.8,840.2,771.9,839.6,771.9,839.3z M770,844.5c0-0.4,0-0.5,0.1-0.6c0,0.2,0,0.4,0,0.7c0,0,0,0,0,0
							C770.1,844.7,770,844.6,770,844.5z"/>
						<path class="st5" d="M770.4,845.3c0,0.1,0,0.1,0,0.2C770.4,845.3,770.4,845.3,770.4,845.3c0.1-0.1,0-0.2,0-0.2
							C770.4,845.1,770.4,845.2,770.4,845.3z"/>
						<path class="st5" d="M799.1,822.1L799.1,822.1C799.1,822.1,799.1,822.1,799.1,822.1C799.1,822.1,799.1,822.1,799.1,822.1z"/>
						<polygon class="st5" points="772.5,804.8 772.4,804.8 772.5,805 						"/>
						<path class="st5" d="M798.1,835.8c0,0-0.1,0.1-0.1,0.2C798.1,836,798.1,835.9,798.1,835.8z"/>
						<path class="st5" d="M798.1,841.7l-0.1,0.8C798,842.2,798.1,842,798.1,841.7z"/>
						<path class="st5" d="M797.9,846.3c0,0.1,0.1,0.1,0.1,0.1l0,0L797.9,846.3z"/>
						<path class="st5" d="M797.6,773.7c0-0.1,0-0.1,0-0.2C797.5,773.1,797.6,773.4,797.6,773.7z"/>
						<path class="st5" d="M798.3,795.3c-0.1-0.2-0.1-0.5-0.1-0.7C798.1,795,798.1,795.3,798.3,795.3z"/>
						<path class="st5" d="M797.3,749.6L797.3,749.6c0,0,0-0.1,0-0.1L797.3,749.6z"/>
						<path class="st5" d="M798.1,793.6c-0.1,0.4,0,0.7,0,1C798.1,794.3,798.2,793.9,798.1,793.6z"/>
						<path class="st5" d="M797.8,866.1l0,0.2c0,0,0,0,0,0L797.8,866.1z"/>
						<path class="st5" d="M797.8,866.3l0,0.2C797.9,866.5,797.9,866.4,797.8,866.3z"/>
						<path class="st5" d="M797.9,867.1l-0.1-0.5C797.9,866.8,797.9,867,797.9,867.1z"/>
						<path class="st5" d="M797.9,860.1l-0.1-0.1C797.9,860,797.9,860,797.9,860.1z"/>
						<path class="st5" d="M797.9,858.2c0,0.4-0.2,1.1-0.2,1.7l0.1,0.1C797.7,859.7,798.1,858.6,797.9,858.2z"/>
						<path class="st5" d="M799.2,850.5l-0.1,1.5c0.1-0.3,0.3-0.6,0.3,0.1C799.7,850.2,799.1,852.6,799.2,850.5z"/>
						<path class="st5" d="M799.3,845.8c0.1,0.8,0.2,0,0.2,0C799.4,845.3,799.4,845.2,799.3,845.8z"/>
						<path class="st5" d="M799.3,811.3l0.3,0.1C799.5,810.7,799.5,811.4,799.3,811.3z"/>
						<polygon class="st5" points="798,804.7 797.8,805.3 798.1,805.6 						"/>
						<polygon class="st5" points="799.8,800.8 799.9,801.1 799.8,800 						"/>
						<path class="st5" d="M799.7,742.9l-0.3,0.2C799.5,743.5,799.8,743.6,799.7,742.9z"/>
						<path class="st5" d="M782.3,733.5c-0.3-0.2-1-0.3-1.4-0.1C781.4,733.5,782,733.6,782.3,733.5z"/>
						<polygon class="st5" points="770,798.2 769.9,797.7 769.9,798.6 						"/>
					</g>
				</g>
			</g>
		</g>
	</g>
	<g>
		<rect x="716.2" y="789.2" class="st5" width="137.4" height="27.5"/>
		<g>
			<g>
				<g>
					<g>
						<path class="st5" d="M853.6,789.9c0.2-0.1,0.1-0.3-0.4-0.2l-0.3,0.3L853.6,789.9z"/>
						<path class="st5" d="M850.4,789.3c-0.6,0.2-1.2,0.4-0.8,0.7c0.6-0.3,0.7-0.2,1.3-0.6c0.5,0,0.8,0.1,0.8,0.2
							c0.2-0.1,0.7,0.1,1-0.1c-0.6-0.3-1.4-0.3-2.2-0.1C850.2,789.4,850.4,789.4,850.4,789.3z"/>
						<path class="st5" d="M803.7,788.8l0.3,0C803.9,788.8,803.8,788.8,803.7,788.8z"/>
						<path class="st5" d="M774.7,788.6c0.2,0,0.3,0,0.3-0.1C774.8,788.6,774.6,788.6,774.7,788.6z"/>
						<path class="st5" d="M769.7,788.2c0.1,0,0.2,0,0.3,0C769.9,788.2,769.8,788.2,769.7,788.2z"/>
						<path class="st5" d="M803.7,788.8l-0.8-0.1C802.8,788.8,803.3,788.8,803.7,788.8z"/>
						<path class="st5" d="M844,790.1c0.2,0,0.3,0,0.4-0.1C844.3,790,844.1,790,844,790.1C844,790.1,844,790.1,844,790.1z"/>
						<path class="st5" d="M816.4,788.5l0.2,0c0.1,0,0.1-0.1,0.2-0.1L816.4,788.5z"/>
						<path class="st5" d="M826.2,788.5c-0.2,0-0.3,0.3-0.4,0.4c0.1-0.1,0.3-0.2,0.5-0.2C826.3,788.6,826.3,788.5,826.2,788.5z"/>
						<path class="st5" d="M841.8,789l0.3,0C842,788.9,841.9,788.9,841.8,789z"/>
						<path class="st5" d="M809.4,788.5c0,0-0.1-0.1-0.1-0.1C809.3,788.4,809.4,788.4,809.4,788.5z"/>
						<path class="st5" d="M852.3,800.6C852.3,800.6,852.4,800.6,852.3,800.6C852.3,800.6,852.3,800.5,852.3,800.6z"/>
						<path class="st5" d="M853.7,789.2l0,0.2c0.1,0,0.1,0,0.2,0L853.7,789.2z"/>
						<path class="st5" d="M760.7,787.9C760.7,787.9,760.7,787.9,760.7,787.9C761,787.8,760.8,787.9,760.7,787.9z"/>
						<path class="st5" d="M727.4,817.9c-0.9-0.3,1.5-0.3,0.1-0.6C727.7,817.4,726.3,817.7,727.4,817.9z"/>
						<path class="st5" d="M843.7,790.1l-0.4,0C843.5,790.1,843.6,790.1,843.7,790.1z"/>
						<path class="st5" d="M727.5,817.3L727.5,817.3l-0.1,0C727.5,817.3,727.5,817.3,727.5,817.3z"/>
						<path class="st5" d="M739.8,788c0,0,0.1,0.1,0.2,0.1C740,788.1,740,788.1,739.8,788z"/>
						<path class="st5" d="M755.4,788.4l-0.4,0C755.1,788.4,755.3,788.4,755.4,788.4z"/>
						<path class="st5" d="M731.7,788.4c-0.2,0-0.3-0.1-0.6,0c0,0,0.1,0,0.1,0C731.4,788.4,731.5,788.4,731.7,788.4z"/>
						<path class="st5" d="M723.3,788.4c0,0,0.1,0,0.2,0.1c0.1,0,0.2,0,0.3,0L723.3,788.4z"/>
						<path class="st5" d="M844.2,815.5c0.2,0.1,0.3,0.2,0.4,0.3C844.5,815.6,845.7,815.5,844.2,815.5z"/>
						<path class="st5" d="M844,789.9c0,0.1-0.1,0.1-0.2,0.1c0.1,0,0.2,0,0.3,0C844,790,844,790,844,789.9z"/>
						<path class="st5" d="M731.4,790.7l-1.3,0C730.4,790.6,730.9,790.7,731.4,790.7z"/>
						<path class="st5" d="M784,815.6l0.3,0C784.2,815.5,784.1,815.6,784,815.6z"/>
						<path class="st5" d="M726.1,790.7c-0.2-0.1-0.5-0.2-0.8-0.2c-0.1,0-0.1,0-0.2,0.1L726.1,790.7z"/>
						<path class="st5" d="M844.6,815.8L844.6,815.8L844.6,815.8z"/>
						<path class="st5" d="M852,815.1c0,0,0.1,0.4,0.2,0.6c-0.1,0-0.1,0-0.2,0c-0.1,0-0.2,0-0.3,0c-0.1,0-0.2-0.1-0.2-0.1
							c-0.1-0.1,0-0.2-0.2-0.3c-0.9,0.1-1.7,0.4-2.4,0.4c-0.1-0.1-0.2-0.1,0-0.2c-1,0.3-3,0-4.1,0.4c-0.1,0-0.1-0.1-0.2-0.1
							c0.2,0.2,0.2,0.4,0.2,0.5c-0.6,0-1.1,0.2-1.3,0c0.3,0,0.4-0.1,0.5-0.2l-0.6,0.1c-0.5-0.3,0.8-0.1,0.8-0.4
							c-1.2,0.1-2.5,0.4-3.4,0.3c-0.2-0.3,2.1-0.1,0.9-0.4l1.4,0.1c-1.1-0.5,0.8,0-0.1-0.5c-1.8-0.1-2,0.2-3.8,0.1
							c-0.4,0.2,0.1,0.3-0.3,0.5c-2.6,0.3-2-0.9-3.9-0.4c-0.5,0.2-0.7,0.7-2,0.4l0.5-0.4c-1.8,0-1,0.6-2.8,0.3
							c0.3-0.2,1.4-0.1,1.1-0.2c-1.2-0.3-0.8,0.2-1.8,0.2l-0.2-0.3c-1.9,0.1-3.9,0.3-6,0.4c0.1-0.1,0.5-0.2,0-0.3
							c-2.6,0.2-5.6,0-8.1-0.2l-1,0.3c-0.2,0-0.4-0.1-0.2-0.2c-1-0.1-0.1,0.2-0.5,0.3c-0.6,0-0.7-0.2-0.4-0.3
							c-1.7,0.2-4.9,0.5-6.8,0.2l0.4-0.1c-1.4-0.1-1.6,0.6-2.9,0.3l0.3-0.1c-3.1-0.1-6.5,0.1-8.9-0.3c-0.4,0.4-3.1-0.2-3.3,0.4
							c-1.8-0.3-1.3-0.4-3.7-0.6c-0.7,0-1,0.4-1.8,0.4l0-0.3l-1.1,0.3l-0.6-0.4l-0.8,0.1c0.3,0,0.7,0.1,0.6,0.2
							c-1.2,0.1-2.9-0.2-3-0.4l-2.8,0.3c0.1-0.1,0.5-0.2,0.9-0.2c-1.5,0.3-0.3-0.3-1.7,0c0.2,0.1-0.1,0.2-0.1,0.2
							c-0.7-0.2-2.3-0.2-3.4-0.1l0.2-0.2c-2.1-0.1-4.4,0.1-6.8,0.1c0.8,0.1,0.7,0.5,0,0.5l-0.3-0.3c-0.4,0.2,0.7,0.1-0.2,0.4
							c-0.9,0-0.6-0.4-0.1-0.5l-1.1,0.1c-0.1-0.1,0.2-0.1,0.3-0.3c-0.4,0.2-1.9-0.3-2.5,0l-0.1-0.1c-2.4,0-3.4,0.1-5.4,0.1
							c0,0.3-0.8,0.2-1.4,0.4c-1.4-0.1-3-0.3-4.7-0.3c-1.2,0.1-0.4,0.2-0.9,0.4c-0.1-0.3-1.8-0.2-0.9-0.4c-2,0-2.6,0.1-5.2,0.3
							c0.3,0.1,0.6,0.2,0.4,0.2c-0.5,0-1.1-0.1-1-0.2l0.1,0c-2.9,0.4-6.7-0.7-9-0.2l0.1,0l-2.4,0.3c-1.1,0,0.7-0.2-0.2-0.4
							c-2.6,0.4-4.1-0.1-6.2,0.2c-1.7-0.8-5.9,0.1-8.1-0.4l0.1,0.2c-0.6,0.2-0.7-0.1-1.1-0.1c0.1,0.1,0.6,0.2,0.3,0.3
							c-0.5,0-0.9,0-1.4,0.1c0-0.6,0-1.3,0.1-2c0-1,0.1-2.1,0.1-3.1c0.1-2.1,0.2-4.2,0.3-6.3c0-1.8-0.9-1-0.5-3.3l0.3,0.7
							c-0.2-1.8-0.2-3.7-0.2-5.6c0-0.9,0-1.9,0-2.8c0-0.5,0-0.9,0-1.4l0-0.7l0-0.2l0-0.1l0-0.1c0.1,0.1,0.2,0,0.2,0.2
							c0.1-0.2,0.1-0.1,0.1-0.3c0-0.1,0.1-0.2,0.1-0.3c0.2,0,0.1,0.2,0.2,0.3c0.8,0.1,1.9-0.3,2.3-0.1c0.1,0-0.2,0.1-0.4,0.1
							c0.5-0.1,2.3,0,1.8-0.2c1.4,0.1,2.6-0.1,3.7,0c0.7-0.3,2.3,0.1,2.5-0.3c-0.1,0.5,2.4,0.4,3.2,0.2c-0.3,0.1,0.7,0.1,0.4,0.3
							c1,0,1.9-0.1,1.7-0.3c1.8,0.5,3.6-0.4,4.6,0.3c2.9-0.2,5.6-0.4,8.2-0.5c-0.1,0.5-2.9,0-2.8,0.5c2.5-0.2,3.9-0.6,6.4-0.5
							c0.6,0.1-0.4,0.2-0.6,0.3c2.5-0.2,4.8,0,7-0.2c0,0-0.2,0.1-0.5,0.1c0.4,0,1,0.1,1-0.1l-0.4,0.1c-0.7-0.3,1.7-0.6,1.8-0.8
							c-0.7,0.6,2.2,0.1,1,0.9c0.3,0,0.6-0.1,0.6-0.3c0.4,0,0.6,0.1,0.1,0.3c1.6-0.1,1-0.3,2.4-0.3c0,0.1-0.3,0.1-0.4,0.3
							c0.7-0.2,1.4-0.4,2.6-0.3c-0.1,0.1,0.1,0.1-0.3,0.1c2,0,3.5-0.5,5.7-0.3c-0.7,0.4,0.8,0.1,0.9,0.5l1.2-0.1l-0.5-0.2
							c1.1,0,2-0.3,2.9-0.1l-0.8,0.2l2-0.1l-1.1-0.1c1.1-0.2-0.1-0.5,1.3-0.4c-0.3,0,1.1,0,1.6,0.2l0,0c0.5-0.1,1.1-0.2,1.8-0.2
							c0.2,0.1-0.2,0.4,0,0.5c0.5-0.3,2.5-0.1,3.1-0.4c-0.2,0.1-0.2,0.3-0.2,0.3l0.4-0.3c0.5,0.1,0.6,0.1,0.5,0.3
							c1.5,0-0.5-0.5,1.3-0.3c-0.1,0-0.1,0.1-0.4,0.1c1.8,0.1,3.4-0.2,5,0c0.5,0.4-1.4,0.1-0.9,0.4c2.3-0.1,4.8-0.5,7.1-0.4l-0.4,0
							c0.3-0.5,1.7,0.3,2.8,0c-0.3,0-0.4,0.3-0.3,0.2c1.5,0.1,3.2-0.1,5.5-0.3l-0.3,0.1c0.9,0.1,2.4,0.1,3.4,0.1
							c0.3-0.1,0.9-0.1,0.5-0.3c3,0.8,5.8-0.4,8.5,0.2c-0.3,0-0.8,0.1-0.5,0.1l2.3-0.1c-0.2-0.2-0.3-0.1-0.8-0.3
							c0.3-0.1,0.9-0.2,1.5-0.2c-1,0.2,0,0.4,0.5,0.5c-0.1-0.1,0.1-0.1,0-0.2c1.2,0.4,0.2-0.5,1.8-0.2l-0.1,0.1
							c0.6-0.1,1.2-0.2,1.8-0.2c0.3,0.3-0.7,0.1-0.7,0.3c0.9,0,1.8-0.5,2.7-0.2c-0.4,0.1-1,0.1-1.4,0.1c0.9,0.3,1,0.2,1.7,0.3
							l-0.1,0l1.6,0.1l-0.4-0.1c1.2-0.7,2.4-0.1,3.9-0.6c-1.5,0.4-0.3,0.3-0.4,0.6c0.4,0.1,1,0.2,0.8,0.3c0.7-0.2,1.2,0.2,2.3-0.2
							c0,0.1,0.8,0,0.6,0.3c1-0.1-0.2-0.2-0.1-0.3c1.5-0.3,3.5,0.4,5.6-0.1c1.8-0.2,2.2-0.5,3.9-0.7c0.6,0.2-0.5,0.4-0.5,0.4
							c0.9,0.1,1.6,0.1,2.5,0c-0.2,0.1,0,0.2,0.3,0.3c0.7,0,0.5-0.4,1.4-0.2c-0.2,0.1-0.4,0.3-0.7,0.4c0.8-0.1,1.6-0.3,2.5-0.4
							c0.2,0.2-0.5,0.3-0.8,0.4c1-0.1,2.5-0.2,2.8-0.4l-0.6-0.1c0.4,0,0.2,0.2-0.1,0.3c-0.8,0.2-1.2-0.1-1.2-0.2l0.6-0.1
							c-0.6-0.6-2.4,0.1-3.7,0.1l0.5-0.4l-1.3,0.3c-0.3-0.1-0.5-0.3,0.2-0.4c-0.9-0.2-0.8,0.1-1.5-0.1c-0.1,0,0-0.1,0-0.1l-0.9,0.1
							c0.2-0.1-0.1-0.3,0.4-0.2c-1.5-0.2-2.5,0.3-3.1,0l0.1,0c-2.1,0.1-0.2,0.3-1.8,0.7l-1.1-0.8l-0.2,0.3c-0.2,0-0.7,0-0.6-0.2
							c-0.8,0.2,0.1,0.1-0.3,0.3c-1.1-0.3-2.9,0.1-3.2-0.4c-0.4,0.2,1,0.2-0.1,0.3c-0.3-0.5-1.3,0.1-2.3-0.2
							c0.3-0.3,1.2-0.1,0.2-0.4c-0.6,0.5-1.9-0.1-2.7,0c0,0.4-1.8,0.2-3.2,0.3c0.1-0.1-2.6-0.2-3.9-0.3l0-0.1
							c-0.2,0.4-1.6,0.3-2.5,0.4c0-0.2,0.2-0.3,0.7-0.4l-0.9,0c-0.2,0.1-0.5,0.2-1.1,0.2l0.2-0.3c-1.2,0-2.4,0.3-4,0.1
							c-0.1,0.3,1.2,0.7-0.4,0.9c-0.1-0.1-0.1-0.4,0.3-0.4c-0.1,0-0.5,0.1-0.8,0.1l0.7-0.2c-0.7-0.1-0.4,0.2-0.9,0.2
							c0-0.2-0.4-0.1-0.3-0.3c0.1,0,0.5,0.1,0.7,0c-0.6,0-1.4-0.2-1.7-0.3c0.1,0.1,0,0.3-0.5,0.3c-1.2,0-0.4-0.2-1.1-0.3
							c-0.3,0.1-1.1,0-1.1,0.3c-0.4,0-0.4-0.1-0.6-0.2c-0.6,0.1-2.9,0-2.2,0.4l0.2,0c0,0-0.1,0-0.1,0c0,0,0,0,0,0h0
							c-2,0.3-4.2-0.2-6.2,0l0-0.1c-1.2,0.1-2.7,0.1-3.5,0.3c-0.4,0-0.8-0.2-0.7-0.3c-0.9,0.1-1,0.2-2.4,0c0.9-0.2-0.3-0.2,0.9-0.1
							c-1.2-0.1-1.5-0.2-2.8,0c0.4-0.3-0.9-0.3-1.5-0.2l0.8,0.2c-0.6,0-1.2,0-1.8,0l0.3-0.3c-2.5-0.4-4.4,0.7-6.3,0
							c-0.6,0.2,1.3,0.2,0.8,0.4c-1.1,0-2.3-0.5-2.7-0.5c-1.5-0.2-1.4,0.5-3.1,0.4c0.2,0.1,0.4,0.4-0.8,0.5c-1.1,0-1.4-0.5-0.7-0.6
							c0.3,0,0.4,0,0.4,0.1c0.4,0,0.8-0.1,0.4-0.2l-0.1,0.1c-0.6-0.1-2.1-0.1-1.7-0.3c-0.9,0.1-0.4,0.2,0.3,0.3
							c-1.4-0.2-2.3,0-3.7-0.1c0.2,0.1,0.5,0.2,0.2,0.2c-2.2-0.1-1,0.2-2.4,0.3c-0.8-0.2,0.3-0.4-1.2-0.3c-0.9-0.1-0.2-0.3,0.2-0.4
							c-1.4,0.2-2.5-0.2-3.3-0.2l0.7-0.1c-0.4,0.1-0.8,0.1-1.1,0.1l0.4,0.2c-0.4,0-0.8,0-0.8-0.1c-0.4,0.2,0.3,0.4-0.5,0.6
							c-0.6-0.1-1.7,0.1-1.9-0.2c1.8,0.1-0.2-0.3,1.3-0.4c-0.3,0-0.6,0-1.1,0c-0.1,0,0.1-0.1,0.2-0.1c-1.7-0.3-0.8,0.4-2.5,0.3
							c0.2-0.2-0.4-0.3-0.7-0.3c0.7,0,0.3,0.3-0.3,0.4c-1.1-0.1-1.2,0.1-1.8,0.1l0.7,0.1c-0.2,0.2-0.8,0.2-1.6,0.2
							c-0.1-0.1,0.7-0.1,0.4-0.2c-0.9,0.3-2-0.3-3.2-0.1c-0.6-0.1-0.1-0.3-0.5-0.4c-1.4,0.2-1.5-0.2-2.9-0.1
							c0.4,0.2,0.5,0.2-0.5,0.4l2.3-0.2l-1.5,0.3c0.7,0,1.5-0.1,1.9-0.1c-0.7,0.2-0.6,0.1-0.3,0.3c-1-0.4-1.9,0.2-3,0l0-0.6
							c-1.7-0.3-3,0.3-5.2,0.2l0.7,0.1c-0.3,0.2-1.3,0-2.1,0.1c0.1-0.2-0.4-0.3-0.7-0.4c0,0.1-1.6,0-1.8,0.4l-1-0.3
							c-1.8-0.1-2,0.6-3.7,0.5c0.5-0.2-0.3-0.4,0.9-0.5c-0.6,0-1.1,0-1.1,0.1c-0.3-0.1-1.6,0.3-2.1,0.1c-0.2,0.1-0.3,0.3-1,0.3
							c-0.1,0,0-0.1,0-0.1c0,0.1-1,0.1-0.4,0.4c-1.7-0.6-4.9,0-6.4-0.5c-1.2,0.1-2.7,0.1-3.8,0.1c0.1-0.1,0-0.1,0.2-0.1
							c-0.8-0.1-1,0-1.3,0.2c-0.3,0.1-0.5,0.3-1.6,0.2c-1.3-0.3,1.2-0.2,0.4-0.3c-0.2-0.3-1.1-0.3-2.1-0.2c0,0.5,0.1,1.1,0.1,1.6
							c0,0.3,0,0.5,0,0.7c0,0.3,0,0.3-0.1,0.5l0-0.3c-0.2,0.9,0.2,2.2,0.2,3.7c0,0-0.1-0.1-0.1,0c0.3,1,0.4,2.9,0.5,4.3
							c-0.3-0.4-0.1-0.6-0.4-0.4c0,0.6,0.4-0.2,0.5,1.1c-0.1,0.4-0.3,1.3-0.5,1.5l0-1.2c-0.4,0.6,0,1.6,0,2.2l-0.2-0.1
							c0.1,1.8,0.4,1.9,0.4,3.8l0.1-0.2c0.4,1.1-0.2,0.9,0.1,2l-0.4,0.3c0.1,0.7,0.4,2.5,0.5,3.8c-0.3-0.7-0.4-2.2-0.6-3.1
							c0,0.7,0,2.4,0.2,2.8c0-0.3-0.1-0.6-0.1-0.9c0.3,0.9,0.5,2,0.5,3.4c-0.3-0.1-0.4,0.3-0.4,0.8c0,0.1,0,0.3,0,0.5
							c0,0.2,0,0.5,0,0.7c0,0.5,0,1.1,0,1.6c0.5,0,1.1,0,1.5,0.1c0.4,0,1,0.1,1.1,0.2c2.5-0.3,4.9,0.1,7.8,0.1c-1-0.6,0.8,0,0.7-0.6
							c0.7,0,0.9,0,1,0l2,0.4c0.5,0.2-0.6,0.1-0.6,0.3c1.5,0,0.6,0.3,1.6,0.4c-0.2-0.2,0.5-0.3,1.4-0.2l-1.2-0.3
							c2.1-0.3,1.8,0.5,3.9,0.2l-0.7,0.2c1.1-0.1,3.9,0,5-0.5c0.2,0.1,0.4,0.2,0,0.3c2.6,0.1,5.7-0.5,7.7-0.2l-0.2,0.1
							c0.5,0,0.8-0.3,1.4-0.1c0,0.1-0.2,0.1,0,0.2c0.3-0.1,1.3-0.3,1.9-0.2l-0.5,0.2c2.5,0.2,3.8-0.4,5.9-0.5c0,0.4,2,0.6,2.9,0.7
							l0,0.1c2.9,0.1,4.9-0.4,7.6-0.5c1.7,0.5,5.6,0.2,8.3,0.5c-0.4-0.1,0.1-0.3,0.5-0.4c0.6,0.1,1.7-0.3,1.6,0.1l-0.2,0
							c0.5,0.4,1.8,0.3,2.8,0.3l0.2-0.5c2.6,0.8,6.9-0.3,8.4,0.4c0.6-0.1,1.4-0.1,2.1-0.3l0,0.3c1.8,0.1,2.6,0.1,4.8,0l-0.4,0.2
							c1.2,0,1.6-0.8,2.7-0.8l0.3,0.4c2.1,0,4.3,0.4,6.4,0c0,0.1-0.1,0.2-0.4,0.2c1,0,3.9,0.3,3.5-0.3c0,0.4,2.2,0,3.4-0.1l-0.2,0.3
							c1-0.4,1-0.5,2.4-0.6c0.3,0,0.3,0.2-0.1,0.2c1.1,0.1,0.8-0.3,2.1-0.1l-0.5,0.2c1.1,0,1-0.1,1.6-0.3c0.7-0.1,2.1,0.1,2.3,0.3
							c0.1-0.2,0.8-0.4,1.4-0.3c0.1,0.1-0.1,0.2-0.3,0.2c1.9,0.2,2.8-0.3,4-0.1c0,0.1,0.1,0.1,0.2,0.2c-1.5,0-2.7,0-2.6,0
							c0,0.3,1.2,0.3,0.2,0.7c1-0.2,2.6-0.6,3.8-0.5c0.1,0,0.1,0,0.2,0.1l-0.1,0c0.3,0,0.5,0,0.7,0c0.4,0,0.6,0.1,1,0.1
							c0.1,0.2,1.4,0.1,2,0.1c0-0.3,0.7-0.2,0-0.5c0.1,0-0.1,0-0.5,0c-0.1,0-0.2,0-0.3,0l0,0c-0.4,0-0.9,0-1.5,0
							c0.5-0.1,1-0.3,1.6-0.1c0.3-0.2,0.6-0.4,0.8-0.5c0.8,0.4,2.4,0.6,2.6,0.8c1.8-0.2,4.3-0.1,5.4-0.6c0.5-0.1,0.6,0.2,0.8,0.2
							c-0.3,0.1-0.7,0-0.8,0.1c1-0.1,3.1-0.1,3.3-0.4c1.3,0.2-0.7,0.3,1.1,0.3l-0.2,0.1c3.5,0.6,5.7-0.9,9.6-0.2
							c-0.3,0-0.4-0.1-0.5-0.1c0.7,0.1,1.5,0.1,2.2,0.1l1.3,0l1.5,0c0-1.7-0.1-3.5-0.1-5.2c0-1.5,0-3,0.2-4.5
							c0.1-1.2-0.1-1.4-0.3-2.1l0.3-0.3l-0.3-1.3c-0.3-1.8,0.7-3.2,0.3-5.5l-0.2,0.3c0-0.8-0.1-2.7,0.1-2.5c0-0.1-0.2-0.3-0.1-0.6
							l0.2,0l-0.3-2.1c0.1-1.6,0.6,0.2,0.7-2.1c-0.1-0.9-0.5-2.5-0.6-2.1c0,0.3-0.1,0.9-0.3,0.9l-0.1-0.8c-0.5-0.1-0.9-0.8-1.3,1.2
							l0.3,1.4l-0.2,0.4l0-1.1c-0.2,0.6,0,1.1,0.1,1.5c-0.1,0.1-0.2,0.3-0.2,0.6l0.4,1.3c-0.2,0.2-0.4-0.6-0.5,0.3
							c0.2,0.6,0.4-0.6,0.5,0.4c-0.2,0.6-0.4,0.5-0.2,1.2c-0.1,0.1-0.2-0.1-0.2-0.4c0.1,0.7,0.1,1.8,0.3,2.1
							c-0.3,0.7,0.1,2.3-0.4,2.2c0.1,0.2,0.3,1.2,0.4,1.8c-0.5-1.1,0,2.3-0.6,2c0.5,0.8,0.2,3,0.5,4.5c0-0.1-0.1-0.2-0.1-0.4
							c0,0.8-0.2,1.1-0.3,1.6c0.4,0.1,0.5,1.4,0.7,2.1c-0.4,1-0.5-0.6-0.8-0.3c0.3-0.1,0.3,1.8,0.6,1.4c-0.2,0.8-0.1,0.7-0.4,1.1
							c0.2,0.1,0.3,0.3,0.3,0.5c0,0.2,0,0.2,0.1,0.4c-0.1,0.2-0.3,0-0.3,0c-0.1,0-0.1,0-0.1,0c-0.1-0.1-0.1-0.2-0.1-0.2
							C852.1,815.2,852,815.1,852,815.1z M823.7,816L823.7,816c0.3,0,0.5,0,0.6,0C824.2,816,824,816,823.7,816z M821.2,816
							c0.3,0,0.7,0,1.1,0c0.1,0.1,0,0.2-0.3,0.2C822.2,816.1,821.6,816.1,821.2,816z M826.5,817.9c-0.4,0-0.5,0-0.6-0.1
							c0.2,0,0.4,0,0.7,0c0,0,0,0,0,0C826.6,817.8,826.6,817.9,826.5,817.9z"/>
						<path class="st5" d="M827.2,817.6c0.1,0,0.1,0,0.2,0C827.3,817.5,827.2,817.5,827.2,817.6c-0.1-0.1-0.2,0-0.2,0
							C827.1,817.6,827.1,817.6,827.2,817.6z"/>
						<path class="st5" d="M804,788.8L804,788.8C804,788.8,804,788.8,804,788.8C804,788.8,804,788.8,804,788.8z"/>
						<polygon class="st5" points="786.8,815.4 786.8,815.5 787,815.5 						"/>
						<path class="st5" d="M817.8,789.8c0,0,0.1,0.1,0.2,0.1C817.9,789.8,817.9,789.8,817.8,789.8z"/>
						<path class="st5" d="M823.7,789.9l0.8,0.1C824.2,789.9,823.9,789.9,823.7,789.9z"/>
						<path class="st5" d="M828.3,790c0.1,0,0.1-0.1,0.1-0.1l0,0L828.3,790z"/>
						<path class="st5" d="M755.7,790.3c-0.1,0-0.1,0-0.2,0C755.1,790.4,755.4,790.4,755.7,790.3z"/>
						<path class="st5" d="M777.3,789.7c-0.2,0.1-0.5,0.1-0.7,0.1C777,789.8,777.3,789.8,777.3,789.7z"/>
						<path class="st5" d="M731.6,790.7L731.6,790.7c0,0-0.1,0-0.1,0L731.6,790.7z"/>
						<path class="st5" d="M775.6,789.8c0.4,0.1,0.7,0,1,0C776.3,789.8,775.9,789.8,775.6,789.8z"/>
						<path class="st5" d="M848,790.1l0.2,0c0,0,0,0,0,0L848,790.1z"/>
						<path class="st5" d="M848.3,790.1l0.2,0C848.4,790.1,848.3,790.1,848.3,790.1z"/>
						<path class="st5" d="M849.1,790l-0.5,0.1C848.7,790.1,848.9,790.1,849.1,790z"/>
						<path class="st5" d="M842,790l-0.1,0.1C842,790.1,842,790,842,790z"/>
						<path class="st5" d="M840.2,790c0.4,0,1.1,0.2,1.7,0.2l0.1-0.1C841.6,790.2,840.6,789.8,840.2,790z"/>
						<path class="st5" d="M832.5,788.8l1.5,0.1c-0.3-0.1-0.6-0.3,0.1-0.3C832.2,788.2,834.5,788.8,832.5,788.8z"/>
						<path class="st5" d="M827.7,788.6c0.8-0.1,0-0.2,0-0.2C827.2,788.5,827.1,788.5,827.7,788.6z"/>
						<path class="st5" d="M793.2,788.6l0.1-0.3C792.7,788.4,793.3,788.4,793.2,788.6z"/>
						<polygon class="st5" points="786.7,789.9 787.3,790.1 787.6,789.8 						"/>
						<polygon class="st5" points="782.8,788.1 783,788.1 782,788.2 						"/>
						<path class="st5" d="M724.8,788.2l0.2,0.3C725.5,788.5,725.6,788.1,724.8,788.2z"/>
						<path class="st5" d="M715.5,805.6c-0.2,0.3-0.3,1-0.1,1.4C715.4,806.5,715.5,805.9,715.5,805.6z"/>
						<polygon class="st5" points="780.1,818 779.6,818.1 780.6,818 						"/>
					</g>
				</g>
			</g>
		</g>
	</g>
</g>
</svg>
