<?xml version="1.0" encoding="utf-8"?>
<!-- Generator: Adobe Illustrator 21.0.0, SVG Export Plug-In . SVG Version: 6.00 Build 0)  -->
<svg version="1.1" id="Layer_1" xmlns="http://www.w3.org/2000/svg" xmlns:xlink="http://www.w3.org/1999/xlink" x="0px" y="0px"
	 viewBox="0 0 1024 1024" style="enable-background:new 0 0 1024 1024;" xml:space="preserve">
<style type="text/css">
	.st0{opacity:0.6;fill:#4BEAA9;enable-background:new    ;}
	.st1{opacity:0.52;}
	.st2{fill:#13C9E2;}
	.st3{display:none;}
	.st4{display:inline;}
	.st5{fill:#969696;}
	.st6{fill:#0C658E;}
	.st7{display:inline;opacity:0.6;fill:#7AB4E2;enable-background:new    ;}
	.st8{fill:#FFFFFF;}
</style>
<g id="_x32_">
	<g>
		<path class="st0" d="M1012,1024H12c-6.6,0-12-5.4-12-12V12C0,5.4,5.4,0,12,0h1000c6.6,0,12,5.4,12,12v1000
			C1024,1018.6,1018.6,1024,1012,1024z"/>
	</g>
</g>
<g class="st1">
	<path class="st2" d="M429.3,941.4c-6.5-22.7-13.3-45.4-20.3-68.4c-6.9-23-14.1-46.1-21.3-69.6c-7.2-23.4-14.5-47.1-21.6-71
		c-7.1-23.9-14.2-47.9-21.1-72l8,8.8l-137-45.8l-137-46l-37.8-12.7l33.9-22.8l119.9-80.6l120-80.5l-12.2,21.4l1.9-144.5l2-144.4
		l0.9-64.9l51.8,41.1l113.2,89.7l113.1,89.9l-33.9-7c22.6-8.3,45.4-16.2,68.2-24.1c22.8-7.8,45.7-15.4,68.6-22.9
		c22.9-7.5,45.8-14.8,68.8-22.1c23-7.3,46-14.4,69-21.5l92.8-28.5l-34.6,92.5c-8.4,22.6-16.9,45.1-25.5,67.6l-12.9,33.7l-13,33.7
		c-8.7,22.4-17.6,44.8-26.4,67.2l-13.4,33.5L780,504.8l-5-45.2c6.6,10,13.3,20.1,19.9,30.2l19.8,30.2c13.2,20.2,26.2,40.4,39.3,60.6
		c13,20.3,26,40.5,38.9,60.9l19.3,30.5c6.4,10.2,12.9,20.4,19.2,30.6l46.3,74.1l-84-8l-36-3.4l-36-3.5c-24-2.4-47.9-4.9-71.9-7.4
		l-35.9-3.9l-35.9-4c-24-2.7-47.9-5.6-71.8-8.5l24.3-11C613.2,746.5,595.6,766,578,785c-17.6,19-35.3,37.5-52.6,55.3l-25.5,26.3
		c-8.4,8.6-16.6,17.1-24.6,25.5C459.2,908.8,443.9,925.3,429.3,941.4z M431.2,932.3c15-21.8,29.3-43.3,42.8-64.5
		c6.8-10.6,13.4-21.1,19.8-31.4l18.9-30.7c12.3-20.2,24.3-39.7,36.2-58.6c12-19,24-37.4,36.3-55.6l7.4-11l16.9,0
		c24.1,0,48.2,0,72.3,0.1l36.2,0.3l36.1,0.4c24.1,0.3,48.2,0.7,72.3,1.1l36.1,0.7l36.1,0.9L861.1,750c-7.1-9.7-14.2-19.5-21.2-29.3
		l-21.1-29.3c-14.1-19.6-28-39.2-42-58.8c-13.9-19.7-27.8-39.3-41.6-59L714.5,544c-6.9-9.9-13.8-19.8-20.6-29.7l-14.3-20.8l9.3-24.5
		l12.9-33.7l13-33.7c8.7-22.5,17.4-44.9,26.3-67.3l13.3-33.6l13.4-33.5c9-22.3,18.1-44.6,27.2-66.9l58.2,63.9
		c-23.3,6.2-46.5,12.5-69.8,18.5c-23.3,6.1-46.6,12-70,17.9c-23.4,5.8-46.8,11.5-70.2,17.1c-23.5,5.5-47,10.9-70.6,15.9L552,338
		l-13.4-11.3l-110.1-93.5l-110-93.7l52.8-23.9l-7.7,144.3l-7.9,144.2l-0.8,14.4l-11.4,6.9l-123.4,75.1l-123.5,75l-3.9-35.5
		l134.6,52.5l134.5,52.7l6.6,2.6l1.4,6.2c5.2,22.5,10.3,45.1,15.3,67.8c5,22.7,9.9,45.6,14.8,68.8c4.9,23.2,9.9,46.6,15.1,70.2
		C420.3,884.5,425.6,908.4,431.2,932.3z"/>
</g>
<g id="Layer_1_1_" class="st3">
	<g class="st4">
		<path class="st5" d="M911,40c19.4,0,37.7,7.6,51.5,21.5C976.4,75.3,984,93.6,984,113v798c0,19.4-7.6,37.7-21.5,51.5
			C948.7,976.4,930.4,984,911,984H113c-19.4,0-37.7-7.6-51.5-21.5C47.6,948.7,40,930.4,40,911V113c0-19.4,7.6-37.7,21.5-51.5
			S93.6,40,113,40H911 M911,0H113C50.9,0,0,50.9,0,113v798c0,62.2,50.9,113,113,113h798c62.2,0,113-50.9,113-113V113
			C1024,50.9,973.1,0,911,0L911,0z"/>
	</g>
	<g class="st4">
		<polygon class="st6" points="482.9,256.2 493.1,320.7 552,348.8 493.9,378.5 485.3,443.2 439.1,397 374.9,408.9 404.6,350.7 
			373.4,293.3 437.9,303.5 		"/>
	</g>
	<g class="st4">
		<polygon class="st6" points="720.3,397.8 706.3,481 766.9,539.7 683.4,552.2 646.3,628 608.7,552.4 525.1,540.5 585.4,481.4 
			570.8,398.3 645.7,437.3 		"/>
	</g>
	<g class="st4">
		<polygon class="st6" points="531.3,631.5 437.4,673.7 418.9,774.9 349.8,698.6 247.8,712.3 299,623 254.5,530.2 355.2,551.3 
			429.7,480.3 440.7,582.6 		"/>
	</g>
</g>
<g id="_x31_" class="st3">
	<path class="st7" d="M1012,1023.7H12.3c-6.6,0-12-5.4-12-12V12c0-6.6,5.4-12,12-12H1012c6.6,0,12,5.4,12,12v999.7
		C1024,1018.3,1018.6,1023.7,1012,1023.7z"/>
	<g class="st4">
		<polygon class="st8" points="247,421.7 247,626 154.4,626 154.4,275.2 273.9,275.2 383.4,436.9 383.4,275.2 484.4,275.2 
			484.4,465.5 380,605.2 		"/>
		<rect x="777.3" y="275.3" class="st8" width="92.6" height="350.7"/>
		<polygon class="st8" points="639.4,626 746.2,626 746.2,164.8 401.1,625.9 510.6,625.9 655.3,433 655.3,538.4 581.2,539 		"/>
	</g>
	<g class="st4">
		<path class="st8" d="M348.3,732.5c-2-8.7-6.9-14.8-14.8-18.2c-4.4-1.9-9.2-2.9-14.6-2.9c-10.3,0-18.7,3.9-25.3,11.6
			s-9.9,19.4-9.9,34.9c0,15.6,3.6,26.7,10.7,33.2s15.3,9.7,24.4,9.7c8.9,0,16.2-2.6,21.9-7.7c5.7-5.1,9.2-11.8,10.5-20.1h-29.5
			v-21.3h53V820h-17.6l-2.7-15.9c-5.1,6-9.7,10.3-13.8,12.7c-7,4.3-15.7,6.5-25.9,6.5c-16.9,0-30.7-5.8-41.5-17.5
			c-11.2-11.7-16.8-27.8-16.8-48.2c0-20.6,5.7-37.1,17-49.6s26.4-18.6,45-18.6c16.2,0,29.2,4.1,39,12.3s15.5,18.4,16.9,30.7
			L348.3,732.5L348.3,732.5z"/>
		<path class="st8" d="M419.6,820.1H395V692.8h24.6V820.1z"/>
		<path class="st8" d="M518.2,808.6c-7.9,9.8-20,14.7-36.2,14.7s-28.3-4.9-36.2-14.7c-7.9-9.8-11.9-21.6-11.9-35.4
			c0-13.6,4-25.3,11.9-35.3c7.9-9.9,20-14.9,36.2-14.9s28.3,5,36.2,14.9c7.9,10,11.9,21.7,11.9,35.3
			C530.2,787,526.2,798.8,518.2,808.6z M498.5,795c3.9-5.1,5.8-12.4,5.8-21.8c0-9.4-1.9-16.7-5.8-21.8s-9.4-7.6-16.6-7.6
			s-12.7,2.5-16.6,7.6s-5.8,12.4-5.8,21.8c0,9.4,1.9,16.7,5.8,21.8s9.4,7.7,16.6,7.7C489.2,802.7,494.7,800.1,498.5,795z"/>
		<path class="st8" d="M624.3,737.3c7,8.9,10.6,20.4,10.6,34.6c0,14.6-3.5,26.8-10.4,36.4c-6.9,9.6-16.6,14.4-29.1,14.4
			c-7.8,0-14.1-1.6-18.8-4.7c-2.8-1.8-5.9-5.1-9.2-9.7v11.8H543V693h24.6v45.3c3.1-4.4,6.6-7.7,10.3-10c4.5-2.9,10.1-4.3,17-4.3
			C607.5,723.9,617.3,728.4,624.3,737.3z M603.7,794.7c3.5-5.1,5.3-11.9,5.3-20.2c0-6.7-0.9-12.2-2.6-16.6
			c-3.3-8.3-9.4-12.4-18.3-12.4c-9,0-15.2,4.1-18.6,12.2c-1.7,4.3-2.6,9.9-2.6,16.8c0,8.1,1.8,14.7,5.4,20s9.1,7.9,16.5,7.9
			C595.2,802.3,600.2,799.8,603.7,794.7z"/>
		<path class="st8" d="M685.4,762.9c4.6-0.6,7.9-1.3,9.8-2.2c3.5-1.5,5.3-3.8,5.3-7c0-3.9-1.4-6.5-4.1-8c-2.7-1.5-6.7-2.2-12-2.2
			c-5.9,0-10.1,1.4-12.5,4.3c-1.8,2.1-2.9,5-3.5,8.6h-23.8c0.5-8.2,2.8-15,6.9-20.3c6.5-8.3,17.8-12.4,33.7-12.4
			c10.4,0,19.6,2,27.6,6.1S725,741.7,725,753v43.2c0,3,0.1,6.6,0.2,10.9c0.2,3.2,0.7,5.4,1.5,6.6c0.8,1.2,2,2.1,3.6,2.9v3.6h-26.8
			c-0.7-1.9-1.3-3.7-1.6-5.4s-0.5-3.6-0.7-5.7c-3.4,3.7-7.4,6.8-11.8,9.4c-5.3,3.1-11.4,4.6-18.1,4.6c-8.6,0-15.7-2.4-21.2-7.3
			c-5.6-4.9-8.4-11.8-8.4-20.7c0-11.6,4.5-20,13.5-25.1c4.9-2.8,12.2-4.8,21.8-6L685.4,762.9z M700.4,774.4c-1.6,1-3.2,1.8-4.8,2.4
			c-1.6,0.6-3.8,1.2-6.6,1.7l-5.6,1c-5.3,0.9-9,2-11.3,3.4c-3.9,2.2-5.8,5.7-5.8,10.5c0,4.2,1.2,7.2,3.6,9.1
			c2.4,1.9,5.2,2.8,8.6,2.8c5.4,0,10.3-1.6,14.9-4.7c4.5-3.1,6.9-8.8,7.1-17v-9.2H700.4z"/>
		<path class="st8" d="M767.7,820.1h-24.6V692.8h24.6V820.1z"/>
	</g>
</g>
<g>
	<path class="st8" d="M123.8,275.9c0,9.4-4,17.5-11.9,24.2c-7,5.9-15.4,9.7-25.4,11.3c-0.4,0-0.7,0.1-0.9,0.1
		c-1.1,0-3.4-3.3-7.1-9.8c-3.7-6.5-5.5-10.5-5.5-11.9c0-0.5,0.3-0.8,1-1c6.7-1.5,11.2-2.8,13.4-3.9c4.8-2.4,7.2-6,7.2-10.7
		c0-3-1.6-6.4-4.7-10.1c-5.5-6.3-8.4-9.8-8.9-10.5c-3.2-4.8-4.8-10.2-4.8-16c0-8.5,3.9-15.5,11.8-21.1c6.4-4.6,14.3-7.7,23.6-9
		c0.5,0,0.9-0.1,1.2-0.1c0.7,0,1.3,0.6,1.7,1.7c1.2,3.4,4,9.5,8.4,18.4c0.1,0.3,0.2,0.5,0.2,0.7c0,0.8-0.4,1.2-1.3,1.2
		c-0.4,0-1-0.1-1.9-0.2c-0.9-0.1-1.6-0.2-2-0.2c-3.3,0-6.3,0.8-8.8,2.3c-3,1.8-4.5,4.2-4.5,7.4c0,2.8,1.7,6.3,5,10.4
		c5.9,7.4,9,11.3,9.3,11.7C122.2,265.8,123.8,270.9,123.8,275.9z"/>
	<path class="st8" d="M206.5,244.7c0,3.4-0.2,8.6-0.5,15.4c-0.3,6.9-0.5,12-0.5,15.4c0,3.3,0.1,8.3,0.3,15c0.2,6.7,0.3,11.7,0.3,15
		c0,1.3-0.6,2-1.7,2.4c-1.8,0.5-5.5,0.7-11.2,0.7c-5.1,0-8.6-0.1-10.6-0.4c-0.9-0.1-1.4-0.7-1.7-1.7c-0.1-1.4-0.3-2.8-0.4-4.2
		c-0.2-2.1-0.6-3.2-1-3.2c0.6,0-1.7,1.6-7,4.7c-5.3,3.2-10.2,4.7-14.5,4.7c-12.3,0-19.6-5.5-21.8-16.6c-1-5.1-1.5-12.6-1.5-22.4
		c0-10.6,0.9-18.9,2.6-25c0.5-1.9,1.5-2.9,2.9-2.9c2.1,0,5.4,0,9.7,0.1c4.4,0,7.6,0.1,9.7,0.1c1.4,0,2.2,0.6,2.2,1.8
		c0,0.3,0,0.8-0.1,1.5c-1,6.3-1.5,12.7-1.5,19.2c0,8.1,0.3,13.6,0.8,16.6c0.8,5.1,3.9,7.7,9.1,7.7c2,0,4.3-0.9,6.6-2.7
		c2.4-1.8,3.6-3.7,3.7-5.6c0.1-1.7,0.1-13.4,0.1-34.9c0-1.5,0.1-2.4,0.3-2.7c0.3-0.5,1.1-0.7,2.5-0.7c2.3,0,5.7,0,10.3,0.1
		c4.6,0,8,0.1,10.3,0.1c1.4,0,2.2,0.3,2.4,1C206.4,243.4,206.5,244,206.5,244.7z"/>
	<path class="st8" d="M287.1,305.9c0,1.3-0.6,2-1.9,2.2c-1.3,0.2-4.7,0.3-10.2,0.3c-5.8,0-9.5-0.1-10.8-0.4s-2.1-1.2-2.1-2.9
		c0-2.2,0.1-5.5,0.2-9.9c0.1-4.4,0.2-7.7,0.2-9.9c0-1.7,0-4.3-0.1-7.7c-0.1-3.4-0.1-6-0.1-7.7c0-6.4-2.8-9.5-8.3-9.5
		c-1.8,0-3.9,0.8-6.3,2.4c-2.6,1.8-3.9,3.5-3.9,5.2v37.6c0,1.5-0.7,2.4-2.2,2.6c-1.6,0.2-4.9,0.3-9.9,0.3c-5.4,0-8.9-0.1-10.6-0.4
		c-1.4-0.2-2.2-1-2.2-2.3c0-3.6,0-9.1,0.1-16.3c0-7.3,0.1-12.8,0.1-16.4c0-11.5-0.9-20.6-2.7-27.2c-0.1-0.4-0.1-0.8-0.1-1
		c0-0.7,0.3-1.3,1-1.5c2.9-0.3,6.8-0.8,11.7-1.5c7.4-1.4,11.5-2.2,12.4-2.2c0.5,0,0.9,1.6,1.2,4.7c0.3,3.1,0.7,4.7,1.2,4.7
		c-0.5,0,2-1.6,7.5-4.8c5.5-3.2,10.3-4.8,14.4-4.8c5.9,0,10.8,1.4,14.7,4.2c4.4,3.2,6.6,7.7,6.6,13.4v22.2c0,3,0,7.5,0.1,13.5
		C287,298.4,287.1,302.9,287.1,305.9z"/>
	<path class="st8" d="M372.4,209.2c0-1-0.2,0.5-0.6,4.6c-0.5,5.1-0.9,11.7-1.2,19.8c-0.4,9.1-0.6,19.4-0.6,31
		c0,19.2,0.5,32.8,1.6,40.9c0.1,0.9,0.1,1.4,0.1,1.7c0,0.5-0.3,0.8-1,0.9c-1.7,0.2-7.8,0.3-18.4,0.3c-2.5,0-3.9-0.5-4.3-1.5
		c-0.1-1.8-0.2-3.5-0.3-5.3c0-0.4-0.2-0.7-0.6-1.1c-0.3,0.1-0.6,0.4-1,0.8c-5,4.9-11.3,7.4-18.8,7.4c-9.8,0-17.6-3.4-23.5-10.3
		c-5.6-6.5-8.4-14.8-8.4-24.8c0-10.1,2.8-18.4,8.3-25c5.8-7,13.7-10.4,23.6-10.4c7,0,12.4,2.2,16.3,6.7c0.6,0.7,1.1,1.1,1.4,1.1
		c0.4,0,0.6-0.6,0.6-1.8c0-3.6-0.1-8.9-0.3-16c-0.2-7.1-0.3-12.4-0.3-15.9c0-1.3,0.4-2.1,1.1-2.3c3-0.1,7-0.4,12.2-0.8
		c9.3-1.2,13.4-1.7,12.3-1.7C371.9,207.5,372.4,208.1,372.4,209.2z M346.2,273.2c0-3.7-1.3-6.9-3.8-9.6c-2.6-2.8-5.6-4.1-9.3-4.1
		c-3.8,0-6.8,1.4-9.1,4.1c-2.2,2.8-3.4,6.1-3.4,9.9c0,3.8,1.1,6.9,3.4,9.5c2.3,2.8,5.3,4.2,9,4.2c3.7,0,6.8-1.4,9.3-4.2
		C344.9,280.2,346.2,276.9,346.2,273.2z"/>
	<path class="st8" d="M452.6,273.2c0,3.6,0.2,8.9,0.6,15.9c0.4,7,0.6,12.3,0.6,15.9c0,1.9-0.8,2.9-2.4,3c-5.8,0.4-12.3,0.6-19.8,0.6
		c-0.9,0-1.5-1.3-1.8-4c-0.3-2.7-0.7-4-1.1-4.1c-0.4,0.2-0.9,0.6-1.5,1.2c-5.2,5.2-10.8,7.9-16.7,7.9c-9,0-16.5-3.6-22.5-10.7
		c-5.6-6.7-8.4-14.7-8.4-23.9c0-10.7,2.9-19.3,8.7-25.9c6-6.8,14.3-10.2,24.8-10.2c7.3,0,13,2.6,17.2,7.7c0.2,0.2,0.3,0.3,0.5,0.3
		c0.4,0,0.9-1.1,1.4-3.4c0.5-2.2,1.2-3.4,1.9-3.4c1.7,0,5,0.5,9.8,1.5c4.6,0.9,7.9,1.7,9.9,2.4c0.7,0.3,1,0.6,1,1.1
		c0,0.2-0.1,0.7-0.2,1.5C453.3,254.9,452.6,263.8,452.6,273.2z M430.2,273.6c0-3.9-1.2-7.2-3.7-9.8c-2.5-2.6-5.7-3.9-9.7-3.9
		c-4,0-7.2,1.3-9.7,3.8c-2.5,2.6-3.7,5.8-3.7,9.8c0,3.8,1.3,7,3.9,9.7c2.6,2.7,5.7,4,9.5,4c3.9,0,7.2-1.3,9.7-3.9
		C428.9,280.8,430.2,277.6,430.2,273.6z"/>
	<path class="st8" d="M534.7,258.3c0,9-0.3,14.5-0.8,16.4c-0.7,2.3-5.8,10.7-15.2,25.2c-1.5,2.3-5.3,7.5-11.5,15.8
		c-6.8,9.1-10.7,13.9-11.6,14.4c-1.1,0.7-8.2,1-21.4,1c-2,0-3.3-0.2-4-0.7c-0.6-1.9-1.4-4.1-2.3-6.7c-0.7-1.6-1.5-3.3-2.2-4.9
		c-1.1-2.4-1.6-4-1.6-4.8c0-0.9,0.4-1.3,1.2-1.3c12.9,0,19.3-2.9,19.3-8.8c0-0.5-3.2-5.1-9.5-13.8c-6.5-8.9-10.1-14.6-10.8-17
		c-0.4-1.3-0.6-6.1-0.6-14.4c0-1.7,0-4.2,0.1-7.5c0.1-3.4,0.1-5.9,0.1-7.5c0-1.2,0.8-1.8,2.3-1.8c2.4,0,5.9,0.1,10.7,0.2
		c4.8,0.1,8.4,0.2,10.7,0.2c1,0,1.5,0.7,1.5,2.2c0,1.3-0.1,3.3-0.2,5.9c-0.1,2.6-0.2,4.6-0.2,5.9c0,5.8,0.1,9.8,0.3,11.9
		c0.1,1.6,1.5,4.6,4.2,9c2.8,4.6,4.8,6.9,6.1,6.9c1.1,0,2.9-2.3,5.4-6.8c2.4-4.3,3.6-7.2,3.8-8.7c0.5-4.1,0.7-8.5,0.7-13.3
		c0-1.3-0.1-3.2-0.3-5.7c-0.2-2.5-0.3-4.5-0.3-5.8c0-0.9,0.5-1.3,1.5-1.3c2.4,0,5.9-0.1,10.6-0.3c4.7-0.2,8.2-0.3,10.6-0.3
		c1.2,0,2,0.6,2.4,1.8C534.4,245.7,534.7,250.6,534.7,258.3z"/>
	<path class="st8" d="M626.6,275.9c0,9.4-4,17.5-11.9,24.2c-7,5.9-15.4,9.7-25.4,11.3c-0.4,0-0.7,0.1-0.9,0.1
		c-1.1,0-3.4-3.3-7.1-9.8c-3.7-6.5-5.5-10.5-5.5-11.9c0-0.5,0.3-0.8,1-1c6.7-1.5,11.2-2.8,13.4-3.9c4.8-2.4,7.2-6,7.2-10.7
		c0-3-1.6-6.4-4.7-10.1c-5.5-6.3-8.4-9.8-8.9-10.5c-3.2-4.8-4.8-10.2-4.8-16c0-8.5,3.9-15.5,11.8-21.1c6.4-4.6,14.3-7.7,23.6-9
		c0.5,0,0.9-0.1,1.2-0.1c0.7,0,1.3,0.6,1.7,1.7c1.2,3.4,4,9.5,8.4,18.4c0.1,0.3,0.2,0.5,0.2,0.7c0,0.8-0.4,1.2-1.3,1.2
		c-0.4,0-1-0.1-1.9-0.2c-0.9-0.1-1.6-0.2-2-0.2c-3.3,0-6.3,0.8-8.8,2.3c-3,1.8-4.5,4.2-4.5,7.4c0,2.8,1.7,6.3,5,10.4
		c5.9,7.4,9,11.3,9.3,11.7C625,265.8,626.6,270.9,626.6,275.9z"/>
	<path class="st8" d="M683.7,262.2c0,0-1.4-0.4-4.2-1.1c-2.8-0.7-5-1.1-6.7-1.1c-4.1,0-7.4,1.2-9.9,3.7c-2.5,2.5-3.7,5.8-3.7,9.9
		c0,4.3,1.3,7.6,4,10.1c2.7,2.4,6.2,3.7,10.5,3.7c2,0,4.3-0.5,6.9-1.6c2.5-1,3.8-1.6,3.6-1.6c0.8,0,1.8,2.9,3.1,8.8
		c1.1,5.4,1.6,8.9,1.6,10.7c0,1.8-2.9,3.3-8.6,4.5c-4.5,1-8,1.5-10.8,1.5c-10.2,0-18.6-3.4-25.2-10.3c-6.6-6.9-9.9-15.4-9.9-25.7
		c0-10.2,3.3-18.7,10-25.6c6.7-6.9,15.1-10.4,25.2-10.4c6.9,0,13,1.5,18.2,4.5c1.2,0.6,1.8,1.3,1.8,1.9c0,0.6-0.7,3.3-2.1,8.2
		c-1.3,4.7-2.1,7.5-2.5,8.5C684.5,261.7,684.1,262.2,683.7,262.2z"/>
	<path class="st8" d="M766.3,257.5l-0.1,48c0,1.6-0.6,2.5-1.9,2.7c-1.5,0.2-4.9,0.3-10.2,0.3c-5.1,0-8.6-0.2-10.6-0.6
		c-1.5-0.3-2.3-1.3-2.3-3c0-4,0.1-10,0.2-18c0.1-8,0.2-14,0.2-18c0-5.4-2.8-8.1-8.3-8.1c-1.9,0-4,0.7-6.5,2.2
		c-2.7,1.6-4.1,3.3-4.1,5.1v17.2c0,2.2,0,5.6,0.1,10c0.1,4.5,0.1,7.8,0.1,10.1c0,1.7-0.7,2.7-2.2,2.9c-1.4,0.2-5.5,0.3-12.1,0.3
		c-3.8,0-6.5-0.2-8.2-0.6s-2.5-1.2-2.5-2.4c0-3.7,0-9.2,0.1-16.5c0-7.3,0.1-12.9,0.1-16.5c0-15.2-0.2-27.7-0.5-37.6
		c-0.1-3.5-0.3-7-0.3-10.4c-0.2-4-0.7-7.5-1.3-10.4c-0.1-0.6-0.2-1-0.2-1.3c0-0.7,0.3-1.2,1-1.4c1.4-0.4,3.5-0.7,6.3-0.8
		c3.7-0.1,5.9-0.3,6.5-0.3l12.6-1.5c0.7,0,1.1,0.5,1.1,1.5c0,1.5-0.1,3.5-0.3,6.1c-0.2,3-0.3,5-0.3,6.1c-0.3,10.5-0.4,18.8-0.4,24.8
		c0,0.9,0.2,1.4,0.7,1.4c0.1,0,1.3-0.8,3.5-2.4c2.7-1.9,5.3-3.4,7.7-4.5c3.7-1.6,7.2-2.4,10.6-2.4c5.9,0,10.9,1.6,14.9,4.7
		C764.2,247.1,766.3,251.7,766.3,257.5z"/>
	<path class="st8" d="M844.6,273.7c0,10.6-3.2,19.2-9.7,25.7c-6.5,6.6-15,9.9-25.5,9.9c-10.2,0-18.6-3.2-25.2-9.7
		c-6.6-6.5-9.9-14.8-9.9-25c0-10.8,3.2-19.5,9.5-26.2c6.3-6.7,14.8-10.1,25.6-10.1c10.5,0,19,3.3,25.5,9.8
		C841.3,254.7,844.6,263.2,844.6,273.7z M821.8,273.7c0-3.7-1.1-6.9-3.4-9.7c-2.3-2.8-5.2-4.2-8.8-4.2c-3.7,0-6.7,1.4-9,4.3
		c-2.2,2.7-3.3,5.9-3.3,9.6c0,3.8,1.1,7,3.3,9.7c2.4,2.9,5.4,4.3,9,4.3c3.6,0,6.6-1.4,9-4.3C820.7,280.7,821.8,277.5,821.8,273.7z"
		/>
	<path class="st8" d="M919.9,273.7c0,10.6-3.2,19.2-9.7,25.7c-6.5,6.6-15,9.9-25.5,9.9c-10.2,0-18.6-3.2-25.2-9.7
		c-6.6-6.5-9.9-14.8-9.9-25c0-10.8,3.2-19.5,9.5-26.2c6.3-6.7,14.8-10.1,25.6-10.1c10.5,0,19,3.3,25.5,9.8
		C916.7,254.7,919.9,263.2,919.9,273.7z M897.1,273.7c0-3.7-1.1-6.9-3.4-9.7c-2.3-2.8-5.2-4.2-8.8-4.2c-3.7,0-6.7,1.4-9,4.3
		c-2.2,2.7-3.3,5.9-3.3,9.6c0,3.8,1.1,7,3.3,9.7c2.4,2.9,5.4,4.3,9,4.3c3.6,0,6.6-1.4,9-4.3C896,280.7,897.1,277.5,897.1,273.7z"/>
	<path class="st8" d="M953.6,266.1c0,12.7,0,22.4,0.1,29.1c0,1.1,0.1,2.9,0.2,5.5c0.1,2.4,0.2,4.2,0.2,5.5c0,1-0.6,1.6-1.7,1.7
		c-2.1,0.4-5.8,0.6-11.3,0.6c-5.6,0-9.1-0.2-10.6-0.6c-1-0.2-1.6-0.9-1.7-1.9c0-0.1,0-1.1,0-3c0-4.1,0-10.3,0.1-18.5
		c0.1-8.2,0.1-14.4,0.1-18.5c0-19.5,0-28.4,0.1-26.6c-0.1-10.2-0.7-19.1-1.7-26.5c-0.1-0.5-0.1-0.9-0.1-1.2c0-1,0.6-1.5,1.8-1.5
		h24.8c1.2,0,1.7,0.5,1.6,1.5l-0.1,1.3C954.2,233,953.6,250.7,953.6,266.1z"/>
	<path class="st8" d="M197.9,568.1c-7.3,0-16.7-0.2-28.3-0.5c-15.2-0.3-24.6-0.5-28.3-0.6l-37.8-0.5c-3.8,0.1-9.2-0.1-16.3-0.5
		c-2.4-0.4-3.7-1.7-3.7-3.9c0-9.2,0.1-23,0.4-41.3c0.3-18.3,0.4-32.1,0.4-41.3c0-9.8-0.3-24.4-0.9-43.9c-0.6-19.5-0.9-34.2-0.9-43.9
		c0-1.9,1.3-2.8,3.8-2.8s6.3,0.1,11.3,0.4c5,0.3,8.7,0.4,11.2,0.4c2.8,0,6.9-0.1,12.4-0.4c5.5-0.3,9.6-0.4,12.4-0.4
		c1.3,0,1.9,0.8,1.8,2.4l-0.1,1.6c-1,15.9-2.1,39.7-3.4,71.5l-0.1,33.4c0,10.8,0,18.7,0.1,23.6c0.1,1,0.2,2,0.3,3
		c0.1,1,0.7,1.6,1.9,1.9c0.1,0,1.2,0,3.3,0c7.6,0,18.9-0.4,34.1-1.2c15.1-0.8,26.5-1.2,34.1-1.2c2.3,0,3.4,1,3.4,2.9
		c0,14.4-1.1,26.9-3.2,37.3c-0.4,2.2-1.3,3.5-2.7,3.9C202.6,568,200.9,568.1,197.9,568.1z"/>
	<path class="st8" d="M352.8,526.6c0,3.6-0.7,10.3-2.1,20c-1.5,10.5-2.9,16.8-4,18.8c-1,1.6-2.4,2.4-4.2,2.4c-0.8,0-2-0.1-3.8-0.4
		c-6.2-0.8-24.1-1.3-53.9-1.3c-6.5,0-16.1,0-29-0.1c-12.8-0.1-22.4-0.1-28.8-0.1c-2.8,0-4.2-1.2-4.2-3.7c0-9.4,0.5-23.6,1.6-42.6
		c1.1-18.9,1.6-33.1,1.6-42.6c0-9.6-0.5-27.5-1.5-53.7c-0.3-6.7-0.7-16.8-1.4-30.2l-0.1-1.8c-0.2-1.9,0.9-2.9,3.2-2.9
		c6.2,0,15.6,0.2,28.1,0.5c12.5,0.3,21.9,0.5,28.1,0.5c6.2,0,15.4-0.2,27.8-0.5c12.4-0.3,21.7-0.5,27.8-0.5c4.4,0,6.9,1.6,7.6,4.9
		c0.4,1.9,1.1,7.8,2,17.6c0.9,9.8,1.3,15.8,1.3,17.9c0,1.8-0.8,2.7-2.5,2.7c-0.5,0-1.4,0-2.7-0.1c-22.4-1.9-42.6-2.8-60.5-2.8
		c-4.5,0-7.2,1.1-8.2,3.2c-0.4,1-0.6,4.3-0.6,9.7c0,5.7,0.8,9.5,2.5,11.4c1.4,1.6,4.2,2.4,8.2,2.4c0.8,0,2.5-0.1,4.9-0.2
		c2.4-0.1,4.5-0.2,6.1-0.2c10.6,0,21.4-0.3,32.2-0.9c0.9-0.1,3.2-0.3,7-0.6c2.9-0.3,5.1-0.5,6.8-0.5c2,0,3,1,3,2.9
		c0-1.8-0.8,4.7-2.3,19.3c-0.7,6.7-1,13.5-1,20.2c0,1.7-1.2,2.5-3.7,2.5l-11.4-1.3c-4.8-0.5-15.8-0.8-32.9-0.8h-13.4
		c-3.5,0-5.5,0.8-6.1,2.5c-0.1,0.4-0.1,3-0.1,7.8c0,6.4,0.4,10.5,1.3,12.4c1.4,3.2,6.8,5.1,16.2,5.7c-0.2,0,6,0,18.5,0
		c4.5,0,11.1-0.4,19.9-1.2c8.8-0.8,15.4-1.2,19.8-1.2C351.8,522,352.8,523.6,352.8,526.6z"/>
	<path class="st8" d="M455.8,507.8c0,17.1-7.2,31.8-21.6,44c-12.6,10.8-28,17.7-46.2,20.6c-0.7,0.1-1.2,0.1-1.6,0.1
		c-1.9,0-6.2-5.9-12.9-17.8c-6.7-11.8-10-19.1-10-21.7c0-0.9,0.6-1.5,1.9-1.8c12.2-2.8,20.3-5.1,24.3-7.1
		c8.8-4.4,13.2-10.9,13.2-19.5c0-5.5-2.9-11.6-8.6-18.3c-9.9-11.5-15.3-17.8-16.2-19.1c-5.8-8.8-8.7-18.5-8.7-29.1
		c0-15.4,7.1-28.2,21.4-38.4c11.6-8.4,25.9-13.9,42.9-16.4c0.9-0.1,1.6-0.1,2.1-0.1c1.3,0,2.3,1,3,3c2.2,6.2,7.3,17.3,15.3,33.4
		c0.3,0.5,0.4,0.9,0.4,1.3c0,1.4-0.8,2.1-2.3,2.1c-0.7,0-1.8-0.1-3.4-0.4c-1.6-0.3-2.8-0.4-3.7-0.4c-6.1,0-11.4,1.4-15.9,4.2
		c-5.5,3.2-8.2,7.7-8.2,13.4c0,5.1,3,11.5,9.1,19c10.7,13.5,16.3,20.6,16.8,21.2C452.9,489.3,455.8,498.6,455.8,507.8z"/>
	<path class="st8" d="M563.1,507.8c0,17.1-7.2,31.8-21.6,44c-12.6,10.8-28,17.7-46.2,20.6c-0.7,0.1-1.2,0.1-1.6,0.1
		c-1.9,0-6.2-5.9-12.9-17.8c-6.7-11.8-10-19.1-10-21.7c0-0.9,0.6-1.5,1.9-1.8c12.2-2.8,20.3-5.1,24.3-7.1
		c8.8-4.4,13.2-10.9,13.2-19.5c0-5.5-2.9-11.6-8.6-18.3c-9.9-11.5-15.3-17.8-16.2-19.1c-5.8-8.8-8.7-18.5-8.7-29.1
		c0-15.4,7.1-28.2,21.4-38.4c11.6-8.4,25.9-13.9,42.9-16.4c0.9-0.1,1.6-0.1,2.2-0.1c1.3,0,2.3,1,3,3c2.2,6.2,7.3,17.3,15.3,33.4
		c0.3,0.5,0.4,0.9,0.4,1.3c0,1.4-0.8,2.1-2.3,2.1c-0.7,0-1.8-0.1-3.4-0.4s-2.8-0.4-3.7-0.4c-6.1,0-11.4,1.4-15.9,4.2
		c-5.5,3.2-8.2,7.7-8.2,13.4c0,5.1,3,11.5,9.1,19c10.7,13.5,16.3,20.6,16.8,21.2C560.1,489.3,563.1,498.6,563.1,507.8z"/>
	<path class="st8" d="M759.7,477.4c0,26.3-8.4,48.4-25.2,66.1c-17.1,18-38.8,27.1-65,27.1c-26.1,0-47.7-9.1-64.9-27.3
		c-16.9-17.8-25.3-39.8-25.3-65.9c0-26.2,8.4-48.3,25.3-66.1c17.2-18.3,38.8-27.4,64.9-27.4c25.9,0,47.5,9.1,64.8,27.4
		C751.3,429.3,759.7,451.4,759.7,477.4z M711.8,477.2c0-12.6-3.8-23.4-11.5-32.2c-8-9.3-18.3-13.9-30.7-13.9
		c-11.9,0-22,4.8-30.2,14.4c-8,9.3-12,19.9-12,32c0,12.9,3.8,23.6,11.3,32.2c7.9,9,18.3,13.5,31,13.5c11.9,0,22-4.8,30.4-14.3
		C707.8,499.8,711.8,489.2,711.8,477.2z"/>
	<path class="st8" d="M947.8,392.4c0,9.6-0.4,24-1.2,43.3c-0.8,19.3-1.2,33.7-1.2,43.4v83.3c0,2.3-1.2,3.4-3.7,3.4
		c-2,0-5.1,0.1-9.2,0.3c-4.1,0.2-7.1,0.3-9.2,0.3c-2.2,0-5.5-0.2-9.9-0.5c-4.4-0.3-7.7-0.5-9.9-0.5c-1.5,0-3.3-1.4-5.4-4.2
		c-6.1-8.2-19.7-26.3-41-54.4c-5.8-7.8-14.7-19.4-26.6-34.7c-0.3-0.5-1-1-1.9-1.5c-0.7,0.6-1,1.5-1,2.8c0,9.8,0.3,24.5,0.8,44
		c0.5,19.6,0.8,34.2,0.8,44c0,3-1.1,4.4-3.4,4.4h-43.8c-2.4,0-3.7-1.3-3.7-3.9c0-9.1,0.4-22.8,1.3-41.2c0.9-18.4,1.3-32.2,1.3-41.4
		c0-9.7-0.4-24.2-1.2-43.5c-0.8-19.3-1.2-33.8-1.2-43.4c0-1.9,1.6-2.8,4.9-2.8c4.9,0,10.9-0.3,18.1-1c1.7-0.2,5-0.7,10-1.6
		c4.2-0.8,7.5-1.1,10-1.1c1,0,2.6,1.4,4.7,4.3l47.2,64.6c4.2,5.8,10.6,14.3,19.1,25.5c2.1,2.6,3.9,3.9,5.4,3.9
		c1.1,0,1.6-3.3,1.6-9.9c0-8.9-0.5-22.2-1.5-40c-1-17.8-1.5-31.2-1.5-40.1c0-3.1,0.9-4.7,2.7-4.7c5.1,0,12.7-0.2,22.9-0.6
		c10.2-0.4,17.8-0.6,22.9-0.6C947,388.5,947.8,389.8,947.8,392.4z"/>
</g>
</svg>
