<?xml version="1.0" encoding="utf-8"?>
<!-- Generator: Adobe Illustrator 21.0.0, SVG Export Plug-In . SVG Version: 6.00 Build 0)  -->
<svg version="1.1" id="Layer_1" xmlns="http://www.w3.org/2000/svg" xmlns:xlink="http://www.w3.org/1999/xlink" x="0px" y="0px"
	 viewBox="0 0 1024 1024" style="enable-background:new 0 0 1024 1024;" xml:space="preserve">
<style type="text/css">
	.st0{display:none;}
	.st1{display:inline;}
	.st2{fill:#969696;}
	.st3{fill:#0C658E;}
	.st4{display:inline;opacity:0.6;fill:#7AB4E2;enable-background:new    ;}
	.st5{fill:#FFFFFF;}
	.st6{opacity:0.6;fill:#03EDFF;enable-background:new    ;}
	.st7{fill:#2EFF96;}
</style>
<g id="Layer_1_1_" class="st0">
	<g class="st1">
		<path class="st2" d="M911,40c19.4,0,37.7,7.6,51.5,21.5C976.4,75.3,984,93.6,984,113v798c0,19.4-7.6,37.7-21.5,51.5
			C948.7,976.4,930.4,984,911,984H113c-19.4,0-37.7-7.6-51.5-21.5C47.6,948.7,40,930.4,40,911V113c0-19.4,7.6-37.7,21.5-51.5
			S93.6,40,113,40H911 M911,0H113C50.9,0,0,50.9,0,113v798c0,62.2,50.9,113,113,113h798c62.2,0,113-50.9,113-113V113
			C1024,50.9,973.1,0,911,0L911,0z"/>
	</g>
	<g class="st1">
		<polygon class="st3" points="482.9,256.2 493.1,320.7 552,348.8 493.9,378.5 485.3,443.2 439.1,397 374.9,408.9 404.6,350.7 
			373.4,293.3 437.9,303.5 		"/>
	</g>
	<g class="st1">
		<polygon class="st3" points="720.3,397.8 706.3,481 766.9,539.7 683.4,552.2 646.3,628 608.7,552.4 525.1,540.5 585.4,481.4 
			570.8,398.3 645.7,437.3 		"/>
	</g>
	<g class="st1">
		<polygon class="st3" points="531.3,631.5 437.4,673.7 418.9,774.9 349.8,698.6 247.8,712.3 299,623 254.5,530.2 355.2,551.3 
			429.7,480.3 440.7,582.6 		"/>
	</g>
</g>
<g id="_x31_" class="st0">
	<path class="st4" d="M1012,1023.7H12.3c-6.6,0-12-5.4-12-12V12c0-6.6,5.4-12,12-12H1012c6.6,0,12,5.4,12,12v999.7
		C1024,1018.3,1018.6,1023.7,1012,1023.7z"/>
	<g class="st1">
		<polygon class="st5" points="247,421.7 247,626 154.4,626 154.4,275.2 273.9,275.2 383.4,436.9 383.4,275.2 484.4,275.2 
			484.4,465.5 380,605.2 		"/>
		<rect x="777.3" y="275.3" class="st5" width="92.6" height="350.7"/>
		<polygon class="st5" points="639.4,626 746.2,626 746.2,164.8 401.1,625.9 510.6,625.9 655.3,433 655.3,538.4 581.2,539 		"/>
	</g>
	<g class="st1">
		<path class="st5" d="M348.3,732.5c-2-8.7-6.9-14.8-14.8-18.2c-4.4-1.9-9.2-2.9-14.6-2.9c-10.3,0-18.7,3.9-25.3,11.6
			s-9.9,19.4-9.9,34.9c0,15.6,3.6,26.7,10.7,33.2s15.3,9.7,24.4,9.7c8.9,0,16.2-2.6,21.9-7.7c5.7-5.1,9.2-11.8,10.5-20.1h-29.5
			v-21.3h53V820h-17.6l-2.7-15.9c-5.1,6-9.7,10.3-13.8,12.7c-7,4.3-15.7,6.5-25.9,6.5c-16.9,0-30.7-5.8-41.5-17.5
			c-11.2-11.7-16.8-27.8-16.8-48.2c0-20.6,5.7-37.1,17-49.6s26.4-18.6,45-18.6c16.2,0,29.2,4.1,39,12.3s15.5,18.4,16.9,30.7
			L348.3,732.5L348.3,732.5z"/>
		<path class="st5" d="M419.6,820.1H395V692.8h24.6V820.1z"/>
		<path class="st5" d="M518.2,808.6c-7.9,9.8-20,14.7-36.2,14.7s-28.3-4.9-36.2-14.7c-7.9-9.8-11.9-21.6-11.9-35.4
			c0-13.6,4-25.3,11.9-35.3c7.9-9.9,20-14.9,36.2-14.9s28.3,5,36.2,14.9c7.9,10,11.9,21.7,11.9,35.3
			C530.2,787,526.2,798.8,518.2,808.6z M498.5,795c3.9-5.1,5.8-12.4,5.8-21.8c0-9.4-1.9-16.7-5.8-21.8s-9.4-7.6-16.6-7.6
			s-12.7,2.5-16.6,7.6s-5.8,12.4-5.8,21.8c0,9.4,1.9,16.7,5.8,21.8s9.4,7.7,16.6,7.7C489.2,802.7,494.7,800.1,498.5,795z"/>
		<path class="st5" d="M624.3,737.3c7,8.9,10.6,20.4,10.6,34.6c0,14.6-3.5,26.8-10.4,36.4c-6.9,9.6-16.6,14.4-29.1,14.4
			c-7.8,0-14.1-1.6-18.8-4.7c-2.8-1.8-5.9-5.1-9.2-9.7v11.8H543V693h24.6v45.3c3.1-4.4,6.6-7.7,10.3-10c4.5-2.9,10.1-4.3,17-4.3
			C607.5,723.9,617.3,728.4,624.3,737.3z M603.7,794.7c3.5-5.1,5.3-11.9,5.3-20.2c0-6.7-0.9-12.2-2.6-16.6
			c-3.3-8.3-9.4-12.4-18.3-12.4c-9,0-15.2,4.1-18.6,12.2c-1.7,4.3-2.6,9.9-2.6,16.8c0,8.1,1.8,14.7,5.4,20s9.1,7.9,16.5,7.9
			C595.2,802.3,600.2,799.8,603.7,794.7z"/>
		<path class="st5" d="M685.4,762.9c4.6-0.6,7.9-1.3,9.8-2.2c3.5-1.5,5.3-3.8,5.3-7c0-3.9-1.4-6.5-4.1-8c-2.7-1.5-6.7-2.2-12-2.2
			c-5.9,0-10.1,1.4-12.5,4.3c-1.8,2.1-2.9,5-3.5,8.6h-23.8c0.5-8.2,2.8-15,6.9-20.3c6.5-8.3,17.8-12.4,33.7-12.4
			c10.4,0,19.6,2,27.6,6.1S725,741.7,725,753v43.2c0,3,0.1,6.6,0.2,10.9c0.2,3.2,0.7,5.4,1.5,6.6c0.8,1.2,2,2.1,3.6,2.9v3.6h-26.8
			c-0.7-1.9-1.3-3.7-1.6-5.4s-0.5-3.6-0.7-5.7c-3.4,3.7-7.4,6.8-11.8,9.4c-5.3,3.1-11.4,4.6-18.1,4.6c-8.6,0-15.7-2.4-21.2-7.3
			c-5.6-4.9-8.4-11.8-8.4-20.7c0-11.6,4.5-20,13.5-25.1c4.9-2.8,12.2-4.8,21.8-6L685.4,762.9z M700.4,774.4c-1.6,1-3.2,1.8-4.8,2.4
			c-1.6,0.6-3.8,1.2-6.6,1.7l-5.6,1c-5.3,0.9-9,2-11.3,3.4c-3.9,2.2-5.8,5.7-5.8,10.5c0,4.2,1.2,7.2,3.6,9.1
			c2.4,1.9,5.2,2.8,8.6,2.8c5.4,0,10.3-1.6,14.9-4.7c4.5-3.1,6.9-8.8,7.1-17v-9.2H700.4z"/>
		<path class="st5" d="M767.7,820.1h-24.6V692.8h24.6V820.1z"/>
	</g>
</g>
<g id="_x32_">
	<g>
		<path class="st6" d="M1012,1024H12c-6.6,0-12-5.4-12-12V12C0,5.4,5.4,0,12,0h1000c6.6,0,12,5.4,12,12v1000
			C1024,1018.6,1018.6,1024,1012,1024z"/>
	</g>
</g>
<g>
	<g>
		<g>
			<g>
				<g>
					<path class="st7" d="M110.7,514.1c4.6,1.2,14.9,0.6,12.9-2.9c-5.8-0.9-11.7-1.8-17.5-2.7L110.7,514.1z"/>
					<path class="st7" d="M144,491.7c-4.1-2.2-9.8-4.7-16.5-6.6c-6.7-1.9-14.4-3.1-22.5-2.3c8.2,2.8,10.6,4.2,13.3,5.7
						c2.8,1.5,5.9,3.1,15.8,5.7c1.9,3.5-5.8,5.7-12.2,4.9c4.5,1.4-4,5.4,7,7.5c6.8-2.1,10.4-4.5,10.9-7.1c0.2-1.3-0.3-2.7-1.6-4.2
						c-1.2-1.5-3.2-3-5.9-4.7C136.3,489.7,140.8,491.3,144,491.7z"/>
					<path class="st7" d="M312.5,239.1l-2.8-0.6C310.8,239.2,311.7,239.3,312.5,239.1z"/>
					<path class="st7" d="M486.3,187c-1.3,0.5-1.8,2.3-1.8,3.9C485.7,189.7,486.7,188.5,486.3,187z"/>
					<path class="st7" d="M516.7,205.8c-0.6-0.6-1.1-0.8-1.7-1.2C515.6,206.2,516.3,207.1,516.7,205.8z"/>
					<path class="st7" d="M312.5,239.1c2.4,0.5,4.8,1.1,7.2,1.6C316.7,235.9,315.2,238.8,312.5,239.1z"/>
					<path class="st7" d="M107.8,439.6c0.6,1.4,2,2.7,4,4c-0.6-1.1-1-2.2-1.3-3.3C109.6,440,108.8,439.8,107.8,439.6z"/>
					<path class="st7" d="M262.8,303.7l-0.9,1.1c1.2,1.6,2.8,3.5,4.7,5.5L262.8,303.7z"/>
					<path class="st7" d="M230.2,354.2c1.2-0.8-11.4-8.8-16.7-12.5c4.9,3.8,6.9,6.2,7.3,7.8C223.2,350.9,226.3,352.5,230.2,354.2z"
						/>
					<path class="st7" d="M170.1,436.3l1.6,2.2C171.2,438,170.8,437.1,170.1,436.3z"/>
					<path class="st7" d="M295.1,275.2c1.5,1.6,3,2.9,3.9,3.6C297.9,277.4,296.5,276.3,295.1,275.2z"/>
					<path class="st7" d="M86.2,606.8c1-0.2,1.7-0.4,2.6-0.6C87.2,606.1,86.1,606.2,86.2,606.8z"/>
					<path class="st7" d="M149.9,514.1l0.8,1.1c2.8,0.1,5.6,0.2,8.4,0.2L149.9,514.1z"/>
					<path class="st7" d="M565.8,230.4c-0.1-0.2-0.1-0.2-0.2-0.3C564,231.5,564.8,231.3,565.8,230.4z"/>
					<path class="st7" d="M801.7,577.7c7.1-1.2,10.8,1.7,14.7,4.6c3.9,2.8,8.1,5.6,16.3,2.8c-2.9-0.2-8.2-3.4-13.9-5.8
						C813,576.9,806.7,575.4,801.7,577.7z"/>
					<path class="st7" d="M110.1,438c0-1,0.1-2.1,0.4-3.1C109.8,436.2,109.6,437.1,110.1,438z"/>
					<path class="st7" d="M832.7,585.1l0.1,0l1.6-0.6C833.7,584.8,833.3,584.9,832.7,585.1z"/>
					<path class="st7" d="M676,267.4c1.3-2.3,2-4.2,2.7-6.1C677.8,262.6,677,264.3,676,267.4z"/>
					<path class="st7" d="M603.1,208.8l1.6,2.7C604.3,209.9,603.7,209.2,603.1,208.8z"/>
					<path class="st7" d="M726.1,280.8c0.1,1.7-1,3.5,1.7,3.2c0.4-0.7,0.7-1.1,0.9-1.7C726.8,283.4,725.6,283.5,726.1,280.8z"/>
					<path class="st7" d="M760.6,318.5c0.7-0.9,1.2-1.7,1.8-2.6c-0.6-0.2-1.1-0.5-1.6-0.8L760.6,318.5z"/>
					<path class="st7" d="M184,788.7c2.2-3.8,5.2-7.5,8.2-11C184.8,785.3,175.4,780.1,184,788.7z"/>
					<path class="st7" d="M116.1,441c-3.6-1.1-5.4-1.9-6-3.1c0,0.8,0.2,1.5,0.4,2.3C112.7,440.8,114.7,441.3,116.1,441z"/>
					<path class="st7" d="M808.5,196.9l6.5,9.2C813.7,202.9,811.3,199.6,808.5,196.9z"/>
					<path class="st7" d="M624.9,920.3l-1.9,2.4C624,922.8,624.7,922.1,624.9,920.3z"/>
					<path class="st7" d="M838.8,228.7c-2.7,4.9-3.7,8.5-3.8,11.3c1.2-0.4,2.3-0.6,3.8-1.5C838.9,235.3,838.9,232,838.8,228.7z"/>
					<path class="st7" d="M192.3,777.6c0,0.1-0.1,0.1-0.1,0.1S192.3,777.6,192.3,777.6z"/>
					<path class="st7" d="M122.3,739.1c2.5,4.8,7.3,3.4,12.7,0.4c5.4-3.1,11.6-7.8,17-9.7c5.6,3.6,3.3,6.7-1.2,10
						c-4.5,3.3-11.1,6.8-14.2,11.3c4.3,2,11.1,1.7,17,1.5c6-0.2,11.2-0.4,12.5,2.2c-2.4,2.2-2.7,3.8-6.8,5.1
						c4.4-0.6,7.4,0.3,9.9,1.9c1.2,0.8,2.3,1.8,3.4,2.8c1.1,1,2.1,2.1,3.2,3.2c4.3,4.3,9.1,8.6,19.5,5.9c-0.9,1.6-1.9,2.9-3,4
						c6.6-7.4,14.1-13.9,19.8-18.2c1.5,1.5,5.1,0.9,7.3,1.2c2.1,0.3,2.8,1.3-1.5,6.1c-1.4-2.2-5.4,1-9.3,2.7l7.1-0.3
						c-11.2,15.2-8.8-0.4-19.2,8.3c5.2,1.5,12.4,1.7,18.2,2.4c6,0.7,10.7,1.9,11.1,6.1c-12,13.6-15.4-7.4-20.8,10.2
						c-0.4-2.1-0.8-4.2-1.2-6.3l-1-6.4c-7.9,12.5-8.6,11-9.6,9.5c-1-1.5-2.2-2.9-11,10.1c0.7,1.9,1.6,3.4,2.5,4.6
						c1,1.2,2,2.1,3.1,2.8c2.1,1.5,4.4,2.2,6.7,2.9c2.3,0.7,4.5,1.4,6.6,2.9c1.1,0.7,2,1.6,3,2.7c1,1.1,1.9,2.5,2.8,4.3
						c4.7-2.4,7.1-5.3,9.4-8.1c2.4-2.8,4.8-5.7,9.4-8.2c6.7,0.2,8.8,2.9,8.6,7c-0.1,4-2.3,9.2-4.6,14.3c-2.2,5.1-4.4,9.9-4.3,13
						c0.1,3.1,2.5,4.5,9.3,2.4c5.3-3.3,12-9.2,17.2-12.3c5.3-3.1,9.2-3.4,9.6,4.6c-5.1,4.7-10.2,9.3-15.3,13.9
						c5,5.2,11,0.6,16.2-2.9c5.2-3.5,9.4-5.9,11.3,3.9c-6.7,5.1-12.8-0.8-12.5,2.3c-0.8,9.3,2.3,8,6.3,4.8c4-3.2,8.8-8.2,11.7-6.2
						l-8.8,15.8c3.6,1.5,7.6,2.5,11.8,3.2c4.2,0.7,8.6,1.2,13.1,1.4c9,0.5,17.9,1.1,25.9,3.2c-3.2,4.4-8.4,8-7.5,14.7
						c2.9,0.2,5.6,0.7,8.3,1.4c1.3,0.4,2.6,0.8,3.9,1.3c1.3,0.4,2.6,0.9,3.8,1.5c5,2.2,9.7,5.3,14.2,9c4.6,3.5,9,7.5,13.3,11.7
						c1.1,1.1,2.1,2.2,3.2,3.2c1.1,1.1,2.1,2.1,3.2,3.1c2.1,2.2,4.2,4.3,6.3,6.3c4.2-4.1,8.3-8.2,12.3-12.3c1.6,0.7,1.2,7.7-1.6,10
						c3,3.9,3.8,1.6,4.6-2.3c0.7-3.9,1.5-9.4,4.1-11.8c4.5,0.2,3.2,10.2-0.9,13.9c4.3-2.2,9.3-4.3,14.5-6c5.2-1.8,10.6-3.3,15.7-3.8
						c2.6-0.3,5.1-0.3,7.5-0.1c2.4,0.1,4.7,0.5,6.9,1.3c4.4,1.5,8.2,4.4,11.1,9.1l-3.5,4.1c1.3,1,2.5,1.4,3.7,1.1
						c1.2-0.3,2.4-1,3.5-2.1c2.2-2.2,4.3-5.7,6.3-8.9c3.9-6.5,7.4-12,11.6-4.2l-2.2,2.5c2.9,1.3,5.9,2,8.9,2.5
						c3,0.5,6.1,0.9,9.2,1.1c1.5,0.1,3.1,0.2,4.6,0.3c1.5,0.1,3.1,0,4.6,0c3.1,0,6.1,0,9.1,0.1c3,0.1,5.9,0.4,8.8,0.9
						c2.9,0.4,5.7,1,8.4,1.9c2.8,1,5.5,2.3,8.1,4.1c1.3,0.9,2.6,1.9,3.9,3.1c1.3,1.1,2.6,2.3,3.8,3.7c1.2-11.3,7.2-9.3,13.2-8.3
						c1.5,0.2,2.9,0.4,4.3,0.3c1.3-0.2,2.6-0.7,3.6-1.6c2-2,3.1-6,2.6-13.8c7.6,6.8,10.9,11.7,14.8,15.9c3.9,4.1,8.4,7.3,19.5,10.6
						c2.8,0.2,3.9-4.9,4.9-10.8c1-5.8,1.9-12.2,4.6-14.6l3.8,15.9c1.7-6.2,3.2-12.5,4.6-18.7c3.1,6,6.3,11.9,9.5,17.7l4.9-5.7
						c-2.7-0.3-7-5.6-7.8-10.3c3.6-4.9,9.8-3.7,15.7-0.4c5.8,3.2,11.4,8.5,12.8,12.4c3-3.4,5.9-6.9,8.8-10.3
						c1.4-1.7,2.8-3.5,4.2-5.3l4.1-5.3c1.9,6.3-0.8,9.8-2.3,14.9c2.9-10.1,4.8-6.2,6.9-2.2c2,4,4.1,8.2,6.6-1
						c-2.8-2.9-2.9-9.3-3.9-12.5c2.2,1.7,4.7,2.9,7.2,3.2c2.5,0.3,5,0.1,7.5-0.6c2.5-0.7,4.9-1.9,7.1-3.4c1.1-0.7,2.2-1.6,3.2-2.4
						c1-0.9,1.9-1.9,2.7-2.9l3.3,11c4.2-1.3,8.3-3.4,12.2-5.8c2-1.2,3.9-2.5,5.8-3.9c1.9-1.5,3.7-3,5.6-4.5
						c3.7-3.1,7.4-6.3,11.2-9.4c3.7-3.2,7.5-6.2,11.7-8.8c-8.8-0.6-17.8-18-14.4-22.4c3.8,4.4,7.6,8.8,11.4,13.2
						c-1.5-5.4-3.6-6-5.5-7.1c-1.9-1.1-3.5-2.7-4.1-10c6.7-2.2,15,13.5,14.7,20.6c1.3-3.3,2.5-6.7,3.7-10c3.4,3.9,3.3,7.3,6.6,13
						c-1.6-5.5,4-4.1,9.3-3.8c2.6,0.1,5.2,0.1,6.7-1.2c1.4-1.3,1.8-3.8,0-8.3l3.5,3.8c3.9-3,7.1-6,9.8-8.8c2.7-2.9,4.8-5.8,6.8-8.6
						c2-2.8,3.9-5.5,6-8.3c2.1-2.7,4.2-5.6,7-8.5c-10-11-3.3-12.9-8.6-24.5c5.5-2.3,12.5-3.7,19.3-6c0.8-0.3,1.7-0.6,2.5-0.9
						c0.8-0.3,1.6-0.7,2.4-1.1c1.6-0.7,3.1-1.6,4.6-2.5c2.9-1.8,5.5-4.1,7.5-6.9c0.1-1.5,0-2.8-0.2-3.9c-0.2-1.1-0.5-2.1-0.9-2.9
						c-0.8-1.7-2-2.8-3.2-3.9c-2.6-2.1-5.7-3.9-7.8-8.3c5.5,4,10.1,3.2,13.7,2.7c3.6-0.4,6.4-0.5,8,5.3c1.1-1.8,2-3.4,2.9-5
						c0.9-1.5,1.7-3,2.4-4.4c1.4-2.8,2.5-5.5,3.4-8.3c1-2.9,1.8-6,2.5-9.9c0.6-3.9,1.1-8.6,1.5-14.3c-5.9-1.1-9.2-0.4-12.4-3.9
						c0-4.2,9.2-3.9,14.5,0l0.7,1.6c-0.3-1.9-0.3-3.6-0.2-5.2c0.2-1.6,0.5-3.1,1.1-4.5c1.2-2.8,3.2-5.2,5.8-7.3
						c1.3-1.1,2.7-2.1,4.2-3.1c1.5-1,3-2,4.7-2.9c3.3-1.9,6.8-3.7,10.2-5.6c7-3.7,13.4-7.8,17.1-12.8c1.8-2.5,3-5.1,3.1-8.1
						c0-3-1.1-6.2-3.5-9.7l0.9,1.5c-1.1-3.9-2.2-7.8-3.3-11.7c-0.6-1.9-1.1-3.8-1.7-5.7l-1.9-5.7c2.5-3.7,4.5-1.7,7.1,0.9
						c2.6,2.6,5.8,5.8,10.9,4c-3.6-6.9-4.7-12.1-4.2-16.5c0.3-4.4,2-8.1,3.9-11.6c1-1.7,2-3.5,2.8-5.2c0.4-0.9,0.9-1.8,1.2-2.7
						c0.3-0.9,0.6-1.8,0.8-2.8c0.8-3.8,0.6-8-2.2-12.9c5.3-0.5,9.3-1.7,12.5-3.4c3.1-1.7,5.2-3.9,6.7-6.4c1.5-2.5,2.3-5.4,2.7-8.4
						c0.2-1.5,0.3-3.1,0.4-4.6c0.1-1.6-0.1-3.2-0.2-4.8c-0.4-6.5-1.3-13.1-0.4-19.1c0.7-6,3.2-11.4,9.9-15.6l-9.5,0.5
						c-4.4-2.6-3-4-0.1-5.1c2.9-1.1,7.1-2.1,8.2-3.8c-7.3,0.2-8.6,4.7-13.6,1.6c-1.3-5-2-10-2.3-14.9c-0.1-1.2-0.1-2.5-0.1-3.7
						c0-1.2,0-2.5,0-3.7c0-2.5,0-5,0.2-7.5s0.4-5.1,0.7-7.6c0.3-2.5,0.8-5.1,1.1-7.7c0.7-5.2,1.6-10.4,2.7-15.7l0.8-4l0.7-4l1.5-8.1
						l1.5-8.2l0.4-2.1l0.3-2.1l0.6-4.1c0.7-5.5,1.4-11,1.9-16.6c0.3-5.5,0.4-11,0.2-16.5c-0.5-8-13.1-7-23.1-6.9
						c-5,0-9.5-0.2-11.6-1.9c-2.2-1.7-2-4.8,2.1-11c6.1,0,12.1,0,18.2,0.1c-1.8-1.5-3.4-3-4.9-4.6c-1.6-1.5-3-3.1-4.3-4.7
						c-2.6-3.2-4.7-6.5-6.5-10c-1.7-3.5-3.5-6.9-4.9-10.5c-1.5-3.6-2.8-7.2-4.1-10.8c-1.3-3.6-2.8-7.2-4.4-10.7
						c-1.6-3.5-3.2-7-5.2-10.2c-2.1-3.2-4.4-6.3-7.1-9.1c-1.4-1.4-2.8-2.7-4.4-4c-0.8-0.6-1.6-1.2-2.4-1.8c-0.9-0.6-1.8-1.1-2.7-1.6
						c4.4-0.4,9.1-2.9,10.3-0.3c1-1.4,1.7-2.9,1.9-4.2c0.2-1.3,0.1-2.6-0.3-3.8c-0.8-2.4-2.7-4.5-5.2-6c-4.9-3-11.8-3.8-16.3-1.1
						c-1.4-4.4,7.4-5.8,10.4-11c1.5-4.7-4.1-5.9-8.9-7.1c-4.8-1.2-8.8-2.2-4.6-7.2c1.4-1.6,4.5-0.9,5.9-0.5
						c-7.4,0.1-9.9-16.7-19.5-4.9c-0.1-1.6-0.4-3.1-1-4.4c-0.3-0.6-0.6-1.2-0.9-1.8c-0.4-0.6-0.8-1.1-1.2-1.6c-1.7-2-3.9-3.5-6-5.1
						c-2.1-1.5-4.1-3-5.5-4.9c-0.7-0.9-1.2-2-1.6-3.2c-0.4-1.2-0.5-2.5-0.4-4c-8.2,3.1-9.6-1.6-11.6-5.5c-1-1.9-2-3.7-3.9-4
						c-2-0.3-4.9,0.8-9.4,4.4c18.3-15.6,0.7-27.6-12.2-23.9c6.7-3.6,0.8-9.6,9.7-15c-3.1-2.7-6.7-4.5-10.5-4.2
						c-3.8,0.2-7.7,2.4-11.3,7.5c2-7.7,0.6-11.8-2.3-14c-2.8-2.2-7.3-2.3-11.4-2.4c-4-0.2-7.7-0.3-9.4-2.6c-0.8-1.1-1.2-2.8-0.9-5.3
						c0.3-2.5,1.3-5.7,3.2-10c-6.8-0.9-13.2-1.9-19.4-2.9c-6.3-0.8-12.3-1.7-18-2.8c-1.4-0.3-2.9-0.5-4.3-0.8
						c-1.4-0.2-2.8-0.4-4.3-0.7c-2.8-0.5-5.6-0.9-8.3-1.5c-2.7-0.5-5.4-1.1-8-1.6c-2.7-0.5-5.3-1-7.9-1.5c2.9-5.2,5.7-7.3,8.5-7.8
						c1.4-0.3,2.7-0.1,4.1,0.2c1.3,0.3,2.6,0.9,3.9,1.4c5.2,2.1,10.3,4,16.3-7c-5.7-0.4-11.2,0-16.4,0.8c-5.3,0.8-10.3,2-15,2.8
						c-2.4,0.4-4.6,0.7-6.9,0.8c-1.1,0-2.2,0.1-3.3,0c-1.1,0-2.2-0.1-3.2-0.2c-4.2-0.5-8.2-2.1-12-5.4c-1.6-2.5,0-4.6,2.5-6.5
						c2.5-1.8,5.8-3.4,7.5-4.9c-2.8,0.1-5.4-0.1-7.9-0.5c-2.5-0.4-4.9-0.9-7.2-1.6c-4.6-1.3-9-3.2-13.3-5c-4.4-1.6-8.7-3-13.3-3.7
						c-2.3-0.3-4.6-0.4-7-0.2c-2.4,0.3-4.9,0.8-7.4,1.8c0.7-2.1,3.2-3.9,5.4-5.2c-3.6-0.2-6.8-5.6-9.4,5l4-1.9
						c0.4,8.3-5.2,15.3-11,21.2c-5.8,6-11.7,10.9-13,14.9c3.2-7.2,4-11.5,3.6-14.5c-0.4-3-2-4.6-3.4-6.5c-1.4-1.9-2.8-4-2.6-7.9
						c0.1-3.9,1.7-9.6,6.2-18.7c-2.7,1.5-6.6,5.9-7.7,13.1c-2.7-2.8-2.9-7.2,2.2-14.5c-3.4,0.7-5.7,2.1-7.6,3.6
						c-1.9,1.6-3.2,3.4-4.4,5c-2.5,3.2-4.6,5.7-9.9,4.6c0.9-5.2,3.5-6.8,5.7-12.7c-3.7,4.5-7.3,9.1-11,11.8
						c-0.9,0.7-1.8,1.2-2.8,1.6c-0.9,0.4-1.9,0.7-2.9,0.9c-1.9,0.3-3.9-0.2-6-1.6c1-3.1,0.4-7.3,3.2-6.9c-4-0.1-7.9,1.3-11.7,3.3
						c-0.9,0.5-1.9,1-2.8,1.6c-0.9,0.6-1.9,1.2-2.8,1.9c-1.8,1.3-3.6,2.6-5.4,3.8c-3.6,2.4-7.1,4.5-10.8,5.3
						c-1.8,0.4-3.7,0.5-5.6,0.2c-1.9-0.3-3.9-1-5.9-2.3c5.6-22.7-5.6-7.7-6.3-27.5c-1.6,1-3.2,1.9-4.8,2.9l-4.7,3.1
						c1.3,3.2,2.6,6.3,3.8,9.5c-4.1-0.1-7.8,3.5-11.4,6.4c-1.8,1.4-3.5,2.7-5.2,3.1c-1.7,0.4-3.4,0.3-5.2-1.2l2.7-4.3l2.8-4.2
						c-2.5,0.6-5,1.5-7.5,2.3l-7.4,2.4c3,2.3,6,4.6,9,6.8c-3.7,5.4-3,11.6-2.8,15.9c0.2,4.3,0,6.6-5.2,4.3
						c1.8-2.1-7.4,0.2-12.7-10.7c0,0,0,0,0-0.1c-3.1,6.7-6,13.8-12.2,9.6c-2.4-6.1-2.1-21.8-3.7-25.8c-0.7,8.4-5.1,10.4-9.6,12.5
						c-4.4,2.1-9,4.3-9.5,13.5c0.7-4.4-1.3-14.6-2.3-16.6c-0.1,4.6-0.3,9.3-0.3,13.9c-4.4-3.4-5.4-5.3-6.7-13.5
						c-5.7,0.1-3.4,6-1.6,10.9c1.8,5,3.1,8.9-4.4,5.1c0.7-1.3-0.3-3.1,1.3-5.6c-1.8-0.3-3.4-0.4-5-0.1c-1.6,0.3-3.1,0.8-4.6,1.4
						c-2.9,1.3-5.7,3.1-8.3,4.9c-1.3,0.9-2.7,1.8-4,2.6c-1.3,0.9-2.6,1.7-4,2.3c-2.7,1.3-5.7,1.9-9,1.3c-10-17.6,8.5-8-0.8-22.6
						c-2,1.2-3.9,2.6-5.8,4.1c-0.9,0.8-1.9,1.6-2.8,2.5c-0.9,0.9-1.8,1.8-2.7,2.7c-3.5,3.9-6.7,8.1-10,12c-3.3,3.9-6.4,7.8-9.9,10.8
						c-1.7,1.5-3.5,2.8-5.4,3.7c-0.9,0.5-1.9,0.9-2.9,1.3c-1,0.4-2,0.7-3.1,0.9l3.7,0.6c5.1,13.2,1,11.4-4.9,8.4
						c-2.9-1.5-6.2-3.3-8.9-3.8c-2.7-0.4-4.8,0.4-5,4.4c0.8-2.9-5-15-4.1-12c-6.2,0.9-10.7,5.5-14.7,11.8c-2,3.2-3.8,6.9-5.8,10.8
						c-1,1.9-2,3.9-3,6c-0.5,1-1.1,2-1.6,3.1c-0.5,1-1.1,2.1-1.6,3.2l-2.3-7.2c-4.6-0.7-8.8,1.2-12.9,3.4c-2,1.1-4,2.3-6,3.4
						c-1.9,1.1-3.8,2.1-5.8,2.6c2.7,7.1-1.3,8.7,7.2,15.4c-5.4-2.3-9.8-3.3-13.4-3.3c-3.6,0.1-6.3,1.1-8.5,2.7
						c-2.2,1.6-3.8,3.9-5.1,6.5c-0.3,0.6-0.6,1.3-0.9,2c-0.3,0.7-0.5,1.4-0.8,2.1c-0.5,1.4-0.9,2.9-1.3,4.4c-0.8,3-1.5,5.9-2.5,8.6
						c-0.9,2.7-2.1,5.1-3.6,7.1c-3.1,3.9-8.3,5.7-18.1,3.6c1.6-1.8-0.6-8.5-2-7.1l-1.8,4.3c-0.6,1.4-1.1,2.9-1.6,4.4l-3.1,8.7
						c10.2,7,7.1,3.1,16.6,6.8c4.1,6.4,5.4,13.4,2.8,16.4c-0.8-5.3-4.5-8.5-9-10.5c-4.5-2.1-9.9-2.9-13.5-3.8
						c3.2,1.9,5.8,5.4,8.9,7.6c-11.2-3.4-6.6,0.8-1.5,5.7c5,5,10.7,10.7,1.3,10.7l-4.7-4.4c0,1.4,0.2,2.9,0.6,4.5
						c0.4,1.6,0.8,3.2,1.1,4.8c0.6,3.1,0.8,5.8-1.3,7.1c-12.7-6.6-2.7-7.6-12-14.7c-1.6,3,1.9,9.6,4.1,14.9c2.1,5.3,3.1,9.5-4.5,8.1
						c-0.9-2.3-0.8-4.2-0.7-6.2c0.1-2,0.3-3.9-0.5-6.2c-4.4-1-7.5-1.6-9.8-1.8c-2.2-0.2-3.7,0-4.7,0.3c-2,0.7-2.5,2.1-5,3.5l0.6-0.2
						c-4.2,2-8.5,3.9-12.7,6c1.8-0.1,3.6-0.2,5.4-0.2c6.7,6.7,10,11.1,11.2,14.4c1.3,3.3,0.6,5.4-0.5,7.4c-1.1,2-2.6,3.9-2.8,6.7
						c-0.1,2.8,1,6.4,5.1,11.6c-7.7-10-10.4-12.1-12.9-12.5c-2.5-0.4-4.9,0.7-11.8-3.4c-5.3,0.6-11.9,2.5-15.3-0.7
						c4.5,5.5,1.1,6.4-1.7,8c-2.7,1.6-5,4,2,11.6c-4.9-1.8-2.9,5.3-14.3-1.1c0.3,4.3,2.6,4.7,5.4,4.5c2.9-0.2,6.4-1,9.2,0.6
						c2.9,4.3,2.4,7.4,0.5,10.1c-1.9,2.7-5.5,5-8.9,7.5c-1.7,1.3-3.4,2.6-4.8,4.1c-1.4,1.5-2.5,3.2-3.1,5c-1.2,3.7-0.6,8.3,3.9,13.9
						c0.6,2,1.5,3.9,2.5,5.7c1,1.8,2.1,3.4,3.3,5c2.4,3.1,5.1,5.9,7.8,8.6c2.7,2.7,5.4,5.3,7.7,8.1c2.4,2.8,4.5,5.7,6,9.1
						c-4.5,1-8.9-0.9-12.1-3c-3.3-2.2-5.4-4.6-5.4-4.6c-4.4,2.3-6.6,4.9-7.2,7.8c-0.5,2.9,0.6,6.1,3,9.7c-4.2-2.1-8.2-1.6-14.2-0.7
						c0.4,5.5,17.9,6.8,9.2,12.1c-5.5-2.1-14.3-5.1-19.5-8.6c1.8,3.5,4.8,7.2,7.8,10.8c3.2,3.6,6.3,7.2,8.2,10.6
						c-9.1,0.5-13.1-5.5-18.6-8.7c3.1,7.9,5.7,19.9,19.9,23.3c1.8-1.3,3.6-2.6,5.4-3.9c0.5,2.6-12.3,0.1-14.7-2.1
						c-5.2-3.6-3.7-5.8-0.2-6.8c3.4-1.1,8.8-1.2,11.4-1l2.7,4.8c15.3-0.5,14.6-4.7,10.5-10.1c-2.1-2.7-4.8-5.8-6.9-8.7
						c-2.1-2.9-3.5-5.7-2.7-7.8c7,2.6,14,5.1,21.1,7.5c-5.5-3.9-11-7.9-16.4-12.1c3-0.4,7.6-0.2,11.7,0.6c4.1,0.8,7.8,2.3,9,4.7
						c1.5-0.5,2.5-0.9,3.1-1.3c0.7-0.4,1-0.9,1.1-1.3c0.2-0.8-0.6-1.6-1.4-2.4c-1.5-1.5-2.8-3,3.6-4.1c2-0.1,2.9,0.4,3.7,1.1
						c-1.7-2.3-3.4-4.7-5.1-7.1c4.2,2.2,15.3,2.8,11.5,5.4c3.7-1.7,4.6-3.7,4.5-5.9c-0.1-2.1-1.5-4.4-2.8-6.4
						c-2.6-4.1-4.9-7.5,3.6-6.9l1.1,1.2c-0.4-1.9-1-3.5-1.6-4.7c-0.6-1.3-1.4-2.2-2.3-3c-1.8-1.6-4-2.4-6.6-3.1
						c-5.2-1.6-12.1-3.1-19.3-11.5c13.4,1.8,26.8,3.9,40,6.2l-14.8-6.8c1.1-1.2,3.3-3.5,9.1-0.7c-4.2-4.5-5.9-4.9-7.7-5
						c-1.8-0.1-3.6,0.1-7.8-3.3c4.1-0.4,6.2-1.8,7.4-3.7c0.6-0.9,1-2,1.3-3.1c0.3-1.1,0.6-2.2,0.9-3.2c1.4-4,3.9-6.9,15.9-2.2
						c-5.1-3.7-7.9-3.2-10.1-3c-2.2,0.2-3.7,0-6-5.3c13.1,4.8,12.8,2.4,11.2-1.4c-1.6-3.7-4.4-8.9,2.7-9
						c11.8,8.3,2.4,10.1,16.6,10.3c-9.9-7.1-7.3-9.4-2.5-10.4c2.4-0.6,5.4-0.8,7.7-1.3c2.3-0.5,3.9-1.3,3.5-3
						c-8.3-4.9-8.6-8.4-6.9-12.1c0.2-0.5,0.4-0.9,0.7-1.4c0.3-0.4,0.6-0.9,0.9-1.4c0.6-0.9,1.2-1.9,1.8-2.9c1.1-2,2-4.3,1.9-7.1
						c2.6,2,6.9-0.2,12.3-2.8c5.3-2.7,11-6.3,16.4-7.2l2.4,2.2c-7.3-6.5-8.8-10.9-8.5-14.6c0.2-1.9,0.8-3.5,1.5-5.2
						c0.6-1.7,1.4-3.3,1.7-5.1c8.7,7.7,11.5,11.5,13.5,17.3c1.1-1.5,2.4-2.8,3.5-4.3c-3.9-5-5.2-8.5-4.4-12.8l10,10.7
						c1.1-1.5,1.4-3.7,1.5-6.1c0.2-2.4,0.2-5,0.5-7.5c0.3-2.5,0.9-4.8,2.3-6.5c0.7-0.9,1.6-1.6,2.7-2.1c1.2-0.5,2.6-0.7,4.3-0.7
						c-4.5-5-12.6-10.4-19.4-16.2c-6.8-5.8-12.4-12-11.3-19.3c5.4,5,14.4,13.8,14.4,17.9c0-1.3-1.8-6.7,1.8-5.8
						c1.8,4,3.6,8,5.4,11.9c7.1,0.8-5.4-9.1-1.9-10.9c7.1,7.7,7.1,3.6,12.3,10c0,1.4-5.2-1-3.4,3c2.1-0.7,5.1-0.8,8.4-0.1
						c1.6,0.4,3.3,0.9,5,1.8c1.7,0.8,3.4,1.8,5,3c-4.2-4.2-9.4-10.5-8-13.5c2.7-2.8,5.2-0.8,7.9,2c2.7,2.8,5.7,6.5,9,7.1
						c-1.7-3.3-0.4-4.4,0.1-6c0.5-1.6,0.2-4-4.7-10.1c1.8-1.3,6.7,4.1,9.9,7c-0.3-1.9,0.3-3.7,1.3-5.4c1-1.7,2.1-3.4,3.1-5.1
						c1.8-3.4,2.2-7.2-4.5-12.7l-1.5-0.3c0-0.4,0.1-0.5,0.1-0.9c0,0,0,0,0,0l0,0c0.4-5.1,2.4-8.2,5.3-10.2c2.8-2,6.6-2.6,10.4-3.1
						c1.9-0.2,3.8-0.4,5.7-0.6c0.9-0.1,1.9-0.2,2.8-0.4c0.9-0.1,1.8-0.3,2.7-0.4c3.5-0.7,6.5-2.1,8.5-5.2l2.5,4.6
						c0.5-1.1,1-2.2,1.6-3.1c0.6-1,1.3-1.8,2.1-2.6c1.5-1.6,3.1-3.1,4.5-4.7c2.9-3.2,5.3-7,5.5-13.2c2.2-1,9,6.4,10.7,12.5
						c1.8-3,2.4-5.9,3.8-7.5c0.7-0.8,1.7-1.3,3.2-1.3c1.5,0.1,3.5,0.6,6.3,1.8c-2,10.6,4.9,6.8-3,8.4c4.4,0.7,7.7,2.9,10.1,2.8
						c1.2,0,2.3-0.6,3.1-2.2c0.4-0.8,0.8-1.8,1.2-3.2c0.4-1.4,0.7-3.1,1.1-5c1,6.7,3.8,10.2,6.5,11.5c2.7,1.3,5.3,0.2,6.3-2.2
						c-2.6-2.5-5.2-5-7.9-7.4c3.1-3.1,6.8-3.1,10.5-3.2c1.1,5.8,2.3,11.6,3.5,17.4c2.5,1.9,4.6,2.9,6.4,3c1.8,0.1,3.2-0.7,4.5-2.1
						c2.6-2.6,4.5-7.6,6.7-11.8c2.1-4.2,4.4-8,7.2-8.8c1.4-0.3,3,0,4.8,1.6c1.8,1.6,3.8,4.3,5.9,8.5c0.7-6.4-1.6-8.2-4.1-10.2
						c-1.3-1-2.5-2.1-3.5-3.8c-0.9-1.7-1.5-4.1-1.4-7.8c3.8,0.5,8.6,6.7,12.6,12.7c4,6,7.1,11.9,8.1,11.8c5.1,4.3,6.2-2.3,7.6-9.4
						c0.7-3.5,1.4-7.2,2.6-9.6c0.6-1.2,1.3-2.1,2.3-2.5c0.9-0.4,2-0.3,3.3,0.4c-1.8-6.2-4.9-22.8,2.7-29.3c3.9,0.9,6.6,7.3,7.7,14.1
						c1.1,6.9,0.8,14.2-1.2,16.9c-1.6,0.7-2.5-1.3-2.6-3.4c-2.1,2.4-4.7,5.4-1.5,12l0.4-6.3c1.9,3.1,5.2,4.3,7.7,6
						c2.6,1.8,4.4,4.2,3.5,9.4c4.7-6.1,1.8-10.4-2.2-13.5c4.6,4.5,7.9,4.4,11.3,4c1.7-0.2,3.4-0.6,5.2-0.3c1.8,0.2,3.8,0.9,6,2.5
						c-1.3-3.5-2.5-10.9-1.1-10.8c6.6,4.1,8.1,1.1,9.2-3.2c0.6-2.1,1-4.6,1.9-6.7c0.9-2.1,2.3-3.7,4.7-4.2c2.4,5,1.4,10.7,1.2,14.2
						c-0.2,3.5,0.2,4.9,5,1.2c2.5,3.4,2.3,7.6,1.3,11.5c-1,3.9-2.9,7.6-4.2,10.1c2.2-2.9,4.2-3.8,6-3.4c1.8,0.4,3.3,2.1,4.7,4.2
						c2.7,4.2,4.7,10,6.6,11.4c-1.5,1.5-3.1,3-4.6,4.5c2.7-2.7,4.6-2.4,6.5-2.1c-0.1-4.3-0.2-8.5-0.4-12.8c0.5,0.6,1,1.1,1.5,1.6
						c0.5,0.5,0.9,0.9,1.2,1.5c0.6,1.1,0.9,2.5,0.5,5c1.8-3.9,2.3-9.1,3-14.7c0.7-5.6,1.8-11.5,5.4-16.5c1.1,3.5,4,2.2,6.4,2.2
						c1.2,0,2.3,0.3,2.9,1.6c0.6,1.4,0.8,3.8,0.2,7.9c-0.6-0.5-1.1-0.9-1.5-1.1c-0.5-0.2-0.9-0.3-1.2-0.4c-0.7,0-1.2,0.3-1.6,0.9
						c-0.8,1.2-1,3.6-1.3,6.2c-0.5,5.2-1.1,11.5-5.5,12.1c1.9-1.7,3.9-1.3,5.8,1.3c0,1.9-1,3.3-1.8,4.1c5.9,16.6,8.1-17.5,18.1-14.8
						c-1.8,4.4-2.3,8.9-2.1,12c0.1,3.2,0.9,5.1,2,4.3c-3.7-1.3,2-15.7,7.7-21.6c2.2,4.4,4.3,3.6,6.3,1.9c2-1.7,3.9-4.3,5.4-3.4
						l-2.9-4.4c2-4.3,3.8-5.9,5.8-6.7c2-0.7,4.1-0.4,6.9-1c-1.9,7.1-5.8,3.4-5.1,7c5.1-7,6.8-1.9,8.2,3.8c0.7,2.9,1.5,5.8,2.6,7.7
						c1.1,1.9,2.8,2.5,5.5,0.6c0.4,3.6-1.1,7.7-2.6,11.6c-1.5,3.9-3,7.5-2.5,10c2.9-2.1,4.6-2.2,5.6-1.3c1,0.9,1.3,2.9,1.6,5
						c0.6,4.1,0.9,8.4,6.6,5.4c3.3-12.4,1.4-9.9,12.1-18.5c-5.6,0.7-11,1.5-16.3,2.4c5.1-4.4,10.3-8.8,15.7-13.1
						c-2-1-4.9-0.1-7.5,0.6c-1.3,0.4-2.5,0.7-3.5,0.8c-1,0.1-1.8-0.1-2.1-0.8c4-4,5.7-5.2,6.5-6.8c0.9-1.6,1-3.5,2.1-8.8
						c-0.9,10,2.9,8.7,7.2,6.8c2.2-1,4.5-2.1,6.3-2c0.9,0,1.7,0.3,2.3,1.1c0.6,0.8,1,2,1.1,3.9l-14,28c0.6,4.2,2.3,5.9,4.6,6.3
						c1.2,0.2,2.5,0.1,4-0.3c0.7-0.2,1.5-0.4,2.3-0.6c0.8-0.2,1.6-0.4,2.3-0.6c3.2-0.9,6.6-1.9,9.7-1.8c3.1,0.1,5.9,1.1,7.6,4.6
						c-0.2-2.3-0.4-4.7-0.7-6.9c4-4.9,6-4.1,7.7-2.4c1.8,1.7,3.3,4.4,6.5,3.4c-6.1,8.5-5.9,13.1-8.1,19.5c2.1-3.3,3.9-1.8,6.8-1.5
						c2.9,0.3,6.9-0.7,13.6-8.8c-1.1,4.9-2.2,9.6-3.4,14.5c2.4,5.5,9.3,1.4,16.5-2.7c1.8-1,3.7-2.1,5.4-3c1.8-0.9,3.5-1.6,5-2
						c3.1-0.9,5.8-0.7,7.3,1.8c-5,3.2-7.7,7.1-10.6,10.2c-2.9,3.2-5.9,5.8-11,6.7c2.5,2.3,3.5,5.7,8.3,0.3c-1.4,3.1,2.7,2,6.7,1.4
						c3.9-0.5,7.7-0.6,5.5,4.1c4.2-2.3,12.2-9.9,14.5-6.5c-1.2,1.8-3.6,3.7-3.6,3.7c1.8-1.8,4.2-2,6.8-3c2.6-1,5.5-2.8,8.3-8.2
						c-3.8,7.9-4.3,13-3.1,16.8c0.6,1.9,1.6,3.4,2.9,4.8c1.2,1.4,2.6,2.7,4.1,3.9c2.9,2.5,5.9,4.8,7.2,8.2c1.2,3.4,0.7,7.7-3.4,13.9
						c1.9,0.9,3.8,2,5.7,3.1c1.9,1.1,3.7,2.4,5.5,3.7c1.8,1.3,3.4,2.6,5,4c0.8,0.7,1.5,1.3,2.2,2c0.3,0.3,0.7,0.7,1,1
						c0.3,0.3,0.6,0.7,0.9,1c-2.8,1.4-4.3,2.9-4.1,1.2c-1.5,6.7,5.6,3.8,12.7,1.3c3.6-1.3,7.1-2.5,9.6-2.4c1.3,0.1,2.2,0.4,2.8,1.3
						c0.6,0.9,0.8,2.1,0.3,4.1c-5.8,6.9-8.5,6.7-10.2,5.7c-1.7-1-2.6-2.8-4.3,0.3c-14.2,9.6-11.7,11.7-7.2,13.6
						c2.3,0.9,5,1.9,6.3,3.5c1.4,1.7,1.1,4.2-2.5,8.1l-2.6-0.6c-3.9,5.1,0.4,6.4,6,7.8c5.7,1.3,12.4,2.9,13.2,7.5c0,0-3,0.8-4.8,2.1
						c4.6-0.4,8.8-0.1,12.5,0.6c1.9,0.4,3.6,0.9,5.2,1.5c1.6,0.6,3.1,1.3,4.6,2.1c2.9,1.5,5.5,3.3,7.8,5.2c1.2,0.9,2.3,1.9,3.3,2.8
						c1,1,2,1.9,2.9,2.8c-13.6,1.8-8-1.5-20.4,4.7c1.5,1.5,6.6-0.6,12.1-2.3c5.5-1.7,11.3-3,14.5,0.4c-3.1,2.5-5.6,5.6-9.2,8.8
						c-1.8,1.6-3.8,3.1-6.2,4.6c-2.5,1.5-5.3,2.9-8.8,4.1c-0.4-1.2-1-2.3-1.5-3.4l-1.6-3.4c-8.4,4.8-7.5,6.8-4.8,8.4
						c2.6,1.6,7.2,2.8,6.1,5.1l-8.1,1.8c1.4,2.4,3.7,3.9,6.4,5c1.3,0.5,2.8,1,4.3,1.4c1.5,0.4,3,0.8,4.4,1.2
						c5.9,1.6,11.3,3.6,12,9.9l5.8-2.6c5.4,0.6,7.5,1.5,7.8,2.5c0.3,1-1.2,2-2.8,3.1c-3.2,2.1-7.1,4.3,1,6.4
						c-6.7,1.9-13.5,3.7-20.3,5.5c1.4,0.9,3.6,2,6.1,3.5c2.4,1.4,5.1,3.1,7.8,5c2.7,1.9,5.4,3.9,7.8,6c2.3,2.1,4.3,4.2,5.4,6.2
						c-7.8-1.7-14.2-4.5-19.7-7.5c-5.5-3-10.2-6-15.1-8c0.4,4.2,3.3,13.9,13.9,15.2c-2.2-1.6-7.6-3.1-4.6-5.2
						c17.2,3.3,25.6,10.2,26,19.5c-10.2,0.2-15.7,1.7-19,4c-3.3,2.3-4.2,5.4-4.8,8.7c-0.3,1.7-0.6,3.4-1,5c-0.2,0.8-0.5,1.7-0.9,2.5
						c-0.4,0.8-0.9,1.6-1.4,2.4c-2.3,3.1-6.4,5.6-14.3,6.8c1.8,1.9,3.1,3.7,3.9,5.6c0.7,1.9,1,3.7,0.9,5.6c-0.1,1.8-0.5,3.7-1.1,5.5
						c-0.3,0.9-0.7,1.8-1.1,2.7c-0.4,0.9-0.8,1.8-1.4,2.7c-2.1,3.6-4.5,7.1-6.4,10.7c-0.5,0.9-0.9,1.8-1.3,2.8
						c-0.4,0.9-0.9,1.9-1.2,2.8c-0.7,1.9-1.1,3.9-1.2,6c8,0,12,0.2,14,0.7c2,0.5,2,1.3,2,2.3c0,1.9,0,4.5,16,7.2
						c0.7,2.3,0.7,3.8,0.3,4.8c-0.4,0.9-1.1,1.3-2.2,1.3c-7.3,2.8-14.5,5.4-21.7,7.8c-5,0.2-6.4-1.2-7.6-2.7
						c-1.2-1.6-2.1-3.4-5.6-4.1c-0.5,0.9-1.2,1.7-1.8,2.2c-0.7,0.5-1.5,0.8-2.4,1c-1.7,0.4-3.7,0.2-5.8-0.1c-4.2-0.6-9-1.7-13.9-0.4
						c5.7,1.1,9.5,2.8,11.2,4.8c1.7,2,1.2,4.1-1.5,5.7c5.3-0.6,10.7-1.4,16.1-2.2c3.3,4.1,3.2,6.3,1.3,7.5c-1.9,1.2-5.6,1.4-9.3,1.6
						c-3.7,0.2-7.3,0.3-9.2,1.3c-1.9,1.1-2.2,3.1,0.9,7.3c-2.8-2.3-5.6-4.6-8.5-6.9c2,3.8-0.1,8.7,0.2,14.6c0.1,1.5,0.3,3,0.8,4.7
						c0.4,1.6,1,3.3,1.9,5c1.9,3.5,5.1,7.3,10.4,11.4c-3.9-0.5-12.4-3.1-13.5-6.4c-1.2,1.4-1.8,3.1-2.3,5c-0.4,1.9-0.6,3.9-0.5,6.1
						c0.1,4.4,1.2,9.4,1.5,14.1c0.4,4.7,0.5,9.3-0.8,12.7c-1.4,3.4-4.1,5.7-9,5.9l-6-5.3c0.2,1.8,2.7,4.8,4,7.3
						c0.7,1.2,1.1,2.3,0.7,3c-0.3,0.6-1.4,0.9-3.5,0.5c-2.6-2-5.9-5.4-7-4.6c0.7,1.4,2.5,4.8,3.4,8c0.9,3.2,0.8,6.1-2.1,6.3
						c-1.8-2.6-3.6-5.2-5.4-7.8c-1,0.3-1.9,0.7-2.7,1.2c-0.4,0.2-0.7,0.5-1,0.8c-0.3,0.3-0.6,0.5-0.9,0.8c-1.1,1.2-1.6,2.6-1.9,4.2
						c-0.5,3.3,0.4,7.3,1.6,11.8c1.2,4.4,2.6,9,3.6,13.5c0.5,2.2,0.8,4.4,0.8,6.4c0,2-0.1,4-0.7,5.6c-8.6-7.9-16.3-11-22.5-12.1
						c-3.1-0.6-5.9-0.6-8.2-0.4c-2.3,0.2-4.5,0.5-6.1,0.7l-2.2-2.5c-3.4,2.2-5.4,5.3-6.7,9.1c-1.4,3.6-2.2,7.9-2.7,12.6
						c-0.5,4.7-1,9.5-1.7,14.3c-0.8,4.8-1.7,9.7-3.7,13.8c-5.8-3.7-10.6-4.9-15-4.7c-0.5,0-1.1,0.1-1.6,0.1
						c-0.5,0.1-1.1,0.1-1.6,0.2c-1.1,0.2-2.1,0.4-3.2,0.7c-2.1,0.6-4.1,1.4-6.1,2.3c-1,0.5-2,0.9-3,1.4c-1,0.5-2.1,0.9-3.1,1.3
						c-2.1,0.9-4.2,1.7-6.3,2.3c-4.2,1.4-8.9,1.7-13.8,0.2c2,1.4,4,5.5,5.3,9.6c1.3,4.2,1.9,8.4,1.2,10.1c-1.3-0.6-2.1,0.2-2.7,1.6
						c-0.6,1.4-1,3.2-1.5,4.5c-1,2.6-2.5,3.1-6.7-6.7l1.4-0.2c-5.7-9-9.5-11.5-12.5-11.5c-3,0-5.5,2.3-8.2,3l9.5,26.4
						c-7.5-8-12.9-10.2-17.6-9.9c-2.3,0.2-4.5,1.2-6.5,2.5c-1,0.7-2,1.5-2.9,2.3c-1,0.8-1.9,1.6-2.9,2.4c-1.9,1.6-3.8,3.3-5.6,4.6
						c-0.9,0.7-1.9,1.2-2.8,1.7c-0.5,0.2-0.9,0.4-1.4,0.6c-0.5,0.1-1,0.2-1.4,0.2c-3.8,0.3-7.7-2.2-11.6-10.7
						c-0.5,1.9-1.2,3.4-1.9,4.7c-0.7,1.3-1.6,2.4-2.4,3.4c-1.7,2-3.4,4.1-4.6,7.9l-2.5-14.8c-2.6-0.5-4.9-0.9-7-1.2
						c-1-0.1-2.1-0.3-3.1-0.4c-1-0.1-2-0.2-3-0.2c-2,0-4,0.2-6.3,0.8c-1.1,0.3-2.3,0.6-3.6,1.1c-1.3,0.4-2.7,0.8-4.1,1.4
						c0.5-3.6,1-7.2,1.5-10.9c-3.3-0.2-4.5,10.7-5.9,21.9c-0.7,5.6-1.5,11.3-2.5,15.6c-0.5,2.2-1.1,4-1.8,5.4
						c-0.7,1.3-1.4,2.1-2.3,2.3c-1-7.4-2-14.9-3-22.3c-3.1,0.2-6.3-0.9-9.4-2.3c-0.8-0.3-1.6-0.7-2.3-1.1l-2.3-1.3
						c-1.5-0.8-3.1-1.6-4.6-2.2c-3-1.3-6-1.8-9.1-0.9c-3.1,0.8-6.2,3.1-9.7,7.9c0.5-3.2,1.4-9.7,3.4-10.4c-1.4-0.3-3.4-1.4-5.6-2.6
						c-2.2-1.1-4.5-2.4-6.7-2.6c-2.2-0.2-4.3,0.6-6,3.3c-1.7,2.8-3.1,7.5-3.6,15.2c0.7-5,0.2-7.7-0.9-8.8c-1.1-1.1-3-0.9-5.2,0.3
						c-2.2,1.2-4.8,3.2-7.5,5.4c-2.6,2.2-5.3,4.6-7.4,6.3l4-14.2c-4.7,8.6-7.5,14.1-10.2,17.9c-2.8,3.8-5.5,5.8-10.3,7.4
						c-0.8-1.1-0.4-4.1,0.3-6.3c0.7-2.1,1.8-3.4,2.6-1.3c-1.1-2.2-2.2-2.6-3.3-2.1c-1.1,0.5-2.2,2-3.4,3.5c-2.3,3-4.9,5.8-7.8,0.9
						c1.9-2.7,3.7-5.5,5.5-8.2c-3.1-1.5-4.9-0.9-6.7,1.1c-1.9,2.1-3.8,5.7-7.3,10.3c-3,2.1-6,0.1-7.6-4c-1.7-4.1-2-10.2-0.2-16.7
						c-1.8,3.7-4.6,7.7-7.2,10.1c-2.6,2.5-5.2,3.4-6.4,0.8c1.4-4.9,3.9-7.3,5.1-8.4c-1.7-3.4-3.9-4.4-6.4-4.4c-2.4,0-5,0.9-7.5,1.9
						c-2.5,0.9-4.9,1.7-6.7,1.3c-1.8-0.5-3.1-2.1-3.3-6.2c2-4.5,2.6-6.9,2.7-8.5c1.9,1.1,3.8,2.1,5.5,3c1.7,0.9,3.2,1.8,4.4,2.5
						c2.4,1.5,3.7,2.6,3.2,3c2.7-6.3,2.7-10.7,3.6-15.3c0.9-4.7,2.9-9.6,9-17.2c-4.4,3.6-11,9.6-17.2,13.4
						c-6.1,3.8-11.6,5.3-13.2,0.9c0.3-1.3,0.6-2.6,1.4-4.6l1.3-1c-0.7-1.9-2.6-1.4-4.8,0c-0.8-3-1.2-5.2-2.8-6.4
						c2.4-5.1,1.5-7.4-0.3-8.6c-0.9-0.6-2.1-1-3.2-1.4c-1.1-0.4-2.1-0.8-2.7-1.3c-3.8,6.4-6.3,8.5-8.3,10.6c-2,2.1-3.4,4.1-4.8,10.5
						c0.1-1.2,1.5-1.1,3.9-0.4c0.7-0.1,1.4,0,2.1-0.6c-0.3,0.3-0.6,0.7-0.9,1c2.3,0.8,5.1,2,8.2,3.6c-6.1,5.2-12.1,9.1-11.4,0
						c-6.6,7.3-13.5,14.4-17.1,17.7c3.2-10.3,4.4-19,5.6-26.6c0.3-1.9,0.6-3.7,0.9-5.5c0.4-1.8,0.7-3.5,1.2-5.1
						c0.9-3.3,2-6.3,3.6-9.1c-3.3,0.2-6.5-0.3-9.7-0.9c-0.8-0.2-1.6-0.3-2.4-0.5c-0.8-0.2-1.6-0.4-2.4-0.5c-1.6-0.3-3.3-0.6-5-0.8
						c-3.5-0.3-7.3,0-11.7,1.3c-4.3,1.3-9.3,3.6-15.3,7.7c-4.9,0.5,2.4-8.5,4.5-12.6c3.2-0.9,4.6,0.8,8-1.6
						c-2.3,0.3-4.5-0.1-6.7-0.8c-1.1-0.3-2.2-0.7-3.3-1.1c-1.1-0.4-2.1-0.8-3.3-1.1c-4.5-1.2-9.7-0.9-17.1,5.6c0.1-6,4.1-8.4,6.8-10
						c1.3-0.8,2.3-1.4,2.3-2.1c0-0.7-1-1.6-3.4-3l5.3-3.1c1.9-9.4-0.7-13.2-5.7-14.7c-4.9-1.7-12.2-1.1-19.6-0.9
						c-1.9,0.1-3.7,0-5.4-0.1c-1.8-0.1-3.5-0.2-5.1-0.5c-3.3-0.5-6.2-1.4-8.4-3c-2.2-1.6-3.6-4-3.9-7.3c-0.3-3.3,0.6-7.5,2.9-12.8
						c-1,2.8-1.5,4.1-4,6.3c-0.1-2.1-0.4-4-0.8-5.9c-0.3-1.9-0.8-3.7-1.5-5.4c-1.2-3.4-3-6.5-5-9.4c-1.9-3-4.1-5.8-6.5-8.6
						c-1.2-1.4-2.4-2.8-3.6-4.2l-3.4-4.3c-2.3-2.9-4.5-5.8-6.4-8.9c-1.8-3.2-3.3-6.4-4.3-9.9c-0.5-1.7-0.9-3.5-1.1-5.4
						c-0.1-1.9-0.1-3.8,0-5.7c0.4-3.9,1.4-8.1,3.5-12.4c2.9-9.1-9.1-5.7-19.8-7.5c4.9-2.2,9.8-4.3,14.7-6.4
						c-6.7-0.7-13.3-1.6-20-2.6c-4.1-2-4.1-4.9-2.3-8.2c1.9-3.3,5.7-7,9.2-10.6c3.4-3.6,6.5-7.1,7-10.2c0.5-3.1-1.4-5.9-8.4-8.4
						l-10.3,3.8c0.3-1.4-0.2-3.1-0.8-4.9c-0.3-0.9-0.7-1.8-1-2.7c-0.2-0.4-0.3-0.9-0.5-1.3c-0.1-0.4-0.2-0.9-0.3-1.3
						c-0.7-3.4-0.1-6.3,6.1-6.6c-2-0.3-11.4-0.3-6-3.1l8.3-1.2c-2.6-1.9-5.3-3.8-7.9-5.7c-2.5-2-5.1-4-7.6-6
						c2.6-5.5,10.9-5.5,18.7-6.3c3.9-0.3,7.6-0.8,10.4-2.1c2.8-1.3,4.6-3.3,4.9-6.7c-1.7-2.5-7.9-6-14.3-8.8
						c-6.5-2.8-13.2-4.9-16-3.8c-0.4,2.2-5.1,5.8-13.5,6.2l-4.5-5.3c-12.4-0.4-24.9-1.8-36.4-1.3c-11.6,0.5-22.1,3-30.5,11.1
						c5.1,3.5,10.2,6.9,15.4,10.2c-3.9,1.3-7.8,2.7-11.7,4.1c-0.5-3-0.8-6.1-1.2-9.1c-5.5,2.8-5.9,5-3.8,6.9
						c2.1,1.8,6.4,3.3,9.9,4.9c-6.3,1.3-10.6,3.1-12.8,5.5c8.1,3,16.2,5.8,24.3,8.4c-4.7,1.1-9.6,0.5-13.9,0.4
						c-4.2,0-8,0.6-10.2,4.5c5.8,1.9,11,0.1,15.8-1.2c4.8-1.3,9.2-2.1,13.3,1.4c-10.5,6.2-19.7,6.1-9.5,10.8c-6.2,1.7-10.4,1-13.4-1
						c4.2,2.2,5.3,5.7,7.3,8.6c2,3,4.7,5.5,11.4,5.7c-6.4,3.8-4.7,8.1-4.3,11.9c0.5,3.8-0.2,7.1-11.7,9.3c2.9,0.3,7.9,1.6,12.5,3.4
						c4.5,1.8,8.6,4,9.6,6.3c-7.3-0.4-10.8,0.4-12.4,2.2c-1.6,1.7-1.2,4.3-0.7,7c0.9,5.5,1.8,12-12.9,15.1c3.3,0,6,0.2,8.3,0.8
						c2.3,0.5,4.1,1.3,5.8,2.3c3.2,2,5.3,4.7,7,7.7c1.8,3,3.2,6.3,5.4,9.2c2.2,2.9,5.1,5.4,9.4,6.8c-2.1,0.1-6.3,0.4-5.5-1.1
						c0.5,7-5.8,11.7-8.5,17.7c19.5-7.2,28.1,0.3,41.9-0.3c-7.4,7.8-13.4,9.5-19.6,10.3c-6.2,0.8-12.7,0.8-20.9,6
						c7.6-3.7,12.9-2.1,17.7-0.8c5,1.3,9.4,2.3,15.1-2c-4.1,5.5-4.9,7.4-6.3,9.2c-1.4,1.8-3.6,3.6-10.4,9.1
						c11.8-5.5,13.4-4.8,14.2-2.9c0.7,1.8,0.8,4.7,9,3.1c-3.4,7-8.3,10.6-11,13c-2.7,2.4-3,3.6,2.9,6c-2.2,4.1-6.4,5.5-10.1,5.7
						C125.4,740,122.3,739.1,122.3,739.1z M323.6,871c-0.1,0.1-0.1,0.2-0.1,0.3c-1.9-0.6-3.5-1.1-4.6-1.4
						C319.8,870.1,321.2,870.5,323.6,871z M340.9,879.1c-1.9-1.5-4.5-2.7-7.3-4c1.7-4.9,4.6-9.3,6.2-8.3
						C337.3,869.5,340.1,874,340.9,879.1z M357.3,771.5c3-0.7,2.2,2.2,0.9,5c-1.1-0.3-2.4-0.5-4.4-0.4c-0.3,0.4-0.8,0.9-1.2,1.4
						C354.4,775.1,356,772.9,357.3,771.5z"/>
					<path class="st7" d="M343.7,786.2c-0.5,0.1-1,0.6-1.4,0.4c-0.3,1.4-0.4,2.6-0.5,3.6c1.1-1.2,2.1-2.4,3.1-3.6
						C344.5,786.5,344.1,786.3,343.7,786.2z"/>
					<path class="st7" d="M309.2,238.5l0.5,0.1c-0.6-0.3-1.1-0.6-1.8-1.3C308.5,237.7,308.7,238.1,309.2,238.5z"/>
					<polygon class="st7" points="604.8,933.1 604,929.4 603,933 					"/>
					<path class="st7" d="M205,267.1c-1.1-0.7-2.4-1.2-3.8-1.3C202,266.3,203.4,266.7,205,267.1z"/>
					<path class="st7" d="M176.2,301.1c-2.6,0.8-5.3,1.7-7.9,2.5C172.4,302.8,174.6,301.9,176.2,301.1z"/>
					<path class="st7" d="M152.4,327.2c2.1,1.6,3.8,2.6,5.3,3.6c0,0,0.1,0,0.1,0L152.4,327.2z"/>
					<path class="st7" d="M630.3,112.9c0.5,0.1,1,0,1.6-0.3C635.9,110.9,633.4,111.3,630.3,112.9z"/>
					<path class="st7" d="M463.7,132.2c1.4-2.9,2.7-5.7,4.3-7.6C465.1,123.8,462.8,123.8,463.7,132.2z"/>
					<path class="st7" d="M807.7,195.8c-0.1,0.1-0.1,0.1-0.2,0.2c0.3,0.3,0.6,0.6,0.9,0.9L807.7,195.8z"/>
					<path class="st7" d="M475.5,124.3c-3.1-2.7-5.5-1.9-7.5,0.3C470.5,125.4,473.3,126.7,475.5,124.3z"/>
					<path class="st7" d="M101.8,470.6l-0.8,1.6c1,0.1,1.8,0.3,2.4,0.4L101.8,470.6z"/>
					<path class="st7" d="M103.4,472.7l1.6,2.1C105.1,473.9,105,473.2,103.4,472.7z"/>
					<path class="st7" d="M108.4,479.1l-3.4-4.3C104.9,476.1,104.3,477.8,108.4,479.1z"/>
					<path class="st7" d="M116.3,425.8l-5.2-1.7C112.1,424.6,113.8,425.2,116.3,425.8z"/>
					<path class="st7" d="M118,411.7c-1.1,1.5-4.3,2.8-7.1,4.5c-2.8,1.7-5,3.8-3.9,6.5l4.1,1.4c-3.7-2,0.1-3.8,3.7-5.8
						C118.5,416.4,121.9,414.4,118,411.7z"/>
					<path class="st7" d="M198.5,382.2c-2.6,2.5-5.1,5-7.7,7.6c6,0.5,14,1.3,13.7,5.9c5.1-1.2,6.8-1.9,6.7-2.6
						c-0.1-0.6-2.2-1.1-4.6-1.8C201.7,389.9,195,387.7,198.5,382.2z"/>
					<path class="st7" d="M219.1,358.6c0,5.8,7.4,3.9,10.1,5.7c-1.6-2.7-2.5-4.3-3.9-5.2C224,358.2,222.2,358.1,219.1,358.6z"/>
					<path class="st7" d="M374.3,214.6l5.1,12.6C382.1,223.8,377.3,222.3,374.3,214.6z"/>
					<path class="st7" d="M392.5,133.1c-2.3-2.3-4.7-4.5-7-6.7l1.6,12.6l2.7-3C390.7,135,391.6,134,392.5,133.1z"/>
					<polygon class="st7" points="442.1,219.9 441,222.1 445.9,215.9 					"/>
					<path class="st7" d="M744.8,319.7l12.1-11.5C752.9,308.1,738.3,319.8,744.8,319.7z"/>
					<path class="st7" d="M824.2,446.2c-3.9,1.7-6.9,3.8-8,5.6c-1.1,1.8-0.1,3.3,4.2,3.9c0.3-1.8,1.9-3.8,3.1-5.6
						C824.8,448.4,825.5,446.9,824.2,446.2z"/>
					<path class="st7" d="M610.6,792l0.6-6.3c-1.1,2.1-2.1,4.3-3.3,6.2C608.8,792,609.7,792,610.6,792z"/>
				</g>
			</g>
		</g>
	</g>
</g>
<g>
	<path class="st5" d="M182.7,462.5c-5.4,0-12.4-0.1-21-0.4c-11.2-0.3-18.2-0.4-21-0.5l-28-0.4c-2.8,0.1-6.8-0.1-12.1-0.4
		c-1.8-0.3-2.7-1.3-2.7-2.9c0-6.8,0.1-17,0.3-30.5c0.2-13.6,0.3-23.7,0.3-30.5c0-7.2-0.2-18.1-0.7-32.5c-0.4-14.4-0.7-25.3-0.7-32.5
		c0-1.4,0.9-2.1,2.8-2.1s4.7,0.1,8.4,0.3c3.7,0.2,6.5,0.3,8.3,0.3c2.1,0,5.1-0.1,9.2-0.3c4.1-0.2,7.1-0.3,9.2-0.3
		c0.9,0,1.4,0.6,1.3,1.8l-0.1,1.2c-0.7,11.7-1.6,29.3-2.5,52.9l-0.1,24.7c0,8,0,13.8,0.1,17.5c0.1,0.7,0.1,1.5,0.2,2.2
		c0.1,0.7,0.5,1.2,1.4,1.4c0.1,0,0.9,0,2.4,0c5.6,0,14-0.3,25.2-0.9c11.2-0.6,19.6-0.9,25.2-0.9c1.7,0,2.5,0.7,2.5,2.2
		c0,10.7-0.8,19.9-2.3,27.6c-0.3,1.6-1,2.6-2,2.9C186.2,462.5,185,462.5,182.7,462.5z"/>
	<path class="st5" d="M286.6,410.1c0,6.3-2,9.9-6.1,10.8c-0.7,0.1-7.1,0.8-19.4,2.1c-7.4,0.8-18.3,1.8-32.9,2.9
		c0.9,4.1,3.5,7.1,8,9.3c3.6,1.7,7.7,2.6,12.4,2.6c5.6,0,11.1-1.5,16.7-4.5c2.4-1.5,4.7-3,7.1-4.5c1.3,0.6,3.5,3.8,6.6,9.5
		c3.1,5.7,4.6,9.4,4.6,10.9c0,0.4-0.5,1.2-1.4,2.2c-7.6,8.2-19.4,12.3-35.5,12.3c-14.8,0-26.8-4.3-35.9-13c-9.4-8.8-14-20.6-14-35.3
		c0-14.3,4.2-26.1,12.5-35.3c8.6-9.5,20-14.2,34.2-14.2c12,0,22.1,4.4,30.5,13.1C282.4,387.7,286.6,398.1,286.6,410.1z M253.8,404.4
		c0-3.9-1.4-7.3-4.1-10.2c-2.7-2.9-6-4.4-9.8-4.4c-3.9,0-7.2,1.7-9.7,5c-2.4,3.1-3.6,6.6-3.6,10.8c0,1.7,0.9,2.5,2.6,2.5
		c4.6,0,11.8-0.7,21.5-2.2C252.8,405.6,253.8,405.1,253.8,404.4z"/>
	<path class="st5" d="M390.9,414.2c0,4.8,0.3,11.9,0.8,21.4c0.6,9.5,0.8,16.6,0.8,21.3c0,2.5-1.1,3.8-3.3,4
		c-7.7,0.6-16.6,0.8-26.6,0.8c-1.2,0-2-1.8-2.4-5.4c-0.4-3.6-0.9-5.4-1.5-5.5c-0.5,0.3-1.2,0.8-2,1.6c-7,7-14.5,10.6-22.5,10.6
		c-12.2,0-22.2-4.8-30.2-14.4c-7.5-9-11.3-19.7-11.3-32.2c0-14.4,3.9-26,11.7-34.8c8.1-9.1,19.2-13.7,33.3-13.7
		c9.8,0,17.5,3.4,23.2,10.3c0.2,0.3,0.5,0.5,0.7,0.5c0.6,0,1.2-1.5,1.9-4.5c0.7-3,1.6-4.5,2.6-4.5c2.3,0,6.7,0.7,13.2,2
		c6.2,1.2,10.6,2.3,13.3,3.2c0.9,0.4,1.4,0.9,1.4,1.5c0,0.3-0.1,0.9-0.3,2C391.9,389.6,390.9,401.6,390.9,414.2z M360.8,414.7
		c0-5.3-1.7-9.7-5-13.1c-3.3-3.5-7.7-5.2-13.1-5.2c-5.4,0-9.7,1.7-13,5.1c-3.3,3.4-5,7.8-5,13.2c0,5.1,1.7,9.4,5.2,13
		c3.5,3.6,7.7,5.4,12.7,5.4c5.3,0,9.6-1.7,13-5.2C359.1,424.5,360.8,420.1,360.8,414.7z"/>
	<path class="st5" d="M508.7,328.2c0-1.4-0.3,0.7-0.7,6.2c-0.7,6.9-1.2,15.8-1.6,26.6c-0.5,12.2-0.7,26.1-0.7,41.7
		c0,25.8,0.7,44.1,2.2,55c0.1,1.2,0.2,1.9,0.2,2.2c0,0.7-0.5,1.1-1.4,1.2c-2.2,0.3-10.5,0.5-24.8,0.5c-3.4,0-5.3-0.7-5.8-2
		c-0.1-2.4-0.3-4.7-0.4-7.1c-0.1-0.5-0.3-1-0.7-1.5c-0.4,0.2-0.8,0.6-1.4,1.1c-6.7,6.6-15.2,9.9-25.3,9.9
		c-13.2,0-23.7-4.6-31.6-13.8c-7.5-8.8-11.3-19.9-11.3-33.3c0-13.6,3.7-24.8,11.1-33.6c7.9-9.4,18.5-14,31.8-14c9.4,0,16.7,3,22,9
		c0.9,1,1.5,1.5,1.9,1.5c0.6,0,0.8-0.8,0.8-2.4c0-4.8-0.1-12-0.4-21.5c-0.3-9.5-0.4-16.7-0.4-21.4c0-1.8,0.5-2.8,1.5-3.1
		c4-0.2,9.5-0.6,16.5-1.1c12.5-1.6,18-2.3,16.6-2.3C508,325.8,508.7,326.6,508.7,328.2z M473.4,414.2c0-4.9-1.7-9.2-5.1-13
		c-3.4-3.7-7.6-5.6-12.4-5.6c-5.1,0-9.2,1.9-12.2,5.6c-3,3.7-4.5,8.2-4.5,13.3c0,5.1,1.5,9.3,4.6,12.8c3.1,3.7,7.2,5.6,12.2,5.6
		c5,0,9.2-1.9,12.5-5.6C471.7,423.6,473.4,419.2,473.4,414.2z"/>
	<path class="st5" d="M608.3,410.1c0,6.3-2,9.9-6.1,10.8c-0.7,0.1-7.1,0.8-19.4,2.1c-7.4,0.8-18.3,1.8-32.9,2.9
		c0.9,4.1,3.5,7.1,8,9.3c3.6,1.7,7.7,2.6,12.4,2.6c5.6,0,11.1-1.5,16.7-4.5c2.4-1.5,4.7-3,7.1-4.5c1.3,0.6,3.5,3.8,6.6,9.5
		c3.1,5.7,4.6,9.4,4.6,10.9c0,0.4-0.5,1.2-1.4,2.2c-7.6,8.2-19.4,12.3-35.5,12.3c-14.8,0-26.8-4.3-35.9-13c-9.4-8.8-14-20.6-14-35.3
		c0-14.3,4.2-26.1,12.5-35.3c8.6-9.5,20-14.2,34.2-14.2c12,0,22.1,4.4,30.5,13.1C604.1,387.7,608.3,398.1,608.3,410.1z M575.5,404.4
		c0-3.9-1.4-7.3-4.1-10.2c-2.7-2.9-6-4.4-9.8-4.4c-3.9,0-7.2,1.7-9.7,5c-2.4,3.1-3.6,6.6-3.6,10.8c0,1.7,0.9,2.5,2.6,2.5
		c4.6,0,11.8-0.7,21.5-2.2C574.5,405.6,575.5,405.1,575.5,404.4z"/>
	<path class="st5" d="M680.6,402.7c0,2.4-1.3,3.6-4,3.6c-1.2,0-2.9-0.1-5.2-0.2c-2.3-0.2-4-0.2-5.1-0.2c-5.2,0-8.7,0.8-10.6,2.4
		c-1.9,1.6-2.8,4.9-2.8,9.8c0,2.7,0,6.8,0.1,12.2c0.1,5.5,0.1,9.5,0.1,12.2c0,1.8,0.1,4.5,0.4,8.1c0.2,3.6,0.4,6.3,0.4,8
		c0,1.5-1,2.3-3.1,2.5c-3,0.2-7.6,0.4-13.8,0.4c-5.9,0-10.7-0.2-14.2-0.6c-2.1-0.2-3.1-1.3-3.1-3.1c0-5,0-12.5,0.1-22.4
		c0.1-9.9,0.1-17.4,0.1-22.4c0-14.7-1.3-26.7-4-36.2c-0.1-0.6-0.2-1-0.2-1.4c0-0.9,0.5-1.6,1.4-1.9c3.4-0.4,8.5-1.1,15.1-2.1
		c9.9-1.9,14.9-2.9,15.3-2.9c1.1,0,1.8,2,2.2,5.9c0.3,3.9,0.9,5.9,1.7,5.9c-0.9,0,1.7-1.6,7.7-4.9c6-3.3,11.8-4.9,17.3-4.9
		c3.5,0,5.2,0.7,5.2,2.2c0,1.8-0.2,4.4-0.6,7.7c-0.4,3.6-0.6,6.1-0.7,7.7c0,1.8,0,4.2,0.1,7.2C680.5,399,680.6,401.5,680.6,402.7z"
		/>
	<path class="st5" d="M746.3,385.3c0,0.6-0.5,1.5-1.4,2.5c-1.7-0.4-3.5-0.7-5.2-0.7c-3.7,0-6.8,0.8-9.3,2.4c-3,1.9-4.5,4.5-4.5,8
		c0,2.2,1.6,5,4.8,8.3c4.8,5.1,7.8,8.5,8.9,10.2c3.2,4.7,4.8,9.8,4.8,15.3c0,3.2-0.6,6.5-1.9,10.1c-1.4,3.9-3.2,6.8-5.4,8.6
		c-4.6,4-10,7.4-16.2,10.1c-6.7,2.9-12.8,4.3-18.4,4.3c-1.2,0-4-3.4-8.4-10.2c-4.3-6.8-6.5-10.9-6.5-12.4c0-0.6,0.3-0.9,1-1
		c4.4-0.8,8.8-1.6,13.2-2.4c5.5-1.7,8.2-4.6,8.2-8.6c0-2.7-1.6-5.9-4.8-9.5c-5.7-6.3-8.6-9.6-8.9-10c-3.2-4.5-4.8-9.2-4.8-14.2
		c0-9.4,4.7-17.3,14.2-23.9c8.5-5.8,17.6-8.7,27.2-8.7c1,0,3.5,3.4,7.4,10.1C744.3,380.2,746.3,384.1,746.3,385.3z"/>
	<path class="st5" d="M927.9,456.7c0,2.8-1.6,4.2-4.8,4.2c-2,0-5,0.1-9,0.3c-4,0.2-7,0.3-9.1,0.3c-7.6,0-16.5-5.8-26.8-17.4
		c-3.2,3.1-8.2,7.4-15.2,13c-7,4.7-15.3,7.1-25.1,7.1c-10,0-17.9-3.5-23.7-10.5c-5.4-6.5-8.1-14.8-8.1-25c0-10.5,3.1-19.3,9.4-26.3
		c3.5-3.9,11-9.5,22.6-17c-3.9-9.7-5.8-17.3-5.8-22.8c0-10.5,3-18.8,8.9-25c5.9-6.2,14.2-9.3,24.7-9.3c9,0,16.2,2.4,21.3,7.3
		c5.3,5.1,8,12.1,8,21.1c0,6-2.2,11.6-6.7,16.8c-1.9,2.2-4.5,4.6-8,7.1c-4.5,3.3-7.3,5.4-8.3,6.3c1.5,2.2,3.9,5.5,7.1,9.8
		c1.7,2.1,4.3,5.2,7.7,9.4c4.9-6.3,9.3-10.8,13.1-13.5c5.2-3.6,11.1-5.4,17.8-5.4c3.6,0,5.8,0.2,6.6,0.6c1.4,0.7,2.1,2.6,2.1,5.6
		c0,7.3-0.5,12.8-1.5,16.6c-0.4,1.5-1.9,2.5-4.7,3.1c-4.4,0.9-7.3,1.8-8.9,2.5c-3.9,1.8-7.2,4.9-9.9,9.4c3.9,6.4,10.4,9.5,19.5,9.5
		c4.5,0,6.7,0.8,6.7,2.5V456.7z M866.8,427.3c-2.8-2.6-5.9-6.2-9.4-10.9c-5.4-7.2-8.2-11-8.5-11.4c-3.6,1.9-6.7,4.8-9.4,8.6
		c-2.8,4-4.2,8-4.2,11.9c0,4.1,1.2,7.4,3.5,9.9c2.4,2.7,5.6,4.1,9.5,4.1c3.6,0,7.3-1.2,11-3.6C863,433.4,865.5,430.6,866.8,427.3z
		 M876.7,354.4c0-5.9-3.4-8.8-10.3-8.8c-3.4,0-6.2,1-8.6,3c-2.3,2-3.5,4.6-3.5,8c0,5.4,2,10.7,5.9,15.7
		C871.2,366.2,876.7,360.2,876.7,354.4z"/>
	<path class="st5" d="M157.7,610.6c0,12.2-5.1,22.6-15.4,31.3c-9,7.7-19.9,12.5-32.8,14.6c-0.5,0.1-0.9,0.1-1.2,0.1
		c-1.4,0-4.4-4.2-9.2-12.6c-4.7-8.4-7.1-13.6-7.1-15.4c0-0.7,0.4-1.1,1.3-1.3c8.7-2,14.4-3.7,17.3-5c6.2-3.1,9.3-7.7,9.3-13.8
		c0-3.9-2-8.2-6.1-13c-7.1-8.1-10.9-12.7-11.5-13.6c-4.1-6.2-6.2-13.1-6.2-20.7c0-11,5.1-20.1,15.2-27.3c8.3-6,18.4-9.9,30.5-11.7
		c0.7-0.1,1.2-0.1,1.5-0.1c0.9,0,1.6,0.7,2.2,2.2c1.6,4.4,5.2,12.3,10.9,23.7c0.2,0.4,0.3,0.7,0.3,0.9c0,1-0.5,1.5-1.6,1.5
		c-0.5,0-1.3-0.1-2.4-0.3c-1.1-0.2-2-0.3-2.6-0.3c-4.3,0-8.1,1-11.3,3c-3.9,2.3-5.8,5.5-5.8,9.5c0,3.7,2.2,8.1,6.5,13.5
		c7.6,9.6,11.6,14.6,11.9,15.1C155.5,597.5,157.7,604.1,157.7,610.6z"/>
	<path class="st5" d="M280.2,574c0,14.5-3.8,26.2-11.4,35.2c-8.1,9.5-19.4,14.3-33.7,14.3c-2.4,0-6-0.1-10.8-0.4
		c-4.8-0.3-8.4-0.4-10.8-0.4c-2.6,0-3.9,1.1-3.9,3.3c0,2.8,0.3,6.9,0.8,12.3c0.5,5.5,0.8,9.5,0.8,12.2c0,1.4-0.6,2.1-1.9,2.1
		c-3.7,0-9.1-0.1-16.4-0.3c-7.3-0.2-12.8-0.3-16.4-0.3c-1.7,0-2.6-0.9-2.6-2.6c0-6.6,0.1-16.6,0.3-30c0.2-13.3,0.3-23.3,0.3-30
		c0-18.8-0.8-38.6-2.4-59.3l-0.1-1.3c-0.1-1.1,0.8-1.8,2.7-2.1c4.7-0.6,15-0.9,30.9-0.9c9.4,0,18.4,0.1,27,0.4
		c14.2,0.4,25.6,4.9,34.3,13.4C275.8,548.4,280.2,559.8,280.2,574z M244.4,575.4c0-14-6.8-20.9-20.4-20.9c-9.6,0-14.6,0.5-15.1,1.6
		c-0.4,0.8-0.6,7.7-0.6,20.8c0,1.9,0.1,4.6,0.2,8.2c0.1,3.6,0.2,6.4,0.2,8.2c0,1.2,5.4,1.8,16.2,1.8
		C237.9,595.1,244.4,588.5,244.4,575.4z"/>
	<path class="st5" d="M384.5,624c0,2.6-0.5,7.3-1.5,14.2c-1.1,7.5-2,11.9-2.9,13.4c-0.7,1.1-1.7,1.7-3,1.7c-0.5,0-1.4-0.1-2.7-0.3
		c-4.4-0.6-17.1-0.9-38.3-0.9c-4.6,0-11.5,0-20.6-0.1c-9.1-0.1-15.9-0.1-20.5-0.1c-2,0-3-0.9-3-2.6c0-6.7,0.4-16.8,1.1-30.2
		c0.7-13.4,1.1-23.5,1.1-30.2c0-6.8-0.4-19.6-1.1-38.2c-0.2-4.8-0.5-11.9-1-21.5l-0.1-1.3c-0.1-1.4,0.6-2.1,2.2-2.1
		c4.4,0,11.1,0.1,20,0.4c8.9,0.2,15.6,0.4,20,0.4c4.4,0,11-0.1,19.8-0.4c8.8-0.2,15.4-0.4,19.8-0.4c3.1,0,4.9,1.2,5.4,3.5
		c0.3,1.4,0.8,5.6,1.4,12.5c0.6,7,0.9,11.2,0.9,12.7c0,1.3-0.6,1.9-1.8,1.9c-0.4,0-1,0-1.9-0.1c-15.9-1.3-30.2-2-42.9-2
		c-3.2,0-5.1,0.8-5.8,2.2c-0.3,0.7-0.4,3-0.4,6.9c0,4.1,0.6,6.8,1.8,8.1c1,1.1,3,1.7,5.8,1.7c0.6,0,1.8,0,3.5-0.1
		c1.7-0.1,3.2-0.1,4.3-0.1c7.5,0,15.2-0.2,22.9-0.6c0.7-0.1,2.3-0.2,4.9-0.4c2-0.2,3.7-0.4,4.9-0.4c1.4,0,2.2,0.7,2.2,2.1
		c0-1.3-0.5,3.3-1.6,13.7c-0.5,4.8-0.7,9.6-0.7,14.4c0,1.2-0.9,1.8-2.6,1.8l-8.1-0.9c-3.4-0.4-11.2-0.5-23.4-0.5h-9.5
		c-2.5,0-3.9,0.6-4.3,1.8c-0.1,0.3-0.1,2.2-0.1,5.6c0,4.6,0.3,7.5,0.9,8.8c1,2.3,4.9,3.6,11.5,4c-0.1,0,4.3,0,13.1,0
		c3.2,0,7.9-0.3,14.2-0.9c6.3-0.6,10.9-0.9,14.1-0.9C383.9,620.8,384.5,621.8,384.5,624z"/>
	<path class="st5" d="M515,649.7c0,1.1-0.8,1.8-2.2,2.2c-1.8,0.5-7.4,0.7-16.7,0.7c-8.6,0-14.1-0.2-16.5-0.7c-2-0.4-3.3-1.8-3.9-4
		c-2-8.6-3.6-13.2-4.8-13.8c-1-0.4-9-0.6-24.1-0.6c-10.2,0-15.6,0.3-16.3,0.8c-1,1-2.2,4.2-3.4,9.6c-1.1,5-2.5,7.7-4.1,8.1
		c-2,0.5-8.9,0.7-20.5,0.7c-9.2,0-13.7-0.9-13.7-2.6c0-1.6,6.8-20.7,20.3-57.4c14.7-39.7,22.6-61.5,23.9-65.5
		c0.7-2.3,1.6-3.4,2.5-3.4c1.6,0,4.1,0.2,7.5,0.4c3.4,0.3,5.9,0.4,7.6,0.4c1.6,0,4-0.1,7.1-0.3c3.1-0.2,5.5-0.3,7.1-0.3
		c1.1,0,2.2,1,3.1,3c2.9,6.3,11.5,27.9,25.7,64.7C507.9,628.7,515,648.1,515,649.7z M451.3,567.9c-1.3,2.6-3.4,8.4-6.4,17.2
		c-3.2,9.3-4.9,14.8-4.9,16.4c0,1.1,1.8,1.7,5.4,1.8c1.9,0.1,4.9,0.2,9.2,0.2c4,0,6.1-0.5,6.6-1.4c0.1-0.3,0.2-0.7,0.2-1.3
		c0-2-1.4-7.4-4.1-16.4C454.5,575.8,452.5,570.3,451.3,567.9z"/>
	<path class="st5" d="M634.7,646.9c0,2.6-1.1,4.3-3.3,5c-1.8,0.6-6.5,0.9-14.2,0.9c-7.4,0-12.8-0.3-16.2-0.9
		c-1.6-0.3-2.7-0.6-3.2-0.9c-0.5-0.3-1.2-1.2-1.9-2.6c-4.4-8-8.7-16.1-13-24.1c-7.1-12.9-11.4-20.1-12.8-21.4c-6.5,2.3-9.7,4-9.7,5
		c0,4.5,0.2,11.3,0.5,20.3s0.5,15.9,0.5,20.4c0,1.9-0.8,2.9-2.4,3.1c-3.1,0.5-8.7,0.7-16.9,0.7c-7.8,0-12.9-0.2-15.5-0.7
		c-1.7-0.4-2.6-1.3-2.6-2.8c0-6.5,0.3-16.2,0.9-29.3c0.6-13.1,0.9-22.8,0.9-29.4c0-6.9-0.3-17.4-0.9-31.3
		c-0.6-13.9-0.9-24.4-0.9-31.3c0-1.3,0.6-2,1.9-2c1.9,0,4.7,0.1,8.4,0.3c3.7,0.2,6.5,0.3,8.4,0.3c1.9,0,4.8-0.1,8.5-0.3
		s6.6-0.3,8.4-0.3c1,0,1.5,0.5,1.5,1.6c0,4.4-0.2,11.1-0.7,20.1c-0.4,9-0.7,15.6-0.7,20.1c0,5.2,1.4,7.7,4.2,7.7
		c7.1,0,12.7-1.9,16.6-5.8c2.9-2.9,5.9-8.1,8.9-15.7c1.9-5.8,5.1-14.4,9.4-25.7c0.7-1.5,2-2.2,4-2.2c1.6,0,3.9,0.1,7.1,0.3
		s5.5,0.3,7.1,0.3c1.6,0,4-0.1,7.2-0.2c3.2-0.1,5.6-0.2,7.1-0.2c1.4,0,2.2,0.7,2.2,2.1c0,2-1.3,6.8-3.8,14.5
		c-7.4,22.6-16,36.8-25.6,42.4c-2,1.1-3,2.1-3,2.8c0-0.1,5.5,8.9,16.6,27C629.2,632.8,634.7,643.5,634.7,646.9z"/>
	<path class="st5" d="M737.1,624c0,2.6-0.5,7.3-1.5,14.2c-1.1,7.5-2,11.9-2.9,13.4c-0.7,1.1-1.7,1.7-3,1.7c-0.5,0-1.4-0.1-2.7-0.3
		c-4.4-0.6-17.1-0.9-38.3-0.9c-4.6,0-11.5,0-20.6-0.1c-9.1-0.1-15.9-0.1-20.5-0.1c-2,0-3-0.9-3-2.6c0-6.7,0.4-16.8,1.1-30.2
		c0.7-13.4,1.1-23.5,1.1-30.2c0-6.8-0.4-19.6-1.1-38.2c-0.2-4.8-0.5-11.9-1-21.5l-0.1-1.3c-0.1-1.4,0.6-2.1,2.2-2.1
		c4.4,0,11.1,0.1,20,0.4c8.9,0.2,15.6,0.4,20,0.4c4.4,0,11-0.1,19.8-0.4c8.8-0.2,15.4-0.4,19.8-0.4c3.1,0,4.9,1.2,5.4,3.5
		c0.3,1.4,0.8,5.6,1.4,12.5c0.6,7,0.9,11.2,0.9,12.7c0,1.3-0.6,1.9-1.8,1.9c-0.4,0-1,0-1.9-0.1c-15.9-1.3-30.2-2-42.9-2
		c-3.2,0-5.1,0.8-5.8,2.2c-0.3,0.7-0.4,3-0.4,6.9c0,4.1,0.6,6.8,1.8,8.1c1,1.1,3,1.7,5.8,1.7c0.6,0,1.8,0,3.5-0.1
		c1.7-0.1,3.2-0.1,4.3-0.1c7.5,0,15.2-0.2,22.9-0.6c0.7-0.1,2.3-0.2,4.9-0.4c2-0.2,3.7-0.4,4.9-0.4c1.4,0,2.2,0.7,2.2,2.1
		c0-1.3-0.5,3.3-1.6,13.7c-0.5,4.8-0.7,9.6-0.7,14.4c0,1.2-0.9,1.8-2.6,1.8l-8.1-0.9c-3.4-0.4-11.2-0.5-23.4-0.5h-9.5
		c-2.5,0-3.9,0.6-4.3,1.8c-0.1,0.3-0.1,2.2-0.1,5.6c0,4.6,0.3,7.5,0.9,8.8c1,2.3,4.9,3.6,11.5,4c-0.1,0,4.3,0,13.1,0
		c3.2,0,7.9-0.3,14.2-0.9c6.3-0.6,10.9-0.9,14.1-0.9C736.4,620.8,737.1,621.8,737.1,624z"/>
	<path class="st5" d="M856.1,651c0,0.4-0.6,0.7-1.8,0.9c-2.3,0.4-8,0.5-17.2,0.5c-7.8,0-13.2-0.2-16-0.5c-1.3-0.2-2.1-0.3-2.2-0.4
		c-0.4-0.2-0.8-0.8-1.3-1.8c-0.9-2.3-2.2-5.8-4-10.4c-2.3-6-6-14.8-11-26.5c-1.1-2.3-3.6-3.6-7.5-3.9c1.8,0.1-1.3,0.2-9.3,0.2
		c-0.9,0-1.3,1.5-1.3,4.6c0,4.1,0.4,10.2,1.1,18.2c0.7,8.1,1.1,14.2,1.1,18.2c0,1-0.3,1.6-0.8,1.8c-0.8,0.1-1.7,0.1-2.5,0.2
		c-3.5,0.2-9,0.4-16.5,0.4c-8.6,0-13.7-0.2-15.5-0.5c-1.7-0.4-2.6-1.3-2.6-2.8c0-6.6,0.3-16.5,0.9-29.8s0.9-23.3,0.9-29.9
		c0-25.3-0.6-45.1-1.7-59.3l-0.1-1.3c-0.1-1,0.9-1.7,2.8-2.1c1.9-0.4,11.1-0.7,27.4-1.1c11.1-0.2,19.9-0.4,26.5-0.4
		c13.7,0,24.8,3.1,33.4,9.3c9.8,6.9,14.6,17,14.6,30.1c0,8.7-1.3,15.7-3.8,20.9s-7.2,10.3-13.9,15.2c-1.4,1-2.1,1.9-2.1,2.7
		c0-0.1,3.7,7.5,11,22.6C852.5,641.2,856.1,649.5,856.1,651z M818.4,570.5c0-7.3-2.4-12.4-7.2-15.2c-3.7-2.2-9.5-3.2-17.4-3.2
		c-5.7,0-8.7,0.9-9.1,2.6c-0.4,2-0.5,7.9-0.5,17.6c0,1.4,0,3.4,0.1,6.1c0.1,2.7,0.1,4.7,0.1,6c0,0.3,1,0.6,2.9,0.9
		c3.7,0.5,7.5,0.8,11.5,0.8C811.8,586.1,818.4,580.9,818.4,570.5z"/>
	<path class="st5" d="M927.5,610.6c0,12.2-5.1,22.6-15.4,31.3c-9,7.7-19.9,12.5-32.8,14.6c-0.5,0.1-0.9,0.1-1.2,0.1
		c-1.4,0-4.4-4.2-9.2-12.6c-4.7-8.4-7.1-13.6-7.1-15.4c0-0.7,0.4-1.1,1.3-1.3c8.7-2,14.4-3.7,17.3-5c6.2-3.1,9.3-7.7,9.3-13.8
		c0-3.9-2-8.2-6.1-13c-7.1-8.1-10.9-12.7-11.5-13.6c-4.1-6.2-6.2-13.1-6.2-20.7c0-11,5.1-20.1,15.2-27.3c8.3-6,18.4-9.9,30.5-11.7
		c0.7-0.1,1.2-0.1,1.5-0.1c0.9,0,1.6,0.7,2.2,2.2c1.6,4.4,5.2,12.3,10.9,23.7c0.2,0.4,0.3,0.7,0.3,0.9c0,1-0.5,1.5-1.6,1.5
		c-0.5,0-1.3-0.1-2.4-0.3c-1.1-0.2-2-0.3-2.6-0.3c-4.3,0-8.1,1-11.3,3c-3.9,2.3-5.8,5.5-5.8,9.5c0,3.7,2.2,8.1,6.5,13.5
		c7.6,9.6,11.6,14.6,11.9,15.1C925.4,597.5,927.5,604.1,927.5,610.6z"/>
</g>
</svg>
