<?xml version="1.0" encoding="utf-8"?>
<!-- Generator: Adobe Illustrator 21.0.0, SVG Export Plug-In . SVG Version: 6.00 Build 0)  -->
<svg version="1.1" id="Layer_1" xmlns="http://www.w3.org/2000/svg" xmlns:xlink="http://www.w3.org/1999/xlink" x="0px" y="0px"
	 viewBox="0 0 1024 1024" style="enable-background:new 0 0 1024 1024;" xml:space="preserve">
<style type="text/css">
	.st0{display:none;}
	.st1{display:inline;}
	.st2{fill:#969696;}
	.st3{fill:#0C658E;}
	.st4{display:inline;opacity:0.6;fill:#7AB4E2;enable-background:new    ;}
	.st5{fill:#FFFFFF;}
	.st6{opacity:0.6;fill:#D8D8D8;enable-background:new    ;}
	.st7{fill:#939393;stroke:#FFFFFF;stroke-width:10;stroke-miterlimit:10;}
	.st8{fill:#26FFE0;stroke:#FFFFFF;stroke-width:10;stroke-miterlimit:10;}
	.st9{fill:#FFFFFF;stroke:#FFFFFF;stroke-width:5;stroke-miterlimit:10;}
</style>
<g id="Layer_1_1_" class="st0">
	<g class="st1">
		<path class="st2" d="M911,40c19.4,0,37.7,7.6,51.5,21.5C976.4,75.3,984,93.6,984,113v798c0,19.4-7.6,37.7-21.5,51.5
			C948.7,976.4,930.4,984,911,984H113c-19.4,0-37.7-7.6-51.5-21.5C47.6,948.7,40,930.4,40,911V113c0-19.4,7.6-37.7,21.5-51.5
			S93.6,40,113,40H911 M911,0H113C50.9,0,0,50.9,0,113v798c0,62.2,50.9,113,113,113h798c62.2,0,113-50.9,113-113V113
			C1024,50.9,973.1,0,911,0L911,0z"/>
	</g>
	<g class="st1">
		<polygon class="st3" points="482.9,256.2 493.1,320.7 552,348.8 493.9,378.5 485.3,443.2 439.1,397 374.9,408.9 404.6,350.7 
			373.4,293.3 437.9,303.5 		"/>
	</g>
	<g class="st1">
		<polygon class="st3" points="720.3,397.8 706.3,481 766.9,539.7 683.4,552.2 646.3,628 608.7,552.4 525.1,540.5 585.4,481.4 
			570.8,398.3 645.7,437.3 		"/>
	</g>
	<g class="st1">
		<polygon class="st3" points="531.3,631.5 437.4,673.7 418.9,774.9 349.8,698.6 247.8,712.3 299,623 254.5,530.2 355.2,551.3 
			429.7,480.3 440.7,582.6 		"/>
	</g>
</g>
<g id="_x31_" class="st0">
	<path class="st4" d="M1012,1023.7H12.3c-6.6,0-12-5.4-12-12V12c0-6.6,5.4-12,12-12H1012c6.6,0,12,5.4,12,12v999.7
		C1024,1018.3,1018.6,1023.7,1012,1023.7z"/>
	<g class="st1">
		<polygon class="st5" points="247,421.7 247,626 154.4,626 154.4,275.2 273.9,275.2 383.4,436.9 383.4,275.2 484.4,275.2 
			484.4,465.5 380,605.2 		"/>
		<rect x="777.3" y="275.3" class="st5" width="92.6" height="350.7"/>
		<polygon class="st5" points="639.4,626 746.2,626 746.2,164.8 401.1,625.9 510.6,625.9 655.3,433 655.3,538.4 581.2,539 		"/>
	</g>
	<g class="st1">
		<path class="st5" d="M348.3,732.5c-2-8.7-6.9-14.8-14.8-18.2c-4.4-1.9-9.2-2.9-14.6-2.9c-10.3,0-18.7,3.9-25.3,11.6
			s-9.9,19.4-9.9,34.9c0,15.6,3.6,26.7,10.7,33.2s15.3,9.7,24.4,9.7c8.9,0,16.2-2.6,21.9-7.7c5.7-5.1,9.2-11.8,10.5-20.1h-29.5
			v-21.3h53V820h-17.6l-2.7-15.9c-5.1,6-9.7,10.3-13.8,12.7c-7,4.3-15.7,6.5-25.9,6.5c-16.9,0-30.7-5.8-41.5-17.5
			c-11.2-11.7-16.8-27.8-16.8-48.2c0-20.6,5.7-37.1,17-49.6s26.4-18.6,45-18.6c16.2,0,29.2,4.1,39,12.3s15.5,18.4,16.9,30.7
			L348.3,732.5L348.3,732.5z"/>
		<path class="st5" d="M419.6,820.1H395V692.8h24.6V820.1z"/>
		<path class="st5" d="M518.2,808.6c-7.9,9.8-20,14.7-36.2,14.7s-28.3-4.9-36.2-14.7c-7.9-9.8-11.9-21.6-11.9-35.4
			c0-13.6,4-25.3,11.9-35.3c7.9-9.9,20-14.9,36.2-14.9s28.3,5,36.2,14.9c7.9,10,11.9,21.7,11.9,35.3
			C530.2,787,526.2,798.8,518.2,808.6z M498.5,795c3.9-5.1,5.8-12.4,5.8-21.8c0-9.4-1.9-16.7-5.8-21.8s-9.4-7.6-16.6-7.6
			s-12.7,2.5-16.6,7.6s-5.8,12.4-5.8,21.8c0,9.4,1.9,16.7,5.8,21.8s9.4,7.7,16.6,7.7C489.2,802.7,494.7,800.1,498.5,795z"/>
		<path class="st5" d="M624.3,737.3c7,8.9,10.6,20.4,10.6,34.6c0,14.6-3.5,26.8-10.4,36.4c-6.9,9.6-16.6,14.4-29.1,14.4
			c-7.8,0-14.1-1.6-18.8-4.7c-2.8-1.8-5.9-5.1-9.2-9.7v11.8H543V693h24.6v45.3c3.1-4.4,6.6-7.7,10.3-10c4.5-2.9,10.1-4.3,17-4.3
			C607.5,723.9,617.3,728.4,624.3,737.3z M603.7,794.7c3.5-5.1,5.3-11.9,5.3-20.2c0-6.7-0.9-12.2-2.6-16.6
			c-3.3-8.3-9.4-12.4-18.3-12.4c-9,0-15.2,4.1-18.6,12.2c-1.7,4.3-2.6,9.9-2.6,16.8c0,8.1,1.8,14.7,5.4,20s9.1,7.9,16.5,7.9
			C595.2,802.3,600.2,799.8,603.7,794.7z"/>
		<path class="st5" d="M685.4,762.9c4.6-0.6,7.9-1.3,9.8-2.2c3.5-1.5,5.3-3.8,5.3-7c0-3.9-1.4-6.5-4.1-8c-2.7-1.5-6.7-2.2-12-2.2
			c-5.9,0-10.1,1.4-12.5,4.3c-1.8,2.1-2.9,5-3.5,8.6h-23.8c0.5-8.2,2.8-15,6.9-20.3c6.5-8.3,17.8-12.4,33.7-12.4
			c10.4,0,19.6,2,27.6,6.1S725,741.7,725,753v43.2c0,3,0.1,6.6,0.2,10.9c0.2,3.2,0.7,5.4,1.5,6.6c0.8,1.2,2,2.1,3.6,2.9v3.6h-26.8
			c-0.7-1.9-1.3-3.7-1.6-5.4s-0.5-3.6-0.7-5.7c-3.4,3.7-7.4,6.8-11.8,9.4c-5.3,3.1-11.4,4.6-18.1,4.6c-8.6,0-15.7-2.4-21.2-7.3
			c-5.6-4.9-8.4-11.8-8.4-20.7c0-11.6,4.5-20,13.5-25.1c4.9-2.8,12.2-4.8,21.8-6L685.4,762.9z M700.4,774.4c-1.6,1-3.2,1.8-4.8,2.4
			c-1.6,0.6-3.8,1.2-6.6,1.7l-5.6,1c-5.3,0.9-9,2-11.3,3.4c-3.9,2.2-5.8,5.7-5.8,10.5c0,4.2,1.2,7.2,3.6,9.1
			c2.4,1.9,5.2,2.8,8.6,2.8c5.4,0,10.3-1.6,14.9-4.7c4.5-3.1,6.9-8.8,7.1-17v-9.2H700.4z"/>
		<path class="st5" d="M767.7,820.1h-24.6V692.8h24.6V820.1z"/>
	</g>
</g>
<g id="_x32_">
	<g>
		<path class="st6" d="M1012,1024H12c-6.6,0-12-5.4-12-12V12C0,5.4,5.4,0,12,0h1000c6.6,0,12,5.4,12,12v1000
			C1024,1018.6,1018.6,1024,1012,1024z"/>
	</g>
</g>
<g>
	<g>
		<circle class="st7" cx="511.7" cy="512.5" r="128.4"/>
		<g>
			<g>
				<g>
					<g>
						<path class="st8" d="M382.7,512.5c0.1,0.4,0.3,0.2,0.3-1l-0.3-0.8V512.5z"/>
						<path class="st8" d="M383.5,504.6c-0.1-1.4-0.2-3-0.6-2.1c0.2,1.4,0.1,1.7,0.3,3.2c0,1.2-0.2,2-0.3,1.8
							c0.1,0.4-0.1,1.8,0.1,2.5c0.1-0.8,0.2-1.6,0.3-2.5c0-0.9,0-1.9,0-2.9C383.5,504.1,383.5,504.5,383.5,504.6z"/>
						<path class="st8" d="M437.5,408.3l-0.6,0.4C437.2,408.6,437.3,408.4,437.5,408.3z"/>
						<path class="st8" d="M503.3,385.1c-0.5,0-0.8,0.1-0.8,0.1C503,385.1,503.3,385.1,503.3,385.1z"/>
						<path class="st8" d="M515.3,385.2c-0.3,0-0.5,0-0.7,0C514.8,385.2,515,385.2,515.3,385.2z"/>
						<path class="st8" d="M437.5,408.3l1.6-1C439.2,407.1,438.3,407.8,437.5,408.3z"/>
						<path class="st8" d="M384.7,488.8c-0.1,0.4-0.1,0.7-0.1,1C384.7,489.5,384.7,489.2,384.7,488.8
							C384.7,488.9,384.7,488.9,384.7,488.8z"/>
						<path class="st8" d="M414.8,429.4l-0.4,0.4c-0.1,0.2-0.2,0.3-0.2,0.4L414.8,429.4z"/>
						<path class="st8" d="M401.2,448.9c0.3-0.5,0.1-0.8,0.1-1c-0.1,0.3-0.2,0.7-0.4,1.1C400.8,449,401,449,401.2,448.9z"/>
						<path class="st8" d="M386.8,483.8l-0.1,0.7C386.8,484.3,386.8,484,386.8,483.8z"/>
						<path class="st8" d="M426.8,417.3c0.1,0,0.1,0,0.2-0.1C427,417.2,427,417.2,426.8,417.3z"/>
						<path class="st8" d="M385,540.3C385,540.4,385,540.3,385,540.3C385,540.2,385,540.2,385,540.3z"/>
						<path class="st8" d="M383.3,512.5v0.4c0.1,0,0.1,0.1,0.2,0.1L383.3,512.5z"/>
						<path class="st8" d="M537,388L537,388C536.3,387.9,536.7,388,537,388z"/>
						<path class="st8" d="M636,539.4c0.8-2.2-0.5,3.7,0.5,0.4C636.3,540.1,636.8,536.7,636,539.4z"/>
						<path class="st8" d="M384.8,488.2c0.1-0.3,0.1-0.6,0.2-1C384.8,487.7,384.8,488,384.8,488.2z"/>
						<path class="st8" d="M636.5,539.8L636.5,539.8l0.1-0.3C636.7,539.6,636.5,539.7,636.5,539.8z"/>
						<path class="st8" d="M583.3,407.4c-0.1-0.1-0.2-0.2-0.4-0.4C583,407,583,407.1,583.3,407.4z"/>
						<path class="st8" d="M549.7,390.6l0.9,0.3C550.2,390.8,549.8,390.7,549.7,390.6z"/>
						<path class="st8" d="M598.8,419.3c0.4,0.4,0.5,0.5,1,1c0-0.1-0.1-0.1-0.1-0.2C599.5,420,599.2,419.7,598.8,419.3z"/>
						<path class="st8" d="M612.5,434.4c-0.1-0.1-0.1-0.2-0.2-0.3c-0.1-0.2-0.3-0.3-0.4-0.5L612.5,434.4z"/>
						<path class="st8" d="M412.8,596.2c-0.2-0.4-0.4-0.7-0.4-0.9C412.5,595.7,410.5,593.4,412.8,596.2z"/>
						<path class="st8" d="M384.8,488.8c0-0.1-0.1-0.3,0-0.6c0,0.2-0.1,0.5-0.1,0.7C384.8,489,384.8,489,384.8,488.8z"/>
						<path class="st8" d="M600.8,418.3l2.4,2.3C602.7,419.9,601.8,419.1,600.8,418.3z"/>
						<path class="st8" d="M547.5,637l-0.7,0.2C547,637.1,547.3,637,547.5,637z"/>
						<path class="st8" d="M610,427.7c0.3,0.5,0.7,1,1.1,1.5c0.1,0.1,0.2,0.2,0.3,0.2L610,427.7z"/>
						<path class="st8" d="M412.5,595.3L412.5,595.3L412.5,595.3z"/>
						<path class="st8" d="M399.5,577.9c1.6,2.7,1,1.1,1.6,1.6c2.1,3.1,0.7,1.6,1.2,2.8c0.7,1,1.3,1.8,1.9,2.5
							c0.6,0.7,1.2,1.4,1.7,2.1c0,0.1,0.2,0.4-0.1,0.2c0.4,0.5,0.9,1.1,1.4,1.7c0.5,0.7,1.1,1.4,1.7,2.2c1.2,1.5,2.4,3,3.4,4
							c0.1,0.2,0.2,0.3,0.2,0.3c-0.2-0.5-0.1-0.6,0.1-0.7c0.9,1.1,1.9,1.8,2,2.4c-0.6-0.7-0.7-0.6-1-0.9l1,1
							c0.6,1.2-1.4-1.4-1.6-1.3c1,1,2.1,2.2,3.1,3.2c1.1,1,2.1,2,2.8,2.8c0.1,0.6-3.6-3.6-1.8-1.3l-1.1-1.3l-1.1-1.3
							c1.3,2.3-1.3-1.6-0.2,0.6c0.4,0.4,0.7,0.8,1,1.2c0.3,0.3,0.6,0.6,0.9,0.9c0.5,0.5,1,1,1.4,1.4c0.9,0.9,1.8,1.8,3.4,3.3
							c0.9,0.6,0-0.4,0.8,0.1c1.2,1,2,1.8,2.6,2.4s1,1,1.3,1.5c0.7,0.8,1.2,1.5,3.1,2.9c1.1,0.6,1.7,0.5,4.2,2.8l-1.1-0.4
							c3.4,2.7,2.3,1.1,5.8,3.9c-0.7-0.3-2.9-1.9-2.3-1.5c2.2,2,1.8,1,3.7,2.3c0.1,0.2,0.1,0.4,0.2,0.5c2,1.2,4,2.5,6.2,3.7
							c2.2,1.2,4.4,2.4,6.7,3.5c-0.3,0-1.1-0.3-0.1,0.3c2.9,1.5,6,2.8,9.1,4.3c1.6,0.7,3.1,1.3,4.7,2c1.5,0.7,3.1,1.2,4.5,1.7
							l2.3,0.5c0.5,0.2,0.9,0.4,0.4,0.3c2.3,0.8,0.2-0.1,1.3,0.1c1.3,0.4,1.7,0.7,0.8,0.5c4.2,1.1,12,2.4,16.3,3.4L491,640
							c3.5,0.7,4-0.1,7.2,0.6h-0.6c3.8,0.4,7.8,0.7,11.6,0.8c0.9,0,1.9,0.1,2.8,0.1c0.9,0,1.8,0,2.7,0c1.7,0,3.3,0.1,4.8,0
							c0.5-0.3,2.4-0.3,4.2-0.5c1.8-0.1,3.5-0.4,3.7-0.7c2.2-0.1,3-0.1,4-0.2c1-0.1,2.2-0.2,5.3-0.7c1.6-0.2,2.3-0.9,4.3-1.4
							l0.1,0.3l2.6-0.9c0.5,0,1,0,1.5,0l1.8-0.6c-0.7,0.2-1.6,0.3-1.5,0.2c1.4-0.5,3.2-0.9,4.6-1.2c1.4-0.3,2.5-0.6,2.5-0.5l3.3-1.2
							c1.1-0.4,2.2-0.9,3.2-1.4c-0.1,0.2-1.2,0.6-2,1.1c3.4-1.7,0.8,0.1,3.8-1.5c-0.5,0.1,0.2-0.3,0.2-0.3c0.8-0.2,2.1-0.7,3.6-1.4
							c1.4-0.6,3-1.3,4.2-2l-0.4,0.4c1.2-0.6,2.4-1.2,3.6-1.8c0.6-0.3,1.2-0.6,1.8-1s1.2-0.7,1.8-1.1c1.2-0.7,2.5-1.4,3.7-2.2
							c1.2-0.8,2.4-1.6,3.7-2.4c-1.8,1.1-1.6,0.5-0.2-0.5l0.8-0.1c0.8-0.8-1.6,0.9,0.2-0.6c1.8-1.2,1.4-0.5,0.4,0.3l2.1-1.6
							c0.2,0-0.3,0.4-0.4,0.6c0.8-0.8,4-2.4,5-3.7h0.2c1.1-0.9,2.1-1.7,3-2.4c0.9-0.7,1.6-1.4,2.4-2.1c0.7-0.7,1.5-1.3,2.2-2
							c0.8-0.7,1.5-1.4,2.4-2.3c-0.1-0.3,1.3-1.5,2.1-2.6c1.2-1.2,2.6-2.5,3.9-3.9c1.4-1.4,2.7-2.9,4.1-4.5c1.8-2.4,0.4-0.8,1.1-2
							c0.3,0,2.9-3.3,1.7-1.5c1.6-2,2.5-3.3,3.5-4.8c0.5-0.7,1-1.5,1.6-2.4c0.6-1,1.2-2.1,2.1-3.4c-0.5,0.5-0.9,1.2-0.8,0.8
							c0.6-1,1.5-2.2,1.5-2l-0.1,0.3c1.7-3.2,3.9-6.6,5.8-10.1c1-1.7,1.8-3.5,2.6-5.1c0.4-0.8,0.7-1.6,1.1-2.4
							c0.3-0.8,0.5-1.5,0.7-2.2l-0.1,0.3c0.6-1.9,1.3-3.7,1.8-5.6c0.9-2.6-0.3,1.6,0.5-0.2c0.4-1.6,0.8-2.9,1.2-4.2
							c0.3-1.3,0.7-2.5,1-3.6c0.7-2.3,1.3-4.5,1.7-7.1c0.2-0.5,0.4-1.1,0.6-1.7c0.2-0.7,0.3-1.4,0.5-2.2c0.3-1.6,0.7-3.4,0.9-5.3
							c0.2-1.9,0.4-3.8,0.6-5.6c0.1-1.8,0.3-3.5,0.5-4.9l-0.2,0.3c-0.1-1.4,0.2-1.7,0.3-2.8c-0.1,0.1-0.2,1.5-0.3,0.6
							c0-3,0.2-6.1,0-9.2c0-1.5,0-3.1-0.1-4.7c-0.1-1.6-0.2-3.1-0.3-4.7c-0.1-1.6-0.3-3.1-0.4-4.7c-0.2-1.6-0.3-3.1-0.6-4.7
							c-0.2-1.5-0.5-3.1-0.7-4.6c-0.3-1.5-0.7-3-1-4.6c-0.5-2.2-0.9-2.8-1.3-3.5c-0.4-0.7-0.8-1.6-1.4-4.4l0.8,1.5
							c-3-8.6-6.3-17.6-10.9-25.3c0.3,0.4,0.4,0.4,0.8,1.2c-0.7-1.8-3.5-6.1-3.6-6c-0.7-1.2,0-0.4-0.4-1.1c-0.9-1.7-2.8-3.9-3.2-4.8
							c-0.1-0.2,0.4,0.4,0.6,0.7c-0.8-0.9-3.3-4.7-2.8-3.6c-0.9-1.4-1.9-2.6-2.9-3.8s-1.8-2.3-2.7-3.4c-1.4-1.1-3.6-4.5-4.4-4.5
							c0.5-0.1-3.7-4.5-5.5-5.8c0.6,0.4-1.2-1.4-0.5-0.9c-1.7-1.7-3.5-3-3.3-2.6c-1.5-1.7-3.2-3.1-4.9-4.2c-1.6-1.1-3-2.2-3.8-3.2
							c-5.9-4.1-11.7-7.4-17.5-10.3c0.2-0.1,1.8,0.6,3.3,1.5c1.5,0.8,2.9,1.7,2.9,1.4c-1.4-0.7-2.6-1.3-3.7-1.9
							c-1.2-0.5-2.3-1-3.4-1.5c-2.2-1-4.4-1.9-7.1-3.2c-1.4-0.7,0.9,0.2,1.4,0.3c-2.8-1.2-5.6-2.2-8.3-3.3c-1.4-0.5-2.7-0.9-4-1.4
							c-0.7-0.2-1.3-0.4-2-0.6c-0.7-0.2-1.3-0.3-2-0.5c0,0,0.6,0.1,1.1,0.2c-1-0.3-2.4-0.7-2.3-0.5l1,0.2c1.6,0.8-4.3-0.6-4.5-0.5
							c1.9-0.2-5.2-1.3-2.2-1.4c-0.7-0.1-1.6-0.2-1.5-0.1c-1-0.3-1.3-0.4-0.2-0.3c-1.9-0.4-2.5-0.4-3.1-0.4s-1.1-0.1-2.8-0.4
							c0-0.1,0.7,0,1.1-0.1c-1.8-0.1-3.5-0.3-6.4-0.7c0.2,0-0.1-0.2,0.7,0c-2.5-0.3-4.6-0.5-6.9-0.5c-1.1,0-2.2-0.1-3.4-0.1
							c-1.2-0.1-2.4-0.1-3.8-0.2c1.6-0.4-1.9-0.2-2.2-0.6c-1,0-2,0.1-3,0.1l1.2,0.2c-2.6,0.1-4.9,0.3-7.1,0.4
							c0.6-0.1,1.3-0.2,1.9-0.3c-1.6,0.1-3.2,0.3-4.9,0.4l2.8-0.1c-2.6,0.4,0.3,0.5-3.1,0.6c0.7-0.1-2.6,0.2-4,0.2l0,0
							c-1.3,0.3-2.6,0.6-4.5,0.7c-0.5-0.1,0.3-0.5,0-0.5c-0.6,0.2-2.1,0.5-3.6,0.8s-3.1,0.6-3.9,1c0.5-0.2,0.5-0.4,0.3-0.4l-1,0.5
							c-1.2,0.2-1.4,0.2-1.2,0c-3.5,0.8,1.2,0.2-3,1c0.3-0.1,0.2-0.1,0.8-0.3c-4.2,0.9-8,2.3-11.8,3.5c-1.2,0,3.3-1.2,1.9-1.1
							c-5.5,1.8-10.9,4.6-16,6.9l0.9-0.4c-0.4,0.8-3.8,1.6-6.2,3.2c0.6-0.4,0.6-0.7,0.5-0.6c-1.7,0.9-3.3,1.9-5.2,3
							c-1.8,1.2-3.8,2.6-6.1,4.3l0.5-0.5c-1.9,1.2-4.9,3.3-6.8,4.8c-0.5,0.6-1.6,1.4-0.8,1c-0.8,0.5-1.6,1-2.3,1.6s-1.4,1.1-2.1,1.7
							c-1.4,1.2-2.7,2.3-3.8,3.6c-1.2,1.2-2.4,2.4-3.6,3.6c-1.2,1.2-2.3,2.4-3.6,3.5c0.5-0.6,1.2-1.4,0.8-1
							c-1.3,1.4-2.4,2.9-3.6,4.3c0.5-0.2,0.6-0.5,1.5-1.2c-0.4,0.6-1.3,1.9-2.2,2.9c1.5-2-0.3-0.2-1.1,0.5c0.2-0.1,0,0.2,0.1,0.2
							c-2.1,2.1,0.1,0.7-2.6,3.6V434c-0.9,1.2-1.5,2.5-2.5,3.7c-0.6,0.4,0.8-1.4,0.7-1.6c-1.3,1.9-2.2,3.9-3.5,5.5
							c0.5-0.9,1.2-2,1.7-2.8c-1.6,1.6-1.6,2-2.5,3.3l0.1-0.1c-0.7,1.1-1.5,2.1-2.2,3.2c0.2-0.3,0.4-0.5,0.6-0.8
							c-0.5,1.4-1.1,2.7-1.9,4c-0.4,0.7-0.8,1.4-1.2,2.1c-0.4,0.8-0.7,1.6-1.1,2.5c1.3-3.5,0.1-0.7-0.1-1.1
							c-0.5,0.8-1.3,2.1-1.2,1.7c-0.3,0.9-0.7,1.5-1.1,2.3c-0.4,0.8-0.8,1.6-1.2,2.9c-0.1,0.1-0.8,1.8-0.9,1.3
							c-0.9,2.2,0.4-0.4,0.4-0.2c-1.2,3.4-3.6,7.8-4.8,12.9c-0.6,2.2-0.8,3.5-1,4.8c-0.1,0.6-0.2,1.3-0.4,2
							c-0.1,0.7-0.3,1.6-0.4,2.6c-0.5,1.3-0.1-1.2-0.1-1.2c-0.6,2.2-1.1,3.8-1.3,6c0-0.4-0.2,0-0.4,0.6c-0.3,1.7,0.1,1.2-0.4,3.4
							c0-0.4-0.1-0.9-0.1-1.8c-0.1,1-0.2,2-0.4,3c-0.1,1-0.1,2-0.2,3.1c-0.2,0.5-0.1-1.3-0.1-2c-0.2,2.4-0.6,6.1-0.4,6.8l0.2-1.5
							c-0.1,0.9-0.3,0.4-0.3-0.2c0-2,0.5-2.9,0.6-3l-0.1,1.5c0.4-0.7,0.5-2.2,0.7-3.9c0.1-1.7,0.4-3.5,0.6-5l0.2,1.3l0.2-3.1
							c0.2-0.6,0.5-1,0.3,0.5c0.6-2.1,0.3-1.9,0.9-3.6c0.1-0.2,0.1-0.1,0.1,0.1l0.4-2.1c0,0.4,0.4-0.3,0,1c0.3-0.9,0.5-1.7,0.6-2.5
							c0.2-0.7,0.3-1.4,0.5-2c0.3-1.2,0.5-2.1,0.8-2.7l-0.1,0.3c0.3-1.3,0.5-1.9,0.6-2.3c0.1-0.3,0-0.4,0-0.4
							c-0.1,0-0.3,0.2,0.2-1.8l1.6-2.2l-0.1-0.6c0.2-0.5,0.6-1.5,0.7-1.3c0.5-1.9-0.2,0.3,0-0.9c0.6-1.2,1.2-2.8,1.8-4.3
							c0.6-1.4,1.2-2.6,1.5-2.7c0.2-0.9-1.2,2.2-0.2-0.4c0.4-0.3,0.7-1,1.1-1.9c0.4-0.9,0.9-2,1.5-3c-0.1,0.8-1.2,2.7,0.1,0.7
							c0.1-0.7,0.7-1.8,1.3-2.8s1.4-2.1,1.9-3c-0.1-0.1,0.4-1.1,1.1-2.4c0.8-1.3,1.8-2.9,2.7-4.3c-0.1,0.2,3.7-5.1,5.7-7.5v0.1
							c0-0.3,0.6-1.1,1.3-2.1c0.7-0.9,1.5-2,2.3-2.9c0.1,0.2-0.1,0.6-0.8,1.6c0.5-0.6,1-1.1,1.4-1.7c0.2-0.5,0.7-1,1.6-2.1l-0.2,0.6
							c0.5-0.6,0.9-1.1,1.4-1.7c0.5-0.6,1-1.1,1.5-1.7c0.5-0.6,1.1-1.2,1.7-1.8c0.3-0.3,0.6-0.6,0.9-0.9c0.3-0.3,0.7-0.6,1-0.9
							c0-0.3-2.7,1.6,0.1-1.3c0.2,0,0.5,0.1-0.2,0.8c0.2-0.2,0.8-0.9,1.3-1.4l-1,1.3c1.3-1.1,0.5-0.8,1.5-1.7
							c0.1,0.2,0.8-0.6,0.8-0.3c-0.2,0.3-0.9,0.8-1.2,1.2c1.1-1,2.6-2.2,3.2-2.5c-0.2,0-0.2-0.2,0.7-1c2.2-1.9,0.9-0.5,2.3-1.5
							c0.4-0.6,2-1.6,1.8-1.9c0.7-0.5,0.9-0.5,1.2-0.7c0.6-0.5,1.9-1.6,3-2.5c1.1-0.8,1.8-1.4,1.1-1.1l-0.3,0.2
							c0.1,0,0.1-0.1,0.2-0.2l0,0l0,0c1-0.8,2-1.5,3-2.3c1.1-0.7,2.2-1.4,3.3-2c2.2-1.4,4.5-2.5,6.6-3.8v0.1c1.2-0.8,2.7-1.5,4-2.3
							c1.4-0.7,2.6-1.4,3.5-1.9c0.8-0.4,1.9-0.7,1.7-0.4c2-1,2.2-1.3,5.3-2.3c-2,1,0.8-0.1-2.1,1c2.7-1,3.4-1.1,6.2-2.5
							c-0.9,0.6,2.2-0.4,3.5-0.9l-2,0.5c1.5-0.5,2.8-1,4.1-1.4l-0.6,0.6c1.4-0.4,2.8-0.7,4.1-1.1c1.3-0.4,2.5-0.9,3.7-1.2
							c2.4-0.7,4.6-1.4,7-1.4c1.5-0.5-3.2,0.4-1.9-0.1c2.7-0.4,5.6-0.5,6.4-0.6c3.7-0.3,3.4-1,7.3-1.2c-0.5-0.1-1-0.4,1.9-0.7
							c2.8-0.2,3.4,0.2,1.7,0.5c-0.7,0.1-1,0-0.9,0c-0.9,0.1-2,0.2-0.9,0.3l0.3-0.1c0.7,0,2-0.1,3-0.1s1.7,0,1.3,0.1
							c2.1-0.2,0.9-0.2-0.7-0.2c1.8,0,3.1,0,4.5,0c1.4-0.1,2.8,0,4.6,0.1c-0.6-0.1-1.1-0.2-0.5-0.2c2.7,0.1,3.2,0.1,3.6,0
							c0.4-0.1,0.5-0.2,2.3-0.1c2,0.3-0.8,0.4,2.9,0.5c2.2,0.3,0.4,0.3-0.4,0.4c0.8,0,1.6,0,2.4,0.1c0.8,0.1,1.5,0.2,2.1,0.3
							c1.3,0.2,2.5,0.5,3.4,0.6l-1.7-0.1c1,0.1,1.9,0.2,2.7,0.3c-0.3-0.1-0.6-0.3-0.9-0.4c1,0.2,1.8,0.4,1.8,0.4
							c1.1,0-0.7-0.5,1.4-0.4c1.3,0.4,4.1,0.6,4.5,1c-4.2-0.9,0.4,0.4-3.2-0.2c0.7,0.1,1.5,0.2,2.5,0.5c0.1,0.1-0.2,0-0.4,0
							c3.9,1.2,1.9,0.1,6,1c-0.6,0,0.9,0.5,1.5,0.7c-1.6-0.5-0.7-0.5,0.8-0.2c2.6,0.9,2.9,0.7,4.2,1.1l-1.5-0.5
							c0.3,0,0.8,0.1,1.4,0.2c0.6,0.2,1.4,0.4,2.3,0.7c0.1,0.2-1.7-0.5-1-0.2c2.1,0.4,4.4,1.8,7.2,2.7c1.2,0.6,0,0.4,1.1,0.9
							c3.2,1,3.2,1.6,6.4,2.8c-0.8-0.6-1-0.6,1.3,0.1l-5.2-2.2l3.5,1.2c-1.6-0.7-3.3-1.4-4.3-1.8c1.7,0.5,1.5,0.5,0.8,0
							c2,1.3,4.4,1.7,6.7,3.1l-0.3,0.5c1.7,1.1,3.4,1.8,5.2,2.6c0.9,0.5,1.8,0.9,2.8,1.4s2,1.1,3.1,1.9c-0.5-0.3-0.9-0.7-1.4-1
							c0.7,0.1,2.8,1.7,4.3,2.6c-0.2,0.1,0.6,0.7,1.2,1.2c0-0.2,3.1,2.3,3.8,2.2c0.6,0.5,1.2,1,1.8,1.6c3.3,2.7,4.2,2.5,7.3,5.3
							c-1.1-0.7,0.2,0.7-1.9-1c1,0.9,1.9,1.7,2.1,1.6c0.3,0.3,1,0.9,1.8,1.5c0.8,0.7,1.6,1.4,2,1.9c0.5,0.3,0.8,0.3,1.9,1.4
							c0.1,0.1-0.1,0.1-0.1,0.1c0.1-0.1,1.8,1.6,1,0.5c2.5,3.5,8.1,8.6,9.9,12c0.5,0.6,1,1.2,1.5,1.8s1,1.3,1.5,1.9
							c0.9,1.3,1.9,2.6,2.7,3.7c-0.1-0.1-0.1,0-0.3-0.4c1.9,3.3,1.7,1.6,3.8,5.4c0.4,1,0.1,0.6-0.3,0c-0.4-0.6-0.8-1.2-0.5-0.6
							c-0.1,0.4,0.5,1.5,1.4,2.9c0.8,1.3,1.9,2.9,2.3,4.3l-0.4-0.6c0.8,2.1,2.7,4.6,4.1,7.9c0,0-0.1-0.1-0.1,0
							c0.7,1,1.5,2.6,2.3,4.4c0.8,1.7,1.6,3.6,2.2,5.2c-0.6-0.9-0.6-1.4-0.7-0.7c0.5,1.5,0.2-0.6,1.3,2.3c0.2,1,0.8,3.1,0.6,3.5
							c-0.3-0.9-0.6-1.8-0.9-2.8c0.1,0.8,0.4,1.6,0.7,2.5s0.6,1.8,0.8,2.5l-0.2-0.1c1.3,4.3,1.6,4.3,2.7,8.9v-0.5
							c0.9,2.5,0.2,2.2,1,4.7l-0.2,0.8c0.1,0.4,0.2,1,0.4,1.7c0.1,0.7,0.3,1.5,0.4,2.3c0.3,1.7,0.7,3.5,0.8,5.1
							c-0.2-0.9-0.5-2.2-0.8-3.6c-0.3-1.4-0.5-2.8-0.8-3.9c0.2,1.7,0.8,5.8,1.1,6.6c-0.1-0.7-0.3-1.5-0.4-2.2c0.6,2,0.9,4.8,1.2,8.2
							c-0.7-0.6,0.1,8.9-0.7,11.4c0,0.8,0,1.5,0,2.3c0,0.8-0.1,1.5-0.1,2.3c-0.1,1.5-0.2,3-0.4,4.6c-0.2,1.5-0.5,3.1-0.7,4.7
							s-0.6,3.3-0.9,5c1-2.3-0.3,2,0.3,1.7c-0.3,1.6-0.5,2.2-0.5,2.4l-1.5,4.8c-0.2,0.5-0.2,0.2-0.1-0.3c0.1-0.5,0.2-1.1,0.1-1.1
							c-0.9,3.5-0.6,1.4-1.4,3.6c0.3-0.4,0,1.3-0.7,3.2l1.1-2.7c-0.5,2.5-0.9,3.5-1.4,4.4c-0.5,1-0.9,2-1.6,4.4l0.3-1.6
							c-0.7,2.5-3.4,8.9-4.1,11.4c-0.3,0.4-0.7,0.9-0.2-0.2c-2.7,5.6-5.8,12.5-8.8,16.3l0.1-0.5c-0.6,1-0.8,1.9-1.8,3
							c0-0.1,0.1-0.5-0.2,0s-1.6,2.7-2.5,3.8l0.6-1.2c-0.9,1.2-1.7,2.3-2.5,3.2c-0.7,1-1.4,1.9-2,2.8c-1.3,1.8-2.5,3.5-4.2,5.4
							c-0.2-0.2-1.1,0.6-2.2,1.6c-1.1,1-2.3,2.3-3.3,3v-0.1c-1.3,1.2-2.4,2.3-3.5,3.4c-1.1,1-2.2,2-3.3,3c-1,1-2.2,1.9-3.3,2.9
							s-2.3,2-3.6,2.9c-0.9,0.5-2,1.2-3.4,2.1c-1.3,0.9-2.9,1.8-4.4,2.8c-1.6,1-3.3,1.9-4.9,2.9c-1.6,1-3.3,1.7-4.7,2.4
							c0.9-0.4,0,0.4-1,0.9c-1.4,0.7-3.7,2.1-3.6,1.6l0.5-0.2c-1.2,0.1-4,1.6-6.3,2.4l-0.2,0.6c-1.6,0.4-3.3,1-5.1,1.6
							s-3.7,1.3-5.5,1.9c-1.8,0.5-3.6,1.1-5.1,1.5c-1.5,0.3-2.8,0.6-3.7,0.6c-1.5,0.5-3.4,0.8-4.8,1.2v-0.3
							c-2.1,0.3-3.7,0.6-5.4,0.8c-0.9,0.1-1.7,0.2-2.7,0.3c-0.5,0.1-1,0.1-1.6,0.2c-0.6,0-1.2,0.1-1.8,0.2l1.1-0.3
							c-3,0.2-3.7,1.1-6.4,1.3l-0.8-0.4c-2.6,0.1-5.2,0.1-7.8-0.1c-1.3,0-2.6-0.1-3.9-0.1c-1.3-0.1-2.6-0.1-3.9-0.1
							c0.1-0.1,0.3-0.2,1.1-0.1c-2.5-0.1-9.4-1.3-8.6-0.6c0-0.3-5.3-0.9-8.1-1.3l0.5-0.2c-2.4-0.2-2.5-0.1-5.7-0.8
							c-0.8-0.2-0.6-0.4,0.4-0.1c-2.5-0.8-2-0.3-5.1-1.3l1.2,0.2c-2.6-0.8-2.4-0.6-3.9-0.9c-1.6-0.4-4.8-1.7-5.1-2.1
							c-0.4,0-1.8-0.3-3.3-1c-0.2-0.2,0.4,0,0.7,0.1c-1-0.5-1.9-0.8-2.8-1.1c-0.8-0.3-1.6-0.6-2.3-0.9c-1.4-0.6-2.6-1-4-1.8
							c0-0.1-0.2-0.2-0.4-0.4c3.2,1.6,5.9,2.7,5.6,2.6c0.1-0.2-2.5-1.5-0.3-0.8c-1.1-0.4-2.6-0.9-4.1-1.5s-3.1-1.3-4.3-2
							c-0.1-0.1-0.2-0.2-0.3-0.2l0.3,0.1c-0.6-0.3-1.1-0.6-1.6-0.8c-0.8-0.5-1.2-0.8-2-1.2c-0.2-0.4-2.8-1.7-4-2.5
							c0,0.3-1.6-0.8-0.2,0.4c-0.2-0.1,0.2,0.1,1.1,0.6c0.2,0.1,0.4,0.2,0.5,0.3h-0.1c0.8,0.5,1.9,1.1,3.1,1.8
							c-1.1-0.4-2.2-0.9-3.5-1.9c-0.7-0.2-1.5-0.5-1.9-0.7c-0.7-0.7-1.9-1.6-2.9-2.4c-1-0.8-1.8-1.5-1.9-1.8c-0.9-0.6-1.9-1.3-2.9-2
							c-1-0.7-2-1.5-3-2.2c-1-0.7-1.9-1.4-2.7-2s-1.6-1.1-2.2-1.5c-1-0.8-1-1.1-1.3-1.4c0.6,0.4,1.2,1,1.6,1.2c-1-0.8-2.4-1.9-3.6-3
							c-1.2-1.1-2.2-2-2.6-2.1c-2.2-2.3,1.5,1-1.6-2l0.5,0.3c-1.4-1.7-2.7-3-4-4.4c-1.2-1.4-2.5-2.6-3.7-3.9
							c-1.2-1.3-2.4-2.7-3.7-4.2c-1.2-1.5-2.4-3.3-3.6-5.4c0.3,0.6,0.5,0.8,0.5,1c-0.4-0.6-0.8-1.1-1.1-1.7
							c-0.4-0.6-0.7-1.2-1.1-1.7c-0.7-1.2-1.5-2.3-2.2-3.5c-0.7-1.2-1.4-2.4-2.1-3.6c-0.3-0.6-0.7-1.2-1-1.8l-1-1.8
							c-2.7-4.9-4.8-10-6.5-15.1c-0.9-2.9-1.2-3.1-2-4.8l0.1-0.7c-0.4-1-0.8-2-1.2-2.9c-0.4-1.1-0.6-2.1-0.9-3.1
							c-0.2-1-0.3-2-0.5-3.1c-0.2-1-0.3-2.1-0.6-3.3c-0.2-1.2-0.4-2.4-0.8-3.8l-0.1,0.8c-0.1-1-0.5-2.6-0.7-3.9
							c-0.2-1.3-0.3-2.3-0.1-2.2c-0.1-0.2-0.3-0.6-0.3-1.4l0.1-0.1c-0.1-0.8-0.3-1.6-0.4-2.5l-0.3-2.5c-0.1-1.9,0.1-1.8,0.2-1.9
							c0.1,0,0.1-0.1,0.2-0.6c0-0.4,0-1.2,0-2.6c-0.1-2.1-0.6-6-0.7-5.2c0,0.9,0,2.2-0.2,2.2l-0.1-1.9c-0.5-0.3-1-1.9-1.2,2.9
							l0.4,3.3l-0.1,1.1c-0.1-0.9-0.1-1.9-0.1-2.8c-0.2,1.6,0.1,2.6,0.3,3.7c-0.1,0.3-0.1,0.7-0.1,1.4l0.7,3.2
							c-0.1,0.4-0.5-1.4-0.4,0.8c0.4,1.5,0.2-1.5,0.7,1c0,1.6-0.2,1.2,0.2,3c-0.1,0.3-0.2-0.1-0.4-0.8c0.2,0.8,0.3,1.9,0.5,2.9
							s0.4,1.9,0.6,2.3c0,0.8,0.3,2.2,0.5,3.4c0.2,1.2,0.4,2.1,0.2,2.1c0.2,0.5,1,2.8,1.4,4.3c-0.6-1.3-0.3,0.1,0.2,1.7
							s1,3.5,0.6,3.2c0.5,0.9,1.1,2.7,1.8,4.7c0.3,1,0.7,2,1.1,3c0.4,1,0.8,1.9,1.2,2.8c-0.1-0.2-0.3-0.5-0.4-0.8
							c0.7,1.9,0.8,2.6,1.2,3.8c0.5,0.1,1.9,3,2.8,4.5c0.7,2.5-1-1.2-1.1-0.3c0.1-0.1,0.6,0.9,1.1,1.7c0.5,0.9,1,1.7,0.9,1.2
							c0.7,1.8,0.7,1.5,0.8,2.6c0.6,0.1,0.9,1.6,2,2.8c1.2,2.5,0,0.9,1.6,3.5C401,580.2,399.5,577.9,399.5,577.9z M452.5,627.2
							L452.5,627.2c-0.6-0.3-1-0.5-1.4-0.7C451.3,626.7,451.8,626.8,452.5,627.2z M458,629.9c-0.7-0.3-1.5-0.7-2.4-1.1
							c-0.1-0.2,0.1-0.2,0.7,0.1C455.8,628.8,457.2,629.4,458,629.9z M447.5,622.2c0.8,0.4,1.1,0.7,1.2,0.8
							c-0.4-0.2-0.9-0.5-1.5-0.8h-0.1C447.2,622.1,447.3,622.1,447.5,622.2z"/>
						<path class="st8" d="M445.8,621.7c-0.1-0.1-0.2-0.1-0.3-0.2c0.2,0.1,0.3,0.2,0.5,0.3c0.1,0,0.2,0.1,0.3,0.1
							C446,621.8,445.8,621.7,445.8,621.7z"/>
						<path class="st8" d="M436.8,408.8L436.8,408.8c0,0-0.1,0-0.1,0C436.8,408.8,436.8,408.8,436.8,408.8z"/>
						<polygon class="st8" points="540.8,638.8 540.8,638.7 540.3,638.9 						"/>
						<path class="st8" d="M411.8,431.1c-0.1,0-0.2,0.1-0.3,0.3C411.5,431.4,411.5,431.2,411.8,431.1z"/>
						<path class="st8" d="M403.2,442.8l-1.2,1.7C402.5,443.8,402.8,443.3,403.2,442.8z"/>
						<path class="st8" d="M397.3,452.4c0,0.1,0,0.2,0,0.3l0,0V452.4z"/>
						<path class="st8" d="M549.5,388.6c0.1,0,0.3,0.1,0.4,0.1C550.8,389,550.2,388.8,549.5,388.6z"/>
						<path class="st8" d="M496.8,384.6c0.6-0.1,1.1-0.2,1.7-0.3C497.5,384.3,496.8,384.4,496.8,384.6z"/>
						<path class="st8" d="M600.7,418L600.7,418c0.1,0.1,0.2,0.2,0.3,0.3L600.7,418z"/>
						<path class="st8" d="M501,384c-0.9,0-1.7,0.1-2.5,0.2C499.3,384.2,500.2,384.1,501,384z"/>
						<path class="st8" d="M383.2,498.7l-0.1,0.5c0,0,0,0,0,0.1L383.2,498.7z"/>
						<path class="st8" d="M383.2,499.3v0.6C383.2,499.7,383.2,499.4,383.2,499.3z"/>
						<path class="st8" d="M383.2,501.2v-1.3C383,500.4,383,500.9,383.2,501.2z"/>
						<path class="st8" d="M385.8,484.1l-0.1-0.2C385.7,484,385.8,484.1,385.8,484.1z"/>
						<path class="st8" d="M386.8,479.7c-0.3,1-0.8,2.6-1.1,4.1v0.2C385.8,483.2,386.7,480.7,386.8,479.7z"/>
						<path class="st8" d="M394,462.3c-0.5,1.1-1,2.3-1.5,3.5c0.3-0.6,0.8-1.3,0.2,0.3C394.8,461.8,392.2,466.9,394,462.3z"/>
						<path class="st8" d="M399.2,451.9c-0.9,1.8,0.1,0.1,0.2,0.2C399.8,451,400,450.7,399.2,451.9z"/>
						<path class="st8" d="M459.7,395.9l-0.1,0.3C461,395.5,459.5,396.1,459.7,395.9z"/>
						<path class="st8" d="M474.3,389c-0.5,0.1-1,0.2-1.5,0.3l-0.6,0.5C472.8,389.5,473.5,389.2,474.3,389z"/>
						<polygon class="st8" points="483.8,388.3 483.3,388.5 485.8,387.9 						"/>
						<path class="st8" d="M610,431.7c0-0.2,0-0.4-0.1-0.6C609.3,430.4,608.8,430.4,610,431.7z"/>
						<path class="st8" d="M636.5,485.7c0,0.7,0.2,2.4,0.6,3.4C636.8,487.7,636.8,486.4,636.5,485.7z"/>
						<path class="st8" d="M555.8,631.8l1.1-0.5c-0.7,0.3-1.4,0.6-2.1,0.9C555,632,555.3,631.9,555.8,631.8z"/>
					</g>
				</g>
			</g>
		</g>
	</g>
	<g>
		<rect x="498" y="443.8" class="st9" width="27.5" height="137.4"/>
		<g>
			<g>
				<g>
					<g>
						<path class="st9" d="M524.8,581.2c0.1,0.2,0.3,0.1,0.2-0.4l-0.3-0.3L524.8,581.2z"/>
						<path class="st9" d="M525.3,578c-0.2-0.6-0.4-1.2-0.7-0.8c0.3,0.6,0.2,0.7,0.6,1.3c0,0.5-0.1,0.8-0.2,0.8
							c0.1,0.2-0.1,0.7,0.1,1c0.3-0.6,0.3-1.4,0.1-2.2C525.3,577.8,525.3,577.9,525.3,578z"/>
						<path class="st9" d="M525.8,531.2v0.3C525.8,531.4,525.8,531.3,525.8,531.2z"/>
						<path class="st9" d="M526,502.2c0,0.2,0,0.3,0.1,0.3C526.2,502.3,526.2,502.2,526,502.2z"/>
						<path class="st9" d="M526.5,497.3c0,0.1,0,0.2,0,0.3C526.5,497.5,526.5,497.3,526.5,497.3z"/>
						<path class="st9" d="M525.8,531.2l0.1-0.8C525.8,530.4,526,530.8,525.8,531.2z"/>
						<path class="st9" d="M524.5,571.5c0,0.2,0,0.3,0.1,0.4C524.7,571.8,524.7,571.7,524.5,571.5
							C524.7,571.5,524.5,571.5,524.5,571.5z"/>
						<path class="st9" d="M526.2,544v0.2c0,0.1,0.1,0.1,0.1,0.2L526.2,544z"/>
						<path class="st9" d="M526.3,553.8c0-0.2-0.3-0.3-0.4-0.4c0.1,0.1,0.2,0.3,0.2,0.5C526,553.9,526.2,553.9,526.3,553.8z"/>
						<path class="st9" d="M525.8,569.3v0.3C525.8,569.5,525.8,569.4,525.8,569.3z"/>
						<path class="st9" d="M526.3,537L526.3,537C526.3,536.9,526.3,536.9,526.3,537z"/>
						<path class="st9" d="M514,579.9L514,579.9C514.2,579.9,514.2,579.9,514,579.9z"/>
						<path class="st9" d="M525.5,581.3h-0.2c0,0.1,0,0.1,0,0.2L525.5,581.3z"/>
						<path class="st9" d="M526.8,488.2C526.8,488.2,526.8,488.3,526.8,488.2C526.8,488.5,526.8,488.4,526.8,488.2z"/>
						<path class="st9" d="M496.8,455c0.3-0.9,0.3,1.5,0.6,0.1C497.3,455.2,497,453.8,496.8,455z"/>
						<path class="st9" d="M524.7,571.3v-0.4C524.7,571.1,524.7,571.2,524.7,571.3z"/>
						<path class="st9" d="M497.3,455.1L497.3,455.1L497.3,455.1C497.5,455,497.3,455,497.3,455.1z"/>
						<path class="st9" d="M526.7,467.4c0,0-0.1,0.1-0.1,0.2C526.5,467.6,526.5,467.5,526.7,467.4z"/>
						<path class="st9" d="M526.3,482.9v-0.4C526.3,482.7,526.3,482.8,526.3,482.9z"/>
						<path class="st9" d="M526.3,459.3c0-0.2,0.1-0.3,0-0.6v0.1C526.3,458.9,526.3,459.1,526.3,459.3z"/>
						<path class="st9" d="M526.3,450.9c0,0,0,0.1-0.1,0.2c0,0.1,0,0.2,0,0.3L526.3,450.9z"/>
						<path class="st9" d="M499.2,571.8c-0.1,0.2-0.2,0.3-0.3,0.4C499,572,499.2,573.3,499.2,571.8z"/>
						<path class="st9" d="M524.8,571.5c-0.1,0-0.1-0.1-0.1-0.2C524.7,571.4,524.7,571.5,524.8,571.5
							C524.7,571.6,524.8,571.6,524.8,571.5z"/>
						<path class="st9" d="M524,459v-1.3C524,458,524,458.5,524,459z"/>
						<path class="st9" d="M499,511.5v0.3C499.2,511.7,499.2,511.6,499,511.5z"/>
						<path class="st9" d="M524,453.7c0.1-0.2,0.2-0.5,0.2-0.8c0-0.1,0-0.1-0.1-0.2L524,453.7z"/>
						<path class="st9" d="M498.8,572.2L498.8,572.2L498.8,572.2z"/>
						<path class="st9" d="M499.5,579.6c0,0-0.4,0.1-0.6,0.2c0-0.1,0-0.1,0-0.2c0-0.1,0-0.2,0-0.3s0.1-0.2,0.1-0.2
							c0.1-0.1,0.2,0,0.3-0.2c-0.1-0.9-0.4-1.7-0.4-2.4c0.1-0.1,0.1-0.2,0.2,0c-0.3-1,0-3-0.4-4.1c0-0.1,0.1-0.1,0.1-0.2
							c-0.2,0.2-0.4,0.2-0.5,0.2c0-0.6-0.2-1.1,0-1.3c0,0.3,0.1,0.4,0.2,0.5l-0.1-0.6c0.3-0.5,0.1,0.8,0.4,0.8
							c-0.1-1.2-0.4-2.5-0.3-3.4c0.3-0.2,0.1,2.1,0.4,0.9l-0.1,1.4c0.5-1.1,0,0.8,0.5-0.1c0.1-1.8-0.2-2-0.1-3.8
							c-0.2-0.4-0.3,0.1-0.5-0.3c-0.3-2.6,0.9-2,0.4-3.9c-0.2-0.5-0.7-0.7-0.4-2l0.4,0.5c0-1.8-0.6-1-0.3-2.8
							c0.2,0.3,0.1,1.4,0.2,1.1c0.3-1.2-0.2-0.8-0.2-1.8l0.3-0.2c-0.1-1.9-0.3-3.9-0.4-6c0.1,0.1,0.2,0.5,0.3,0
							c-0.2-2.6,0-5.6,0.2-8.1l-0.3-1c0-0.2,0.1-0.4,0.2-0.2c0.1-1-0.2-0.1-0.3-0.5c0-0.6,0.2-0.7,0.3-0.4c-0.2-1.7-0.5-4.9-0.2-6.8
							l0.1,0.4c0.1-1.4-0.6-1.6-0.3-2.9l0.1,0.3c0.1-3.1-0.1-6.5,0.3-8.9c-0.4-0.4,0.2-3.1-0.4-3.3c0.3-1.8,0.4-1.3,0.6-3.7
							c0-0.7-0.4-1-0.4-1.8h0.3l-0.3-1.1l0.4-0.6l-0.1-0.8c0,0.3-0.1,0.7-0.2,0.6c-0.1-1.2,0.2-2.9,0.4-3l-0.3-2.8
							c0.1,0.1,0.2,0.5,0.2,0.9c-0.3-1.5,0.3-0.3,0-1.7c-0.1,0.2-0.2-0.1-0.2-0.1c0.2-0.7,0.2-2.3,0.1-3.4l0.2,0.2
							c0.1-2.1-0.1-4.4-0.1-6.8c-0.1,0.8-0.5,0.7-0.5,0l0.3-0.3c-0.2-0.4-0.1,0.7-0.4-0.2c0-0.9,0.4-0.6,0.5-0.1l-0.1-1.1
							c0.1-0.1,0.1,0.2,0.3,0.3c-0.2-0.4,0.3-1.9,0-2.5l0.1-0.1c0-2.4-0.1-3.4-0.1-5.4c-0.3,0-0.2-0.8-0.4-1.4
							c0.1-1.4,0.3-3,0.3-4.7c-0.1-1.2-0.2-0.4-0.4-0.9c0.3-0.1,0.2-1.8,0.4-0.9c0-2-0.1-2.6-0.3-5.2c-0.1,0.3-0.2,0.6-0.2,0.4
							c0-0.5,0.1-1.1,0.2-1v0.1c-0.4-2.9,0.7-6.7,0.2-9v0.1l-0.3-2.4c0-1.1,0.2,0.7,0.4-0.2c-0.4-2.6,0.1-4.1-0.2-6.2
							c0.8-1.7-0.1-5.9,0.4-8.1l-0.2,0.1c-0.2-0.6,0.1-0.7,0.1-1.1c-0.1,0.1-0.2,0.6-0.3,0.3c0-0.5,0-0.9-0.1-1.4c0.6,0,1.3,0,2,0.1
							c1,0,2.1,0.1,3.1,0.1c2.1,0.1,4.2,0.2,6.3,0.3c1.8,0,1-0.9,3.3-0.5l-0.7,0.3c1.8-0.2,3.7-0.2,5.6-0.2c0.9,0,1.9,0,2.8,0
							c0.5,0,0.9,0,1.4,0h0.7h0.2h0.1h0.1c-0.1,0.1,0,0.2-0.2,0.2c0.2,0.1,0.1,0.1,0.3,0.1c0.1,0,0.2,0.1,0.3,0.1
							c0,0.2-0.2,0.1-0.3,0.2c-0.1,0.8,0.3,1.9,0.1,2.3c0,0.1-0.1-0.2-0.1-0.4c0.1,0.5,0,2.3,0.2,1.8c-0.1,1.4,0.1,2.6,0,3.7
							c0.3,0.7-0.1,2.3,0.3,2.5c-0.5-0.1-0.4,2.4-0.2,3.2c-0.1-0.3-0.1,0.7-0.3,0.4c0,1,0.1,1.9,0.3,1.7c-0.5,1.8,0.4,3.6-0.3,4.6
							c0.2,2.9,0.4,5.6,0.5,8.2c-0.5-0.1,0-2.9-0.5-2.8c0.2,2.5,0.6,3.9,0.5,6.4c-0.1,0.6-0.2-0.4-0.3-0.6c0.2,2.5,0,4.8,0.2,7
							c0,0-0.1-0.2-0.1-0.5c0,0.4-0.1,1,0.1,1l-0.1-0.4c0.3-0.7,0.6,1.7,0.8,1.8c-0.6-0.7-0.1,2.2-0.9,1c0,0.3,0.1,0.6,0.3,0.6
							c0,0.4-0.1,0.6-0.3,0.1c0.1,1.6,0.3,1,0.3,2.4c-0.1,0-0.1-0.3-0.3-0.4c0.2,0.7,0.4,1.4,0.3,2.6c-0.1-0.1-0.1,0.1-0.1-0.3
							c0,2,0.5,3.5,0.3,5.7c-0.4-0.7-0.1,0.8-0.5,0.9l0.1,1.2l0.2-0.5c0,1.1,0.3,2,0.1,2.9l-0.2-0.8l0.1,2l0.1-1.1
							c0.2,1.1,0.5-0.1,0.4,1.3c0-0.3,0,1.1-0.2,1.6l0,0c0.1,0.5,0.2,1.1,0.2,1.8c-0.1,0.2-0.4-0.2-0.5,0c0.3,0.5,0.1,2.5,0.4,3.1
							c-0.1-0.2-0.3-0.2-0.3-0.2l0.3,0.4c-0.1,0.5-0.1,0.6-0.3,0.5c0,1.5,0.5-0.5,0.3,1.3c0-0.1-0.1-0.1-0.1-0.4
							c-0.1,1.8,0.2,3.4,0,5c-0.4,0.5-0.1-1.4-0.4-0.9c0.1,2.3,0.5,4.8,0.4,7.1v-0.4c0.5,0.3-0.3,1.7,0,2.8c0-0.3-0.3-0.4-0.2-0.3
							c-0.1,1.5,0.1,3.2,0.3,5.5l-0.1-0.3c-0.1,0.9-0.1,2.4-0.1,3.4c0.1,0.3,0.1,0.9,0.3,0.5c-0.8,3,0.4,5.8-0.2,8.5
							c0-0.3-0.1-0.8-0.1-0.5l0.1,2.3c0.2-0.2,0.1-0.3,0.3-0.8c0.1,0.3,0.2,0.9,0.2,1.5c-0.2-1-0.4,0-0.5,0.5c0.1-0.1,0.1,0.1,0.2,0
							c-0.4,1.2,0.5,0.2,0.2,1.8l-0.1-0.1c0.1,0.6,0.2,1.2,0.2,1.8c-0.3,0.3-0.1-0.7-0.3-0.7c0,0.9,0.5,1.8,0.2,2.7
							c-0.1-0.4-0.1-1-0.1-1.4c-0.3,0.9-0.2,1-0.3,1.7v-0.1l-0.1,1.6l0.1-0.4c0.7,1.2,0.1,2.4,0.6,3.9c-0.4-1.5-0.3-0.3-0.6-0.4
							c-0.1,0.4-0.2,1-0.3,0.8c0.2,0.7-0.2,1.2,0.2,2.3c-0.1,0,0,0.8-0.3,0.6c0.1,1,0.2-0.2,0.3-0.1c0.3,1.5-0.4,3.5,0.1,5.6
							c0.2,1.8,0.5,2.2,0.7,3.9c-0.2,0.6-0.4-0.5-0.4-0.5c-0.1,0.9-0.1,1.6,0,2.5c-0.1-0.2-0.2,0-0.3,0.3c0,0.7,0.4,0.5,0.2,1.4
							c-0.1-0.2-0.3-0.4-0.4-0.7c0.1,0.8,0.3,1.6,0.4,2.5c-0.2,0.2-0.3-0.5-0.4-0.8c0.1,1,0.2,2.5,0.4,2.8l0.1-0.6
							c0,0.4-0.2,0.2-0.3-0.1c-0.2-0.8,0.1-1.2,0.2-1.2l0.1,0.6c0.6-0.6-0.1-2.4-0.1-3.7l0.4,0.5l-0.3-1.3c0.1-0.3,0.3-0.5,0.4,0.2
							c0.2-0.9-0.1-0.8,0.1-1.5c0-0.1,0.1,0,0.1,0l-0.1-0.9c0.1,0.2,0.3-0.1,0.2,0.4c0.2-1.5-0.3-2.5,0-3.1v0.1
							c-0.1-2.1-0.3-0.2-0.7-1.8l0.8-1.1l-0.3-0.2c0-0.2,0-0.7,0.2-0.6c-0.2-0.8-0.1,0.1-0.3-0.3c0.3-1.1-0.1-2.9,0.4-3.2
							c-0.2-0.4-0.2,1-0.3-0.1c0.5-0.3-0.1-1.3,0.2-2.3c0.3,0.3,0.1,1.2,0.4,0.2c-0.5-0.6,0.1-1.9,0-2.7c-0.4,0-0.2-1.8-0.3-3.2
							c0.1,0.1,0.2-2.6,0.3-3.9h0.1c-0.4-0.2-0.3-1.6-0.4-2.5c0.2,0,0.3,0.2,0.4,0.7v-0.9c-0.1-0.2-0.2-0.5-0.2-1.1l0.3,0.2
							c0-1.2-0.3-2.4-0.1-4c-0.3-0.1-0.7,1.2-0.9-0.4c0.1-0.1,0.4-0.1,0.4,0.3c0-0.1-0.1-0.5-0.1-0.8l0.2,0.7
							c0.1-0.7-0.2-0.4-0.2-0.9c0.2,0,0.1-0.4,0.3-0.3c0,0.1-0.1,0.5,0,0.7c0-0.6,0.2-1.4,0.3-1.7c-0.1,0.1-0.3,0-0.3-0.5
							c0-1.2,0.2-0.4,0.3-1.1c-0.1-0.3,0-1.1-0.3-1.1c0-0.4,0.1-0.4,0.2-0.6c-0.1-0.6,0-2.9-0.4-2.2v0.2V531l0,0l0,0
							c-0.3-2,0.2-4.2,0-6.2h0.1c-0.1-1.2-0.1-2.7-0.3-3.5c0-0.4,0.2-0.8,0.3-0.7c-0.1-0.9-0.2-1,0-2.4c0.2,0.9,0.2-0.3,0.1,0.9
							c0.1-1.2,0.2-1.5,0-2.8c0.3,0.4,0.3-0.9,0.2-1.5l-0.2,0.8c0-0.6,0-1.2,0-1.8l0.3,0.3c0.4-2.5-0.7-4.4,0-6.3
							c-0.2-0.6-0.2,1.3-0.4,0.8c0-1.1,0.5-2.3,0.5-2.7c0.2-1.5-0.5-1.4-0.4-3.1c-0.1,0.2-0.4,0.4-0.5-0.8c0-1.1,0.5-1.4,0.6-0.7
							c0,0.3,0,0.4-0.1,0.4c0,0.4,0.1,0.8,0.2,0.4l-0.1-0.1c0.1-0.6,0.1-2.1,0.3-1.7c-0.1-0.9-0.2-0.4-0.3,0.3
							c0.2-1.4,0-2.3,0.1-3.7c-0.1,0.2-0.2,0.5-0.2,0.2c0.1-2.2-0.2-1-0.3-2.4c0.2-0.8,0.4,0.3,0.3-1.2c0.1-0.9,0.3-0.2,0.4,0.2
							c-0.2-1.4,0.2-2.5,0.2-3.3l0.1,0.7c-0.1-0.4-0.1-0.8-0.1-1.1l-0.2,0.4c0-0.4,0-0.8,0.1-0.8c-0.2-0.4-0.4,0.3-0.6-0.5
							c0.1-0.6-0.1-1.7,0.2-1.9c-0.1,1.8,0.3-0.2,0.4,1.3c0-0.3,0-0.6,0-1.1c0-0.1,0.1,0.1,0.1,0.2c0.3-1.7-0.4-0.8-0.3-2.5
							c0.2,0.2,0.3-0.4,0.3-0.7c0,0.7-0.3,0.3-0.4-0.3c0.1-1.1-0.1-1.2-0.1-1.8l-0.1,0.7c-0.2-0.2-0.2-0.8-0.2-1.6
							c0.1-0.1,0.1,0.7,0.2,0.4c-0.3-0.9,0.3-2,0.1-3.2c0.1-0.6,0.3-0.1,0.4-0.5c-0.2-1.4,0.2-1.5,0.1-2.9c-0.2,0.4-0.2,0.5-0.4-0.5
							l0.2,2.3l-0.3-1.5c0,0.7,0.1,1.5,0.1,1.9c-0.2-0.7-0.1-0.6-0.3-0.3c0.4-1-0.2-1.9,0-3h0.6c0.3-1.7-0.3-3-0.2-5.2l-0.1,0.7
							c-0.2-0.3,0-1.3-0.1-2.1c0.2,0.1,0.3-0.4,0.4-0.7c-0.1,0,0-1.6-0.4-1.8l0.3-1c0.1-1.8-0.6-2-0.5-3.7c0.2,0.5,0.4-0.3,0.5,0.9
							c0-0.6,0-1.1-0.1-1.1c0.1-0.3-0.3-1.6-0.1-2.1c-0.1-0.2-0.3-0.3-0.3-1c0-0.1,0.1,0,0.1,0c-0.1,0-0.1-1-0.4-0.4
							c0.6-1.7,0-4.9,0.5-6.4c-0.1-1.2-0.1-2.7-0.1-3.8c0.1,0.1,0.1,0,0.1,0.2c0.1-0.8,0-1-0.2-1.3c-0.1-0.3-0.3-0.5-0.2-1.6
							c0.3-1.3,0.2,1.2,0.3,0.4c0.3-0.2,0.3-1.1,0.2-2.1c-0.5,0-1.1,0.1-1.6,0.1c-0.3,0-0.5,0-0.7,0c-0.3,0-0.3,0-0.5-0.1h0.3
							c-0.9-0.2-2.2,0.2-3.7,0.2c0,0,0.1-0.1,0-0.1c-1,0.3-2.9,0.4-4.3,0.5c0.4-0.3,0.6-0.1,0.4-0.4c-0.6,0,0.2,0.4-1.1,0.5
							c-0.4-0.1-1.3-0.3-1.5-0.5h1.2c-0.6-0.4-1.6,0-2.2,0l0.1-0.2c-1.8,0.1-1.9,0.4-3.8,0.4l0.2,0.1c-1.1,0.4-0.9-0.2-2,0.1
							l-0.3-0.4c-0.7,0.1-2.5,0.4-3.8,0.5c0.7-0.3,2.2-0.4,3.1-0.6c-0.7,0-2.4,0-2.8,0.2c0.3,0,0.6-0.1,0.9-0.1
							c-0.9,0.3-2,0.5-3.4,0.5c0.1-0.3-0.3-0.4-0.8-0.4c-0.1,0-0.3,0-0.5,0s-0.5,0-0.7,0c-0.5,0-1.1,0-1.6,0c0,0.5,0,1.1-0.1,1.5
							c0,0.4-0.1,1-0.2,1.1c0.3,2.5-0.1,4.9-0.1,7.8c0.6-1,0,0.8,0.6,0.7c0,0.7,0,0.9,0,1l-0.4,2c-0.2,0.5-0.1-0.6-0.3-0.6
							c0,1.5-0.3,0.6-0.4,1.6c0.2-0.2,0.3,0.5,0.2,1.4l0.3-1.2c0.3,2.1-0.5,1.8-0.2,3.9l-0.2-0.7c0.1,1.1,0,3.9,0.5,5
							c-0.1,0.2-0.2,0.4-0.3,0c-0.1,2.6,0.5,5.7,0.2,7.7l-0.1-0.2c0,0.5,0.3,0.8,0.1,1.4c-0.1,0-0.1-0.2-0.2,0
							c0.1,0.3,0.3,1.3,0.2,1.9l-0.2-0.5c-0.2,2.5,0.4,3.8,0.5,5.9c-0.4,0-0.6,2-0.7,2.9h-0.1c-0.1,2.9,0.4,4.9,0.5,7.6
							c-0.5,1.7-0.2,5.6-0.5,8.3c0.1-0.4,0.3,0.1,0.4,0.5c-0.1,0.6,0.3,1.7-0.1,1.6v-0.2c-0.4,0.5-0.3,1.8-0.3,2.8l0.5,0.2
							c-0.8,2.6,0.3,6.9-0.4,8.4c0.1,0.6,0.1,1.4,0.3,2.1h-0.3c-0.1,1.8-0.1,2.6,0,4.8l-0.2-0.4c0,1.2,0.8,1.6,0.8,2.7l-0.4,0.3
							c0,2.1-0.4,4.3,0,6.4c-0.1,0-0.2-0.1-0.2-0.4c0,1-0.3,3.9,0.3,3.5c-0.4,0,0,2.2,0.1,3.4l-0.3-0.2c0.4,1,0.5,1,0.6,2.4
							c0,0.3-0.2,0.3-0.2-0.1c-0.1,1.1,0.3,0.8,0.1,2.1l-0.2-0.5c0,1.1,0.1,1,0.3,1.6c0.1,0.7-0.1,2.1-0.3,2.3
							c0.2,0.1,0.4,0.8,0.3,1.4c-0.1,0.1-0.2-0.1-0.2-0.3c-0.2,1.9,0.3,2.8,0.1,4c-0.1,0-0.1,0.1-0.2,0.2c0-1.5,0-2.7,0-2.6
							c-0.3,0-0.3,1.2-0.7,0.2c0.2,1,0.6,2.6,0.5,3.8c0,0.1,0,0.1-0.1,0.2v-0.1c0,0.3,0,0.5,0,0.7c0,0.4-0.1,0.6-0.1,1
							c-0.2,0.1-0.1,1.4-0.1,2c0.3,0,0.2,0.7,0.5,0c0,0.1,0-0.1,0-0.5c0-0.1,0-0.2,0-0.3l0,0c0-0.4,0-0.9,0-1.5
							c0.1,0.5,0.3,1,0.1,1.6c0.2,0.3,0.4,0.6,0.5,0.8c-0.4,0.8-0.6,2.4-0.8,2.6c0.2,1.8,0.1,4.3,0.6,5.4c0.1,0.5-0.2,0.6-0.2,0.8
							c-0.1-0.3,0-0.7-0.1-0.8c0.1,1,0.1,3.1,0.4,3.3c-0.2,1.3-0.3-0.7-0.3,1.1l-0.1-0.2c-0.6,3.5,0.9,5.7,0.2,9.6
							c0-0.3,0.1-0.4,0.1-0.5c-0.1,0.7-0.1,1.5-0.1,2.2v1.3v1.5c1.7,0,3.5-0.1,5.2-0.1c1.5,0,3,0,4.5,0.2c1.2,0.1,1.4-0.1,2.1-0.3
							l0.3,0.3l1.3-0.3c1.8-0.3,3.2,0.7,5.5,0.3l-0.3-0.2c0.8,0,2.7-0.1,2.5,0.1c0.1,0,0.3-0.2,0.6-0.1v0.2l2.1-0.3
							c1.6,0.1-0.2,0.6,2.1,0.7c0.9-0.1,2.5-0.5,2.1-0.6c-0.3,0-0.9-0.1-0.9-0.3l0.8-0.1c0.1-0.5,0.8-0.9-1.2-1.3l-1.4,0.3l-0.4-0.2
							h1.1c-0.6-0.2-1.1,0-1.5,0.1c-0.1-0.1-0.3-0.2-0.6-0.2l-1.3,0.4c-0.2-0.2,0.6-0.4-0.3-0.5c-0.6,0.2,0.6,0.4-0.4,0.5
							c-0.6-0.2-0.5-0.4-1.2-0.2c-0.1-0.1,0.1-0.2,0.4-0.2c-0.7,0.1-1.8,0.1-2.1,0.3c-0.7-0.3-2.3,0.1-2.2-0.4
							c-0.2,0.1-1.2,0.3-1.8,0.4c1.1-0.5-2.3,0-2-0.6c-0.8,0.5-3,0.2-4.5,0.5c0.1,0,0.2-0.1,0.4-0.1c-0.8,0-1.1-0.2-1.6-0.3
							c-0.1,0.4-1.4,0.5-2.1,0.7c-1-0.4,0.6-0.5,0.3-0.8c0.1,0.3-1.8,0.3-1.4,0.6c-0.8-0.2-0.7-0.1-1.1-0.4
							c-0.1,0.2-0.3,0.3-0.5,0.3s-0.2,0-0.4,0.1c-0.2-0.1,0-0.3,0-0.3c0-0.1,0-0.1,0-0.1c0.1-0.1,0.2-0.1,0.2-0.1
							C499.5,579.6,499.5,579.6,499.5,579.6z M498.7,551.3L498.7,551.3c0,0.3,0,0.5,0,0.6C498.8,551.8,498.8,551.6,498.7,551.3z
							 M498.7,548.8c0,0.3,0,0.7,0,1.1c-0.1,0.1-0.2,0-0.2-0.3C498.5,549.7,498.7,549.1,498.7,548.8z M496.8,554
							c0-0.4,0-0.5,0.1-0.6c0,0.2,0,0.4,0,0.7l0,0C496.8,554.2,496.8,554.1,496.8,554z"/>
						<path class="st9" d="M497.2,554.8c0,0.1,0,0.1,0,0.2C497.2,554.8,497.2,554.8,497.2,554.8c0.1-0.1,0-0.2,0-0.2
							S497.2,554.7,497.2,554.8z"/>
						<path class="st9" d="M525.8,531.6L525.8,531.6L525.8,531.6L525.8,531.6z"/>
						<polygon class="st9" points="499.3,514.3 499.2,514.3 499.3,514.5 						"/>
						<path class="st9" d="M524.8,545.3c0,0-0.1,0.1-0.1,0.2C524.8,545.5,524.8,545.4,524.8,545.3z"/>
						<path class="st9" d="M524.8,551.2l-0.1,0.8C524.8,551.7,524.8,551.5,524.8,551.2z"/>
						<path class="st9" d="M524.7,555.8C524.7,555.9,524.8,555.9,524.7,555.8L524.7,555.8L524.7,555.8z"/>
						<path class="st9" d="M524.3,483.2c0-0.1,0-0.1,0-0.2C524.3,482.6,524.3,482.9,524.3,483.2z"/>
						<path class="st9" d="M525,504.8c-0.1-0.2-0.1-0.5-0.1-0.7C524.8,504.5,524.8,504.8,525,504.8z"/>
						<path class="st9" d="M524,459.1L524,459.1L524,459.1L524,459.1z"/>
						<path class="st9" d="M524.8,503.1c-0.1,0.4,0,0.7,0,1C524.8,503.8,525,503.4,524.8,503.1z"/>
						<path class="st9" d="M524.5,575.6v0.2l0,0V575.6z"/>
						<path class="st9" d="M524.5,575.8v0.2C524.7,576,524.7,575.9,524.5,575.8z"/>
						<path class="st9" d="M524.7,576.6l-0.1-0.5C524.7,576.3,524.7,576.5,524.7,576.6z"/>
						<path class="st9" d="M524.7,569.6L524.7,569.6C524.7,569.5,524.7,569.5,524.7,569.6z"/>
						<path class="st9" d="M524.7,567.7c0,0.4-0.2,1.1-0.2,1.7l0.1,0.1C524.5,569.2,524.8,568.1,524.7,567.7z"/>
						<path class="st9" d="M526,560l-0.1,1.5c0.1-0.3,0.3-0.6,0.3,0.1C526.5,559.7,525.8,562.1,526,560z"/>
						<path class="st9" d="M526,555.3c0.1,0.8,0.2,0,0.2,0C526.2,554.8,526.2,554.7,526,555.3z"/>
						<path class="st9" d="M526,520.8l0.3,0.1C526.3,520.2,526.3,520.9,526,520.8z"/>
						<polygon class="st9" points="524.8,514.2 524.5,514.8 524.8,515.1 						"/>
						<polygon class="st9" points="526.5,510.3 526.7,510.6 526.5,509.5 						"/>
						<path class="st9" d="M526.5,452.4l-0.3,0.2C526.3,453,526.5,453.1,526.5,452.4z"/>
						<path class="st9" d="M509,443c-0.3-0.2-1-0.3-1.4-0.1C508.2,443,508.8,443.1,509,443z"/>
						<polygon class="st9" points="496.8,507.7 496.7,507.2 496.7,508.1 						"/>
					</g>
				</g>
			</g>
		</g>
	</g>
	<g>
		<rect x="443" y="498.7" class="st9" width="137.4" height="27.5"/>
		<g>
			<g>
				<g>
					<g>
						<path class="st9" d="M580.3,499.4c0.2-0.1,0.1-0.3-0.4-0.2l-0.3,0.3L580.3,499.4z"/>
						<path class="st9" d="M577.2,498.8c-0.6,0.2-1.2,0.4-0.8,0.7c0.6-0.3,0.7-0.2,1.3-0.6c0.5,0,0.8,0.1,0.8,0.2
							c0.2-0.1,0.7,0.1,1-0.1c-0.6-0.3-1.4-0.3-2.2-0.1C577,498.9,577.2,498.9,577.2,498.8z"/>
						<path class="st9" d="M530.5,498.3h0.3C530.7,498.3,530.5,498.3,530.5,498.3z"/>
						<path class="st9" d="M501.5,498.1c0.2,0,0.3,0,0.3-0.1C501.5,498.1,501.3,498.1,501.5,498.1z"/>
						<path class="st9" d="M496.5,497.7c0.1,0,0.2,0,0.3,0C496.7,497.7,496.5,497.7,496.5,497.7z"/>
						<path class="st9" d="M530.5,498.3l-0.8-0.1C529.5,498.3,530,498.3,530.5,498.3z"/>
						<path class="st9" d="M570.8,499.6c0.2,0,0.3,0,0.4-0.1C571,499.5,570.8,499.5,570.8,499.6L570.8,499.6z"/>
						<path class="st9" d="M543.2,498h0.2c0.1,0,0.1-0.1,0.2-0.1L543.2,498z"/>
						<path class="st9" d="M553,498c-0.2,0-0.3,0.3-0.4,0.4c0.1-0.1,0.3-0.2,0.5-0.2C553,498.1,553,498,553,498z"/>
						<path class="st9" d="M568.5,498.5h0.3C568.8,498.4,568.7,498.4,568.5,498.5z"/>
						<path class="st9" d="M536.2,498L536.2,498C536,497.9,536.2,497.9,536.2,498z"/>
						<path class="st9" d="M579,510.1C579,510.1,579.2,510.1,579,510.1C579,510.1,579,510,579,510.1z"/>
						<path class="st9" d="M580.5,498.7v0.2c0.1,0,0.1,0,0.2,0L580.5,498.7z"/>
						<path class="st9" d="M487.5,497.4L487.5,497.4C487.8,497.3,487.5,497.4,487.5,497.4z"/>
						<path class="st9" d="M454.2,527.4c-0.9-0.3,1.5-0.3,0.1-0.6C454.5,526.9,453,527.2,454.2,527.4z"/>
						<path class="st9" d="M570.5,499.6H570C570.3,499.6,570.3,499.6,570.5,499.6z"/>
						<path class="st9" d="M454.3,526.8L454.3,526.8L454.3,526.8C454.3,526.8,454.3,526.8,454.3,526.8z"/>
						<path class="st9" d="M466.5,497.5c0,0,0.1,0.1,0.2,0.1C466.8,497.6,466.8,497.6,466.5,497.5z"/>
						<path class="st9" d="M482.2,497.9h-0.4C481.8,497.9,482,497.9,482.2,497.9z"/>
						<path class="st9" d="M458.5,497.9c-0.2,0-0.3-0.1-0.6,0h0.1C458.2,497.9,458.3,497.9,458.5,497.9z"/>
						<path class="st9" d="M450,497.9c0,0,0.1,0,0.2,0.1c0.1,0,0.2,0,0.3,0L450,497.9z"/>
						<path class="st9" d="M571,525c0.2,0.1,0.3,0.2,0.4,0.3C571.3,525.1,572.5,525,571,525z"/>
						<path class="st9" d="M570.8,499.4c0,0.1-0.1,0.1-0.2,0.1C570.6,499.5,570.8,499.5,570.8,499.4
							C570.8,499.5,570.8,499.5,570.8,499.4z"/>
						<path class="st9" d="M458.2,500.2h-1.3C457.2,500.1,457.7,500.2,458.2,500.2z"/>
						<path class="st9" d="M510.8,525.1h0.3C511,525,510.8,525.1,510.8,525.1z"/>
						<path class="st9" d="M452.8,500.2c-0.2-0.1-0.5-0.2-0.8-0.2c-0.1,0-0.1,0-0.2,0.1L452.8,500.2z"/>
						<path class="st9" d="M571.3,525.3L571.3,525.3L571.3,525.3z"/>
						<path class="st9" d="M578.8,524.6c0,0,0.1,0.4,0.2,0.6c-0.1,0-0.1,0-0.2,0c-0.1,0-0.2,0-0.3,0s-0.2-0.1-0.2-0.1
							c-0.1-0.1,0-0.2-0.2-0.3c-0.9,0.1-1.7,0.4-2.4,0.4c-0.1-0.1-0.2-0.1,0-0.2c-1,0.3-3,0-4.1,0.4c-0.1,0-0.1-0.1-0.2-0.1
							c0.2,0.2,0.2,0.4,0.2,0.5c-0.6,0-1.1,0.2-1.3,0c0.3,0,0.4-0.1,0.5-0.2l-0.6,0.1c-0.5-0.3,0.8-0.1,0.8-0.4
							c-1.2,0.1-2.5,0.4-3.4,0.3c-0.2-0.3,2.1-0.1,0.9-0.4l1.4,0.1c-1.1-0.5,0.8,0-0.1-0.5c-1.8-0.1-2,0.2-3.8,0.1
							c-0.4,0.2,0.1,0.3-0.3,0.5c-2.6,0.3-2-0.9-3.9-0.4c-0.5,0.2-0.7,0.7-2,0.4l0.5-0.4c-1.8,0-1,0.6-2.8,0.3
							c0.3-0.2,1.4-0.1,1.1-0.2c-1.2-0.3-0.8,0.2-1.8,0.2l-0.2-0.3c-1.9,0.1-3.9,0.3-6,0.4c0.1-0.1,0.5-0.2,0-0.3
							c-2.6,0.2-5.6,0-8.1-0.2l-1,0.3c-0.2,0-0.4-0.1-0.2-0.2c-1-0.1-0.1,0.2-0.5,0.3c-0.6,0-0.7-0.2-0.4-0.3
							c-1.7,0.2-4.9,0.5-6.8,0.2l0.4-0.1c-1.4-0.1-1.6,0.6-2.9,0.3l0.3-0.1c-3.1-0.1-6.5,0.1-8.9-0.3c-0.4,0.4-3.1-0.2-3.3,0.4
							c-1.8-0.3-1.3-0.4-3.7-0.6c-0.7,0-1,0.4-1.8,0.4v-0.3l-1.1,0.3l-0.6-0.4l-0.8,0.1c0.3,0,0.7,0.1,0.6,0.2
							c-1.2,0.1-2.9-0.2-3-0.4L506,525c0.1-0.1,0.5-0.2,0.9-0.2c-1.5,0.3-0.3-0.3-1.7,0c0.2,0.1-0.1,0.2-0.1,0.2
							c-0.7-0.2-2.3-0.2-3.4-0.1l0.2-0.2c-2.1-0.1-4.4,0.1-6.8,0.1c0.8,0.1,0.7,0.5,0,0.5l-0.3-0.3c-0.4,0.2,0.7,0.1-0.2,0.4
							c-0.9,0-0.6-0.4-0.1-0.5l-1.1,0.1c-0.1-0.1,0.2-0.1,0.3-0.3c-0.4,0.2-1.9-0.3-2.5,0l-0.1-0.1c-2.4,0-3.4,0.1-5.4,0.1
							c0,0.3-0.8,0.2-1.4,0.4c-1.4-0.1-3-0.3-4.7-0.3c-1.2,0.1-0.4,0.2-0.9,0.4c-0.1-0.3-1.8-0.2-0.9-0.4c-2,0-2.6,0.1-5.2,0.3
							c0.3,0.1,0.6,0.2,0.4,0.2c-0.5,0-1.1-0.1-1-0.2h0.1c-2.9,0.4-6.7-0.7-9-0.2h0.1l-2.4,0.3c-1.1,0,0.7-0.2-0.2-0.4
							c-2.6,0.4-4.1-0.1-6.2,0.2c-1.7-0.8-5.9,0.1-8.1-0.4l0.1,0.2c-0.6,0.2-0.7-0.1-1.1-0.1c0.1,0.1,0.6,0.2,0.3,0.3
							c-0.5,0-0.9,0-1.4,0.1c0-0.6,0-1.3,0.1-2c0-1,0.1-2.1,0.1-3.1c0.1-2.1,0.2-4.2,0.3-6.3c0-1.8-0.9-1-0.5-3.3l0.3,0.7
							c-0.2-1.8-0.2-3.7-0.2-5.6c0-0.9,0-1.9,0-2.8c0-0.5,0-0.9,0-1.4v-0.7v-0.2v-0.1v-0.1c0.1,0.1,0.2,0,0.2,0.2
							c0.1-0.2,0.1-0.1,0.1-0.3c0-0.1,0.1-0.2,0.1-0.3c0.2,0,0.1,0.2,0.2,0.3c0.8,0.1,1.9-0.3,2.3-0.1c0.1,0-0.2,0.1-0.4,0.1
							c0.5-0.1,2.3,0,1.8-0.2c1.4,0.1,2.6-0.1,3.7,0c0.7-0.3,2.3,0.1,2.5-0.3c-0.1,0.5,2.4,0.4,3.2,0.2c-0.3,0.1,0.7,0.1,0.4,0.3
							c1,0,1.9-0.1,1.7-0.3c1.8,0.5,3.6-0.4,4.6,0.3c2.9-0.2,5.6-0.4,8.2-0.5c-0.1,0.5-2.9,0-2.8,0.5c2.5-0.2,3.9-0.6,6.4-0.5
							c0.6,0.1-0.4,0.2-0.6,0.3c2.5-0.2,4.8,0,7-0.2c0,0-0.2,0.1-0.5,0.1c0.4,0,1,0.1,1-0.1l-0.4,0.1c-0.7-0.3,1.7-0.6,1.8-0.8
							c-0.7,0.6,2.2,0.1,1,0.9c0.3,0,0.6-0.1,0.6-0.3c0.4,0,0.6,0.1,0.1,0.3c1.6-0.1,1-0.3,2.4-0.3c0,0.1-0.3,0.1-0.4,0.3
							c0.7-0.2,1.4-0.4,2.6-0.3c-0.1,0.1,0.1,0.1-0.3,0.1c2,0,3.5-0.5,5.7-0.3c-0.7,0.4,0.8,0.1,0.9,0.5l1.2-0.1l-0.5-0.2
							c1.1,0,2-0.3,2.9-0.1l-0.8,0.2l2-0.1l-1.1-0.1c1.1-0.2-0.1-0.5,1.3-0.4c-0.3,0,1.1,0,1.6,0.2l0,0c0.5-0.1,1.1-0.2,1.8-0.2
							c0.2,0.1-0.2,0.4,0,0.5c0.5-0.3,2.5-0.1,3.1-0.4c-0.2,0.1-0.2,0.3-0.2,0.3l0.4-0.3c0.5,0.1,0.6,0.1,0.5,0.3
							c1.5,0-0.5-0.5,1.3-0.3c-0.1,0-0.1,0.1-0.4,0.1c1.8,0.1,3.4-0.2,5,0c0.5,0.4-1.4,0.1-0.9,0.4c2.3-0.1,4.8-0.5,7.1-0.4h-0.4
							c0.3-0.5,1.7,0.3,2.8,0c-0.3,0-0.4,0.3-0.3,0.2c1.5,0.1,3.2-0.1,5.5-0.3l-0.3,0.1c0.9,0.1,2.4,0.1,3.4,0.1
							c0.3-0.1,0.9-0.1,0.5-0.3c3,0.8,5.8-0.4,8.5,0.2c-0.3,0-0.8,0.1-0.5,0.1l2.3-0.1c-0.2-0.2-0.3-0.1-0.8-0.3
							c0.3-0.1,0.9-0.2,1.5-0.2c-1,0.2,0,0.4,0.5,0.5c-0.1-0.1,0.1-0.1,0-0.2c1.2,0.4,0.2-0.5,1.8-0.2L546,499
							c0.6-0.1,1.2-0.2,1.8-0.2c0.3,0.3-0.7,0.1-0.7,0.3c0.9,0,1.8-0.5,2.7-0.2c-0.4,0.1-1,0.1-1.4,0.1c0.9,0.3,1,0.2,1.7,0.3H550
							l1.6,0.1l-0.4-0.1c1.2-0.7,2.4-0.1,3.9-0.6c-1.5,0.4-0.3,0.3-0.4,0.6c0.4,0.1,1,0.2,0.8,0.3c0.7-0.2,1.2,0.2,2.3-0.2
							c0,0.1,0.8,0,0.6,0.3c1-0.1-0.2-0.2-0.1-0.3c1.5-0.3,3.5,0.4,5.6-0.1c1.8-0.2,2.2-0.5,3.9-0.7c0.6,0.2-0.5,0.4-0.5,0.4
							c0.9,0.1,1.6,0.1,2.5,0c-0.2,0.1,0,0.2,0.3,0.3c0.7,0,0.5-0.4,1.4-0.2c-0.2,0.1-0.4,0.3-0.7,0.4c0.8-0.1,1.6-0.3,2.5-0.4
							c0.2,0.2-0.5,0.3-0.8,0.4c1-0.1,2.5-0.2,2.8-0.4l-0.6-0.1c0.4,0,0.2,0.2-0.1,0.3c-0.8,0.2-1.2-0.1-1.2-0.2l0.6-0.1
							c-0.6-0.6-2.4,0.1-3.7,0.1l0.5-0.4l-1.3,0.3c-0.3-0.1-0.5-0.3,0.2-0.4c-0.9-0.2-0.8,0.1-1.5-0.1c-0.1,0,0-0.1,0-0.1l-0.9,0.1
							c0.2-0.1-0.1-0.3,0.4-0.2c-1.5-0.2-2.5,0.3-3.1,0h0.1c-2.1,0.1-0.2,0.3-1.8,0.7l-1.1-0.8l-0.2,0.3c-0.2,0-0.7,0-0.6-0.2
							c-0.8,0.2,0.1,0.1-0.3,0.3c-1.1-0.3-2.9,0.1-3.2-0.4c-0.4,0.2,1,0.2-0.1,0.3c-0.3-0.5-1.3,0.1-2.3-0.2
							c0.3-0.3,1.2-0.1,0.2-0.4c-0.6,0.5-1.9-0.1-2.7,0c0,0.4-1.8,0.2-3.2,0.3c0.1-0.1-2.6-0.2-3.9-0.3v-0.1
							c-0.2,0.4-1.6,0.3-2.5,0.4c0-0.2,0.2-0.3,0.7-0.4h-0.9c-0.2,0.1-0.5,0.2-1.1,0.2l0.2-0.3c-1.2,0-2.4,0.3-4,0.1
							c-0.1,0.3,1.2,0.7-0.4,0.9c-0.1-0.1-0.1-0.4,0.3-0.4c-0.1,0-0.5,0.1-0.8,0.1l0.7-0.2c-0.7-0.1-0.4,0.2-0.9,0.2
							c0-0.2-0.4-0.1-0.3-0.3c0.1,0,0.5,0.1,0.7,0c-0.6,0-1.4-0.2-1.7-0.3c0.1,0.1,0,0.3-0.5,0.3c-1.2,0-0.4-0.2-1.1-0.3
							c-0.3,0.1-1.1,0-1.1,0.3c-0.4,0-0.4-0.1-0.6-0.2c-0.6,0.1-2.9,0-2.2,0.4h0.2h-0.1l0,0l0,0c-2,0.3-4.2-0.2-6.2,0v-0.1
							c-1.2,0.1-2.7,0.1-3.5,0.3c-0.4,0-0.8-0.2-0.7-0.3c-0.9,0.1-1,0.2-2.4,0c0.9-0.2-0.3-0.2,0.9-0.1c-1.2-0.1-1.5-0.2-2.8,0
							c0.4-0.3-0.9-0.3-1.5-0.2l0.8,0.2c-0.6,0-1.2,0-1.8,0l0.3-0.3c-2.5-0.4-4.4,0.7-6.3,0c-0.6,0.2,1.3,0.2,0.8,0.4
							c-1.1,0-2.3-0.5-2.7-0.5c-1.5-0.2-1.4,0.5-3.1,0.4c0.2,0.1,0.4,0.4-0.8,0.5c-1.1,0-1.4-0.5-0.7-0.6c0.3,0,0.4,0,0.4,0.1
							c0.4,0,0.8-0.1,0.4-0.2l-0.1,0.1c-0.6-0.1-2.1-0.1-1.7-0.3c-0.9,0.1-0.4,0.2,0.3,0.3c-1.4-0.2-2.3,0-3.7-0.1
							c0.2,0.1,0.5,0.2,0.2,0.2c-2.2-0.1-1,0.2-2.4,0.3c-0.8-0.2,0.3-0.4-1.2-0.3c-0.9-0.1-0.2-0.3,0.2-0.4
							c-1.4,0.2-2.5-0.2-3.3-0.2l0.7-0.1c-0.4,0.1-0.8,0.1-1.1,0.1l0.4,0.2c-0.4,0-0.8,0-0.8-0.1c-0.4,0.2,0.3,0.4-0.5,0.6
							c-0.6-0.1-1.7,0.1-1.9-0.2c1.8,0.1-0.2-0.3,1.3-0.4c-0.3,0-0.6,0-1.1,0c-0.1,0,0.1-0.1,0.2-0.1c-1.7-0.3-0.8,0.4-2.5,0.3
							c0.2-0.2-0.4-0.3-0.7-0.3c0.7,0,0.3,0.3-0.3,0.4c-1.1-0.1-1.2,0.1-1.8,0.1l0.7,0.1c-0.2,0.2-0.8,0.2-1.6,0.2
							c-0.1-0.1,0.7-0.1,0.4-0.2c-0.9,0.3-2-0.3-3.2-0.1c-0.6-0.1-0.1-0.3-0.5-0.4c-1.4,0.2-1.5-0.2-2.9-0.1
							c0.4,0.2,0.5,0.2-0.5,0.4l2.3-0.2l-1.5,0.3c0.7,0,1.5-0.1,1.9-0.1c-0.7,0.2-0.6,0.1-0.3,0.3c-1-0.4-1.9,0.2-3,0v-0.6
							c-1.7-0.3-3,0.3-5.2,0.2l0.7,0.1c-0.3,0.2-1.3,0-2.1,0.1c0.1-0.2-0.4-0.3-0.7-0.4c0,0.1-1.6,0-1.8,0.4l-1-0.3
							c-1.8-0.1-2,0.6-3.7,0.5c0.5-0.2-0.3-0.4,0.9-0.5c-0.6,0-1.1,0-1.1,0.1c-0.3-0.1-1.6,0.3-2.1,0.1c-0.2,0.1-0.3,0.3-1,0.3
							c-0.1,0,0-0.1,0-0.1c0,0.1-1,0.1-0.4,0.4c-1.7-0.6-4.9,0-6.4-0.5c-1.2,0.1-2.7,0.1-3.8,0.1c0.1-0.1,0-0.1,0.2-0.1
							c-0.8-0.1-1,0-1.3,0.2c-0.3,0.1-0.5,0.3-1.6,0.2c-1.3-0.3,1.2-0.2,0.4-0.3c-0.2-0.3-1.1-0.3-2.1-0.2c0,0.5,0.1,1.1,0.1,1.6
							c0,0.3,0,0.5,0,0.7c0,0.3,0,0.3-0.1,0.5v-0.3c-0.2,0.9,0.2,2.2,0.2,3.7c0,0-0.1-0.1-0.1,0c0.3,1,0.4,2.9,0.5,4.3
							c-0.3-0.4-0.1-0.6-0.4-0.4c0,0.6,0.4-0.2,0.5,1.1c-0.1,0.4-0.3,1.3-0.5,1.5v-1.2c-0.4,0.6,0,1.6,0,2.2l-0.2-0.1
							c0.1,1.8,0.4,1.9,0.4,3.8l0.1-0.2c0.4,1.1-0.2,0.9,0.1,2l-0.4,0.3c0.1,0.7,0.4,2.5,0.5,3.8c-0.3-0.7-0.4-2.2-0.6-3.1
							c0,0.7,0,2.4,0.2,2.8c0-0.3-0.1-0.6-0.1-0.9c0.3,0.9,0.5,2,0.5,3.4c-0.3-0.1-0.4,0.3-0.4,0.8c0,0.1,0,0.3,0,0.5
							c0,0.2,0,0.5,0,0.7c0,0.5,0,1.1,0,1.6c0.5,0,1.1,0,1.5,0.1c0.4,0,1,0.1,1.1,0.2c2.5-0.3,4.9,0.1,7.8,0.1c-1-0.6,0.8,0,0.7-0.6
							c0.7,0,0.9,0,1,0l2,0.4c0.5,0.2-0.6,0.1-0.6,0.3c1.5,0,0.6,0.3,1.6,0.4c-0.2-0.2,0.5-0.3,1.4-0.2l-1.2-0.3
							c2.1-0.3,1.8,0.5,3.9,0.2l-0.7,0.2c1.1-0.1,3.9,0,5-0.5c0.2,0.1,0.4,0.2,0,0.3c2.6,0.1,5.7-0.5,7.7-0.2l-0.2,0.1
							c0.5,0,0.8-0.3,1.4-0.1c0,0.1-0.2,0.1,0,0.2c0.3-0.1,1.3-0.3,1.9-0.2l-0.5,0.2c2.5,0.2,3.8-0.4,5.9-0.5c0,0.4,2,0.6,2.9,0.7
							v0.1c2.9,0.1,4.9-0.4,7.6-0.5c1.7,0.5,5.6,0.2,8.3,0.5c-0.4-0.1,0.1-0.3,0.5-0.4c0.6,0.1,1.7-0.3,1.6,0.1h-0.2
							c0.5,0.4,1.8,0.3,2.8,0.3l0.2-0.5c2.6,0.8,6.9-0.3,8.4,0.4c0.6-0.1,1.4-0.1,2.1-0.3v0.3c1.8,0.1,2.6,0.1,4.8,0l-0.4,0.2
							c1.2,0,1.6-0.8,2.7-0.8l0.3,0.4c2.1,0,4.3,0.4,6.4,0c0,0.1-0.1,0.2-0.4,0.2c1,0,3.9,0.3,3.5-0.3c0,0.4,2.2,0,3.4-0.1l-0.2,0.3
							c1-0.4,1-0.5,2.4-0.6c0.3,0,0.3,0.2-0.1,0.2c1.1,0.1,0.8-0.3,2.1-0.1l-0.5,0.2c1.1,0,1-0.1,1.6-0.3c0.7-0.1,2.1,0.1,2.3,0.3
							c0.1-0.2,0.8-0.4,1.4-0.3c0.1,0.1-0.1,0.2-0.3,0.2c1.9,0.2,2.8-0.3,4-0.1c0,0.1,0.1,0.1,0.2,0.2c-1.5,0-2.7,0-2.6,0
							c0,0.3,1.2,0.3,0.2,0.7c1-0.2,2.6-0.6,3.8-0.5c0.1,0,0.1,0,0.2,0.1h-0.1c0.3,0,0.5,0,0.7,0c0.4,0,0.6,0.1,1,0.1
							c0.1,0.2,1.4,0.1,2,0.1c0-0.3,0.7-0.2,0-0.5c0.1,0-0.1,0-0.5,0c-0.1,0-0.2,0-0.3,0l0,0c-0.4,0-0.9,0-1.5,0
							c0.5-0.1,1-0.3,1.6-0.1c0.3-0.2,0.6-0.4,0.8-0.5c0.8,0.4,2.4,0.6,2.6,0.8c1.8-0.2,4.3-0.1,5.4-0.6c0.5-0.1,0.6,0.2,0.8,0.2
							c-0.3,0.1-0.7,0-0.8,0.1c1-0.1,3.1-0.1,3.3-0.4c1.3,0.2-0.7,0.3,1.1,0.3l-0.2,0.1c3.5,0.6,5.7-0.9,9.6-0.2
							c-0.3,0-0.4-0.1-0.5-0.1c0.7,0.1,1.5,0.1,2.2,0.1h1.3h1.5c0-1.7-0.1-3.5-0.1-5.2c0-1.5,0-3,0.2-4.5c0.1-1.2-0.1-1.4-0.3-2.1
							l0.3-0.3l-0.3-1.3c-0.3-1.8,0.7-3.2,0.3-5.5l-0.2,0.3c0-0.8-0.1-2.7,0.1-2.5c0-0.1-0.2-0.3-0.1-0.6h0.2l-0.3-2.1
							c0.1-1.6,0.6,0.2,0.7-2.1c-0.1-0.9-0.5-2.5-0.6-2.1c0,0.3-0.1,0.9-0.3,0.9l-0.1-0.8c-0.5-0.1-0.9-0.8-1.3,1.2l0.3,1.4
							l-0.2,0.4v-1.1c-0.2,0.6,0,1.1,0.1,1.5c-0.1,0.1-0.2,0.3-0.2,0.6l0.4,1.3c-0.2,0.2-0.4-0.6-0.5,0.3c0.2,0.6,0.4-0.6,0.5,0.4
							c-0.2,0.6-0.4,0.5-0.2,1.2c-0.1,0.1-0.2-0.1-0.2-0.4c0.1,0.7,0.1,1.8,0.3,2.1c-0.3,0.7,0.1,2.3-0.4,2.2
							c0.1,0.2,0.3,1.2,0.4,1.8c-0.5-1.1,0,2.3-0.6,2c0.5,0.8,0.2,3,0.5,4.5c0-0.1-0.1-0.2-0.1-0.4c0,0.8-0.2,1.1-0.3,1.6
							c0.4,0.1,0.5,1.4,0.7,2.1c-0.4,1-0.5-0.6-0.8-0.3c0.3-0.1,0.3,1.8,0.6,1.4c-0.2,0.8-0.1,0.7-0.4,1.1c0.2,0.1,0.3,0.3,0.3,0.5
							c0,0.2,0,0.2,0.1,0.4c-0.1,0.2-0.3,0-0.3,0c-0.1,0-0.1,0-0.1,0c-0.1-0.1-0.1-0.2-0.1-0.2C578.8,524.7,578.8,524.6,578.8,524.6
							z M550.5,525.5L550.5,525.5c0.3,0,0.5,0,0.6,0C551,525.5,550.8,525.5,550.5,525.5z M548,525.5c0.3,0,0.7,0,1.1,0
							c0.1,0.1,0,0.2-0.3,0.2C549,525.6,548.3,525.6,548,525.5z M553.3,527.4c-0.4,0-0.5,0-0.6-0.1c0.2,0,0.4,0,0.7,0l0,0
							C553.3,527.3,553.3,527.4,553.3,527.4z"/>
						<path class="st9" d="M554,527.1c0.1,0,0.1,0,0.2,0C554,527,554,527,554,527.1c-0.1-0.1-0.2,0-0.2,0
							C553.8,527.1,553.8,527.1,554,527.1z"/>
						<path class="st9" d="M530.8,498.3L530.8,498.3L530.8,498.3L530.8,498.3z"/>
						<polygon class="st9" points="513.5,524.9 513.5,525 513.8,525 						"/>
						<path class="st9" d="M544.5,499.3c0,0,0.1,0.1,0.2,0.1C544.7,499.3,544.7,499.3,544.5,499.3z"/>
						<path class="st9" d="M550.5,499.4l0.8,0.1C551,499.4,550.7,499.4,550.5,499.4z"/>
						<path class="st9" d="M555,499.5C555.1,499.5,555.1,499.4,555,499.5L555,499.5L555,499.5z"/>
						<path class="st9" d="M482.5,499.8c-0.1,0-0.1,0-0.2,0C481.8,499.9,482.2,499.9,482.5,499.8z"/>
						<path class="st9" d="M504,499.2c-0.2,0.1-0.5,0.1-0.7,0.1C503.8,499.3,504,499.3,504,499.2z"/>
						<path class="st9" d="M458.3,500.2L458.3,500.2L458.3,500.2L458.3,500.2z"/>
						<path class="st9" d="M502.3,499.3c0.4,0.1,0.7,0,1,0C503,499.3,502.7,499.3,502.3,499.3z"/>
						<path class="st9" d="M574.8,499.6h0.2l0,0H574.8z"/>
						<path class="st9" d="M575,499.6h0.2C575.2,499.6,575,499.6,575,499.6z"/>
						<path class="st9" d="M575.8,499.5l-0.5,0.1C575.5,499.6,575.7,499.6,575.8,499.5z"/>
						<path class="st9" d="M568.8,499.5L568.8,499.5C568.8,499.6,568.8,499.5,568.8,499.5z"/>
						<path class="st9" d="M567,499.5c0.4,0,1.1,0.2,1.7,0.2l0.1-0.1C568.3,499.7,567.3,499.3,567,499.5z"/>
						<path class="st9" d="M559.3,498.3l1.5,0.1c-0.3-0.1-0.6-0.3,0.1-0.3C559,497.7,561.3,498.3,559.3,498.3z"/>
						<path class="st9" d="M554.5,498.1c0.8-0.1,0-0.2,0-0.2C554,498,553.8,498,554.5,498.1z"/>
						<path class="st9" d="M520,498.1l0.1-0.3C519.5,497.9,520,497.9,520,498.1z"/>
						<polygon class="st9" points="513.5,499.4 514,499.6 514.3,499.3 						"/>
						<polygon class="st9" points="509.5,497.6 509.8,497.6 508.8,497.7 						"/>
						<path class="st9" d="M451.5,497.7l0.2,0.3C452.3,498,452.3,497.6,451.5,497.7z"/>
						<path class="st9" d="M442.3,515.1c-0.2,0.3-0.3,1-0.1,1.4C442.2,516,442.3,515.4,442.3,515.1z"/>
						<polygon class="st9" points="506.8,527.5 506.3,527.6 507.3,527.5 						"/>
					</g>
				</g>
			</g>
		</g>
	</g>
</g>
</svg>
