<?xml version="1.0" encoding="utf-8"?>
<!-- Generator: Adobe Illustrator 21.0.0, SVG Export Plug-In . SVG Version: 6.00 Build 0)  -->
<svg version="1.1" xmlns="http://www.w3.org/2000/svg" xmlns:xlink="http://www.w3.org/1999/xlink" x="0px" y="0px"
	 viewBox="0 0 1024 1024" style="enable-background:new 0 0 1024 1024;" xml:space="preserve">
<style type="text/css">
	.st0{display:none;}
	.st1{display:inline;}
	.st2{fill:#969696;}
	.st3{fill:#0C658E;}
	.st4{display:inline;opacity:0.6;fill:#7AB4E2;}
	.st5{fill:#FFFFFF;}
	.st6{opacity:0.6;fill:#7AB4E2;}
	.st7{display:inline;opacity:0.77;fill:#ECC774;}
	.st8{opacity:0.77;fill:#ECC774;}
</style>
<g id="Layer_1" class="st0">
	<g class="st1">
		<path class="st2" d="M911,40c19.4,0,37.7,7.6,51.5,21.5C976.4,75.3,984,93.6,984,113v798c0,19.4-7.6,37.7-21.5,51.5
			C948.7,976.4,930.4,984,911,984H113c-19.4,0-37.7-7.6-51.5-21.5C47.6,948.7,40,930.4,40,911V113c0-19.4,7.6-37.7,21.5-51.5
			S93.6,40,113,40H911 M911,0H113C50.9,0,0,50.9,0,113v798c0,62.2,50.9,113,113,113h798c62.2,0,113-50.9,113-113V113
			C1024,50.9,973.1,0,911,0L911,0z"/>
	</g>
	<g class="st1">
		<polygon class="st3" points="482.9,256.2 493.1,320.7 552,348.8 493.9,378.5 485.3,443.2 439.1,397 374.9,408.9 404.6,350.7 
			373.4,293.3 437.9,303.5 		"/>
	</g>
	<g class="st1">
		<polygon class="st3" points="720.3,397.8 706.3,481 766.9,539.7 683.4,552.2 646.3,628 608.7,552.4 525.1,540.5 585.4,481.4 
			570.8,398.3 645.7,437.3 		"/>
	</g>
	<g class="st1">
		<polygon class="st3" points="531.3,631.5 437.4,673.7 418.9,774.9 349.8,698.6 247.8,712.3 299,623 254.5,530.2 355.2,551.3 
			429.7,480.3 440.7,582.6 		"/>
	</g>
</g>
<g id="global" class="st0">
	<path class="st4" d="M1012,1023.7H12.3c-6.6,0-12-5.4-12-12V12c0-6.6,5.4-12,12-12H1012c6.6,0,12,5.4,12,12v999.7
		C1024,1018.3,1018.6,1023.7,1012,1023.7z"/>
	<g class="st1">
		<polygon class="st5" points="247,421.7 247,626 154.4,626 154.4,275.2 273.9,275.2 383.4,436.9 383.4,275.2 484.4,275.2 
			484.4,465.5 380,605.2 		"/>
		<rect x="777.3" y="275.3" class="st5" width="92.6" height="350.7"/>
		<polygon class="st5" points="639.4,626 746.2,626 746.2,164.8 401.1,625.9 510.6,625.9 655.3,433 655.3,538.4 581.2,539 		"/>
	</g>
	<g class="st1">
		<path class="st5" d="M348.3,732.5c-2-8.7-6.9-14.8-14.8-18.2c-4.4-1.9-9.2-2.9-14.6-2.9c-10.3,0-18.7,3.9-25.3,11.6
			s-9.9,19.4-9.9,34.9c0,15.6,3.6,26.7,10.7,33.2c7.1,6.5,15.3,9.7,24.4,9.7c8.9,0,16.2-2.6,21.9-7.7c5.7-5.1,9.2-11.8,10.5-20.1
			h-29.5v-21.3h53v68.3h-17.6l-2.7-15.9c-5.1,6-9.7,10.3-13.8,12.7c-7,4.3-15.7,6.5-25.9,6.5c-16.9,0-30.7-5.8-41.5-17.5
			c-11.2-11.7-16.8-27.8-16.8-48.2c0-20.6,5.7-37.1,17-49.6s26.4-18.6,45-18.6c16.2,0,29.2,4.1,39,12.3s15.5,18.4,16.9,30.7H348.3z"
			/>
		<path class="st5" d="M419.6,820.1H395V692.8h24.6V820.1z"/>
		<path class="st5" d="M518.2,808.6c-7.9,9.8-20,14.7-36.2,14.7c-16.2,0-28.3-4.9-36.2-14.7c-7.9-9.8-11.9-21.6-11.9-35.4
			c0-13.6,4-25.3,11.9-35.3c7.9-9.9,20-14.9,36.2-14.9c16.2,0,28.3,5,36.2,14.9c7.9,10,11.9,21.7,11.9,35.3
			C530.2,787,526.2,798.8,518.2,808.6z M498.5,795c3.9-5.1,5.8-12.4,5.8-21.8c0-9.4-1.9-16.7-5.8-21.8c-3.9-5.1-9.4-7.6-16.6-7.6
			c-7.2,0-12.7,2.5-16.6,7.6c-3.9,5.1-5.8,12.4-5.8,21.8c0,9.4,1.9,16.7,5.8,21.8c3.9,5.1,9.4,7.7,16.6,7.7
			C489.2,802.7,494.7,800.1,498.5,795z"/>
		<path class="st5" d="M624.3,737.3c7,8.9,10.6,20.4,10.6,34.6c0,14.6-3.5,26.8-10.4,36.4c-6.9,9.6-16.6,14.4-29.1,14.4
			c-7.8,0-14.1-1.6-18.8-4.7c-2.8-1.8-5.9-5.1-9.2-9.7v11.8H543V693h24.6v45.3c3.1-4.4,6.6-7.7,10.3-10c4.5-2.9,10.1-4.3,17-4.3
			C607.5,723.9,617.3,728.4,624.3,737.3z M603.7,794.7c3.5-5.1,5.3-11.9,5.3-20.2c0-6.7-0.9-12.2-2.6-16.6
			c-3.3-8.3-9.4-12.4-18.3-12.4c-9,0-15.2,4.1-18.6,12.2c-1.7,4.3-2.6,9.9-2.6,16.8c0,8.1,1.8,14.7,5.4,20s9.1,7.9,16.5,7.9
			C595.2,802.3,600.2,799.8,603.7,794.7z"/>
		<path class="st5" d="M685.4,762.9c4.6-0.6,7.9-1.3,9.8-2.2c3.5-1.5,5.3-3.8,5.3-7c0-3.9-1.4-6.5-4.1-8c-2.7-1.5-6.7-2.2-12-2.2
			c-5.9,0-10.1,1.4-12.5,4.3c-1.8,2.1-2.9,5-3.5,8.6h-23.8c0.5-8.2,2.8-15,6.9-20.3c6.5-8.3,17.8-12.4,33.7-12.4
			c10.4,0,19.6,2,27.6,6.1S725,741.7,725,753v43.2c0,3,0.1,6.6,0.2,10.9c0.2,3.2,0.7,5.4,1.5,6.6c0.8,1.2,2,2.1,3.6,2.9v3.6h-26.8
			c-0.7-1.9-1.3-3.7-1.6-5.4s-0.5-3.6-0.7-5.7c-3.4,3.7-7.4,6.8-11.8,9.4c-5.3,3.1-11.4,4.6-18.1,4.6c-8.6,0-15.7-2.4-21.2-7.3
			c-5.6-4.9-8.4-11.8-8.4-20.7c0-11.6,4.5-20,13.5-25.1c4.9-2.8,12.2-4.8,21.8-6L685.4,762.9z M700.4,774.4c-1.6,1-3.2,1.8-4.8,2.4
			c-1.6,0.6-3.8,1.2-6.6,1.7l-5.6,1c-5.3,0.9-9,2-11.3,3.4c-3.9,2.2-5.8,5.7-5.8,10.5c0,4.2,1.2,7.2,3.6,9.1
			c2.4,1.9,5.2,2.8,8.6,2.8c5.4,0,10.3-1.6,14.9-4.7c4.5-3.1,6.9-8.8,7.1-17V774.4z"/>
		<path class="st5" d="M767.7,820.1h-24.6V692.8h24.6V820.1z"/>
	</g>
</g>
<g id="carolantic" class="st0">
	<g class="st1">
		<path class="st6" d="M1012,1024H12c-6.6,0-12-5.4-12-12V12C0,5.4,5.4,0,12,0h1000c6.6,0,12,5.4,12,12v1000
			C1024,1018.6,1018.6,1024,1012,1024z"/>
		<g>
			<g>
				<polygon class="st5" points="245.2,403.7 245.2,608.1 152.6,608.1 152.6,257.2 272.1,257.2 381.6,418.9 381.6,257.2 
					482.6,257.2 482.6,447.6 378.2,587.3 				"/>
				<rect x="775.6" y="257.3" class="st5" width="92.6" height="350.8"/>
				<polygon class="st5" points="637.7,608.1 744.5,608.1 744.5,146.7 399.3,608 508.8,608 653.6,415 653.6,520.5 579.5,521.1 				
					"/>
			</g>
			<g>
				<path class="st5" d="M213.5,719.5c-1.7-12.3-13.5-21.7-27-21.7c-24.4,0-33.6,20.8-33.6,42.4c0,20.6,9.2,41.4,33.6,41.4
					c16.6,0,26-11.4,28.1-27.7h26.3c-2.8,30.8-24.1,50.6-54.4,50.6c-38.3,0-60.8-28.6-60.8-64.3c0-36.7,22.5-65.3,60.8-65.3
					c27.2,0,50.1,15.9,53.4,44.5H213.5z"/>
				<path class="st5" d="M245.4,739.6c1.4-23,22-30,42.1-30c17.8,0,39.3,4,39.3,25.5v46.6c0,8.1,0.9,16.3,3.1,19.9H305
					c-0.9-2.8-1.6-5.7-1.7-8.7C295.4,801,284,804,273.1,804c-17,0-30.5-8.5-30.5-26.8c0-20.3,15.2-25.1,30.5-27.2
					c15.1-2.3,29.1-1.7,29.1-11.8c0-10.6-7.3-12.1-15.9-12.1c-9.4,0-15.4,3.8-16.3,13.5H245.4z M302.2,757.7
					c-4.2,3.6-12.8,3.8-20.4,5.2c-7.6,1.6-14.6,4.2-14.6,13.2c0,9.2,7.1,11.4,15.1,11.4c19.2,0,19.9-15.2,19.9-20.6V757.7z"/>
				<path class="st5" d="M338.9,712h23.4v16.6h0.3c4.5-11.3,16.6-19.1,28.6-19.1c1.7,0,3.8,0.3,5.4,0.9v22.9
					c-2.3-0.5-5.9-0.9-8.8-0.9c-18,0-24.3,13-24.3,28.8v40.4h-24.6V712z"/>
				<path class="st5" d="M439.7,709.6c28.2,0,46.4,18.7,46.4,47.3c0,28.4-18.2,47.1-46.4,47.1c-28.1,0-46.3-18.7-46.3-47.1
					C393.5,728.3,411.7,709.6,439.7,709.6z M439.7,785.5c16.8,0,21.8-14.4,21.8-28.6c0-14.4-5-28.8-21.8-28.8
					c-16.6,0-21.7,14.4-21.7,28.8C418.1,771.1,423.1,785.5,439.7,785.5z"/>
				<path class="st5" d="M492.4,677.9H517v123.7h-24.6V677.9z"/>
				<path class="st5" d="M528.4,739.6c1.4-23,22-30,42.1-30c17.8,0,39.3,4,39.3,25.5v46.6c0,8.1,0.9,16.3,3.1,19.9H588
					c-0.9-2.8-1.6-5.7-1.7-8.7c-7.8,8.1-19.2,11.1-30.1,11.1c-17,0-30.5-8.5-30.5-26.8c0-20.3,15.2-25.1,30.5-27.2
					c15.1-2.3,29.1-1.7,29.1-11.8c0-10.6-7.3-12.1-15.9-12.1c-9.4,0-15.4,3.8-16.3,13.5H528.4z M585.2,757.7
					c-4.2,3.6-12.8,3.8-20.4,5.2c-7.6,1.6-14.6,4.2-14.6,13.2c0,9.2,7.1,11.4,15.1,11.4c19.2,0,19.9-15.2,19.9-20.6V757.7z"/>
				<path class="st5" d="M622,712h23.4v12.5h0.5c6.2-10,17-14.9,27.4-14.9c26.2,0,32.7,14.7,32.7,36.9v55.1h-24.6V751
					c0-14.7-4.3-22-15.8-22c-13.3,0-19.1,7.4-19.1,25.6v46.9H622V712z"/>
				<path class="st5" d="M748.9,712h18v16.5h-18v44.3c0,8.3,2.1,10.4,10.4,10.4c2.6,0,5-0.2,7.6-0.7v19.2c-4.2,0.7-9.5,0.9-14.4,0.9
					c-15.1,0-28.2-3.5-28.2-21.3v-52.8h-14.9V712h14.9v-26.8h24.6V712z"/>
				<path class="st5" d="M797.1,698.2h-24.6v-20.3h24.6V698.2z M772.5,712h24.6v89.6h-24.6V712z"/>
				<path class="st5" d="M870.5,743.5c-1.6-10-8-15.4-18.2-15.4c-15.8,0-21,15.9-21,29.1c0,12.8,5,28.2,20.4,28.2
					c11.4,0,18-7.3,19.6-18.2h23.7C892,791,875.6,804,852,804c-27,0-45.2-19.1-45.2-45.9c0-27.9,16.6-48.5,45.7-48.5
					c21.1,0,40.5,11.1,42.1,34H870.5z"/>
			</g>
		</g>
	</g>
</g>
<g id="hotel" class="st0">
	<path class="st7" d="M1012,1024H12c-6.6,0-12-5.4-12-12V12C0,5.4,5.4,0,12,0h1000c6.6,0,12,5.4,12,12v1000
		C1024,1018.6,1018.6,1024,1012,1024z"/>
	<g class="st1">
		<path class="st5" d="M739.3,800.2V330.7h14.7v-81.4H291v81.4h14.7v469.5h-27.4V851h488.5v-50.7H739.3z M437,768.8h-77v-77h77
			V768.8z M437,657.3h-77v-77h77V657.3z M437,545.8h-77v-77h77V545.8z M437,434.3h-77v-77h77V434.3z M560.9,800.2h-77V691.8h77
			V800.2z M560.9,657.3h-77v-77h77V657.3z M560.9,545.8h-77v-77h77V545.8z M560.9,434.3h-77v-77h77V434.3z M684.9,768.8h-77v-77h77
			V768.8z M684.9,657.3h-77v-77h77V657.3z M684.9,545.8h-77v-77h77V545.8z M684.9,434.3h-77v-77h77V434.3z M684.9,434.3"/>
		<path class="st5" d="M372.7,233.4l34.5-18.1l34.5,18.1l-6.6-38.4l27.9-27.2l-38.6-5.6l-17.3-35l-17.3,35l-38.6,5.6l27.9,27.2
			L372.7,233.4z M372.7,233.4"/>
		<path class="st5" d="M487.9,233.4l34.5-18.1l34.5,18.1l-6.6-38.4l27.9-27.2l-38.6-5.6l-17.3-35l-17.3,35l-38.6,5.6l27.9,27.2
			L487.9,233.4z M487.9,233.4"/>
		<path class="st5" d="M603.2,233.4l34.5-18.1l34.5,18.1l-6.6-38.4l27.9-27.2l-38.6-5.6l-17.3-35l-17.3,35l-38.6,5.6l27.9,27.2
			L603.2,233.4z M603.2,233.4"/>
	</g>
</g>
<g id="residential" class="st0">
	<g class="st1">
		<path class="st8" d="M1012,1024H12c-6.6,0-12-5.4-12-12V12C0,5.4,5.4,0,12,0h1000c6.6,0,12,5.4,12,12v1000
			C1024,1018.6,1018.6,1024,1012,1024z"/>
		<g>
			<path class="st5" d="M510.4,313.8L236.7,539.5c0,0.3-0.1,0.8-0.2,1.4c-0.1,0.6-0.2,1.1-0.2,1.4v228.5c0,8.2,3,15.4,9,21.4
				c6,6,13.2,9.1,21.4,9.1h182.8V618.4h121.9v182.8h182.8c8.2,0,15.4-3,21.4-9c6-6,9.1-13.2,9.1-21.4V542.3c0-1.3-0.2-2.2-0.5-2.8
				L510.4,313.8z M510.4,313.8"/>
			<path class="st5" d="M888.8,488l-104.2-86.6V207.2c0-4.4-1.4-8.1-4.3-11c-2.9-2.8-6.5-4.3-11-4.3h-91.4c-4.4,0-8.1,1.4-11,4.3
				c-2.8,2.9-4.3,6.5-4.3,11V300l-116.1-97.1c-10.2-8.2-22.2-12.4-36.2-12.4c-14,0-26,4.1-36.2,12.4L131.9,488
				c-3.2,2.5-4.9,5.9-5.2,10.2c-0.3,4.3,0.8,8,3.3,11.2l29.5,35.2c2.5,2.9,5.9,4.6,10,5.3c3.8,0.3,7.6-0.8,11.4-3.3l329.4-274.7
				l329.4,274.7c2.5,2.2,5.9,3.3,10,3.3h1.5c4.1-0.6,7.4-2.4,10-5.3l29.5-35.2c2.5-3.2,3.7-6.9,3.3-11.2
				C893.7,494,892,490.6,888.8,488L888.8,488z M888.8,488"/>
		</g>
	</g>
</g>
<g id="Layer_6">
	<g>
		<path class="st8" d="M1012,1024H12c-6.6,0-12-5.4-12-12V12C0,5.4,5.4,0,12,0h1000c6.6,0,12,5.4,12,12v1000
			C1024,1018.6,1018.6,1024,1012,1024z"/>
		<g>
			<path class="st5" d="M746.5,620.1c-10.6,12.5-19.4,27.3-25.3,44.1H311.1c-6.4-16.7-15.6-31.5-26.8-44.1h-39.7
				c-16.9,0-33.7-4.8-48.2-13.7h-13.1v42.3c0,18.7,12.2,38.9,22.1,47.5c7.8,6.8,24.5,13.6,39.2,13.6h543.6
				c33.6,0,61.3-27.5,61.3-61.1v-52.1c-16.2,14.6-37.7,23.5-61.3,23.5H746.5z M746.5,620.1"/>
			<path class="st5" d="M788.2,223.9H244.6c-33.7,0-61.3,26.7-61.3,60.4v244.1c0,18.7,12.2,38.9,22.1,47.6
				c7.8,6.8,24.5,13.6,39.2,13.6h543.6c33.6,0,61.3-27.6,61.3-61.2V284.3C849.5,250.6,821.8,223.9,788.2,223.9L788.2,223.9z
				 M803.9,459.9c-35.8,12.8-67.9,42.3-82.7,84.2H311.1c-15.3-40.3-47.9-69.9-82.1-83.3V352.4c35-12.9,66.7-41.9,81.9-83.6h410.7
				c14.8,44,45.8,72,82.4,84.4V459.9z M803.9,459.9"/>
			<path class="st5" d="M515.9,298.5c-59.7,0-108.1,48.4-108.1,108.1c0,59.7,48.4,108,108.1,108c59.7,0,108-48.3,108-108
				C623.9,346.8,575.6,298.5,515.9,298.5L515.9,298.5z M524.7,468.4v20.1h-18.9v-18.8c-13.7-0.6-26.6-4.2-34.1-8.6l5.9-23.3
				c8.3,4.5,20.1,8.8,33.1,8.8c11.4,0,19.1-4.5,19.1-12.4c0-7.6-6.4-12.4-21.1-17.4c-21.4-7.2-35.9-17.2-35.9-36.5
				c0-17.5,12.5-31.3,33.8-35.6v-18.9h19.8v17.6c12.9,0.6,22.2,3.4,28.8,6.6l-5.9,22.5c-5.2-2.2-14.4-6.8-28.8-6.8
				c-13,0-17.2,5.6-17.2,11.2c0,6.6,6.9,10.8,23.9,17.2c23.7,8.4,33.2,19.4,33.2,37.3C560.4,449.3,547.6,464.4,524.7,468.4
				L524.7,468.4z M524.7,468.4"/>
			<path class="st5" d="M746.5,740.3c-10.6,12.5-19.4,27.3-25.3,44H311.1c-6.4-16.7-15.6-31.5-26.8-44h-39.7
				c-16.9,0-33.7-4.8-48.2-13.7h-13.1v42.3c0,18.7,12.2,38.9,22.1,47.4c7.8,6.8,24.5,13.7,39.2,13.7h543.6
				c33.6,0,61.3-27.5,61.3-61.1v-52.2c-16.2,14.6-37.7,23.6-61.3,23.6H746.5z M746.5,740.3"/>
		</g>
	</g>
</g>
</svg>
